<?xml version="1.0" encoding="utf-8" standalone="no"?>
<!DOCTYPE svg PUBLIC "-//W3C//DTD SVG 1.1//EN"
  "http://www.w3.org/Graphics/SVG/1.1/DTD/svg11.dtd">
<svg height="183.206723pt" version="1.1" viewBox="0 0 349.2 183.206723" width="349.2pt" xmlns="http://www.w3.org/2000/svg" xmlns:xlink="http://www.w3.org/1999/xlink">
 <metadata>
  <rdf:RDF xmlns:cc="http://creativecommons.org/ns#" xmlns:dc="http://purl.org/dc/elements/1.1/" xmlns:rdf="http://www.w3.org/1999/02/22-rdf-syntax-ns#">
   <cc:Work>
    <dc:type rdf:resource="http://purl.org/dc/dcmitype/StillImage"/>
    <dc:date>2021-08-29T16:58:16.257772</dc:date>
    <dc:format>image/svg+xml</dc:format>
    <dc:creator>
     <cc:Agent>
      <dc:title>Matplotlib v3.4.3, https://matplotlib.org/</dc:title>
     </cc:Agent>
    </dc:creator>
   </cc:Work>
  </rdf:RDF>
 </metadata>
 <defs>
  <style type="text/css">*{stroke-linecap:butt;stroke-linejoin:round;}</style>
 </defs>
 <g id="figure_1">
  <g id="patch_1">
   <path d="M 0 183.206723 
L 349.2 183.206723 
L 349.2 0 
L 0 0 
z
" style="fill:#ffffff;"/>
  </g>
  <g id="axes_1">
   <g id="patch_2">
    <path clip-path="url(#p47802c0a92)" d="M 8.035677 91.603361 
C 8.035677 102.577369 10.197317 113.444669 14.396888 123.58333 
C 18.596459 133.721991 24.75229 142.934842 32.512085 150.694638 
C 40.27188 158.454433 49.484732 164.610264 59.623393 168.809835 
C 69.762054 173.009406 80.629354 175.171046 91.603361 175.171046 
C 102.577369 175.171046 113.444669 173.009406 123.58333 168.809835 
C 133.721991 164.610264 142.934842 158.454433 150.694638 150.694638 
C 158.454433 142.934842 164.610264 133.721991 168.809835 123.58333 
C 173.009406 113.444669 175.171046 102.577369 175.171046 91.603361 
C 175.171046 80.629354 173.009406 69.762054 168.809835 59.623393 
C 164.610264 49.484732 158.454433 40.27188 150.694638 32.512085 
C 142.934842 24.75229 133.721991 18.596459 123.58333 14.396888 
C 113.444669 10.197317 102.577369 8.035677 91.603361 8.035677 
C 80.629354 8.035677 69.762054 10.197317 59.623393 14.396888 
C 49.484732 18.596459 40.27188 24.75229 32.512085 32.512085 
C 24.75229 40.27188 18.596459 49.484732 14.396888 59.623393 
C 10.197317 69.762054 8.035677 80.629354 8.035677 91.603361 
" style="fill:none;stroke:#000000;stroke-linejoin:miter;"/>
   </g>
   <g id="PathCollection_1">
    <defs>
     <path d="M 0 3 
C 0.795609 3 1.55874 2.683901 2.12132 2.12132 
C 2.683901 1.55874 3 0.795609 3 0 
C 3 -0.795609 2.683901 -1.55874 2.12132 -2.12132 
C 1.55874 -2.683901 0.795609 -3 0 -3 
C -0.795609 -3 -1.55874 -2.683901 -2.12132 -2.12132 
C -2.683901 -1.55874 -3 -0.795609 -3 0 
C -3 0.795609 -2.683901 1.55874 -2.12132 2.12132 
C -1.55874 2.683901 -0.795609 3 0 3 
z
" id="m9b3ae4455a" style="stroke:#008000;"/>
    </defs>
    <g clip-path="url(#p47802c0a92)">
     <use style="fill:#008000;stroke:#008000;" x="139.851186" xlink:href="#m9b3ae4455a" y="139.851186"/>
     <use style="fill:#008000;stroke:#008000;" x="91.603361" xlink:href="#m9b3ae4455a" y="91.603361"/>
     <use style="fill:#008000;stroke:#008000;" x="139.851186" xlink:href="#m9b3ae4455a" y="43.355536"/>
    </g>
   </g>
   <g id="line2d_1">
    <path clip-path="url(#p47802c0a92)" d="M 43.355536 43.355536 
L 91.603361 91.603361 
L 43.355536 139.851186 
" style="fill:none;stroke:#808080;stroke-dasharray:5.55,2.4;stroke-dashoffset:0;stroke-width:1.5;"/>
   </g>
   <g id="line2d_2">
    <path clip-path="url(#p47802c0a92)" d="M 139.851186 139.851186 
L 91.603361 91.603361 
L 139.851186 43.355536 
" style="fill:none;stroke:#008000;stroke-linecap:square;stroke-width:1.5;"/>
   </g>
   <g id="line2d_3">
    <path clip-path="url(#p47802c0a92)" d="M 139.851186 139.851186 
L 140.692931 138.122026 
L 141.503697 136.36351 
L 142.282973 134.576747 
L 143.030266 132.762866 
L 143.745106 130.92301 
L 144.427042 129.058341 
L 145.075642 127.170035 
L 145.690498 125.259285 
L 146.271222 123.327295 
L 146.817446 121.375286 
L 147.328828 119.404489 
L 147.805043 117.416148 
L 148.245791 115.411517 
L 148.650794 113.391862 
L 149.019797 111.358457 
L 149.352566 109.312585 
L 149.648892 107.255537 
L 149.908588 105.188613 
L 150.131489 103.113114 
L 150.317456 101.030353 
L 150.46637 98.941642 
L 150.578138 96.848301 
L 150.652689 94.75165 
L 150.689976 92.653012 
L 150.689976 90.553711 
L 150.652689 88.455073 
L 150.578138 86.358422 
L 150.46637 84.26508 
L 150.317456 82.17637 
L 150.131489 80.093608 
L 149.908588 78.01811 
L 149.648892 75.951185 
L 149.352566 73.894138 
L 149.019797 71.848266 
L 148.650794 69.814861 
L 148.245791 67.795206 
L 147.805043 65.790575 
L 147.328828 63.802233 
L 146.817446 61.831436 
L 146.271222 59.879427 
L 145.690498 57.947438 
L 145.075642 56.036688 
L 144.427042 54.148382 
L 143.745106 52.283713 
L 143.030266 50.443857 
L 142.282973 48.629975 
L 141.503697 46.843213 
L 140.692931 45.084696 
L 139.851186 43.355536 
" style="fill:none;stroke:#008000;stroke-linecap:square;stroke-width:1.5;"/>
   </g>
   <g id="line2d_4">
    <path clip-path="url(#p47802c0a92)" d="M 43.355536 43.355536 
L 42.513792 45.084696 
L 41.703026 46.843213 
L 40.92375 48.629975 
L 40.176456 50.443857 
L 39.461616 52.283713 
L 38.779681 54.148382 
L 38.131081 56.036688 
L 37.516225 57.947438 
L 36.935501 59.879427 
L 36.389276 61.831436 
L 35.877895 63.802233 
L 35.40168 65.790575 
L 34.960932 67.795206 
L 34.555929 69.814861 
L 34.186926 71.848266 
L 33.854157 73.894138 
L 33.557831 75.951185 
L 33.298135 78.01811 
L 33.075234 80.093608 
L 32.889267 82.17637 
L 32.740353 84.26508 
L 32.628585 86.358422 
L 32.554034 88.455073 
L 32.516746 90.553711 
L 32.516746 92.653012 
L 32.554034 94.75165 
L 32.628585 96.848301 
L 32.740353 98.941642 
L 32.889267 101.030353 
L 33.075234 103.113114 
L 33.298135 105.188613 
L 33.557831 107.255537 
L 33.854157 109.312585 
L 34.186926 111.358457 
L 34.555929 113.391862 
L 34.960932 115.411517 
L 35.40168 117.416148 
L 35.877895 119.404489 
L 36.389276 121.375286 
L 36.935501 123.327295 
L 37.516225 125.259285 
L 38.131081 127.170035 
L 38.779681 129.058341 
L 39.461616 130.92301 
L 40.176456 132.762866 
L 40.92375 134.576747 
L 41.703026 136.36351 
L 42.513792 138.122026 
L 43.355536 139.851186 
" style="fill:none;stroke:#808080;stroke-dasharray:5.55,2.4;stroke-dashoffset:0;stroke-width:1.5;"/>
   </g>
   <g id="line2d_5">
    <path clip-path="url(#p47802c0a92)" d="M 43.355536 43.355536 
L 45.084696 42.513792 
L 46.843213 41.703026 
L 48.629975 40.92375 
L 50.443857 40.176456 
L 52.283713 39.461616 
L 54.148382 38.779681 
L 56.036688 38.131081 
L 57.947438 37.516225 
L 59.879427 36.935501 
L 61.831436 36.389276 
L 63.802233 35.877895 
L 65.790575 35.40168 
L 67.795206 34.960932 
L 69.814861 34.555929 
L 71.848266 34.186926 
L 73.894138 33.854157 
L 75.951185 33.557831 
L 78.01811 33.298135 
L 80.093608 33.075234 
L 82.17637 32.889267 
L 84.26508 32.740353 
L 86.358422 32.628585 
L 88.455073 32.554034 
L 90.553711 32.516746 
L 92.653012 32.516746 
L 94.75165 32.554034 
L 96.848301 32.628585 
L 98.941642 32.740353 
L 101.030353 32.889267 
L 103.113114 33.075234 
L 105.188613 33.298135 
L 107.255537 33.557831 
L 109.312585 33.854157 
L 111.358457 34.186926 
L 113.391862 34.555929 
L 115.411517 34.960932 
L 117.416148 35.40168 
L 119.404489 35.877895 
L 121.375286 36.389276 
L 123.327295 36.935501 
L 125.259285 37.516225 
L 127.170035 38.131081 
L 129.058341 38.779681 
L 130.92301 39.461616 
L 132.762866 40.176456 
L 134.576747 40.92375 
L 136.36351 41.703026 
L 138.122026 42.513792 
L 139.851186 43.355536 
" style="fill:none;stroke:#808080;stroke-dasharray:5.55,2.4;stroke-dashoffset:0;stroke-width:1.5;"/>
   </g>
   <g id="line2d_6">
    <path clip-path="url(#p47802c0a92)" d="M 139.851186 139.851186 
L 138.122026 140.692931 
L 136.36351 141.503697 
L 134.576747 142.282973 
L 132.762866 143.030266 
L 130.92301 143.745106 
L 129.058341 144.427042 
L 127.170035 145.075642 
L 125.259285 145.690498 
L 123.327295 146.271222 
L 121.375286 146.817446 
L 119.404489 147.328828 
L 117.416148 147.805043 
L 115.411517 148.245791 
L 113.391862 148.650794 
L 111.358457 149.019797 
L 109.312585 149.352566 
L 107.255537 149.648892 
L 105.188613 149.908588 
L 103.113114 150.131489 
L 101.030353 150.317456 
L 98.941642 150.46637 
L 96.848301 150.578138 
L 94.75165 150.652689 
L 92.653012 150.689976 
L 90.553711 150.689976 
L 88.455073 150.652689 
L 86.358422 150.578138 
L 84.26508 150.46637 
L 82.17637 150.317456 
L 80.093608 150.131489 
L 78.01811 149.908588 
L 75.951185 149.648892 
L 73.894138 149.352566 
L 71.848266 149.019797 
L 69.814861 148.650794 
L 67.795206 148.245791 
L 65.790575 147.805043 
L 63.802233 147.328828 
L 61.831436 146.817446 
L 59.879427 146.271222 
L 57.947438 145.690498 
L 56.036688 145.075642 
L 54.148382 144.427042 
L 52.283713 143.745106 
L 50.443857 143.030266 
L 48.629975 142.282973 
L 46.843213 141.503697 
L 45.084696 140.692931 
L 43.355536 139.851186 
" style="fill:none;stroke:#808080;stroke-dasharray:5.55,2.4;stroke-dashoffset:0;stroke-width:1.5;"/>
   </g>
   <g id="text_1">
    <!-- $\mathbf{\hat{v}}_0$ -->
    <g transform="translate(99.96013 95.781746)scale(0.1 -0.1)">
     <defs>
      <path d="M -1986 5119 
L -1230 5119 
L -430 3944 
L -986 3944 
L -1608 4647 
L -2230 3944 
L -2786 3944 
L -1986 5119 
z
" id="DejaVuSans-Bold-302" transform="scale(0.015625)"/>
      <path d="M 97 3500 
L 1216 3500 
L 2088 1081 
L 2956 3500 
L 4078 3500 
L 2700 0 
L 1472 0 
L 97 3500 
z
" id="DejaVuSans-Bold-76" transform="scale(0.015625)"/>
      <path d="M 2034 4250 
Q 1547 4250 1301 3770 
Q 1056 3291 1056 2328 
Q 1056 1369 1301 889 
Q 1547 409 2034 409 
Q 2525 409 2770 889 
Q 3016 1369 3016 2328 
Q 3016 3291 2770 3770 
Q 2525 4250 2034 4250 
z
M 2034 4750 
Q 2819 4750 3233 4129 
Q 3647 3509 3647 2328 
Q 3647 1150 3233 529 
Q 2819 -91 2034 -91 
Q 1250 -91 836 529 
Q 422 1150 422 2328 
Q 422 3509 836 4129 
Q 1250 4750 2034 4750 
z
" id="DejaVuSans-30" transform="scale(0.015625)"/>
     </defs>
     <use transform="translate(65.827637 6.015625)" xlink:href="#DejaVuSans-Bold-302"/>
     <use transform="translate(0 0.453125)" xlink:href="#DejaVuSans-Bold-76"/>
     <use transform="translate(66.142578 -15.953125)scale(0.7)" xlink:href="#DejaVuSans-30"/>
    </g>
   </g>
   <g id="text_2">
    <!-- $\mathbf{\hat{v}}_1$ -->
    <g transform="translate(144.251003 141.743972)scale(0.1 -0.1)">
     <defs>
      <path d="M 794 531 
L 1825 531 
L 1825 4091 
L 703 3866 
L 703 4441 
L 1819 4666 
L 2450 4666 
L 2450 531 
L 3481 531 
L 3481 0 
L 794 0 
L 794 531 
z
" id="DejaVuSans-31" transform="scale(0.015625)"/>
     </defs>
     <use transform="translate(65.827637 6.015625)" xlink:href="#DejaVuSans-Bold-302"/>
     <use transform="translate(0 0.453125)" xlink:href="#DejaVuSans-Bold-76"/>
     <use transform="translate(66.142578 -15.953125)scale(0.7)" xlink:href="#DejaVuSans-31"/>
    </g>
   </g>
   <g id="text_3">
    <!-- $\mathbf{\hat{v}}_2$ -->
    <g transform="translate(144.251003 45.641135)scale(0.1 -0.1)">
     <defs>
      <path d="M 1228 531 
L 3431 531 
L 3431 0 
L 469 0 
L 469 531 
Q 828 903 1448 1529 
Q 2069 2156 2228 2338 
Q 2531 2678 2651 2914 
Q 2772 3150 2772 3378 
Q 2772 3750 2511 3984 
Q 2250 4219 1831 4219 
Q 1534 4219 1204 4116 
Q 875 4013 500 3803 
L 500 4441 
Q 881 4594 1212 4672 
Q 1544 4750 1819 4750 
Q 2544 4750 2975 4387 
Q 3406 4025 3406 3419 
Q 3406 3131 3298 2873 
Q 3191 2616 2906 2266 
Q 2828 2175 2409 1742 
Q 1991 1309 1228 531 
z
" id="DejaVuSans-32" transform="scale(0.015625)"/>
     </defs>
     <use transform="translate(65.827637 6.015625)" xlink:href="#DejaVuSans-Bold-302"/>
     <use transform="translate(0 0.453125)" xlink:href="#DejaVuSans-Bold-76"/>
     <use transform="translate(66.142578 -15.953125)scale(0.7)" xlink:href="#DejaVuSans-32"/>
    </g>
   </g>
  </g>
  <g id="axes_2">
   <g id="line2d_7">
    <path clip-path="url(#p61b2da687d)" d="M 197.619099 91.603361 
L 235.984263 91.603361 
" style="fill:none;stroke:#000000;stroke-linecap:square;stroke-width:1.5;"/>
   </g>
   <g id="line2d_8">
    <path clip-path="url(#p61b2da687d)" d="M 226.392972 82.01207 
L 235.984263 91.603361 
L 226.392972 101.194652 
" style="fill:none;stroke:#000000;stroke-linecap:square;stroke-width:1.5;"/>
   </g>
   <g id="line2d_9">
    <path clip-path="url(#p61b2da687d)" d="M 207.21039 82.01207 
L 197.619099 91.603361 
L 207.21039 101.194652 
" style="fill:none;stroke:#000000;stroke-linecap:square;stroke-width:1.5;"/>
   </g>
  </g>
  <g id="axes_3">
   <g id="PathCollection_2">
    <g clip-path="url(#pda26869e89)">
     <use style="fill:#008000;stroke:#008000;" x="261.433155" xlink:href="#m9b3ae4455a" y="91.603361"/>
     <use style="fill:#008000;stroke:#008000;" x="338.163484" xlink:href="#m9b3ae4455a" y="168.33369"/>
     <use style="fill:#008000;stroke:#008000;" x="338.163484" xlink:href="#m9b3ae4455a" y="14.873033"/>
     <use style="fill:#008000;stroke:#008000;" x="261.433155" xlink:href="#m9b3ae4455a" y="91.603361"/>
    </g>
   </g>
   <g id="line2d_10">
    <path clip-path="url(#pda26869e89)" d="M 261.433155 91.603361 
L 338.163484 168.33369 
L 338.163484 14.873033 
L 261.433155 91.603361 
" style="fill:none;stroke:#008000;stroke-linecap:square;stroke-width:1.5;"/>
   </g>
   <g id="text_4">
    <!-- $\mathbf{z}_0$ -->
    <g transform="translate(269.106188 95.439878)scale(0.1 -0.1)">
     <defs>
      <path d="M 366 3500 
L 3419 3500 
L 3419 2719 
L 1575 800 
L 3419 800 
L 3419 0 
L 288 0 
L 288 781 
L 2131 2700 
L 366 2700 
L 366 3500 
z
" id="DejaVuSans-Bold-7a" transform="scale(0.015625)"/>
     </defs>
     <use transform="translate(0 0.3125)" xlink:href="#DejaVuSans-Bold-7a"/>
     <use transform="translate(59.160156 -16.09375)scale(0.7)" xlink:href="#DejaVuSans-30"/>
    </g>
   </g>
   <g id="text_5">
    <!-- $\mathbf{z}_1$ -->
    <g transform="translate(325.886631 152.987624)scale(0.1 -0.1)">
     <use transform="translate(0 0.3125)" xlink:href="#DejaVuSans-Bold-7a"/>
     <use transform="translate(59.160156 -16.09375)scale(0.7)" xlink:href="#DejaVuSans-31"/>
    </g>
   </g>
   <g id="text_6">
    <!-- $\mathbf{z}_2$ -->
    <g transform="translate(325.886631 37.892131)scale(0.1 -0.1)">
     <use transform="translate(0 0.3125)" xlink:href="#DejaVuSans-Bold-7a"/>
     <use transform="translate(59.160156 -16.09375)scale(0.7)" xlink:href="#DejaVuSans-32"/>
    </g>
   </g>
  </g>
 </g>
 <defs>
  <clipPath id="p47802c0a92">
   <rect height="168.806723" width="168.806723" x="7.2" y="7.2"/>
  </clipPath>
  <clipPath id="p61b2da687d">
   <rect height="76.730328" width="42.201681" x="195.70084" y="53.238197"/>
  </clipPath>
  <clipPath id="pda26869e89">
   <rect height="168.806723" width="84.403361" x="257.596639" y="7.2"/>
  </clipPath>
 </defs>
</svg>
