<?xml version="1.0" encoding="utf-8" standalone="no"?>
<!DOCTYPE svg PUBLIC "-//W3C//DTD SVG 1.1//EN"
  "http://www.w3.org/Graphics/SVG/1.1/DTD/svg11.dtd">
<svg xmlns:xlink="http://www.w3.org/1999/xlink" width="231.84pt" height="246.958125pt" viewBox="0 0 231.84 246.958125" xmlns="http://www.w3.org/2000/svg" version="1.1">
 <metadata>
  <rdf:RDF xmlns:dc="http://purl.org/dc/elements/1.1/" xmlns:cc="http://creativecommons.org/ns#" xmlns:rdf="http://www.w3.org/1999/02/22-rdf-syntax-ns#">
   <cc:Work>
    <dc:type rdf:resource="http://purl.org/dc/dcmitype/StillImage"/>
    <dc:date>2023-11-02T21:13:30.735312</dc:date>
    <dc:format>image/svg+xml</dc:format>
    <dc:creator>
     <cc:Agent>
      <dc:title>Matplotlib v3.8.0, https://matplotlib.org/</dc:title>
     </cc:Agent>
    </dc:creator>
   </cc:Work>
  </rdf:RDF>
 </metadata>
 <defs>
  <style type="text/css">*{stroke-linejoin: round; stroke-linecap: butt}</style>
 </defs>
 <g id="figure_1">
  <g id="patch_1">
   <path d="M 0 246.958125 
L 231.84 246.958125 
L 231.84 0 
L 0 0 
z
" style="fill: #ffffff"/>
  </g>
  <g id="axes_1">
   <g id="patch_2">
    <path d="M 115.92 234.580982 
C 143.379887 234.580982 169.718784 223.671054 189.135856 204.253981 
C 208.552929 184.836909 219.462857 158.498012 219.462857 131.038125 
C 219.462857 103.578238 208.552929 77.239341 189.135856 57.822269 
C 169.718784 38.405196 143.379887 27.495268 115.92 27.495268 
C 88.460113 27.495268 62.121216 38.405196 42.704144 57.822269 
C 23.287071 77.239341 12.377143 103.578238 12.377143 131.038125 
C 12.377143 158.498012 23.287071 184.836909 42.704144 204.253981 
C 62.121216 223.671054 88.460113 234.580982 115.92 234.580982 
L 115.92 234.580982 
z
" clip-path="url(#pf3f3f0b41a)" style="fill: none; stroke: #000000; stroke-linejoin: miter"/>
   </g>
   <g id="PathCollection_1">
    <defs>
     <path id="mf29816c08f" d="M 0 3 
C 0.795609 3 1.55874 2.683901 2.12132 2.12132 
C 2.683901 1.55874 3 0.795609 3 0 
C 3 -0.795609 2.683901 -1.55874 2.12132 -2.12132 
C 1.55874 -2.683901 0.795609 -3 0 -3 
C -0.795609 -3 -1.55874 -2.683901 -2.12132 -2.12132 
C -2.683901 -1.55874 -3 -0.795609 -3 0 
C -3 0.795609 -2.683901 1.55874 -2.12132 2.12132 
C -1.55874 2.683901 -0.795609 3 0 3 
z
" style="stroke: #0000ff"/>
    </defs>
    <g clip-path="url(#pf3f3f0b41a)">
     <use xlink:href="#mf29816c08f" x="193.865715" y="65.229543" style="fill: #0000ff; stroke: #0000ff"/>
     <use xlink:href="#mf29816c08f" x="44.558421" y="58.14211" style="fill: #0000ff; stroke: #0000ff"/>
     <use xlink:href="#mf29816c08f" x="200.26675" y="188.413466" style="fill: #0000ff; stroke: #0000ff"/>
    </g>
   </g>
   <g id="line2d_1">
    <path d="M 200.26675 188.413466 
L 201.063786 185.430826 
L 201.593792 182.277599 
L 201.855105 178.963673 
L 201.846907 175.499441 
L 201.569222 171.895769 
L 201.022921 168.163958 
L 200.209718 164.315711 
L 199.132164 160.363099 
L 197.793638 156.318517 
L 196.198337 152.19465 
L 194.351265 148.004431 
L 192.258214 143.761002 
L 189.92575 139.477671 
L 187.361187 135.167871 
L 184.572568 130.84512 
L 181.568638 126.522975 
L 178.35882 122.214989 
L 174.95318 117.934675 
L 171.362398 113.695457 
L 167.597736 109.510629 
L 163.671001 105.393316 
L 159.594507 101.356431 
L 155.381041 97.412635 
L 151.043816 93.574296 
L 146.596435 89.853452 
L 142.052845 86.261772 
L 137.427297 82.810522 
L 132.734297 79.510524 
L 127.988563 76.372128 
L 123.20498 73.405177 
L 118.39855 70.618977 
L 113.584346 68.022264 
L 108.777467 65.623184 
L 103.992989 63.42926 
L 99.245917 61.447372 
L 94.551138 59.683737 
L 89.923377 58.143886 
L 85.377147 56.832647 
L 80.926707 55.754134 
L 76.586014 54.911728 
L 72.368681 54.308073 
L 68.287934 53.94506 
L 64.356573 53.823828 
L 60.586927 53.944758 
L 56.990817 54.307471 
L 53.579523 54.910828 
L 50.363743 55.752937 
L 47.353562 56.831159 
L 44.558421 58.14211 
" clip-path="url(#pf3f3f0b41a)" style="fill: none; stroke: #0000ff; stroke-width: 1.5; stroke-linecap: square"/>
   </g>
   <g id="line2d_2">
    <path d="M 193.865715 65.229543 
L 195.518654 67.333339 
L 197.117607 69.480342 
L 198.661488 71.669096 
L 200.14925 73.898117 
L 201.579886 76.165892 
L 202.952423 78.470883 
L 204.265932 80.811528 
L 205.519521 83.186238 
L 206.71234 85.593403 
L 207.84358 88.031391 
L 208.912475 90.498547 
L 209.918298 92.993199 
L 210.860368 95.513654 
L 211.738046 98.058204 
L 212.550736 100.625121 
L 213.297888 103.212666 
L 213.978994 105.819083 
L 214.593593 108.442605 
L 215.141268 111.081452 
L 215.621647 113.733834 
L 216.034404 116.397953 
L 216.379261 119.072001 
L 216.655981 121.754165 
L 216.864379 124.442626 
L 217.004313 127.13556 
L 217.075687 129.831141 
L 217.078454 132.527541 
L 217.012611 135.22293 
L 216.878203 137.915481 
L 216.675322 140.603368 
L 216.404104 143.284767 
L 216.064735 145.95786 
L 215.657443 148.620834 
L 215.182505 151.271882 
L 214.640244 153.909208 
L 214.031027 156.531021 
L 213.355268 159.135544 
L 212.613424 161.72101 
L 211.805999 164.285666 
L 210.93354 166.827772 
L 209.99664 169.345605 
L 208.995933 171.837455 
L 207.932099 174.301634 
L 206.805858 176.73647 
L 205.617975 179.140312 
L 204.369256 181.511529 
L 203.060547 183.848513 
L 201.692735 186.149679 
L 200.26675 188.413466 
" clip-path="url(#pf3f3f0b41a)" style="fill: none; stroke: #0000ff; stroke-width: 1.5; stroke-linecap: square"/>
   </g>
   <g id="line2d_3">
    <path d="M 44.558421 58.14211 
L 47.065694 55.91316 
L 49.647554 53.765591 
L 52.301206 51.701728 
L 55.023773 49.723808 
L 57.812308 47.833974 
L 60.663789 46.034272 
L 63.575127 44.326652 
L 66.543169 42.712964 
L 69.564699 41.194956 
L 72.636444 39.774272 
L 75.755078 38.452452 
L 78.91722 37.230926 
L 82.119447 36.11102 
L 85.358288 35.093944 
L 88.630237 34.180802 
L 91.931747 33.372583 
L 95.259243 32.670162 
L 98.60912 32.074299 
L 101.97775 31.585641 
L 105.361483 31.204717 
L 108.756653 30.931939 
L 112.159584 30.767604 
L 115.566587 30.711888 
L 118.973974 30.764852 
L 122.378053 30.92644 
L 125.775135 31.196475 
L 129.161542 31.574666 
L 132.533605 32.060602 
L 135.887671 32.653758 
L 139.220106 33.35349 
L 142.527301 34.159041 
L 145.805673 35.069538 
L 149.051671 36.083995 
L 152.261779 37.201313 
L 155.432518 38.420281 
L 158.560455 39.73958 
L 161.642201 41.157779 
L 164.674417 42.673343 
L 167.65382 44.28463 
L 170.57718 45.989894 
L 173.441332 47.787288 
L 176.243173 49.674865 
L 178.979668 51.650581 
L 181.647852 53.712295 
L 184.244836 55.857773 
L 186.767805 58.084692 
L 189.214027 60.390639 
L 191.580851 62.773116 
L 193.865715 65.229543 
" clip-path="url(#pf3f3f0b41a)" style="fill: none; stroke: #0000ff; stroke-width: 1.5; stroke-linecap: square"/>
   </g>
   <g id="line2d_4">
    <path d="M 157.771756 68.055092 
L 158.731418 67.734639 
L 159.684 67.424656 
L 160.629343 67.125193 
L 161.567292 66.836301 
L 162.497692 66.558028 
L 163.420388 66.290418 
L 164.335229 66.033517 
L 165.242062 65.787366 
L 166.140737 65.552008 
L 167.031107 65.32748 
L 167.913024 65.113819 
L 168.786342 64.911062 
L 169.650916 64.719241 
L 170.506604 64.538389 
L 171.353264 64.368535 
L 172.190756 64.209707 
L 173.018942 64.061931 
L 173.837684 63.925233 
L 174.646847 63.799635 
L 175.446297 63.685156 
L 176.235903 63.581817 
L 177.015533 63.489635 
L 177.785059 63.408624 
L 178.544353 63.338798 
L 179.29329 63.280169 
L 180.031745 63.232746 
L 180.759598 63.196538 
L 181.476727 63.171549 
L 182.183013 63.157785 
L 182.87834 63.155247 
L 183.562594 63.163936 
L 184.23566 63.183851 
L 184.897427 63.214988 
L 185.547787 63.257342 
L 186.186631 63.310907 
L 186.813853 63.375672 
L 187.429351 63.451628 
L 188.033022 63.538762 
L 188.624767 63.63706 
L 189.204487 63.746504 
L 189.772086 63.867078 
L 190.327472 63.998761 
L 190.870551 64.141532 
L 191.401235 64.295367 
L 191.919435 64.46024 
L 192.425065 64.636124 
L 192.918043 64.82299 
L 193.398286 65.020807 
L 193.865715 65.229543 
" clip-path="url(#pf3f3f0b41a)" style="fill: none; stroke: #ff0000; stroke-width: 1.5; stroke-linecap: square"/>
   </g>
   <g id="line2d_5">
    <path d="M 157.771756 68.055092 
L 155.48415 66.53228 
L 153.168662 65.054925 
L 150.826926 63.624069 
L 148.46059 62.24072 
L 146.071323 60.905853 
L 143.660807 59.620408 
L 141.230743 58.385292 
L 138.782843 57.201374 
L 136.31883 56.069489 
L 133.840443 54.990435 
L 131.349427 53.964973 
L 128.847538 52.993823 
L 126.336539 52.077672 
L 123.818199 51.217165 
L 121.294293 50.412908 
L 118.7666 49.665468 
L 116.236901 48.975371 
L 113.706979 48.343104 
L 111.178616 47.769113 
L 108.653595 47.253802 
L 106.133694 46.797534 
L 103.62069 46.40063 
L 101.116353 46.063371 
L 98.622448 45.785994 
L 96.140733 45.568695 
L 93.672956 45.411626 
L 91.220857 45.314899 
L 88.786163 45.278581 
L 86.370591 45.302698 
L 83.975843 45.387233 
L 81.603605 45.532126 
L 79.255551 45.737276 
L 76.933334 46.002538 
L 74.638591 46.327725 
L 72.372939 46.712608 
L 70.137975 47.156915 
L 67.935274 47.660333 
L 65.766388 48.222508 
L 63.632845 48.843044 
L 61.536149 49.521503 
L 59.477778 50.257407 
L 57.459182 51.050237 
L 55.481783 51.899435 
L 53.546976 52.804403 
L 51.656123 53.764502 
L 49.810557 54.779056 
L 48.011578 55.84735 
L 46.260455 56.968631 
L 44.558421 58.14211 
" clip-path="url(#pf3f3f0b41a)" style="fill: none; stroke: #ff0000; stroke-width: 1.5; stroke-linecap: square"/>
   </g>
   <g id="line2d_6">
    <path d="M 157.771756 68.055092 
L 160.146215 70.010673 
L 162.481341 72.020527 
L 164.775059 74.082868 
L 167.025328 76.195862 
L 169.230147 78.357629 
L 171.387555 80.566246 
L 173.495634 82.819751 
L 175.552509 85.116137 
L 177.55635 87.453364 
L 179.505376 89.829353 
L 181.397852 92.24199 
L 183.232097 94.689129 
L 185.006479 97.168596 
L 186.719419 99.678184 
L 188.369395 102.215661 
L 189.954938 104.778772 
L 191.47464 107.365236 
L 192.927148 109.972753 
L 194.31117 112.599004 
L 195.625476 115.241654 
L 196.868898 117.898352 
L 198.040328 120.566736 
L 199.138725 123.244433 
L 200.163113 125.929061 
L 201.11258 128.618232 
L 201.986282 131.309556 
L 202.783442 134.000638 
L 203.503352 136.689086 
L 204.14537 139.372508 
L 204.708925 142.048518 
L 205.193518 144.714736 
L 205.598716 147.36879 
L 205.924159 150.008322 
L 206.169558 152.630982 
L 206.334695 155.234439 
L 206.419422 157.816377 
L 206.423665 160.374501 
L 206.34742 162.906534 
L 206.190754 165.410226 
L 205.953807 167.883349 
L 205.636789 170.323704 
L 205.239982 172.729122 
L 204.76374 175.097461 
L 204.208486 177.426618 
L 203.574714 179.714519 
L 202.862987 181.95913 
L 202.073938 184.158455 
L 201.208269 186.310539 
L 200.26675 188.413466 
" clip-path="url(#pf3f3f0b41a)" style="fill: none; stroke: #ff0000; stroke-width: 1.5; stroke-linecap: square"/>
   </g>
   <g id="text_1">
    <!-- vertex angles 162°, 49°, 52° -->
    <g transform="translate(29.783438 16.318125) scale(0.12 -0.12)">
     <defs>
      <path id="DejaVuSans-76" d="M 191 3500 
L 800 3500 
L 1894 563 
L 2988 3500 
L 3597 3500 
L 2284 0 
L 1503 0 
L 191 3500 
z
" transform="scale(0.015625)"/>
      <path id="DejaVuSans-65" d="M 3597 1894 
L 3597 1613 
L 953 1613 
Q 991 1019 1311 708 
Q 1631 397 2203 397 
Q 2534 397 2845 478 
Q 3156 559 3463 722 
L 3463 178 
Q 3153 47 2828 -22 
Q 2503 -91 2169 -91 
Q 1331 -91 842 396 
Q 353 884 353 1716 
Q 353 2575 817 3079 
Q 1281 3584 2069 3584 
Q 2775 3584 3186 3129 
Q 3597 2675 3597 1894 
z
M 3022 2063 
Q 3016 2534 2758 2815 
Q 2500 3097 2075 3097 
Q 1594 3097 1305 2825 
Q 1016 2553 972 2059 
L 3022 2063 
z
" transform="scale(0.015625)"/>
      <path id="DejaVuSans-72" d="M 2631 2963 
Q 2534 3019 2420 3045 
Q 2306 3072 2169 3072 
Q 1681 3072 1420 2755 
Q 1159 2438 1159 1844 
L 1159 0 
L 581 0 
L 581 3500 
L 1159 3500 
L 1159 2956 
Q 1341 3275 1631 3429 
Q 1922 3584 2338 3584 
Q 2397 3584 2469 3576 
Q 2541 3569 2628 3553 
L 2631 2963 
z
" transform="scale(0.015625)"/>
      <path id="DejaVuSans-74" d="M 1172 4494 
L 1172 3500 
L 2356 3500 
L 2356 3053 
L 1172 3053 
L 1172 1153 
Q 1172 725 1289 603 
Q 1406 481 1766 481 
L 2356 481 
L 2356 0 
L 1766 0 
Q 1100 0 847 248 
Q 594 497 594 1153 
L 594 3053 
L 172 3053 
L 172 3500 
L 594 3500 
L 594 4494 
L 1172 4494 
z
" transform="scale(0.015625)"/>
      <path id="DejaVuSans-78" d="M 3513 3500 
L 2247 1797 
L 3578 0 
L 2900 0 
L 1881 1375 
L 863 0 
L 184 0 
L 1544 1831 
L 300 3500 
L 978 3500 
L 1906 2253 
L 2834 3500 
L 3513 3500 
z
" transform="scale(0.015625)"/>
      <path id="DejaVuSans-20" transform="scale(0.015625)"/>
      <path id="DejaVuSans-61" d="M 2194 1759 
Q 1497 1759 1228 1600 
Q 959 1441 959 1056 
Q 959 750 1161 570 
Q 1363 391 1709 391 
Q 2188 391 2477 730 
Q 2766 1069 2766 1631 
L 2766 1759 
L 2194 1759 
z
M 3341 1997 
L 3341 0 
L 2766 0 
L 2766 531 
Q 2569 213 2275 61 
Q 1981 -91 1556 -91 
Q 1019 -91 701 211 
Q 384 513 384 1019 
Q 384 1609 779 1909 
Q 1175 2209 1959 2209 
L 2766 2209 
L 2766 2266 
Q 2766 2663 2505 2880 
Q 2244 3097 1772 3097 
Q 1472 3097 1187 3025 
Q 903 2953 641 2809 
L 641 3341 
Q 956 3463 1253 3523 
Q 1550 3584 1831 3584 
Q 2591 3584 2966 3190 
Q 3341 2797 3341 1997 
z
" transform="scale(0.015625)"/>
      <path id="DejaVuSans-6e" d="M 3513 2113 
L 3513 0 
L 2938 0 
L 2938 2094 
Q 2938 2591 2744 2837 
Q 2550 3084 2163 3084 
Q 1697 3084 1428 2787 
Q 1159 2491 1159 1978 
L 1159 0 
L 581 0 
L 581 3500 
L 1159 3500 
L 1159 2956 
Q 1366 3272 1645 3428 
Q 1925 3584 2291 3584 
Q 2894 3584 3203 3211 
Q 3513 2838 3513 2113 
z
" transform="scale(0.015625)"/>
      <path id="DejaVuSans-67" d="M 2906 1791 
Q 2906 2416 2648 2759 
Q 2391 3103 1925 3103 
Q 1463 3103 1205 2759 
Q 947 2416 947 1791 
Q 947 1169 1205 825 
Q 1463 481 1925 481 
Q 2391 481 2648 825 
Q 2906 1169 2906 1791 
z
M 3481 434 
Q 3481 -459 3084 -895 
Q 2688 -1331 1869 -1331 
Q 1566 -1331 1297 -1286 
Q 1028 -1241 775 -1147 
L 775 -588 
Q 1028 -725 1275 -790 
Q 1522 -856 1778 -856 
Q 2344 -856 2625 -561 
Q 2906 -266 2906 331 
L 2906 616 
Q 2728 306 2450 153 
Q 2172 0 1784 0 
Q 1141 0 747 490 
Q 353 981 353 1791 
Q 353 2603 747 3093 
Q 1141 3584 1784 3584 
Q 2172 3584 2450 3431 
Q 2728 3278 2906 2969 
L 2906 3500 
L 3481 3500 
L 3481 434 
z
" transform="scale(0.015625)"/>
      <path id="DejaVuSans-6c" d="M 603 4863 
L 1178 4863 
L 1178 0 
L 603 0 
L 603 4863 
z
" transform="scale(0.015625)"/>
      <path id="DejaVuSans-73" d="M 2834 3397 
L 2834 2853 
Q 2591 2978 2328 3040 
Q 2066 3103 1784 3103 
Q 1356 3103 1142 2972 
Q 928 2841 928 2578 
Q 928 2378 1081 2264 
Q 1234 2150 1697 2047 
L 1894 2003 
Q 2506 1872 2764 1633 
Q 3022 1394 3022 966 
Q 3022 478 2636 193 
Q 2250 -91 1575 -91 
Q 1294 -91 989 -36 
Q 684 19 347 128 
L 347 722 
Q 666 556 975 473 
Q 1284 391 1588 391 
Q 1994 391 2212 530 
Q 2431 669 2431 922 
Q 2431 1156 2273 1281 
Q 2116 1406 1581 1522 
L 1381 1569 
Q 847 1681 609 1914 
Q 372 2147 372 2553 
Q 372 3047 722 3315 
Q 1072 3584 1716 3584 
Q 2034 3584 2315 3537 
Q 2597 3491 2834 3397 
z
" transform="scale(0.015625)"/>
      <path id="DejaVuSans-31" d="M 794 531 
L 1825 531 
L 1825 4091 
L 703 3866 
L 703 4441 
L 1819 4666 
L 2450 4666 
L 2450 531 
L 3481 531 
L 3481 0 
L 794 0 
L 794 531 
z
" transform="scale(0.015625)"/>
      <path id="DejaVuSans-36" d="M 2113 2584 
Q 1688 2584 1439 2293 
Q 1191 2003 1191 1497 
Q 1191 994 1439 701 
Q 1688 409 2113 409 
Q 2538 409 2786 701 
Q 3034 994 3034 1497 
Q 3034 2003 2786 2293 
Q 2538 2584 2113 2584 
z
M 3366 4563 
L 3366 3988 
Q 3128 4100 2886 4159 
Q 2644 4219 2406 4219 
Q 1781 4219 1451 3797 
Q 1122 3375 1075 2522 
Q 1259 2794 1537 2939 
Q 1816 3084 2150 3084 
Q 2853 3084 3261 2657 
Q 3669 2231 3669 1497 
Q 3669 778 3244 343 
Q 2819 -91 2113 -91 
Q 1303 -91 875 529 
Q 447 1150 447 2328 
Q 447 3434 972 4092 
Q 1497 4750 2381 4750 
Q 2619 4750 2861 4703 
Q 3103 4656 3366 4563 
z
" transform="scale(0.015625)"/>
      <path id="DejaVuSans-32" d="M 1228 531 
L 3431 531 
L 3431 0 
L 469 0 
L 469 531 
Q 828 903 1448 1529 
Q 2069 2156 2228 2338 
Q 2531 2678 2651 2914 
Q 2772 3150 2772 3378 
Q 2772 3750 2511 3984 
Q 2250 4219 1831 4219 
Q 1534 4219 1204 4116 
Q 875 4013 500 3803 
L 500 4441 
Q 881 4594 1212 4672 
Q 1544 4750 1819 4750 
Q 2544 4750 2975 4387 
Q 3406 4025 3406 3419 
Q 3406 3131 3298 2873 
Q 3191 2616 2906 2266 
Q 2828 2175 2409 1742 
Q 1991 1309 1228 531 
z
" transform="scale(0.015625)"/>
      <path id="DejaVuSans-b0" d="M 1600 4347 
Q 1350 4347 1178 4173 
Q 1006 4000 1006 3750 
Q 1006 3503 1178 3333 
Q 1350 3163 1600 3163 
Q 1850 3163 2022 3333 
Q 2194 3503 2194 3750 
Q 2194 3997 2020 4172 
Q 1847 4347 1600 4347 
z
M 1600 4750 
Q 1800 4750 1984 4673 
Q 2169 4597 2303 4453 
Q 2447 4313 2519 4134 
Q 2591 3956 2591 3750 
Q 2591 3338 2302 3052 
Q 2013 2766 1594 2766 
Q 1172 2766 890 3047 
Q 609 3328 609 3750 
Q 609 4169 896 4459 
Q 1184 4750 1600 4750 
z
" transform="scale(0.015625)"/>
      <path id="DejaVuSans-2c" d="M 750 794 
L 1409 794 
L 1409 256 
L 897 -744 
L 494 -744 
L 750 256 
L 750 794 
z
" transform="scale(0.015625)"/>
      <path id="DejaVuSans-34" d="M 2419 4116 
L 825 1625 
L 2419 1625 
L 2419 4116 
z
M 2253 4666 
L 3047 4666 
L 3047 1625 
L 3713 1625 
L 3713 1100 
L 3047 1100 
L 3047 0 
L 2419 0 
L 2419 1100 
L 313 1100 
L 313 1709 
L 2253 4666 
z
" transform="scale(0.015625)"/>
      <path id="DejaVuSans-39" d="M 703 97 
L 703 672 
Q 941 559 1184 500 
Q 1428 441 1663 441 
Q 2288 441 2617 861 
Q 2947 1281 2994 2138 
Q 2813 1869 2534 1725 
Q 2256 1581 1919 1581 
Q 1219 1581 811 2004 
Q 403 2428 403 3163 
Q 403 3881 828 4315 
Q 1253 4750 1959 4750 
Q 2769 4750 3195 4129 
Q 3622 3509 3622 2328 
Q 3622 1225 3098 567 
Q 2575 -91 1691 -91 
Q 1453 -91 1209 -44 
Q 966 3 703 97 
z
M 1959 2075 
Q 2384 2075 2632 2365 
Q 2881 2656 2881 3163 
Q 2881 3666 2632 3958 
Q 2384 4250 1959 4250 
Q 1534 4250 1286 3958 
Q 1038 3666 1038 3163 
Q 1038 2656 1286 2365 
Q 1534 2075 1959 2075 
z
" transform="scale(0.015625)"/>
      <path id="DejaVuSans-35" d="M 691 4666 
L 3169 4666 
L 3169 4134 
L 1269 4134 
L 1269 2991 
Q 1406 3038 1543 3061 
Q 1681 3084 1819 3084 
Q 2600 3084 3056 2656 
Q 3513 2228 3513 1497 
Q 3513 744 3044 326 
Q 2575 -91 1722 -91 
Q 1428 -91 1123 -41 
Q 819 9 494 109 
L 494 744 
Q 775 591 1075 516 
Q 1375 441 1709 441 
Q 2250 441 2565 725 
Q 2881 1009 2881 1497 
Q 2881 1984 2565 2268 
Q 2250 2553 1709 2553 
Q 1456 2553 1204 2497 
Q 953 2441 691 2322 
L 691 4666 
z
" transform="scale(0.015625)"/>
     </defs>
     <use xlink:href="#DejaVuSans-76"/>
     <use xlink:href="#DejaVuSans-65" x="59.179688"/>
     <use xlink:href="#DejaVuSans-72" x="120.703125"/>
     <use xlink:href="#DejaVuSans-74" x="161.816406"/>
     <use xlink:href="#DejaVuSans-65" x="201.025391"/>
     <use xlink:href="#DejaVuSans-78" x="260.798828"/>
     <use xlink:href="#DejaVuSans-20" x="319.978516"/>
     <use xlink:href="#DejaVuSans-61" x="351.765625"/>
     <use xlink:href="#DejaVuSans-6e" x="413.044922"/>
     <use xlink:href="#DejaVuSans-67" x="476.423828"/>
     <use xlink:href="#DejaVuSans-6c" x="539.900391"/>
     <use xlink:href="#DejaVuSans-65" x="567.683594"/>
     <use xlink:href="#DejaVuSans-73" x="629.207031"/>
     <use xlink:href="#DejaVuSans-20" x="681.306641"/>
     <use xlink:href="#DejaVuSans-31" x="713.09375"/>
     <use xlink:href="#DejaVuSans-36" x="776.716797"/>
     <use xlink:href="#DejaVuSans-32" x="840.339844"/>
     <use xlink:href="#DejaVuSans-b0" x="903.962891"/>
     <use xlink:href="#DejaVuSans-2c" x="953.962891"/>
     <use xlink:href="#DejaVuSans-20" x="985.75"/>
     <use xlink:href="#DejaVuSans-34" x="1017.537109"/>
     <use xlink:href="#DejaVuSans-39" x="1081.160156"/>
     <use xlink:href="#DejaVuSans-b0" x="1144.783203"/>
     <use xlink:href="#DejaVuSans-2c" x="1194.783203"/>
     <use xlink:href="#DejaVuSans-20" x="1226.570312"/>
     <use xlink:href="#DejaVuSans-35" x="1258.357422"/>
     <use xlink:href="#DejaVuSans-32" x="1321.980469"/>
     <use xlink:href="#DejaVuSans-b0" x="1385.603516"/>
    </g>
   </g>
   <g id="PathCollection_2">
    <defs>
     <path id="m300f93552e" d="M 0 3 
C 0.795609 3 1.55874 2.683901 2.12132 2.12132 
C 2.683901 1.55874 3 0.795609 3 0 
C 3 -0.795609 2.683901 -1.55874 2.12132 -2.12132 
C 1.55874 -2.683901 0.795609 -3 0 -3 
C -0.795609 -3 -1.55874 -2.683901 -2.12132 -2.12132 
C -2.683901 -1.55874 -3 -0.795609 -3 0 
C -3 0.795609 -2.683901 1.55874 -2.12132 2.12132 
C -1.55874 2.683901 -0.795609 3 0 3 
z
" style="stroke: #ff0000"/>
    </defs>
    <g clip-path="url(#pf3f3f0b41a)">
     <use xlink:href="#m300f93552e" x="157.771756" y="68.055092" style="fill: #ff0000; stroke: #ff0000"/>
    </g>
   </g>
  </g>
 </g>
 <defs>
  <clipPath id="pf3f3f0b41a">
   <rect x="7.2" y="22.318125" width="217.44" height="217.44"/>
  </clipPath>
 </defs>
</svg>
