<?xml version="1.0" encoding="utf-8" standalone="no"?>
<!DOCTYPE svg PUBLIC "-//W3C//DTD SVG 1.1//EN"
  "http://www.w3.org/Graphics/SVG/1.1/DTD/svg11.dtd">
<svg xmlns:xlink="http://www.w3.org/1999/xlink" width="231.84pt" height="246.958125pt" viewBox="0 0 231.84 246.958125" xmlns="http://www.w3.org/2000/svg" version="1.1">
 <metadata>
  <rdf:RDF xmlns:dc="http://purl.org/dc/elements/1.1/" xmlns:cc="http://creativecommons.org/ns#" xmlns:rdf="http://www.w3.org/1999/02/22-rdf-syntax-ns#">
   <cc:Work>
    <dc:type rdf:resource="http://purl.org/dc/dcmitype/StillImage"/>
    <dc:date>2023-11-02T21:09:43.307158</dc:date>
    <dc:format>image/svg+xml</dc:format>
    <dc:creator>
     <cc:Agent>
      <dc:title>Matplotlib v3.8.0, https://matplotlib.org/</dc:title>
     </cc:Agent>
    </dc:creator>
   </cc:Work>
  </rdf:RDF>
 </metadata>
 <defs>
  <style type="text/css">*{stroke-linejoin: round; stroke-linecap: butt}</style>
 </defs>
 <g id="figure_1">
  <g id="patch_1">
   <path d="M 0 246.958125 
L 231.84 246.958125 
L 231.84 0 
L 0 0 
z
" style="fill: #ffffff"/>
  </g>
  <g id="axes_1">
   <g id="patch_2">
    <path d="M 115.92 234.580982 
C 143.379887 234.580982 169.718784 223.671054 189.135856 204.253981 
C 208.552929 184.836909 219.462857 158.498012 219.462857 131.038125 
C 219.462857 103.578238 208.552929 77.239341 189.135856 57.822269 
C 169.718784 38.405196 143.379887 27.495268 115.92 27.495268 
C 88.460113 27.495268 62.121216 38.405196 42.704144 57.822269 
C 23.287071 77.239341 12.377143 103.578238 12.377143 131.038125 
C 12.377143 158.498012 23.287071 184.836909 42.704144 204.253981 
C 62.121216 223.671054 88.460113 234.580982 115.92 234.580982 
L 115.92 234.580982 
z
" clip-path="url(#p7b1eb913d9)" style="fill: none; stroke: #000000; stroke-linejoin: miter"/>
   </g>
   <g id="PathCollection_1">
    <defs>
     <path id="m63fe3b9e84" d="M 0 3 
C 0.795609 3 1.55874 2.683901 2.12132 2.12132 
C 2.683901 1.55874 3 0.795609 3 0 
C 3 -0.795609 2.683901 -1.55874 2.12132 -2.12132 
C 1.55874 -2.683901 0.795609 -3 0 -3 
C -0.795609 -3 -1.55874 -2.683901 -2.12132 -2.12132 
C -2.683901 -1.55874 -3 -0.795609 -3 0 
C -3 0.795609 -2.683901 1.55874 -2.12132 2.12132 
C -1.55874 2.683901 -0.795609 3 0 3 
z
" style="stroke: #0000ff"/>
    </defs>
    <g clip-path="url(#p7b1eb913d9)">
     <use xlink:href="#m63fe3b9e84" x="190.001503" y="153.564918" style="fill: #0000ff; stroke: #0000ff"/>
     <use xlink:href="#m63fe3b9e84" x="43.83045" y="159.298031" style="fill: #0000ff; stroke: #0000ff"/>
     <use xlink:href="#m63fe3b9e84" x="129.737252" y="207.22611" style="fill: #0000ff; stroke: #0000ff"/>
    </g>
   </g>
   <g id="line2d_1">
    <path d="M 129.737252 207.22611 
L 127.809171 206.883274 
L 125.876237 206.509478 
L 123.939239 206.104875 
L 121.998967 205.669632 
L 120.056215 205.203924 
L 118.111774 204.707942 
L 116.166438 204.18189 
L 114.221001 203.625981 
L 112.276259 203.040442 
L 110.333003 202.425512 
L 108.392028 201.781443 
L 106.454126 201.108497 
L 104.520088 200.406949 
L 102.590703 199.677086 
L 100.666759 198.919205 
L 98.749041 198.133615 
L 96.838332 197.320638 
L 94.935412 196.480604 
L 93.041058 195.613858 
L 91.156043 194.720753 
L 89.281136 193.801653 
L 87.417103 192.856934 
L 85.564704 191.886981 
L 83.724697 190.89219 
L 81.897831 189.872967 
L 80.084852 188.829728 
L 78.286501 187.762899 
L 76.503512 186.672916 
L 74.736612 185.560224 
L 72.986523 184.425276 
L 71.253959 183.268536 
L 69.539627 182.090475 
L 67.844227 180.891576 
L 66.168451 179.672328 
L 64.512983 178.433227 
L 62.878499 177.17478 
L 61.265666 175.8975 
L 59.675142 174.60191 
L 58.107577 173.288537 
L 56.56361 171.957918 
L 55.043872 170.610595 
L 53.548983 169.24712 
L 52.079553 167.868048 
L 50.636183 166.473943 
L 49.21946 165.065373 
L 47.829964 163.642913 
L 46.468262 162.207145 
L 45.134909 160.758654 
L 43.83045 159.298031 
" clip-path="url(#p7b1eb913d9)" style="fill: none; stroke: #0000ff; stroke-width: 1.5; stroke-linecap: square"/>
   </g>
   <g id="line2d_2">
    <path d="M 190.001503 153.564918 
L 189.131954 154.939031 
L 188.242864 156.306764 
L 187.334472 157.667754 
L 186.407019 159.021636 
L 185.460754 160.36805 
L 184.495928 161.706635 
L 183.5128 163.037035 
L 182.511631 164.358895 
L 181.492689 165.671861 
L 180.456246 166.975584 
L 179.402579 168.269715 
L 178.331968 169.553909 
L 177.2447 170.827824 
L 176.141064 172.091119 
L 175.021356 173.343457 
L 173.885873 174.584503 
L 172.73492 175.813927 
L 171.568803 177.031401 
L 170.387833 178.2366 
L 169.192327 179.429201 
L 167.982602 180.608886 
L 166.758981 181.775342 
L 165.521792 182.928256 
L 164.271364 184.06732 
L 163.008032 185.192231 
L 161.732131 186.302689 
L 160.444004 187.398397 
L 159.143993 188.479062 
L 157.832446 189.544397 
L 156.509713 190.594116 
L 155.176147 191.62794 
L 153.832103 192.645593 
L 152.47794 193.646803 
L 151.11402 194.631303 
L 149.740707 195.59883 
L 148.358368 196.549126 
L 146.967371 197.481937 
L 145.568087 198.397015 
L 144.16089 199.294115 
L 142.746156 200.172998 
L 141.324262 201.033428 
L 139.895588 201.875177 
L 138.460515 202.69802 
L 137.019426 203.501737 
L 135.572705 204.286114 
L 134.120739 205.050941 
L 132.663916 205.796015 
L 131.202623 206.521136 
L 129.737252 207.22611 
" clip-path="url(#p7b1eb913d9)" style="fill: none; stroke: #0000ff; stroke-width: 1.5; stroke-linecap: square"/>
   </g>
   <g id="line2d_3">
    <path d="M 43.83045 159.298031 
L 46.243439 160.002808 
L 48.727841 160.677899 
L 51.28111 161.322612 
L 53.900629 161.936285 
L 56.583712 162.51829 
L 59.327611 163.068031 
L 62.129512 163.584943 
L 64.986545 164.068498 
L 67.89578 164.518199 
L 70.854236 164.933585 
L 73.858881 165.314232 
L 76.906636 165.659747 
L 79.994376 165.969779 
L 83.118937 166.244008 
L 86.277116 166.482154 
L 89.465677 166.683973 
L 92.681352 166.849258 
L 95.920845 166.977839 
L 99.180835 167.069584 
L 102.457981 167.1244 
L 105.748925 167.142231 
L 109.050294 167.123058 
L 112.358703 167.0669 
L 115.670762 166.973816 
L 118.983077 166.843901 
L 122.292253 166.677287 
L 125.594897 166.474146 
L 128.887626 166.234686 
L 132.167063 165.959153 
L 135.429849 165.647828 
L 138.672638 165.30103 
L 141.892108 164.919116 
L 145.084959 164.502477 
L 148.247918 164.051539 
L 151.377743 163.566765 
L 154.471227 163.048652 
L 157.525198 162.497731 
L 160.536528 161.914566 
L 163.50213 161.299755 
L 166.418963 160.653928 
L 169.284039 159.977747 
L 172.094421 159.271906 
L 174.847228 158.537127 
L 177.53964 157.774164 
L 180.168897 156.983798 
L 182.732303 156.166841 
L 185.227233 155.324128 
L 187.651127 154.456524 
L 190.001503 153.564918 
" clip-path="url(#p7b1eb913d9)" style="fill: none; stroke: #0000ff; stroke-width: 1.5; stroke-linecap: square"/>
   </g>
   <g id="line2d_4">
    <path d="M 119.864544 182.184467 
L 121.476938 181.86436 
L 123.087925 181.531398 
L 124.6971 181.185665 
L 126.304056 180.827249 
L 127.908384 180.456241 
L 129.509681 180.072734 
L 131.107541 179.676826 
L 132.701559 179.268616 
L 134.291334 178.848208 
L 135.876461 178.415708 
L 137.456542 177.971225 
L 139.031176 177.514872 
L 140.599964 177.046765 
L 142.16251 176.567021 
L 143.71842 176.075762 
L 145.267298 175.573112 
L 146.808755 175.059199 
L 148.342398 174.534152 
L 149.867842 173.998104 
L 151.3847 173.451191 
L 152.892588 172.893552 
L 154.391126 172.325326 
L 155.879933 171.746658 
L 157.358634 171.157694 
L 158.826854 170.558583 
L 160.284223 169.949477 
L 161.730371 169.33053 
L 163.164933 168.701898 
L 164.587546 168.06374 
L 165.99785 167.416217 
L 167.395488 166.759494 
L 168.780108 166.093737 
L 170.151359 165.419114 
L 171.508893 164.735795 
L 172.852368 164.043953 
L 174.181444 163.343763 
L 175.495785 162.635403 
L 176.795058 161.919052 
L 178.078935 161.19489 
L 179.347091 160.463101 
L 180.599205 159.72387 
L 181.834961 158.977384 
L 183.054046 158.223832 
L 184.256151 157.463404 
L 185.440973 156.696293 
L 186.608213 155.922692 
L 187.757574 155.142797 
L 188.888766 154.356807 
L 190.001503 153.564918 
" clip-path="url(#p7b1eb913d9)" style="fill: none; stroke: #ff0000; stroke-width: 1.5; stroke-linecap: square"/>
   </g>
   <g id="line2d_5">
    <path d="M 119.864544 182.184467 
L 118.154083 182.022475 
L 116.443001 181.846338 
L 114.731774 181.656104 
L 113.020877 181.451825 
L 111.310785 181.233559 
L 109.601971 181.001367 
L 107.89491 180.755312 
L 106.190076 180.495463 
L 104.487941 180.221891 
L 102.788978 179.934674 
L 101.093658 179.63389 
L 99.402452 179.319623 
L 97.715829 178.991961 
L 96.034257 178.650993 
L 94.358202 178.296815 
L 92.688129 177.929525 
L 91.024502 177.549225 
L 89.367783 177.156021 
L 87.71843 176.750021 
L 86.076902 176.331338 
L 84.443654 175.900088 
L 82.819139 175.456391 
L 81.203808 175.00037 
L 79.598109 174.532152 
L 78.002488 174.051867 
L 76.417387 173.559647 
L 74.843246 173.055629 
L 73.280502 172.539954 
L 71.729589 172.012763 
L 70.190936 171.474205 
L 68.66497 170.924427 
L 67.152116 170.363582 
L 65.652793 169.791827 
L 64.167416 169.20932 
L 62.696398 168.616221 
L 61.240147 168.012697 
L 59.799067 167.398914 
L 58.373559 166.775042 
L 56.964016 166.141255 
L 55.570831 165.497729 
L 54.19439 164.844642 
L 52.835075 164.182175 
L 51.493263 163.510513 
L 50.169326 162.82984 
L 48.863632 162.140348 
L 47.576543 161.442225 
L 46.308416 160.735667 
L 45.059603 160.02087 
L 43.83045 159.298031 
" clip-path="url(#p7b1eb913d9)" style="fill: none; stroke: #ff0000; stroke-width: 1.5; stroke-linecap: square"/>
   </g>
   <g id="line2d_6">
    <path d="M 119.864544 182.184467 
L 120.074185 182.76209 
L 120.283634 183.337332 
L 120.492883 183.910167 
L 120.701921 184.480569 
L 120.910739 185.04851 
L 121.119327 185.613966 
L 121.327676 186.176909 
L 121.535776 186.737315 
L 121.743618 187.295156 
L 121.951192 187.850409 
L 122.158488 188.403046 
L 122.365496 188.953043 
L 122.572208 189.500375 
L 122.778614 190.045015 
L 122.984705 190.586939 
L 123.19047 191.126123 
L 123.3959 191.66254 
L 123.600986 192.196168 
L 123.805719 192.72698 
L 124.010089 193.254953 
L 124.214086 193.780062 
L 124.417702 194.302283 
L 124.620927 194.821593 
L 124.823751 195.337966 
L 125.026165 195.85138 
L 125.22816 196.36181 
L 125.429727 196.869234 
L 125.630856 197.373628 
L 125.831538 197.874969 
L 126.031763 198.373233 
L 126.231524 198.868397 
L 126.430809 199.36044 
L 126.629611 199.849338 
L 126.82792 200.335069 
L 127.025727 200.81761 
L 127.223023 201.296939 
L 127.419798 201.773034 
L 127.616044 202.245874 
L 127.811752 202.715436 
L 128.006913 203.181698 
L 128.201517 203.644641 
L 128.395555 204.104241 
L 128.58902 204.560478 
L 128.781901 205.013331 
L 128.974191 205.462779 
L 129.165879 205.908801 
L 129.356958 206.351377 
L 129.547419 206.790487 
L 129.737252 207.22611 
" clip-path="url(#p7b1eb913d9)" style="fill: none; stroke: #ff0000; stroke-width: 1.5; stroke-linecap: square"/>
   </g>
   <g id="text_1">
    <!-- vertex angles 40°, 34°, 129° -->
    <g transform="translate(29.783438 16.318125) scale(0.12 -0.12)">
     <defs>
      <path id="DejaVuSans-76" d="M 191 3500 
L 800 3500 
L 1894 563 
L 2988 3500 
L 3597 3500 
L 2284 0 
L 1503 0 
L 191 3500 
z
" transform="scale(0.015625)"/>
      <path id="DejaVuSans-65" d="M 3597 1894 
L 3597 1613 
L 953 1613 
Q 991 1019 1311 708 
Q 1631 397 2203 397 
Q 2534 397 2845 478 
Q 3156 559 3463 722 
L 3463 178 
Q 3153 47 2828 -22 
Q 2503 -91 2169 -91 
Q 1331 -91 842 396 
Q 353 884 353 1716 
Q 353 2575 817 3079 
Q 1281 3584 2069 3584 
Q 2775 3584 3186 3129 
Q 3597 2675 3597 1894 
z
M 3022 2063 
Q 3016 2534 2758 2815 
Q 2500 3097 2075 3097 
Q 1594 3097 1305 2825 
Q 1016 2553 972 2059 
L 3022 2063 
z
" transform="scale(0.015625)"/>
      <path id="DejaVuSans-72" d="M 2631 2963 
Q 2534 3019 2420 3045 
Q 2306 3072 2169 3072 
Q 1681 3072 1420 2755 
Q 1159 2438 1159 1844 
L 1159 0 
L 581 0 
L 581 3500 
L 1159 3500 
L 1159 2956 
Q 1341 3275 1631 3429 
Q 1922 3584 2338 3584 
Q 2397 3584 2469 3576 
Q 2541 3569 2628 3553 
L 2631 2963 
z
" transform="scale(0.015625)"/>
      <path id="DejaVuSans-74" d="M 1172 4494 
L 1172 3500 
L 2356 3500 
L 2356 3053 
L 1172 3053 
L 1172 1153 
Q 1172 725 1289 603 
Q 1406 481 1766 481 
L 2356 481 
L 2356 0 
L 1766 0 
Q 1100 0 847 248 
Q 594 497 594 1153 
L 594 3053 
L 172 3053 
L 172 3500 
L 594 3500 
L 594 4494 
L 1172 4494 
z
" transform="scale(0.015625)"/>
      <path id="DejaVuSans-78" d="M 3513 3500 
L 2247 1797 
L 3578 0 
L 2900 0 
L 1881 1375 
L 863 0 
L 184 0 
L 1544 1831 
L 300 3500 
L 978 3500 
L 1906 2253 
L 2834 3500 
L 3513 3500 
z
" transform="scale(0.015625)"/>
      <path id="DejaVuSans-20" transform="scale(0.015625)"/>
      <path id="DejaVuSans-61" d="M 2194 1759 
Q 1497 1759 1228 1600 
Q 959 1441 959 1056 
Q 959 750 1161 570 
Q 1363 391 1709 391 
Q 2188 391 2477 730 
Q 2766 1069 2766 1631 
L 2766 1759 
L 2194 1759 
z
M 3341 1997 
L 3341 0 
L 2766 0 
L 2766 531 
Q 2569 213 2275 61 
Q 1981 -91 1556 -91 
Q 1019 -91 701 211 
Q 384 513 384 1019 
Q 384 1609 779 1909 
Q 1175 2209 1959 2209 
L 2766 2209 
L 2766 2266 
Q 2766 2663 2505 2880 
Q 2244 3097 1772 3097 
Q 1472 3097 1187 3025 
Q 903 2953 641 2809 
L 641 3341 
Q 956 3463 1253 3523 
Q 1550 3584 1831 3584 
Q 2591 3584 2966 3190 
Q 3341 2797 3341 1997 
z
" transform="scale(0.015625)"/>
      <path id="DejaVuSans-6e" d="M 3513 2113 
L 3513 0 
L 2938 0 
L 2938 2094 
Q 2938 2591 2744 2837 
Q 2550 3084 2163 3084 
Q 1697 3084 1428 2787 
Q 1159 2491 1159 1978 
L 1159 0 
L 581 0 
L 581 3500 
L 1159 3500 
L 1159 2956 
Q 1366 3272 1645 3428 
Q 1925 3584 2291 3584 
Q 2894 3584 3203 3211 
Q 3513 2838 3513 2113 
z
" transform="scale(0.015625)"/>
      <path id="DejaVuSans-67" d="M 2906 1791 
Q 2906 2416 2648 2759 
Q 2391 3103 1925 3103 
Q 1463 3103 1205 2759 
Q 947 2416 947 1791 
Q 947 1169 1205 825 
Q 1463 481 1925 481 
Q 2391 481 2648 825 
Q 2906 1169 2906 1791 
z
M 3481 434 
Q 3481 -459 3084 -895 
Q 2688 -1331 1869 -1331 
Q 1566 -1331 1297 -1286 
Q 1028 -1241 775 -1147 
L 775 -588 
Q 1028 -725 1275 -790 
Q 1522 -856 1778 -856 
Q 2344 -856 2625 -561 
Q 2906 -266 2906 331 
L 2906 616 
Q 2728 306 2450 153 
Q 2172 0 1784 0 
Q 1141 0 747 490 
Q 353 981 353 1791 
Q 353 2603 747 3093 
Q 1141 3584 1784 3584 
Q 2172 3584 2450 3431 
Q 2728 3278 2906 2969 
L 2906 3500 
L 3481 3500 
L 3481 434 
z
" transform="scale(0.015625)"/>
      <path id="DejaVuSans-6c" d="M 603 4863 
L 1178 4863 
L 1178 0 
L 603 0 
L 603 4863 
z
" transform="scale(0.015625)"/>
      <path id="DejaVuSans-73" d="M 2834 3397 
L 2834 2853 
Q 2591 2978 2328 3040 
Q 2066 3103 1784 3103 
Q 1356 3103 1142 2972 
Q 928 2841 928 2578 
Q 928 2378 1081 2264 
Q 1234 2150 1697 2047 
L 1894 2003 
Q 2506 1872 2764 1633 
Q 3022 1394 3022 966 
Q 3022 478 2636 193 
Q 2250 -91 1575 -91 
Q 1294 -91 989 -36 
Q 684 19 347 128 
L 347 722 
Q 666 556 975 473 
Q 1284 391 1588 391 
Q 1994 391 2212 530 
Q 2431 669 2431 922 
Q 2431 1156 2273 1281 
Q 2116 1406 1581 1522 
L 1381 1569 
Q 847 1681 609 1914 
Q 372 2147 372 2553 
Q 372 3047 722 3315 
Q 1072 3584 1716 3584 
Q 2034 3584 2315 3537 
Q 2597 3491 2834 3397 
z
" transform="scale(0.015625)"/>
      <path id="DejaVuSans-34" d="M 2419 4116 
L 825 1625 
L 2419 1625 
L 2419 4116 
z
M 2253 4666 
L 3047 4666 
L 3047 1625 
L 3713 1625 
L 3713 1100 
L 3047 1100 
L 3047 0 
L 2419 0 
L 2419 1100 
L 313 1100 
L 313 1709 
L 2253 4666 
z
" transform="scale(0.015625)"/>
      <path id="DejaVuSans-30" d="M 2034 4250 
Q 1547 4250 1301 3770 
Q 1056 3291 1056 2328 
Q 1056 1369 1301 889 
Q 1547 409 2034 409 
Q 2525 409 2770 889 
Q 3016 1369 3016 2328 
Q 3016 3291 2770 3770 
Q 2525 4250 2034 4250 
z
M 2034 4750 
Q 2819 4750 3233 4129 
Q 3647 3509 3647 2328 
Q 3647 1150 3233 529 
Q 2819 -91 2034 -91 
Q 1250 -91 836 529 
Q 422 1150 422 2328 
Q 422 3509 836 4129 
Q 1250 4750 2034 4750 
z
" transform="scale(0.015625)"/>
      <path id="DejaVuSans-b0" d="M 1600 4347 
Q 1350 4347 1178 4173 
Q 1006 4000 1006 3750 
Q 1006 3503 1178 3333 
Q 1350 3163 1600 3163 
Q 1850 3163 2022 3333 
Q 2194 3503 2194 3750 
Q 2194 3997 2020 4172 
Q 1847 4347 1600 4347 
z
M 1600 4750 
Q 1800 4750 1984 4673 
Q 2169 4597 2303 4453 
Q 2447 4313 2519 4134 
Q 2591 3956 2591 3750 
Q 2591 3338 2302 3052 
Q 2013 2766 1594 2766 
Q 1172 2766 890 3047 
Q 609 3328 609 3750 
Q 609 4169 896 4459 
Q 1184 4750 1600 4750 
z
" transform="scale(0.015625)"/>
      <path id="DejaVuSans-2c" d="M 750 794 
L 1409 794 
L 1409 256 
L 897 -744 
L 494 -744 
L 750 256 
L 750 794 
z
" transform="scale(0.015625)"/>
      <path id="DejaVuSans-33" d="M 2597 2516 
Q 3050 2419 3304 2112 
Q 3559 1806 3559 1356 
Q 3559 666 3084 287 
Q 2609 -91 1734 -91 
Q 1441 -91 1130 -33 
Q 819 25 488 141 
L 488 750 
Q 750 597 1062 519 
Q 1375 441 1716 441 
Q 2309 441 2620 675 
Q 2931 909 2931 1356 
Q 2931 1769 2642 2001 
Q 2353 2234 1838 2234 
L 1294 2234 
L 1294 2753 
L 1863 2753 
Q 2328 2753 2575 2939 
Q 2822 3125 2822 3475 
Q 2822 3834 2567 4026 
Q 2313 4219 1838 4219 
Q 1578 4219 1281 4162 
Q 984 4106 628 3988 
L 628 4550 
Q 988 4650 1302 4700 
Q 1616 4750 1894 4750 
Q 2613 4750 3031 4423 
Q 3450 4097 3450 3541 
Q 3450 3153 3228 2886 
Q 3006 2619 2597 2516 
z
" transform="scale(0.015625)"/>
      <path id="DejaVuSans-31" d="M 794 531 
L 1825 531 
L 1825 4091 
L 703 3866 
L 703 4441 
L 1819 4666 
L 2450 4666 
L 2450 531 
L 3481 531 
L 3481 0 
L 794 0 
L 794 531 
z
" transform="scale(0.015625)"/>
      <path id="DejaVuSans-32" d="M 1228 531 
L 3431 531 
L 3431 0 
L 469 0 
L 469 531 
Q 828 903 1448 1529 
Q 2069 2156 2228 2338 
Q 2531 2678 2651 2914 
Q 2772 3150 2772 3378 
Q 2772 3750 2511 3984 
Q 2250 4219 1831 4219 
Q 1534 4219 1204 4116 
Q 875 4013 500 3803 
L 500 4441 
Q 881 4594 1212 4672 
Q 1544 4750 1819 4750 
Q 2544 4750 2975 4387 
Q 3406 4025 3406 3419 
Q 3406 3131 3298 2873 
Q 3191 2616 2906 2266 
Q 2828 2175 2409 1742 
Q 1991 1309 1228 531 
z
" transform="scale(0.015625)"/>
      <path id="DejaVuSans-39" d="M 703 97 
L 703 672 
Q 941 559 1184 500 
Q 1428 441 1663 441 
Q 2288 441 2617 861 
Q 2947 1281 2994 2138 
Q 2813 1869 2534 1725 
Q 2256 1581 1919 1581 
Q 1219 1581 811 2004 
Q 403 2428 403 3163 
Q 403 3881 828 4315 
Q 1253 4750 1959 4750 
Q 2769 4750 3195 4129 
Q 3622 3509 3622 2328 
Q 3622 1225 3098 567 
Q 2575 -91 1691 -91 
Q 1453 -91 1209 -44 
Q 966 3 703 97 
z
M 1959 2075 
Q 2384 2075 2632 2365 
Q 2881 2656 2881 3163 
Q 2881 3666 2632 3958 
Q 2384 4250 1959 4250 
Q 1534 4250 1286 3958 
Q 1038 3666 1038 3163 
Q 1038 2656 1286 2365 
Q 1534 2075 1959 2075 
z
" transform="scale(0.015625)"/>
     </defs>
     <use xlink:href="#DejaVuSans-76"/>
     <use xlink:href="#DejaVuSans-65" x="59.179688"/>
     <use xlink:href="#DejaVuSans-72" x="120.703125"/>
     <use xlink:href="#DejaVuSans-74" x="161.816406"/>
     <use xlink:href="#DejaVuSans-65" x="201.025391"/>
     <use xlink:href="#DejaVuSans-78" x="260.798828"/>
     <use xlink:href="#DejaVuSans-20" x="319.978516"/>
     <use xlink:href="#DejaVuSans-61" x="351.765625"/>
     <use xlink:href="#DejaVuSans-6e" x="413.044922"/>
     <use xlink:href="#DejaVuSans-67" x="476.423828"/>
     <use xlink:href="#DejaVuSans-6c" x="539.900391"/>
     <use xlink:href="#DejaVuSans-65" x="567.683594"/>
     <use xlink:href="#DejaVuSans-73" x="629.207031"/>
     <use xlink:href="#DejaVuSans-20" x="681.306641"/>
     <use xlink:href="#DejaVuSans-34" x="713.09375"/>
     <use xlink:href="#DejaVuSans-30" x="776.716797"/>
     <use xlink:href="#DejaVuSans-b0" x="840.339844"/>
     <use xlink:href="#DejaVuSans-2c" x="890.339844"/>
     <use xlink:href="#DejaVuSans-20" x="922.126953"/>
     <use xlink:href="#DejaVuSans-33" x="953.914062"/>
     <use xlink:href="#DejaVuSans-34" x="1017.537109"/>
     <use xlink:href="#DejaVuSans-b0" x="1081.160156"/>
     <use xlink:href="#DejaVuSans-2c" x="1131.160156"/>
     <use xlink:href="#DejaVuSans-20" x="1162.947266"/>
     <use xlink:href="#DejaVuSans-31" x="1194.734375"/>
     <use xlink:href="#DejaVuSans-32" x="1258.357422"/>
     <use xlink:href="#DejaVuSans-39" x="1321.980469"/>
     <use xlink:href="#DejaVuSans-b0" x="1385.603516"/>
    </g>
   </g>
   <g id="PathCollection_2">
    <defs>
     <path id="md922241c85" d="M 0 3 
C 0.795609 3 1.55874 2.683901 2.12132 2.12132 
C 2.683901 1.55874 3 0.795609 3 0 
C 3 -0.795609 2.683901 -1.55874 2.12132 -2.12132 
C 1.55874 -2.683901 0.795609 -3 0 -3 
C -0.795609 -3 -1.55874 -2.683901 -2.12132 -2.12132 
C -2.683901 -1.55874 -3 -0.795609 -3 0 
C -3 0.795609 -2.683901 1.55874 -2.12132 2.12132 
C -1.55874 2.683901 -0.795609 3 0 3 
z
" style="stroke: #ff0000"/>
    </defs>
    <g clip-path="url(#p7b1eb913d9)">
     <use xlink:href="#md922241c85" x="119.864544" y="182.184467" style="fill: #ff0000; stroke: #ff0000"/>
    </g>
   </g>
  </g>
 </g>
 <defs>
  <clipPath id="p7b1eb913d9">
   <rect x="7.2" y="22.318125" width="217.44" height="217.44"/>
  </clipPath>
 </defs>
</svg>
