<?xml version="1.0" encoding="utf-8" standalone="no"?>
<!DOCTYPE svg PUBLIC "-//W3C//DTD SVG 1.1//EN"
  "http://www.w3.org/Graphics/SVG/1.1/DTD/svg11.dtd">
<svg xmlns:xlink="http://www.w3.org/1999/xlink" width="231.84pt" height="246.958125pt" viewBox="0 0 231.84 246.958125" xmlns="http://www.w3.org/2000/svg" version="1.1">
 <metadata>
  <rdf:RDF xmlns:dc="http://purl.org/dc/elements/1.1/" xmlns:cc="http://creativecommons.org/ns#" xmlns:rdf="http://www.w3.org/1999/02/22-rdf-syntax-ns#">
   <cc:Work>
    <dc:type rdf:resource="http://purl.org/dc/dcmitype/StillImage"/>
    <dc:date>2023-11-02T21:12:29.584539</dc:date>
    <dc:format>image/svg+xml</dc:format>
    <dc:creator>
     <cc:Agent>
      <dc:title>Matplotlib v3.8.0, https://matplotlib.org/</dc:title>
     </cc:Agent>
    </dc:creator>
   </cc:Work>
  </rdf:RDF>
 </metadata>
 <defs>
  <style type="text/css">*{stroke-linejoin: round; stroke-linecap: butt}</style>
 </defs>
 <g id="figure_1">
  <g id="patch_1">
   <path d="M 0 246.958125 
L 231.84 246.958125 
L 231.84 0 
L 0 0 
z
" style="fill: #ffffff"/>
  </g>
  <g id="axes_1">
   <g id="patch_2">
    <path d="M 115.92 234.580982 
C 143.379887 234.580982 169.718784 223.671054 189.135856 204.253981 
C 208.552929 184.836909 219.462857 158.498012 219.462857 131.038125 
C 219.462857 103.578238 208.552929 77.239341 189.135856 57.822269 
C 169.718784 38.405196 143.379887 27.495268 115.92 27.495268 
C 88.460113 27.495268 62.121216 38.405196 42.704144 57.822269 
C 23.287071 77.239341 12.377143 103.578238 12.377143 131.038125 
C 12.377143 158.498012 23.287071 184.836909 42.704144 204.253981 
C 62.121216 223.671054 88.460113 234.580982 115.92 234.580982 
L 115.92 234.580982 
z
" clip-path="url(#p59568cc1b4)" style="fill: none; stroke: #000000; stroke-linejoin: miter"/>
   </g>
   <g id="PathCollection_1">
    <defs>
     <path id="m582168dc56" d="M 0 3 
C 0.795609 3 1.55874 2.683901 2.12132 2.12132 
C 2.683901 1.55874 3 0.795609 3 0 
C 3 -0.795609 2.683901 -1.55874 2.12132 -2.12132 
C 1.55874 -2.683901 0.795609 -3 0 -3 
C -0.795609 -3 -1.55874 -2.683901 -2.12132 -2.12132 
C -2.683901 -1.55874 -3 -0.795609 -3 0 
C -3 0.795609 -2.683901 1.55874 -2.12132 2.12132 
C -1.55874 2.683901 -0.795609 3 0 3 
z
" style="stroke: #0000ff"/>
    </defs>
    <g clip-path="url(#p59568cc1b4)">
     <use xlink:href="#m582168dc56" x="117.222923" y="234.534756" style="fill: #0000ff; stroke: #0000ff"/>
     <use xlink:href="#m582168dc56" x="151.848193" y="33.968999" style="fill: #0000ff; stroke: #0000ff"/>
     <use xlink:href="#m582168dc56" x="31.405091" y="190.791621" style="fill: #0000ff; stroke: #0000ff"/>
    </g>
   </g>
   <g id="line2d_1">
    <path d="M 31.405091 190.791621 
L 28.445414 186.343034 
L 25.720428 181.746067 
L 23.237442 177.013054 
L 21.003118 172.156692 
L 19.02345 167.190012 
L 17.303752 162.126337 
L 15.848635 156.979255 
L 14.662004 151.762574 
L 13.747042 146.490291 
L 13.106205 141.17655 
L 12.741212 135.835609 
L 12.653042 130.481796 
L 12.841932 125.129476 
L 13.307374 119.793008 
L 14.04812 114.48671 
L 15.062184 109.224819 
L 16.346843 104.021452 
L 17.898651 98.890569 
L 19.713445 93.845936 
L 21.786357 88.901088 
L 24.111823 84.069291 
L 26.683606 79.363509 
L 29.494806 74.796367 
L 32.537879 70.380119 
L 35.804662 66.126613 
L 39.28639 62.04726 
L 42.973722 58.153007 
L 46.856765 54.4543 
L 50.9251 50.961064 
L 55.167814 47.68267 
L 59.573522 44.627914 
L 64.130405 41.804992 
L 68.826236 39.221477 
L 73.648417 36.884302 
L 78.584011 34.799736 
L 83.619775 32.973372 
L 88.742199 31.410111 
L 93.937539 30.114146 
L 99.191857 29.088955 
L 104.491056 28.337288 
L 109.820918 27.861161 
L 115.167144 27.661853 
L 120.515389 27.739897 
L 125.851306 28.095086 
L 131.160577 28.726464 
L 136.428958 29.632339 
L 141.642315 30.810281 
L 146.786661 32.257128 
L 151.848193 33.968999 
" clip-path="url(#p59568cc1b4)" style="fill: none; stroke: #0000ff; stroke-width: 1.5; stroke-linecap: square"/>
   </g>
   <g id="line2d_2">
    <path d="M 117.222923 234.534756 
L 115.178552 234.539523 
L 113.13447 234.503934 
L 111.091475 234.428002 
L 109.050361 234.311757 
L 107.011927 234.155244 
L 104.976966 233.958525 
L 102.946271 233.721676 
L 100.920636 233.44479 
L 98.900848 233.127974 
L 96.887697 232.771352 
L 94.881967 232.375063 
L 92.884439 231.939261 
L 90.895894 231.464117 
L 88.917105 230.949816 
L 86.948846 230.396558 
L 84.991882 229.804559 
L 83.046978 229.17405 
L 81.114891 228.505277 
L 79.196376 227.798499 
L 77.292179 227.053994 
L 75.403043 226.272052 
L 73.529706 225.452976 
L 71.672897 224.597087 
L 69.833341 223.704718 
L 68.011754 222.776217 
L 66.208848 221.811947 
L 64.425324 220.812283 
L 62.661879 219.777615 
L 60.919199 218.708346 
L 59.197965 217.604894 
L 57.498848 216.467688 
L 55.82251 215.297172 
L 54.169604 214.093803 
L 52.540776 212.858049 
L 50.93666 211.590393 
L 49.357882 210.291329 
L 47.805057 208.961362 
L 46.278791 207.601013 
L 44.779679 206.210811 
L 43.308305 204.791298 
L 41.865243 203.343028 
L 40.451057 201.866565 
L 39.066296 200.362486 
L 37.711502 198.831376 
L 36.387202 197.273832 
L 35.093912 195.690463 
L 33.832138 194.081885 
L 32.602371 192.448726 
L 31.405091 190.791621 
" clip-path="url(#p59568cc1b4)" style="fill: none; stroke: #0000ff; stroke-width: 1.5; stroke-linecap: square"/>
   </g>
   <g id="line2d_3">
    <path d="M 151.848193 33.968999 
L 157.212876 36.15543 
L 162.445581 38.645124 
L 167.529581 41.430122 
L 172.448627 44.501525 
L 177.186997 47.849514 
L 181.729547 51.463389 
L 186.061757 55.331599 
L 190.169782 59.441782 
L 194.04049 63.7808 
L 197.661511 68.334784 
L 201.021272 73.08918 
L 204.109033 78.028791 
L 206.914925 83.13783 
L 209.429981 88.399967 
L 211.646163 93.798383 
L 213.556385 99.315824 
L 215.154544 104.934656 
L 216.435531 110.636919 
L 217.395252 116.404388 
L 218.03064 122.218629 
L 218.339663 128.061059 
L 218.321334 133.913005 
L 217.975711 139.755761 
L 217.3039 145.570655 
L 216.308048 151.339099 
L 214.991336 157.042658 
L 213.357975 162.663102 
L 211.413184 168.182467 
L 209.163179 173.583111 
L 206.615151 178.847774 
L 203.777246 183.959629 
L 200.658532 188.902336 
L 197.268979 193.6601 
L 193.619419 198.217711 
L 189.721518 202.560605 
L 185.587734 206.674899 
L 181.231278 210.547444 
L 176.666076 214.165864 
L 171.906719 217.518591 
L 166.968417 220.594911 
L 161.866955 223.384991 
L 156.618639 225.879914 
L 151.240242 228.071705 
L 145.748955 229.953359 
L 140.162329 231.518861 
L 134.498221 232.763209 
L 128.774733 233.682424 
L 123.010159 234.27357 
L 117.222923 234.534756 
" clip-path="url(#p59568cc1b4)" style="fill: none; stroke: #0000ff; stroke-width: 1.5; stroke-linecap: square"/>
   </g>
   <g id="line2d_4">
    <path d="M 146.799534 70.054896 
L 147.77462 73.820554 
L 148.687199 77.698486 
L 149.535482 81.681084 
L 150.317802 85.760533 
L 151.032626 89.928826 
L 151.67855 94.177787 
L 152.254308 98.499076 
L 152.758768 102.884215 
L 153.190943 107.324598 
L 153.549982 111.811513 
L 153.835183 116.336155 
L 154.045984 120.889647 
L 154.181974 125.463051 
L 154.242884 130.047396 
L 154.228595 134.633685 
L 154.139136 139.212918 
L 153.974682 143.77611 
L 153.735555 148.314307 
L 153.422224 152.818605 
L 153.035306 157.280163 
L 152.575558 161.690229 
L 152.043883 166.040148 
L 151.441324 170.321384 
L 150.769064 174.525537 
L 150.028422 178.644357 
L 149.220851 182.669763 
L 148.347935 186.593854 
L 147.411388 190.408932 
L 146.413048 194.10751 
L 145.354872 197.682331 
L 144.238938 201.126379 
L 143.067436 204.432898 
L 141.842664 207.595398 
L 140.567025 210.607675 
L 139.243023 213.463816 
L 137.873256 216.158219 
L 136.46041 218.685596 
L 135.00726 221.040987 
L 133.516656 223.21977 
L 131.991523 225.217671 
L 130.434854 227.030769 
L 128.849703 228.655507 
L 127.239181 230.088695 
L 125.606448 231.327523 
L 123.954708 232.369558 
L 122.287201 233.212757 
L 120.607201 233.855464 
L 118.918004 234.296419 
L 117.222923 234.534756 
" clip-path="url(#p59568cc1b4)" style="fill: none; stroke: #ff0000; stroke-width: 1.5; stroke-linecap: square"/>
   </g>
   <g id="line2d_5">
    <path d="M 146.799534 70.054896 
L 147.140516 68.782324 
L 147.472572 67.527551 
L 147.795607 66.290934 
L 148.109531 65.072827 
L 148.414251 63.873578 
L 148.709683 62.693531 
L 148.99574 61.533021 
L 149.272341 60.392383 
L 149.539408 59.27194 
L 149.796863 58.172014 
L 150.044634 57.092919 
L 150.282649 56.034964 
L 150.510841 54.998451 
L 150.729143 53.983676 
L 150.937495 52.99093 
L 151.135835 52.020495 
L 151.324108 51.072651 
L 151.502259 50.147667 
L 151.670239 49.245808 
L 151.827997 48.367333 
L 151.975491 47.512491 
L 152.112677 46.681528 
L 152.239516 45.87468 
L 152.355972 45.09218 
L 152.462011 44.33425 
L 152.557604 43.601106 
L 152.642723 42.89296 
L 152.717343 42.210012 
L 152.781444 41.552459 
L 152.835007 40.920488 
L 152.878016 40.314281 
L 152.91046 39.734009 
L 152.932329 39.17984 
L 152.943617 38.651931 
L 152.94432 38.150434 
L 152.934439 37.675491 
L 152.913976 37.227239 
L 152.882937 36.805807 
L 152.841331 36.411313 
L 152.78917 36.043871 
L 152.726469 35.703587 
L 152.653246 35.390557 
L 152.569521 35.104871 
L 152.475318 34.84661 
L 152.370666 34.615849 
L 152.255592 34.412653 
L 152.130131 34.237081 
L 151.994318 34.089182 
L 151.848193 33.968999 
" clip-path="url(#p59568cc1b4)" style="fill: none; stroke: #ff0000; stroke-width: 1.5; stroke-linecap: square"/>
   </g>
   <g id="line2d_6">
    <path d="M 146.799534 70.054896 
L 143.175441 71.475614 
L 139.497964 73.012995 
L 135.774305 74.664027 
L 132.011759 76.425477 
L 128.217695 78.293893 
L 124.399544 80.265618 
L 120.564784 82.336788 
L 116.720927 84.503347 
L 112.875501 86.761052 
L 109.036039 89.10548 
L 105.210059 91.532039 
L 101.405057 94.035978 
L 97.628484 96.612391 
L 93.887738 99.256231 
L 90.190146 101.962322 
L 86.54295 104.725362 
L 82.953293 107.53994 
L 79.428206 110.400542 
L 75.974594 113.301566 
L 72.599221 116.23733 
L 69.308699 119.202084 
L 66.109472 122.190021 
L 63.007807 125.195287 
L 60.009779 128.211998 
L 57.121259 131.234245 
L 54.347905 134.256107 
L 51.69515 137.271666 
L 49.168189 140.275016 
L 46.771972 143.260274 
L 44.511192 146.221593 
L 42.390277 149.153173 
L 40.413381 152.049272 
L 38.584377 154.904217 
L 36.906846 157.712417 
L 35.384075 160.468371 
L 34.019045 163.166681 
L 32.814432 165.802063 
L 31.772593 168.369354 
L 30.89557 170.863527 
L 30.18508 173.279695 
L 29.642516 175.613126 
L 29.268939 177.859251 
L 29.065081 180.013669 
L 29.031342 182.072161 
L 29.167788 184.030695 
L 29.474152 185.885435 
L 29.949833 187.632748 
L 30.593899 189.269212 
L 31.405091 190.791621 
" clip-path="url(#p59568cc1b4)" style="fill: none; stroke: #ff0000; stroke-width: 1.5; stroke-linecap: square"/>
   </g>
   <g id="text_1">
    <!-- vertex angles 171°, 167°, 174° -->
    <g transform="translate(22.148438 16.318125) scale(0.12 -0.12)">
     <defs>
      <path id="DejaVuSans-76" d="M 191 3500 
L 800 3500 
L 1894 563 
L 2988 3500 
L 3597 3500 
L 2284 0 
L 1503 0 
L 191 3500 
z
" transform="scale(0.015625)"/>
      <path id="DejaVuSans-65" d="M 3597 1894 
L 3597 1613 
L 953 1613 
Q 991 1019 1311 708 
Q 1631 397 2203 397 
Q 2534 397 2845 478 
Q 3156 559 3463 722 
L 3463 178 
Q 3153 47 2828 -22 
Q 2503 -91 2169 -91 
Q 1331 -91 842 396 
Q 353 884 353 1716 
Q 353 2575 817 3079 
Q 1281 3584 2069 3584 
Q 2775 3584 3186 3129 
Q 3597 2675 3597 1894 
z
M 3022 2063 
Q 3016 2534 2758 2815 
Q 2500 3097 2075 3097 
Q 1594 3097 1305 2825 
Q 1016 2553 972 2059 
L 3022 2063 
z
" transform="scale(0.015625)"/>
      <path id="DejaVuSans-72" d="M 2631 2963 
Q 2534 3019 2420 3045 
Q 2306 3072 2169 3072 
Q 1681 3072 1420 2755 
Q 1159 2438 1159 1844 
L 1159 0 
L 581 0 
L 581 3500 
L 1159 3500 
L 1159 2956 
Q 1341 3275 1631 3429 
Q 1922 3584 2338 3584 
Q 2397 3584 2469 3576 
Q 2541 3569 2628 3553 
L 2631 2963 
z
" transform="scale(0.015625)"/>
      <path id="DejaVuSans-74" d="M 1172 4494 
L 1172 3500 
L 2356 3500 
L 2356 3053 
L 1172 3053 
L 1172 1153 
Q 1172 725 1289 603 
Q 1406 481 1766 481 
L 2356 481 
L 2356 0 
L 1766 0 
Q 1100 0 847 248 
Q 594 497 594 1153 
L 594 3053 
L 172 3053 
L 172 3500 
L 594 3500 
L 594 4494 
L 1172 4494 
z
" transform="scale(0.015625)"/>
      <path id="DejaVuSans-78" d="M 3513 3500 
L 2247 1797 
L 3578 0 
L 2900 0 
L 1881 1375 
L 863 0 
L 184 0 
L 1544 1831 
L 300 3500 
L 978 3500 
L 1906 2253 
L 2834 3500 
L 3513 3500 
z
" transform="scale(0.015625)"/>
      <path id="DejaVuSans-20" transform="scale(0.015625)"/>
      <path id="DejaVuSans-61" d="M 2194 1759 
Q 1497 1759 1228 1600 
Q 959 1441 959 1056 
Q 959 750 1161 570 
Q 1363 391 1709 391 
Q 2188 391 2477 730 
Q 2766 1069 2766 1631 
L 2766 1759 
L 2194 1759 
z
M 3341 1997 
L 3341 0 
L 2766 0 
L 2766 531 
Q 2569 213 2275 61 
Q 1981 -91 1556 -91 
Q 1019 -91 701 211 
Q 384 513 384 1019 
Q 384 1609 779 1909 
Q 1175 2209 1959 2209 
L 2766 2209 
L 2766 2266 
Q 2766 2663 2505 2880 
Q 2244 3097 1772 3097 
Q 1472 3097 1187 3025 
Q 903 2953 641 2809 
L 641 3341 
Q 956 3463 1253 3523 
Q 1550 3584 1831 3584 
Q 2591 3584 2966 3190 
Q 3341 2797 3341 1997 
z
" transform="scale(0.015625)"/>
      <path id="DejaVuSans-6e" d="M 3513 2113 
L 3513 0 
L 2938 0 
L 2938 2094 
Q 2938 2591 2744 2837 
Q 2550 3084 2163 3084 
Q 1697 3084 1428 2787 
Q 1159 2491 1159 1978 
L 1159 0 
L 581 0 
L 581 3500 
L 1159 3500 
L 1159 2956 
Q 1366 3272 1645 3428 
Q 1925 3584 2291 3584 
Q 2894 3584 3203 3211 
Q 3513 2838 3513 2113 
z
" transform="scale(0.015625)"/>
      <path id="DejaVuSans-67" d="M 2906 1791 
Q 2906 2416 2648 2759 
Q 2391 3103 1925 3103 
Q 1463 3103 1205 2759 
Q 947 2416 947 1791 
Q 947 1169 1205 825 
Q 1463 481 1925 481 
Q 2391 481 2648 825 
Q 2906 1169 2906 1791 
z
M 3481 434 
Q 3481 -459 3084 -895 
Q 2688 -1331 1869 -1331 
Q 1566 -1331 1297 -1286 
Q 1028 -1241 775 -1147 
L 775 -588 
Q 1028 -725 1275 -790 
Q 1522 -856 1778 -856 
Q 2344 -856 2625 -561 
Q 2906 -266 2906 331 
L 2906 616 
Q 2728 306 2450 153 
Q 2172 0 1784 0 
Q 1141 0 747 490 
Q 353 981 353 1791 
Q 353 2603 747 3093 
Q 1141 3584 1784 3584 
Q 2172 3584 2450 3431 
Q 2728 3278 2906 2969 
L 2906 3500 
L 3481 3500 
L 3481 434 
z
" transform="scale(0.015625)"/>
      <path id="DejaVuSans-6c" d="M 603 4863 
L 1178 4863 
L 1178 0 
L 603 0 
L 603 4863 
z
" transform="scale(0.015625)"/>
      <path id="DejaVuSans-73" d="M 2834 3397 
L 2834 2853 
Q 2591 2978 2328 3040 
Q 2066 3103 1784 3103 
Q 1356 3103 1142 2972 
Q 928 2841 928 2578 
Q 928 2378 1081 2264 
Q 1234 2150 1697 2047 
L 1894 2003 
Q 2506 1872 2764 1633 
Q 3022 1394 3022 966 
Q 3022 478 2636 193 
Q 2250 -91 1575 -91 
Q 1294 -91 989 -36 
Q 684 19 347 128 
L 347 722 
Q 666 556 975 473 
Q 1284 391 1588 391 
Q 1994 391 2212 530 
Q 2431 669 2431 922 
Q 2431 1156 2273 1281 
Q 2116 1406 1581 1522 
L 1381 1569 
Q 847 1681 609 1914 
Q 372 2147 372 2553 
Q 372 3047 722 3315 
Q 1072 3584 1716 3584 
Q 2034 3584 2315 3537 
Q 2597 3491 2834 3397 
z
" transform="scale(0.015625)"/>
      <path id="DejaVuSans-31" d="M 794 531 
L 1825 531 
L 1825 4091 
L 703 3866 
L 703 4441 
L 1819 4666 
L 2450 4666 
L 2450 531 
L 3481 531 
L 3481 0 
L 794 0 
L 794 531 
z
" transform="scale(0.015625)"/>
      <path id="DejaVuSans-37" d="M 525 4666 
L 3525 4666 
L 3525 4397 
L 1831 0 
L 1172 0 
L 2766 4134 
L 525 4134 
L 525 4666 
z
" transform="scale(0.015625)"/>
      <path id="DejaVuSans-b0" d="M 1600 4347 
Q 1350 4347 1178 4173 
Q 1006 4000 1006 3750 
Q 1006 3503 1178 3333 
Q 1350 3163 1600 3163 
Q 1850 3163 2022 3333 
Q 2194 3503 2194 3750 
Q 2194 3997 2020 4172 
Q 1847 4347 1600 4347 
z
M 1600 4750 
Q 1800 4750 1984 4673 
Q 2169 4597 2303 4453 
Q 2447 4313 2519 4134 
Q 2591 3956 2591 3750 
Q 2591 3338 2302 3052 
Q 2013 2766 1594 2766 
Q 1172 2766 890 3047 
Q 609 3328 609 3750 
Q 609 4169 896 4459 
Q 1184 4750 1600 4750 
z
" transform="scale(0.015625)"/>
      <path id="DejaVuSans-2c" d="M 750 794 
L 1409 794 
L 1409 256 
L 897 -744 
L 494 -744 
L 750 256 
L 750 794 
z
" transform="scale(0.015625)"/>
      <path id="DejaVuSans-36" d="M 2113 2584 
Q 1688 2584 1439 2293 
Q 1191 2003 1191 1497 
Q 1191 994 1439 701 
Q 1688 409 2113 409 
Q 2538 409 2786 701 
Q 3034 994 3034 1497 
Q 3034 2003 2786 2293 
Q 2538 2584 2113 2584 
z
M 3366 4563 
L 3366 3988 
Q 3128 4100 2886 4159 
Q 2644 4219 2406 4219 
Q 1781 4219 1451 3797 
Q 1122 3375 1075 2522 
Q 1259 2794 1537 2939 
Q 1816 3084 2150 3084 
Q 2853 3084 3261 2657 
Q 3669 2231 3669 1497 
Q 3669 778 3244 343 
Q 2819 -91 2113 -91 
Q 1303 -91 875 529 
Q 447 1150 447 2328 
Q 447 3434 972 4092 
Q 1497 4750 2381 4750 
Q 2619 4750 2861 4703 
Q 3103 4656 3366 4563 
z
" transform="scale(0.015625)"/>
      <path id="DejaVuSans-34" d="M 2419 4116 
L 825 1625 
L 2419 1625 
L 2419 4116 
z
M 2253 4666 
L 3047 4666 
L 3047 1625 
L 3713 1625 
L 3713 1100 
L 3047 1100 
L 3047 0 
L 2419 0 
L 2419 1100 
L 313 1100 
L 313 1709 
L 2253 4666 
z
" transform="scale(0.015625)"/>
     </defs>
     <use xlink:href="#DejaVuSans-76"/>
     <use xlink:href="#DejaVuSans-65" x="59.179688"/>
     <use xlink:href="#DejaVuSans-72" x="120.703125"/>
     <use xlink:href="#DejaVuSans-74" x="161.816406"/>
     <use xlink:href="#DejaVuSans-65" x="201.025391"/>
     <use xlink:href="#DejaVuSans-78" x="260.798828"/>
     <use xlink:href="#DejaVuSans-20" x="319.978516"/>
     <use xlink:href="#DejaVuSans-61" x="351.765625"/>
     <use xlink:href="#DejaVuSans-6e" x="413.044922"/>
     <use xlink:href="#DejaVuSans-67" x="476.423828"/>
     <use xlink:href="#DejaVuSans-6c" x="539.900391"/>
     <use xlink:href="#DejaVuSans-65" x="567.683594"/>
     <use xlink:href="#DejaVuSans-73" x="629.207031"/>
     <use xlink:href="#DejaVuSans-20" x="681.306641"/>
     <use xlink:href="#DejaVuSans-31" x="713.09375"/>
     <use xlink:href="#DejaVuSans-37" x="776.716797"/>
     <use xlink:href="#DejaVuSans-31" x="840.339844"/>
     <use xlink:href="#DejaVuSans-b0" x="903.962891"/>
     <use xlink:href="#DejaVuSans-2c" x="953.962891"/>
     <use xlink:href="#DejaVuSans-20" x="985.75"/>
     <use xlink:href="#DejaVuSans-31" x="1017.537109"/>
     <use xlink:href="#DejaVuSans-36" x="1081.160156"/>
     <use xlink:href="#DejaVuSans-37" x="1144.783203"/>
     <use xlink:href="#DejaVuSans-b0" x="1208.40625"/>
     <use xlink:href="#DejaVuSans-2c" x="1258.40625"/>
     <use xlink:href="#DejaVuSans-20" x="1290.193359"/>
     <use xlink:href="#DejaVuSans-31" x="1321.980469"/>
     <use xlink:href="#DejaVuSans-37" x="1385.603516"/>
     <use xlink:href="#DejaVuSans-34" x="1449.226562"/>
     <use xlink:href="#DejaVuSans-b0" x="1512.849609"/>
    </g>
   </g>
   <g id="PathCollection_2">
    <defs>
     <path id="m99dc30f7c7" d="M 0 3 
C 0.795609 3 1.55874 2.683901 2.12132 2.12132 
C 2.683901 1.55874 3 0.795609 3 0 
C 3 -0.795609 2.683901 -1.55874 2.12132 -2.12132 
C 1.55874 -2.683901 0.795609 -3 0 -3 
C -0.795609 -3 -1.55874 -2.683901 -2.12132 -2.12132 
C -2.683901 -1.55874 -3 -0.795609 -3 0 
C -3 0.795609 -2.683901 1.55874 -2.12132 2.12132 
C -1.55874 2.683901 -0.795609 3 0 3 
z
" style="stroke: #ff0000"/>
    </defs>
    <g clip-path="url(#p59568cc1b4)">
     <use xlink:href="#m99dc30f7c7" x="146.799534" y="70.054896" style="fill: #ff0000; stroke: #ff0000"/>
    </g>
   </g>
  </g>
 </g>
 <defs>
  <clipPath id="p59568cc1b4">
   <rect x="7.2" y="22.318125" width="217.44" height="217.44"/>
  </clipPath>
 </defs>
</svg>
