<?xml version="1.0" encoding="utf-8" standalone="no"?>
<!DOCTYPE svg PUBLIC "-//W3C//DTD SVG 1.1//EN"
  "http://www.w3.org/Graphics/SVG/1.1/DTD/svg11.dtd">
<svg xmlns:xlink="http://www.w3.org/1999/xlink" width="231.84pt" height="246.958125pt" viewBox="0 0 231.84 246.958125" xmlns="http://www.w3.org/2000/svg" version="1.1">
 <metadata>
  <rdf:RDF xmlns:dc="http://purl.org/dc/elements/1.1/" xmlns:cc="http://creativecommons.org/ns#" xmlns:rdf="http://www.w3.org/1999/02/22-rdf-syntax-ns#">
   <cc:Work>
    <dc:type rdf:resource="http://purl.org/dc/dcmitype/StillImage"/>
    <dc:date>2023-11-02T21:10:07.222253</dc:date>
    <dc:format>image/svg+xml</dc:format>
    <dc:creator>
     <cc:Agent>
      <dc:title>Matplotlib v3.8.0, https://matplotlib.org/</dc:title>
     </cc:Agent>
    </dc:creator>
   </cc:Work>
  </rdf:RDF>
 </metadata>
 <defs>
  <style type="text/css">*{stroke-linejoin: round; stroke-linecap: butt}</style>
 </defs>
 <g id="figure_1">
  <g id="patch_1">
   <path d="M 0 246.958125 
L 231.84 246.958125 
L 231.84 0 
L 0 0 
z
" style="fill: #ffffff"/>
  </g>
  <g id="axes_1">
   <g id="patch_2">
    <path d="M 115.92 234.580982 
C 143.379887 234.580982 169.718784 223.671054 189.135856 204.253981 
C 208.552929 184.836909 219.462857 158.498012 219.462857 131.038125 
C 219.462857 103.578238 208.552929 77.239341 189.135856 57.822269 
C 169.718784 38.405196 143.379887 27.495268 115.92 27.495268 
C 88.460113 27.495268 62.121216 38.405196 42.704144 57.822269 
C 23.287071 77.239341 12.377143 103.578238 12.377143 131.038125 
C 12.377143 158.498012 23.287071 184.836909 42.704144 204.253981 
C 62.121216 223.671054 88.460113 234.580982 115.92 234.580982 
L 115.92 234.580982 
z
" clip-path="url(#p937136a0ef)" style="fill: none; stroke: #000000; stroke-linejoin: miter"/>
   </g>
   <g id="PathCollection_1">
    <defs>
     <path id="m7be07840b3" d="M 0 3 
C 0.795609 3 1.55874 2.683901 2.12132 2.12132 
C 2.683901 1.55874 3 0.795609 3 0 
C 3 -0.795609 2.683901 -1.55874 2.12132 -2.12132 
C 1.55874 -2.683901 0.795609 -3 0 -3 
C -0.795609 -3 -1.55874 -2.683901 -2.12132 -2.12132 
C -2.683901 -1.55874 -3 -0.795609 -3 0 
C -3 0.795609 -2.683901 1.55874 -2.12132 2.12132 
C -1.55874 2.683901 -0.795609 3 0 3 
z
" style="stroke: #0000ff"/>
    </defs>
    <g clip-path="url(#p937136a0ef)">
     <use xlink:href="#m7be07840b3" x="193.499746" y="184.749239" style="fill: #0000ff; stroke: #0000ff"/>
     <use xlink:href="#m7be07840b3" x="208.202072" y="150.723652" style="fill: #0000ff; stroke: #0000ff"/>
     <use xlink:href="#m7be07840b3" x="69.605417" y="48.828271" style="fill: #0000ff; stroke: #0000ff"/>
    </g>
   </g>
   <g id="line2d_1">
    <path d="M 69.605417 48.828271 
L 72.872244 48.394143 
L 76.207986 48.092317 
L 79.607301 47.923277 
L 83.064748 47.887292 
L 86.574792 47.984421 
L 90.131814 48.214509 
L 93.730119 48.577186 
L 97.363947 49.071872 
L 101.027482 49.697776 
L 104.714857 50.453895 
L 108.42017 51.339019 
L 112.137489 52.35173 
L 115.860864 53.490408 
L 119.584334 54.75323 
L 123.301937 56.138175 
L 127.007723 57.643024 
L 130.695759 59.265369 
L 134.36014 61.002613 
L 137.995002 62.851975 
L 141.594524 64.810493 
L 145.152945 66.875034 
L 148.664567 69.042291 
L 152.12377 71.308796 
L 155.525015 73.67092 
L 158.862858 76.12488 
L 162.131955 78.66675 
L 165.327073 81.29246 
L 168.443096 83.997806 
L 171.475037 86.778457 
L 174.418041 89.629962 
L 177.267398 92.547756 
L 180.018545 95.527169 
L 182.66708 98.563429 
L 185.20876 101.651678 
L 187.639519 104.78697 
L 189.955464 107.964287 
L 192.152887 111.178542 
L 194.228272 114.42459 
L 196.178296 117.697234 
L 197.999836 120.991235 
L 199.689977 124.30132 
L 201.246014 127.622189 
L 202.665455 130.948527 
L 203.946027 134.275009 
L 205.085682 137.596308 
L 206.082594 140.907109 
L 206.935167 144.202111 
L 207.642037 147.476039 
L 208.202072 150.723652 
" clip-path="url(#p937136a0ef)" style="fill: none; stroke: #0000ff; stroke-width: 1.5; stroke-linecap: square"/>
   </g>
   <g id="line2d_2">
    <path d="M 193.499746 184.749239 
L 193.339739 181.898754 
L 193.025614 178.947022 
L 192.557998 175.899919 
L 191.937821 172.763511 
L 191.166317 169.544042 
L 190.245022 166.247919 
L 189.17577 162.881706 
L 187.96069 159.452103 
L 186.602201 155.965936 
L 185.103007 152.430146 
L 183.466092 148.851772 
L 181.694715 145.237937 
L 179.792402 141.595835 
L 177.76294 137.932715 
L 175.610368 134.255871 
L 173.338973 130.572622 
L 170.953276 126.890299 
L 168.458025 123.216232 
L 165.858188 119.557737 
L 163.158941 115.922096 
L 160.365657 112.316545 
L 157.483895 108.748263 
L 154.519394 105.224353 
L 151.478054 101.75183 
L 148.365929 98.337606 
L 145.189215 94.988478 
L 141.954236 91.711113 
L 138.667431 88.512035 
L 135.335344 85.397613 
L 131.964607 82.374046 
L 128.56193 79.447354 
L 125.134087 76.623361 
L 121.687903 73.907691 
L 118.230236 71.305749 
L 114.76797 68.822714 
L 111.307998 66.46353 
L 107.857206 64.232892 
L 104.422465 62.135242 
L 101.010612 60.174755 
L 97.628438 58.355334 
L 94.282677 56.6806 
L 90.979989 55.153888 
L 87.726948 53.778237 
L 84.53003 52.556385 
L 81.3956 51.490764 
L 78.329896 50.583495 
L 75.339022 49.836386 
L 72.428931 49.250923 
L 69.605417 48.828271 
" clip-path="url(#p937136a0ef)" style="fill: none; stroke: #0000ff; stroke-width: 1.5; stroke-linecap: square"/>
   </g>
   <g id="line2d_3">
    <path d="M 208.202072 150.723652 
L 208.016276 151.459041 
L 207.825512 152.19333 
L 207.629789 152.926476 
L 207.429118 153.658442 
L 207.22351 154.389188 
L 207.012975 155.118673 
L 206.797527 155.846859 
L 206.577174 156.573707 
L 206.351931 157.299177 
L 206.121809 158.023231 
L 205.88682 158.745828 
L 205.646977 159.46693 
L 205.402293 160.186499 
L 205.152782 160.904495 
L 204.898456 161.62088 
L 204.639329 162.335614 
L 204.375415 163.04866 
L 204.10673 163.759979 
L 203.833286 164.469533 
L 203.555099 165.177282 
L 203.272184 165.88319 
L 202.984556 166.587218 
L 202.692231 167.289328 
L 202.395224 167.989482 
L 202.093552 168.687643 
L 201.78723 169.383772 
L 201.476275 170.077832 
L 201.160705 170.769786 
L 200.840535 171.459596 
L 200.515784 172.147226 
L 200.186469 172.832638 
L 199.852607 173.515794 
L 199.514217 174.196659 
L 199.171316 174.875195 
L 198.823924 175.551367 
L 198.47206 176.225136 
L 198.115741 176.896468 
L 197.754987 177.565325 
L 197.389819 178.231672 
L 197.020255 178.895473 
L 196.646315 179.556692 
L 196.26802 180.215293 
L 195.885389 180.871241 
L 195.498445 181.524501 
L 195.107207 182.175036 
L 194.711696 182.822812 
L 194.311935 183.467795 
L 193.907944 184.109949 
L 193.499746 184.749239 
" clip-path="url(#p937136a0ef)" style="fill: none; stroke: #0000ff; stroke-width: 1.5; stroke-linecap: square"/>
   </g>
   <g id="line2d_4">
    <path d="M 155.793125 89.137855 
L 157.337914 90.972843 
L 158.860396 92.82941 
L 160.35975 94.706556 
L 161.835168 96.60327 
L 163.285856 98.518531 
L 164.711034 100.451307 
L 166.109932 102.400557 
L 167.481798 104.365232 
L 168.825892 106.344272 
L 170.141492 108.336613 
L 171.427887 110.341181 
L 172.684386 112.356896 
L 173.910312 114.382673 
L 175.105004 116.41742 
L 176.267818 118.460042 
L 177.39813 120.509439 
L 178.495329 122.564507 
L 179.558825 124.624138 
L 180.588045 126.687224 
L 181.582435 128.752654 
L 182.541459 130.819314 
L 183.4646 132.886092 
L 184.351362 134.951875 
L 185.201266 137.01555 
L 186.013856 139.076006 
L 186.788693 141.132132 
L 187.52536 143.182822 
L 188.22346 145.22697 
L 188.882618 147.263477 
L 189.502477 149.291244 
L 190.082705 151.30918 
L 190.622989 153.316198 
L 191.123038 155.311218 
L 191.582582 157.293163 
L 192.001375 159.260968 
L 192.379189 161.213572 
L 192.715823 163.149923 
L 193.011094 165.068979 
L 193.264845 166.969706 
L 193.476937 168.85108 
L 193.647256 170.712088 
L 193.775712 172.551727 
L 193.862234 174.369007 
L 193.906777 176.162949 
L 193.909316 177.932587 
L 193.86985 179.676967 
L 193.7884 181.39515 
L 193.665009 183.086211 
L 193.499746 184.749239 
" clip-path="url(#p937136a0ef)" style="fill: none; stroke: #ff0000; stroke-width: 1.5; stroke-linecap: square"/>
   </g>
   <g id="line2d_5">
    <path d="M 155.793125 89.137855 
L 157.390614 90.20983 
L 158.973563 91.29612 
L 160.541417 92.396345 
L 162.093626 93.510117 
L 163.629646 94.637047 
L 165.148938 95.77674 
L 166.65097 96.928796 
L 168.135214 98.092812 
L 169.601152 99.268378 
L 171.048268 100.455084 
L 172.476055 101.652512 
L 173.884013 102.860243 
L 175.271648 104.077854 
L 176.638474 105.304917 
L 177.98401 106.541003 
L 179.307787 107.785678 
L 180.609338 109.038505 
L 181.888209 110.299046 
L 183.14395 111.566858 
L 184.376122 112.841497 
L 185.584292 114.122517 
L 186.768036 115.409467 
L 187.926941 116.701896 
L 189.060598 117.999352 
L 190.168612 119.30138 
L 191.250593 120.607523 
L 192.306162 121.917323 
L 193.334949 123.23032 
L 194.336593 124.546056 
L 195.310743 125.864067 
L 196.257058 127.183893 
L 197.175206 128.50507 
L 198.064864 129.827135 
L 198.925721 131.149624 
L 199.757475 132.472075 
L 200.559835 133.794022 
L 201.332519 135.115004 
L 202.075255 136.434556 
L 202.787785 137.752216 
L 203.469858 139.067522 
L 204.121234 140.380013 
L 204.741686 141.689228 
L 205.330996 142.994709 
L 205.888957 144.295998 
L 206.415373 145.592638 
L 206.910061 146.884176 
L 207.372846 148.170157 
L 207.803567 149.450132 
L 208.202072 150.723652 
" clip-path="url(#p937136a0ef)" style="fill: none; stroke: #ff0000; stroke-width: 1.5; stroke-linecap: square"/>
   </g>
   <g id="line2d_6">
    <path d="M 155.793125 89.137855 
L 154.151606 87.619946 
L 152.492261 86.122281 
L 150.815865 84.645557 
L 149.123198 83.190464 
L 147.415051 81.75768 
L 145.692219 80.347872 
L 143.955506 78.961699 
L 142.205722 77.599806 
L 140.443682 76.262829 
L 138.670208 74.95139 
L 136.886126 73.666102 
L 135.092269 72.407563 
L 133.289474 71.17636 
L 131.478579 69.973068 
L 129.660431 68.798247 
L 127.835876 67.652446 
L 126.005766 66.536197 
L 124.170953 65.450023 
L 122.332293 64.394429 
L 120.490643 63.369907 
L 118.646862 62.376935 
L 116.80181 61.415977 
L 114.956347 60.487479 
L 113.111333 59.591876 
L 111.267628 58.729584 
L 109.426093 57.901006 
L 107.587585 57.106528 
L 105.752963 56.34652 
L 103.923081 55.621336 
L 102.098792 54.931316 
L 100.280947 54.27678 
L 98.470394 53.658034 
L 96.667977 53.075366 
L 94.874536 52.529049 
L 93.090908 52.019335 
L 91.317923 51.546464 
L 89.556409 51.110656 
L 87.807187 50.712113 
L 86.071073 50.351023 
L 84.348875 50.027552 
L 82.641398 49.741853 
L 80.949436 49.494057 
L 79.27378 49.284281 
L 77.615209 49.112623 
L 75.974498 48.979162 
L 74.352412 48.883961 
L 72.749706 48.827064 
L 71.167129 48.808498 
L 69.605417 48.828271 
" clip-path="url(#p937136a0ef)" style="fill: none; stroke: #ff0000; stroke-width: 1.5; stroke-linecap: square"/>
   </g>
   <g id="text_1">
    <!-- vertex angles 56°, 133°, 18° -->
    <g transform="translate(29.783438 16.318125) scale(0.12 -0.12)">
     <defs>
      <path id="DejaVuSans-76" d="M 191 3500 
L 800 3500 
L 1894 563 
L 2988 3500 
L 3597 3500 
L 2284 0 
L 1503 0 
L 191 3500 
z
" transform="scale(0.015625)"/>
      <path id="DejaVuSans-65" d="M 3597 1894 
L 3597 1613 
L 953 1613 
Q 991 1019 1311 708 
Q 1631 397 2203 397 
Q 2534 397 2845 478 
Q 3156 559 3463 722 
L 3463 178 
Q 3153 47 2828 -22 
Q 2503 -91 2169 -91 
Q 1331 -91 842 396 
Q 353 884 353 1716 
Q 353 2575 817 3079 
Q 1281 3584 2069 3584 
Q 2775 3584 3186 3129 
Q 3597 2675 3597 1894 
z
M 3022 2063 
Q 3016 2534 2758 2815 
Q 2500 3097 2075 3097 
Q 1594 3097 1305 2825 
Q 1016 2553 972 2059 
L 3022 2063 
z
" transform="scale(0.015625)"/>
      <path id="DejaVuSans-72" d="M 2631 2963 
Q 2534 3019 2420 3045 
Q 2306 3072 2169 3072 
Q 1681 3072 1420 2755 
Q 1159 2438 1159 1844 
L 1159 0 
L 581 0 
L 581 3500 
L 1159 3500 
L 1159 2956 
Q 1341 3275 1631 3429 
Q 1922 3584 2338 3584 
Q 2397 3584 2469 3576 
Q 2541 3569 2628 3553 
L 2631 2963 
z
" transform="scale(0.015625)"/>
      <path id="DejaVuSans-74" d="M 1172 4494 
L 1172 3500 
L 2356 3500 
L 2356 3053 
L 1172 3053 
L 1172 1153 
Q 1172 725 1289 603 
Q 1406 481 1766 481 
L 2356 481 
L 2356 0 
L 1766 0 
Q 1100 0 847 248 
Q 594 497 594 1153 
L 594 3053 
L 172 3053 
L 172 3500 
L 594 3500 
L 594 4494 
L 1172 4494 
z
" transform="scale(0.015625)"/>
      <path id="DejaVuSans-78" d="M 3513 3500 
L 2247 1797 
L 3578 0 
L 2900 0 
L 1881 1375 
L 863 0 
L 184 0 
L 1544 1831 
L 300 3500 
L 978 3500 
L 1906 2253 
L 2834 3500 
L 3513 3500 
z
" transform="scale(0.015625)"/>
      <path id="DejaVuSans-20" transform="scale(0.015625)"/>
      <path id="DejaVuSans-61" d="M 2194 1759 
Q 1497 1759 1228 1600 
Q 959 1441 959 1056 
Q 959 750 1161 570 
Q 1363 391 1709 391 
Q 2188 391 2477 730 
Q 2766 1069 2766 1631 
L 2766 1759 
L 2194 1759 
z
M 3341 1997 
L 3341 0 
L 2766 0 
L 2766 531 
Q 2569 213 2275 61 
Q 1981 -91 1556 -91 
Q 1019 -91 701 211 
Q 384 513 384 1019 
Q 384 1609 779 1909 
Q 1175 2209 1959 2209 
L 2766 2209 
L 2766 2266 
Q 2766 2663 2505 2880 
Q 2244 3097 1772 3097 
Q 1472 3097 1187 3025 
Q 903 2953 641 2809 
L 641 3341 
Q 956 3463 1253 3523 
Q 1550 3584 1831 3584 
Q 2591 3584 2966 3190 
Q 3341 2797 3341 1997 
z
" transform="scale(0.015625)"/>
      <path id="DejaVuSans-6e" d="M 3513 2113 
L 3513 0 
L 2938 0 
L 2938 2094 
Q 2938 2591 2744 2837 
Q 2550 3084 2163 3084 
Q 1697 3084 1428 2787 
Q 1159 2491 1159 1978 
L 1159 0 
L 581 0 
L 581 3500 
L 1159 3500 
L 1159 2956 
Q 1366 3272 1645 3428 
Q 1925 3584 2291 3584 
Q 2894 3584 3203 3211 
Q 3513 2838 3513 2113 
z
" transform="scale(0.015625)"/>
      <path id="DejaVuSans-67" d="M 2906 1791 
Q 2906 2416 2648 2759 
Q 2391 3103 1925 3103 
Q 1463 3103 1205 2759 
Q 947 2416 947 1791 
Q 947 1169 1205 825 
Q 1463 481 1925 481 
Q 2391 481 2648 825 
Q 2906 1169 2906 1791 
z
M 3481 434 
Q 3481 -459 3084 -895 
Q 2688 -1331 1869 -1331 
Q 1566 -1331 1297 -1286 
Q 1028 -1241 775 -1147 
L 775 -588 
Q 1028 -725 1275 -790 
Q 1522 -856 1778 -856 
Q 2344 -856 2625 -561 
Q 2906 -266 2906 331 
L 2906 616 
Q 2728 306 2450 153 
Q 2172 0 1784 0 
Q 1141 0 747 490 
Q 353 981 353 1791 
Q 353 2603 747 3093 
Q 1141 3584 1784 3584 
Q 2172 3584 2450 3431 
Q 2728 3278 2906 2969 
L 2906 3500 
L 3481 3500 
L 3481 434 
z
" transform="scale(0.015625)"/>
      <path id="DejaVuSans-6c" d="M 603 4863 
L 1178 4863 
L 1178 0 
L 603 0 
L 603 4863 
z
" transform="scale(0.015625)"/>
      <path id="DejaVuSans-73" d="M 2834 3397 
L 2834 2853 
Q 2591 2978 2328 3040 
Q 2066 3103 1784 3103 
Q 1356 3103 1142 2972 
Q 928 2841 928 2578 
Q 928 2378 1081 2264 
Q 1234 2150 1697 2047 
L 1894 2003 
Q 2506 1872 2764 1633 
Q 3022 1394 3022 966 
Q 3022 478 2636 193 
Q 2250 -91 1575 -91 
Q 1294 -91 989 -36 
Q 684 19 347 128 
L 347 722 
Q 666 556 975 473 
Q 1284 391 1588 391 
Q 1994 391 2212 530 
Q 2431 669 2431 922 
Q 2431 1156 2273 1281 
Q 2116 1406 1581 1522 
L 1381 1569 
Q 847 1681 609 1914 
Q 372 2147 372 2553 
Q 372 3047 722 3315 
Q 1072 3584 1716 3584 
Q 2034 3584 2315 3537 
Q 2597 3491 2834 3397 
z
" transform="scale(0.015625)"/>
      <path id="DejaVuSans-35" d="M 691 4666 
L 3169 4666 
L 3169 4134 
L 1269 4134 
L 1269 2991 
Q 1406 3038 1543 3061 
Q 1681 3084 1819 3084 
Q 2600 3084 3056 2656 
Q 3513 2228 3513 1497 
Q 3513 744 3044 326 
Q 2575 -91 1722 -91 
Q 1428 -91 1123 -41 
Q 819 9 494 109 
L 494 744 
Q 775 591 1075 516 
Q 1375 441 1709 441 
Q 2250 441 2565 725 
Q 2881 1009 2881 1497 
Q 2881 1984 2565 2268 
Q 2250 2553 1709 2553 
Q 1456 2553 1204 2497 
Q 953 2441 691 2322 
L 691 4666 
z
" transform="scale(0.015625)"/>
      <path id="DejaVuSans-36" d="M 2113 2584 
Q 1688 2584 1439 2293 
Q 1191 2003 1191 1497 
Q 1191 994 1439 701 
Q 1688 409 2113 409 
Q 2538 409 2786 701 
Q 3034 994 3034 1497 
Q 3034 2003 2786 2293 
Q 2538 2584 2113 2584 
z
M 3366 4563 
L 3366 3988 
Q 3128 4100 2886 4159 
Q 2644 4219 2406 4219 
Q 1781 4219 1451 3797 
Q 1122 3375 1075 2522 
Q 1259 2794 1537 2939 
Q 1816 3084 2150 3084 
Q 2853 3084 3261 2657 
Q 3669 2231 3669 1497 
Q 3669 778 3244 343 
Q 2819 -91 2113 -91 
Q 1303 -91 875 529 
Q 447 1150 447 2328 
Q 447 3434 972 4092 
Q 1497 4750 2381 4750 
Q 2619 4750 2861 4703 
Q 3103 4656 3366 4563 
z
" transform="scale(0.015625)"/>
      <path id="DejaVuSans-b0" d="M 1600 4347 
Q 1350 4347 1178 4173 
Q 1006 4000 1006 3750 
Q 1006 3503 1178 3333 
Q 1350 3163 1600 3163 
Q 1850 3163 2022 3333 
Q 2194 3503 2194 3750 
Q 2194 3997 2020 4172 
Q 1847 4347 1600 4347 
z
M 1600 4750 
Q 1800 4750 1984 4673 
Q 2169 4597 2303 4453 
Q 2447 4313 2519 4134 
Q 2591 3956 2591 3750 
Q 2591 3338 2302 3052 
Q 2013 2766 1594 2766 
Q 1172 2766 890 3047 
Q 609 3328 609 3750 
Q 609 4169 896 4459 
Q 1184 4750 1600 4750 
z
" transform="scale(0.015625)"/>
      <path id="DejaVuSans-2c" d="M 750 794 
L 1409 794 
L 1409 256 
L 897 -744 
L 494 -744 
L 750 256 
L 750 794 
z
" transform="scale(0.015625)"/>
      <path id="DejaVuSans-31" d="M 794 531 
L 1825 531 
L 1825 4091 
L 703 3866 
L 703 4441 
L 1819 4666 
L 2450 4666 
L 2450 531 
L 3481 531 
L 3481 0 
L 794 0 
L 794 531 
z
" transform="scale(0.015625)"/>
      <path id="DejaVuSans-33" d="M 2597 2516 
Q 3050 2419 3304 2112 
Q 3559 1806 3559 1356 
Q 3559 666 3084 287 
Q 2609 -91 1734 -91 
Q 1441 -91 1130 -33 
Q 819 25 488 141 
L 488 750 
Q 750 597 1062 519 
Q 1375 441 1716 441 
Q 2309 441 2620 675 
Q 2931 909 2931 1356 
Q 2931 1769 2642 2001 
Q 2353 2234 1838 2234 
L 1294 2234 
L 1294 2753 
L 1863 2753 
Q 2328 2753 2575 2939 
Q 2822 3125 2822 3475 
Q 2822 3834 2567 4026 
Q 2313 4219 1838 4219 
Q 1578 4219 1281 4162 
Q 984 4106 628 3988 
L 628 4550 
Q 988 4650 1302 4700 
Q 1616 4750 1894 4750 
Q 2613 4750 3031 4423 
Q 3450 4097 3450 3541 
Q 3450 3153 3228 2886 
Q 3006 2619 2597 2516 
z
" transform="scale(0.015625)"/>
      <path id="DejaVuSans-38" d="M 2034 2216 
Q 1584 2216 1326 1975 
Q 1069 1734 1069 1313 
Q 1069 891 1326 650 
Q 1584 409 2034 409 
Q 2484 409 2743 651 
Q 3003 894 3003 1313 
Q 3003 1734 2745 1975 
Q 2488 2216 2034 2216 
z
M 1403 2484 
Q 997 2584 770 2862 
Q 544 3141 544 3541 
Q 544 4100 942 4425 
Q 1341 4750 2034 4750 
Q 2731 4750 3128 4425 
Q 3525 4100 3525 3541 
Q 3525 3141 3298 2862 
Q 3072 2584 2669 2484 
Q 3125 2378 3379 2068 
Q 3634 1759 3634 1313 
Q 3634 634 3220 271 
Q 2806 -91 2034 -91 
Q 1263 -91 848 271 
Q 434 634 434 1313 
Q 434 1759 690 2068 
Q 947 2378 1403 2484 
z
M 1172 3481 
Q 1172 3119 1398 2916 
Q 1625 2713 2034 2713 
Q 2441 2713 2670 2916 
Q 2900 3119 2900 3481 
Q 2900 3844 2670 4047 
Q 2441 4250 2034 4250 
Q 1625 4250 1398 4047 
Q 1172 3844 1172 3481 
z
" transform="scale(0.015625)"/>
     </defs>
     <use xlink:href="#DejaVuSans-76"/>
     <use xlink:href="#DejaVuSans-65" x="59.179688"/>
     <use xlink:href="#DejaVuSans-72" x="120.703125"/>
     <use xlink:href="#DejaVuSans-74" x="161.816406"/>
     <use xlink:href="#DejaVuSans-65" x="201.025391"/>
     <use xlink:href="#DejaVuSans-78" x="260.798828"/>
     <use xlink:href="#DejaVuSans-20" x="319.978516"/>
     <use xlink:href="#DejaVuSans-61" x="351.765625"/>
     <use xlink:href="#DejaVuSans-6e" x="413.044922"/>
     <use xlink:href="#DejaVuSans-67" x="476.423828"/>
     <use xlink:href="#DejaVuSans-6c" x="539.900391"/>
     <use xlink:href="#DejaVuSans-65" x="567.683594"/>
     <use xlink:href="#DejaVuSans-73" x="629.207031"/>
     <use xlink:href="#DejaVuSans-20" x="681.306641"/>
     <use xlink:href="#DejaVuSans-35" x="713.09375"/>
     <use xlink:href="#DejaVuSans-36" x="776.716797"/>
     <use xlink:href="#DejaVuSans-b0" x="840.339844"/>
     <use xlink:href="#DejaVuSans-2c" x="890.339844"/>
     <use xlink:href="#DejaVuSans-20" x="922.126953"/>
     <use xlink:href="#DejaVuSans-31" x="953.914062"/>
     <use xlink:href="#DejaVuSans-33" x="1017.537109"/>
     <use xlink:href="#DejaVuSans-33" x="1081.160156"/>
     <use xlink:href="#DejaVuSans-b0" x="1144.783203"/>
     <use xlink:href="#DejaVuSans-2c" x="1194.783203"/>
     <use xlink:href="#DejaVuSans-20" x="1226.570312"/>
     <use xlink:href="#DejaVuSans-31" x="1258.357422"/>
     <use xlink:href="#DejaVuSans-38" x="1321.980469"/>
     <use xlink:href="#DejaVuSans-b0" x="1385.603516"/>
    </g>
   </g>
   <g id="PathCollection_2">
    <defs>
     <path id="mdae4fa21cb" d="M 0 3 
C 0.795609 3 1.55874 2.683901 2.12132 2.12132 
C 2.683901 1.55874 3 0.795609 3 0 
C 3 -0.795609 2.683901 -1.55874 2.12132 -2.12132 
C 1.55874 -2.683901 0.795609 -3 0 -3 
C -0.795609 -3 -1.55874 -2.683901 -2.12132 -2.12132 
C -2.683901 -1.55874 -3 -0.795609 -3 0 
C -3 0.795609 -2.683901 1.55874 -2.12132 2.12132 
C -1.55874 2.683901 -0.795609 3 0 3 
z
" style="stroke: #ff0000"/>
    </defs>
    <g clip-path="url(#p937136a0ef)">
     <use xlink:href="#mdae4fa21cb" x="155.793125" y="89.137855" style="fill: #ff0000; stroke: #ff0000"/>
    </g>
   </g>
  </g>
 </g>
 <defs>
  <clipPath id="p937136a0ef">
   <rect x="7.2" y="22.318125" width="217.44" height="217.44"/>
  </clipPath>
 </defs>
</svg>
