<?xml version="1.0" encoding="utf-8" standalone="no"?>
<!DOCTYPE svg PUBLIC "-//W3C//DTD SVG 1.1//EN"
  "http://www.w3.org/Graphics/SVG/1.1/DTD/svg11.dtd">
<svg xmlns:xlink="http://www.w3.org/1999/xlink" width="231.84pt" height="246.958125pt" viewBox="0 0 231.84 246.958125" xmlns="http://www.w3.org/2000/svg" version="1.1">
 <metadata>
  <rdf:RDF xmlns:dc="http://purl.org/dc/elements/1.1/" xmlns:cc="http://creativecommons.org/ns#" xmlns:rdf="http://www.w3.org/1999/02/22-rdf-syntax-ns#">
   <cc:Work>
    <dc:type rdf:resource="http://purl.org/dc/dcmitype/StillImage"/>
    <dc:date>2023-11-02T21:06:44.558847</dc:date>
    <dc:format>image/svg+xml</dc:format>
    <dc:creator>
     <cc:Agent>
      <dc:title>Matplotlib v3.8.0, https://matplotlib.org/</dc:title>
     </cc:Agent>
    </dc:creator>
   </cc:Work>
  </rdf:RDF>
 </metadata>
 <defs>
  <style type="text/css">*{stroke-linejoin: round; stroke-linecap: butt}</style>
 </defs>
 <g id="figure_1">
  <g id="patch_1">
   <path d="M 0 246.958125 
L 231.84 246.958125 
L 231.84 0 
L 0 0 
z
" style="fill: #ffffff"/>
  </g>
  <g id="axes_1">
   <g id="patch_2">
    <path d="M 115.92 234.580982 
C 143.379887 234.580982 169.718784 223.671054 189.135856 204.253981 
C 208.552929 184.836909 219.462857 158.498012 219.462857 131.038125 
C 219.462857 103.578238 208.552929 77.239341 189.135856 57.822269 
C 169.718784 38.405196 143.379887 27.495268 115.92 27.495268 
C 88.460113 27.495268 62.121216 38.405196 42.704144 57.822269 
C 23.287071 77.239341 12.377143 103.578238 12.377143 131.038125 
C 12.377143 158.498012 23.287071 184.836909 42.704144 204.253981 
C 62.121216 223.671054 88.460113 234.580982 115.92 234.580982 
L 115.92 234.580982 
z
" clip-path="url(#p1dedfa1a4f)" style="fill: none; stroke: #000000; stroke-linejoin: miter"/>
   </g>
   <g id="PathCollection_1">
    <defs>
     <path id="m36d31a4709" d="M 0 3 
C 0.795609 3 1.55874 2.683901 2.12132 2.12132 
C 2.683901 1.55874 3 0.795609 3 0 
C 3 -0.795609 2.683901 -1.55874 2.12132 -2.12132 
C 1.55874 -2.683901 0.795609 -3 0 -3 
C -0.795609 -3 -1.55874 -2.683901 -2.12132 -2.12132 
C -2.683901 -1.55874 -3 -0.795609 -3 0 
C -3 0.795609 -2.683901 1.55874 -2.12132 2.12132 
C -1.55874 2.683901 -0.795609 3 0 3 
z
" style="stroke: #0000ff"/>
    </defs>
    <g clip-path="url(#p1dedfa1a4f)">
     <use xlink:href="#m36d31a4709" x="42.564707" y="131.038125" style="fill: #0000ff; stroke: #0000ff"/>
     <use xlink:href="#m36d31a4709" x="188.718077" y="140.06248" style="fill: #0000ff; stroke: #0000ff"/>
     <use xlink:href="#m36d31a4709" x="188.718077" y="122.01377" style="fill: #0000ff; stroke: #0000ff"/>
    </g>
   </g>
   <g id="line2d_1">
    <path d="M 188.718077 122.01377 
L 188.740301 122.381232 
L 188.761601 122.748804 
L 188.781977 123.116481 
L 188.801428 123.484259 
L 188.819955 123.852132 
L 188.837557 124.220096 
L 188.854234 124.588147 
L 188.869985 124.95628 
L 188.884811 125.32449 
L 188.898712 125.692773 
L 188.911686 126.061123 
L 188.923734 126.429536 
L 188.934856 126.798008 
L 188.945052 127.166534 
L 188.954321 127.535109 
L 188.962664 127.903728 
L 188.97008 128.272387 
L 188.976569 128.641081 
L 188.982132 129.009806 
L 188.986767 129.378556 
L 188.990475 129.747327 
L 188.993257 130.116115 
L 188.995111 130.484914 
L 188.996038 130.853721 
L 188.996038 131.222529 
L 188.995111 131.591336 
L 188.993257 131.960135 
L 188.990475 132.328923 
L 188.986767 132.697694 
L 188.982132 133.066444 
L 188.976569 133.435169 
L 188.97008 133.803863 
L 188.962664 134.172522 
L 188.954321 134.541141 
L 188.945052 134.909716 
L 188.934856 135.278242 
L 188.923734 135.646714 
L 188.911686 136.015127 
L 188.898712 136.383477 
L 188.884811 136.75176 
L 188.869985 137.11997 
L 188.854234 137.488103 
L 188.837557 137.856154 
L 188.819955 138.224118 
L 188.801428 138.591991 
L 188.781977 138.959769 
L 188.761601 139.327446 
L 188.740301 139.695018 
L 188.718077 140.06248 
" clip-path="url(#p1dedfa1a4f)" style="fill: none; stroke: #0000ff; stroke-width: 1.5; stroke-linecap: square"/>
   </g>
   <g id="line2d_2">
    <path d="M 42.564707 131.038125 
L 44.935689 130.74888 
L 47.379612 130.459933 
L 49.893965 130.171579 
L 52.476164 129.884116 
L 55.123557 129.597839 
L 57.833421 129.313042 
L 60.602974 129.030017 
L 63.429368 128.749056 
L 66.3097 128.470447 
L 69.24101 128.194477 
L 72.220286 127.921428 
L 75.244466 127.651582 
L 78.310443 127.385217 
L 81.415067 127.122604 
L 84.555146 126.864015 
L 87.727455 126.609716 
L 90.928734 126.359967 
L 94.155693 126.115025 
L 97.405017 125.875141 
L 100.673366 125.640563 
L 103.957381 125.411532 
L 107.253689 125.188282 
L 110.558903 124.971043 
L 113.869625 124.760039 
L 117.182454 124.555486 
L 120.493986 124.357594 
L 123.800818 124.166567 
L 127.099551 123.9826 
L 130.386797 123.805884 
L 133.659178 123.6366 
L 136.91333 123.474921 
L 140.14591 123.321013 
L 143.353596 123.175036 
L 146.533093 123.037138 
L 149.681132 122.907462 
L 152.79448 122.786141 
L 155.869936 122.673299 
L 158.904342 122.569053 
L 161.894578 122.473509 
L 164.837572 122.386766 
L 167.7303 122.308913 
L 170.569789 122.24003 
L 173.353122 122.180187 
L 176.077438 122.129447 
L 178.739939 122.08786 
L 181.337888 122.055471 
L 183.868616 122.032312 
L 186.329522 122.018407 
L 188.718077 122.01377 
" clip-path="url(#p1dedfa1a4f)" style="fill: none; stroke: #0000ff; stroke-width: 1.5; stroke-linecap: square"/>
   </g>
   <g id="line2d_3">
    <path d="M 188.718077 140.06248 
L 186.329522 140.057843 
L 183.868616 140.043938 
L 181.337888 140.020779 
L 178.739939 139.98839 
L 176.077438 139.946803 
L 173.353122 139.896063 
L 170.569789 139.83622 
L 167.7303 139.767337 
L 164.837572 139.689484 
L 161.894578 139.602741 
L 158.904342 139.507197 
L 155.869936 139.402951 
L 152.79448 139.290109 
L 149.681132 139.168788 
L 146.533093 139.039112 
L 143.353596 138.901214 
L 140.14591 138.755237 
L 136.91333 138.601329 
L 133.659178 138.43965 
L 130.386797 138.270366 
L 127.099551 138.09365 
L 123.800818 137.909683 
L 120.493986 137.718656 
L 117.182454 137.520764 
L 113.869625 137.316211 
L 110.558903 137.105207 
L 107.253689 136.887968 
L 103.957381 136.664718 
L 100.673366 136.435687 
L 97.405017 136.201109 
L 94.155693 135.961225 
L 90.928734 135.716283 
L 87.727455 135.466534 
L 84.555146 135.212235 
L 81.415067 134.953646 
L 78.310443 134.691033 
L 75.244466 134.424668 
L 72.220286 134.154822 
L 69.24101 133.881773 
L 66.3097 133.605803 
L 63.429368 133.327194 
L 60.602974 133.046233 
L 57.833421 132.763208 
L 55.123557 132.478411 
L 52.476164 132.192134 
L 49.893965 131.904671 
L 47.379612 131.616317 
L 44.935689 131.32737 
L 42.564707 131.038125 
" clip-path="url(#p1dedfa1a4f)" style="fill: none; stroke: #0000ff; stroke-width: 1.5; stroke-linecap: square"/>
   </g>
   <g id="line2d_4">
    <path d="M 130.402458 131.038125 
L 128.459047 131.038125 
L 126.511142 131.038125 
L 124.559441 131.038125 
L 122.604644 131.038125 
L 120.647451 131.038125 
L 118.688564 131.038125 
L 116.728685 131.038125 
L 114.768516 131.038125 
L 112.808759 131.038125 
L 110.850118 131.038125 
L 108.893293 131.038125 
L 106.938987 131.038125 
L 104.9879 131.038125 
L 103.04073 131.038125 
L 101.098176 131.038125 
L 99.160934 131.038125 
L 97.229698 131.038125 
L 95.305161 131.038125 
L 93.388011 131.038125 
L 91.478937 131.038125 
L 89.578621 131.038125 
L 87.687746 131.038125 
L 85.80699 131.038125 
L 83.937025 131.038125 
L 82.078522 131.038125 
L 80.232147 131.038125 
L 78.398563 131.038125 
L 76.578425 131.038125 
L 74.772387 131.038125 
L 72.981096 131.038125 
L 71.205193 131.038125 
L 69.445315 131.038125 
L 67.702093 131.038125 
L 65.976151 131.038125 
L 64.268109 131.038125 
L 62.578577 131.038125 
L 60.908163 131.038125 
L 59.257463 131.038125 
L 57.627071 131.038125 
L 56.01757 131.038125 
L 54.429537 131.038125 
L 52.863541 131.038125 
L 51.320143 131.038125 
L 49.799897 131.038125 
L 48.303347 131.038125 
L 46.83103 131.038125 
L 45.383473 131.038125 
L 43.961196 131.038125 
L 42.564707 131.038125 
" clip-path="url(#p1dedfa1a4f)" style="fill: none; stroke: #ff0000; stroke-width: 1.5; stroke-linecap: square"/>
   </g>
   <g id="line2d_5">
    <path d="M 130.402458 131.038125 
L 131.743254 131.235849 
L 133.08128 131.433539 
L 134.416303 131.631159 
L 135.74809 131.828676 
L 137.076406 132.026054 
L 138.401019 132.223259 
L 139.721699 132.420257 
L 141.038212 132.617013 
L 142.350331 132.813493 
L 143.657823 133.009662 
L 144.960462 133.205486 
L 146.258018 133.400931 
L 147.550265 133.595962 
L 148.836976 133.790545 
L 150.117927 133.984647 
L 151.392893 134.178233 
L 152.661651 134.37127 
L 153.923979 134.563723 
L 155.179657 134.75556 
L 156.428463 134.946746 
L 157.670181 135.137247 
L 158.904592 135.327032 
L 160.13148 135.516066 
L 161.350631 135.704316 
L 162.561832 135.891749 
L 163.76487 136.078333 
L 164.959535 136.264036 
L 166.145618 136.448823 
L 167.322911 136.632664 
L 168.491208 136.815525 
L 169.650305 136.997376 
L 170.799999 137.178183 
L 171.940089 137.357916 
L 173.070375 137.536543 
L 174.19066 137.714033 
L 175.300746 137.890355 
L 176.400441 138.065477 
L 177.489552 138.23937 
L 178.567887 138.412002 
L 179.635259 138.583344 
L 180.69148 138.753365 
L 181.736366 138.922036 
L 182.769734 139.089327 
L 183.791403 139.25521 
L 184.801194 139.419654 
L 185.79893 139.582632 
L 186.784438 139.744114 
L 187.757543 139.904073 
L 188.718077 140.06248 
" clip-path="url(#p1dedfa1a4f)" style="fill: none; stroke: #ff0000; stroke-width: 1.5; stroke-linecap: square"/>
   </g>
   <g id="line2d_6">
    <path d="M 130.402458 131.038125 
L 131.743254 130.840401 
L 133.08128 130.642711 
L 134.416303 130.445091 
L 135.74809 130.247574 
L 137.076406 130.050196 
L 138.401019 129.852991 
L 139.721699 129.655993 
L 141.038212 129.459237 
L 142.350331 129.262757 
L 143.657823 129.066588 
L 144.960462 128.870764 
L 146.258018 128.675319 
L 147.550265 128.480288 
L 148.836976 128.285705 
L 150.117927 128.091603 
L 151.392893 127.898017 
L 152.661651 127.70498 
L 153.923979 127.512527 
L 155.179657 127.32069 
L 156.428463 127.129504 
L 157.670181 126.939003 
L 158.904592 126.749218 
L 160.13148 126.560184 
L 161.350631 126.371934 
L 162.561832 126.184501 
L 163.76487 125.997917 
L 164.959535 125.812214 
L 166.145618 125.627427 
L 167.322911 125.443586 
L 168.491208 125.260725 
L 169.650305 125.078874 
L 170.799999 124.898067 
L 171.940089 124.718334 
L 173.070375 124.539707 
L 174.19066 124.362217 
L 175.300746 124.185895 
L 176.400441 124.010773 
L 177.489552 123.83688 
L 178.567887 123.664248 
L 179.635259 123.492906 
L 180.69148 123.322885 
L 181.736366 123.154214 
L 182.769734 122.986923 
L 183.791403 122.82104 
L 184.801194 122.656596 
L 185.79893 122.493618 
L 186.784438 122.332136 
L 187.757543 122.172177 
L 188.718077 122.01377 
" clip-path="url(#p1dedfa1a4f)" style="fill: none; stroke: #ff0000; stroke-width: 1.5; stroke-linecap: square"/>
   </g>
   <g id="text_1">
    <!-- vertex angles 10°, 90°, 90° -->
    <g transform="translate(33.600938 16.318125) scale(0.12 -0.12)">
     <defs>
      <path id="DejaVuSans-76" d="M 191 3500 
L 800 3500 
L 1894 563 
L 2988 3500 
L 3597 3500 
L 2284 0 
L 1503 0 
L 191 3500 
z
" transform="scale(0.015625)"/>
      <path id="DejaVuSans-65" d="M 3597 1894 
L 3597 1613 
L 953 1613 
Q 991 1019 1311 708 
Q 1631 397 2203 397 
Q 2534 397 2845 478 
Q 3156 559 3463 722 
L 3463 178 
Q 3153 47 2828 -22 
Q 2503 -91 2169 -91 
Q 1331 -91 842 396 
Q 353 884 353 1716 
Q 353 2575 817 3079 
Q 1281 3584 2069 3584 
Q 2775 3584 3186 3129 
Q 3597 2675 3597 1894 
z
M 3022 2063 
Q 3016 2534 2758 2815 
Q 2500 3097 2075 3097 
Q 1594 3097 1305 2825 
Q 1016 2553 972 2059 
L 3022 2063 
z
" transform="scale(0.015625)"/>
      <path id="DejaVuSans-72" d="M 2631 2963 
Q 2534 3019 2420 3045 
Q 2306 3072 2169 3072 
Q 1681 3072 1420 2755 
Q 1159 2438 1159 1844 
L 1159 0 
L 581 0 
L 581 3500 
L 1159 3500 
L 1159 2956 
Q 1341 3275 1631 3429 
Q 1922 3584 2338 3584 
Q 2397 3584 2469 3576 
Q 2541 3569 2628 3553 
L 2631 2963 
z
" transform="scale(0.015625)"/>
      <path id="DejaVuSans-74" d="M 1172 4494 
L 1172 3500 
L 2356 3500 
L 2356 3053 
L 1172 3053 
L 1172 1153 
Q 1172 725 1289 603 
Q 1406 481 1766 481 
L 2356 481 
L 2356 0 
L 1766 0 
Q 1100 0 847 248 
Q 594 497 594 1153 
L 594 3053 
L 172 3053 
L 172 3500 
L 594 3500 
L 594 4494 
L 1172 4494 
z
" transform="scale(0.015625)"/>
      <path id="DejaVuSans-78" d="M 3513 3500 
L 2247 1797 
L 3578 0 
L 2900 0 
L 1881 1375 
L 863 0 
L 184 0 
L 1544 1831 
L 300 3500 
L 978 3500 
L 1906 2253 
L 2834 3500 
L 3513 3500 
z
" transform="scale(0.015625)"/>
      <path id="DejaVuSans-20" transform="scale(0.015625)"/>
      <path id="DejaVuSans-61" d="M 2194 1759 
Q 1497 1759 1228 1600 
Q 959 1441 959 1056 
Q 959 750 1161 570 
Q 1363 391 1709 391 
Q 2188 391 2477 730 
Q 2766 1069 2766 1631 
L 2766 1759 
L 2194 1759 
z
M 3341 1997 
L 3341 0 
L 2766 0 
L 2766 531 
Q 2569 213 2275 61 
Q 1981 -91 1556 -91 
Q 1019 -91 701 211 
Q 384 513 384 1019 
Q 384 1609 779 1909 
Q 1175 2209 1959 2209 
L 2766 2209 
L 2766 2266 
Q 2766 2663 2505 2880 
Q 2244 3097 1772 3097 
Q 1472 3097 1187 3025 
Q 903 2953 641 2809 
L 641 3341 
Q 956 3463 1253 3523 
Q 1550 3584 1831 3584 
Q 2591 3584 2966 3190 
Q 3341 2797 3341 1997 
z
" transform="scale(0.015625)"/>
      <path id="DejaVuSans-6e" d="M 3513 2113 
L 3513 0 
L 2938 0 
L 2938 2094 
Q 2938 2591 2744 2837 
Q 2550 3084 2163 3084 
Q 1697 3084 1428 2787 
Q 1159 2491 1159 1978 
L 1159 0 
L 581 0 
L 581 3500 
L 1159 3500 
L 1159 2956 
Q 1366 3272 1645 3428 
Q 1925 3584 2291 3584 
Q 2894 3584 3203 3211 
Q 3513 2838 3513 2113 
z
" transform="scale(0.015625)"/>
      <path id="DejaVuSans-67" d="M 2906 1791 
Q 2906 2416 2648 2759 
Q 2391 3103 1925 3103 
Q 1463 3103 1205 2759 
Q 947 2416 947 1791 
Q 947 1169 1205 825 
Q 1463 481 1925 481 
Q 2391 481 2648 825 
Q 2906 1169 2906 1791 
z
M 3481 434 
Q 3481 -459 3084 -895 
Q 2688 -1331 1869 -1331 
Q 1566 -1331 1297 -1286 
Q 1028 -1241 775 -1147 
L 775 -588 
Q 1028 -725 1275 -790 
Q 1522 -856 1778 -856 
Q 2344 -856 2625 -561 
Q 2906 -266 2906 331 
L 2906 616 
Q 2728 306 2450 153 
Q 2172 0 1784 0 
Q 1141 0 747 490 
Q 353 981 353 1791 
Q 353 2603 747 3093 
Q 1141 3584 1784 3584 
Q 2172 3584 2450 3431 
Q 2728 3278 2906 2969 
L 2906 3500 
L 3481 3500 
L 3481 434 
z
" transform="scale(0.015625)"/>
      <path id="DejaVuSans-6c" d="M 603 4863 
L 1178 4863 
L 1178 0 
L 603 0 
L 603 4863 
z
" transform="scale(0.015625)"/>
      <path id="DejaVuSans-73" d="M 2834 3397 
L 2834 2853 
Q 2591 2978 2328 3040 
Q 2066 3103 1784 3103 
Q 1356 3103 1142 2972 
Q 928 2841 928 2578 
Q 928 2378 1081 2264 
Q 1234 2150 1697 2047 
L 1894 2003 
Q 2506 1872 2764 1633 
Q 3022 1394 3022 966 
Q 3022 478 2636 193 
Q 2250 -91 1575 -91 
Q 1294 -91 989 -36 
Q 684 19 347 128 
L 347 722 
Q 666 556 975 473 
Q 1284 391 1588 391 
Q 1994 391 2212 530 
Q 2431 669 2431 922 
Q 2431 1156 2273 1281 
Q 2116 1406 1581 1522 
L 1381 1569 
Q 847 1681 609 1914 
Q 372 2147 372 2553 
Q 372 3047 722 3315 
Q 1072 3584 1716 3584 
Q 2034 3584 2315 3537 
Q 2597 3491 2834 3397 
z
" transform="scale(0.015625)"/>
      <path id="DejaVuSans-31" d="M 794 531 
L 1825 531 
L 1825 4091 
L 703 3866 
L 703 4441 
L 1819 4666 
L 2450 4666 
L 2450 531 
L 3481 531 
L 3481 0 
L 794 0 
L 794 531 
z
" transform="scale(0.015625)"/>
      <path id="DejaVuSans-30" d="M 2034 4250 
Q 1547 4250 1301 3770 
Q 1056 3291 1056 2328 
Q 1056 1369 1301 889 
Q 1547 409 2034 409 
Q 2525 409 2770 889 
Q 3016 1369 3016 2328 
Q 3016 3291 2770 3770 
Q 2525 4250 2034 4250 
z
M 2034 4750 
Q 2819 4750 3233 4129 
Q 3647 3509 3647 2328 
Q 3647 1150 3233 529 
Q 2819 -91 2034 -91 
Q 1250 -91 836 529 
Q 422 1150 422 2328 
Q 422 3509 836 4129 
Q 1250 4750 2034 4750 
z
" transform="scale(0.015625)"/>
      <path id="DejaVuSans-b0" d="M 1600 4347 
Q 1350 4347 1178 4173 
Q 1006 4000 1006 3750 
Q 1006 3503 1178 3333 
Q 1350 3163 1600 3163 
Q 1850 3163 2022 3333 
Q 2194 3503 2194 3750 
Q 2194 3997 2020 4172 
Q 1847 4347 1600 4347 
z
M 1600 4750 
Q 1800 4750 1984 4673 
Q 2169 4597 2303 4453 
Q 2447 4313 2519 4134 
Q 2591 3956 2591 3750 
Q 2591 3338 2302 3052 
Q 2013 2766 1594 2766 
Q 1172 2766 890 3047 
Q 609 3328 609 3750 
Q 609 4169 896 4459 
Q 1184 4750 1600 4750 
z
" transform="scale(0.015625)"/>
      <path id="DejaVuSans-2c" d="M 750 794 
L 1409 794 
L 1409 256 
L 897 -744 
L 494 -744 
L 750 256 
L 750 794 
z
" transform="scale(0.015625)"/>
      <path id="DejaVuSans-39" d="M 703 97 
L 703 672 
Q 941 559 1184 500 
Q 1428 441 1663 441 
Q 2288 441 2617 861 
Q 2947 1281 2994 2138 
Q 2813 1869 2534 1725 
Q 2256 1581 1919 1581 
Q 1219 1581 811 2004 
Q 403 2428 403 3163 
Q 403 3881 828 4315 
Q 1253 4750 1959 4750 
Q 2769 4750 3195 4129 
Q 3622 3509 3622 2328 
Q 3622 1225 3098 567 
Q 2575 -91 1691 -91 
Q 1453 -91 1209 -44 
Q 966 3 703 97 
z
M 1959 2075 
Q 2384 2075 2632 2365 
Q 2881 2656 2881 3163 
Q 2881 3666 2632 3958 
Q 2384 4250 1959 4250 
Q 1534 4250 1286 3958 
Q 1038 3666 1038 3163 
Q 1038 2656 1286 2365 
Q 1534 2075 1959 2075 
z
" transform="scale(0.015625)"/>
     </defs>
     <use xlink:href="#DejaVuSans-76"/>
     <use xlink:href="#DejaVuSans-65" x="59.179688"/>
     <use xlink:href="#DejaVuSans-72" x="120.703125"/>
     <use xlink:href="#DejaVuSans-74" x="161.816406"/>
     <use xlink:href="#DejaVuSans-65" x="201.025391"/>
     <use xlink:href="#DejaVuSans-78" x="260.798828"/>
     <use xlink:href="#DejaVuSans-20" x="319.978516"/>
     <use xlink:href="#DejaVuSans-61" x="351.765625"/>
     <use xlink:href="#DejaVuSans-6e" x="413.044922"/>
     <use xlink:href="#DejaVuSans-67" x="476.423828"/>
     <use xlink:href="#DejaVuSans-6c" x="539.900391"/>
     <use xlink:href="#DejaVuSans-65" x="567.683594"/>
     <use xlink:href="#DejaVuSans-73" x="629.207031"/>
     <use xlink:href="#DejaVuSans-20" x="681.306641"/>
     <use xlink:href="#DejaVuSans-31" x="713.09375"/>
     <use xlink:href="#DejaVuSans-30" x="776.716797"/>
     <use xlink:href="#DejaVuSans-b0" x="840.339844"/>
     <use xlink:href="#DejaVuSans-2c" x="890.339844"/>
     <use xlink:href="#DejaVuSans-20" x="922.126953"/>
     <use xlink:href="#DejaVuSans-39" x="953.914062"/>
     <use xlink:href="#DejaVuSans-30" x="1017.537109"/>
     <use xlink:href="#DejaVuSans-b0" x="1081.160156"/>
     <use xlink:href="#DejaVuSans-2c" x="1131.160156"/>
     <use xlink:href="#DejaVuSans-20" x="1162.947266"/>
     <use xlink:href="#DejaVuSans-39" x="1194.734375"/>
     <use xlink:href="#DejaVuSans-30" x="1258.357422"/>
     <use xlink:href="#DejaVuSans-b0" x="1321.980469"/>
    </g>
   </g>
   <g id="PathCollection_2">
    <defs>
     <path id="mfb73641e04" d="M 0 3 
C 0.795609 3 1.55874 2.683901 2.12132 2.12132 
C 2.683901 1.55874 3 0.795609 3 0 
C 3 -0.795609 2.683901 -1.55874 2.12132 -2.12132 
C 1.55874 -2.683901 0.795609 -3 0 -3 
C -0.795609 -3 -1.55874 -2.683901 -2.12132 -2.12132 
C -2.683901 -1.55874 -3 -0.795609 -3 0 
C -3 0.795609 -2.683901 1.55874 -2.12132 2.12132 
C -1.55874 2.683901 -0.795609 3 0 3 
z
" style="stroke: #ff0000"/>
    </defs>
    <g clip-path="url(#p1dedfa1a4f)">
     <use xlink:href="#mfb73641e04" x="130.402458" y="131.038125" style="fill: #ff0000; stroke: #ff0000"/>
    </g>
   </g>
  </g>
 </g>
 <defs>
  <clipPath id="p1dedfa1a4f">
   <rect x="7.2" y="22.318125" width="217.44" height="217.44"/>
  </clipPath>
 </defs>
</svg>
