<?xml version="1.0" encoding="utf-8" standalone="no"?>
<!DOCTYPE svg PUBLIC "-//W3C//DTD SVG 1.1//EN"
  "http://www.w3.org/Graphics/SVG/1.1/DTD/svg11.dtd">
<svg xmlns:xlink="http://www.w3.org/1999/xlink" width="231.84pt" height="246.958125pt" viewBox="0 0 231.84 246.958125" xmlns="http://www.w3.org/2000/svg" version="1.1">
 <metadata>
  <rdf:RDF xmlns:dc="http://purl.org/dc/elements/1.1/" xmlns:cc="http://creativecommons.org/ns#" xmlns:rdf="http://www.w3.org/1999/02/22-rdf-syntax-ns#">
   <cc:Work>
    <dc:type rdf:resource="http://purl.org/dc/dcmitype/StillImage"/>
    <dc:date>2023-11-02T21:12:12.456174</dc:date>
    <dc:format>image/svg+xml</dc:format>
    <dc:creator>
     <cc:Agent>
      <dc:title>Matplotlib v3.8.0, https://matplotlib.org/</dc:title>
     </cc:Agent>
    </dc:creator>
   </cc:Work>
  </rdf:RDF>
 </metadata>
 <defs>
  <style type="text/css">*{stroke-linejoin: round; stroke-linecap: butt}</style>
 </defs>
 <g id="figure_1">
  <g id="patch_1">
   <path d="M 0 246.958125 
L 231.84 246.958125 
L 231.84 0 
L 0 0 
z
" style="fill: #ffffff"/>
  </g>
  <g id="axes_1">
   <g id="patch_2">
    <path d="M 115.92 234.580982 
C 143.379887 234.580982 169.718784 223.671054 189.135856 204.253981 
C 208.552929 184.836909 219.462857 158.498012 219.462857 131.038125 
C 219.462857 103.578238 208.552929 77.239341 189.135856 57.822269 
C 169.718784 38.405196 143.379887 27.495268 115.92 27.495268 
C 88.460113 27.495268 62.121216 38.405196 42.704144 57.822269 
C 23.287071 77.239341 12.377143 103.578238 12.377143 131.038125 
C 12.377143 158.498012 23.287071 184.836909 42.704144 204.253981 
C 62.121216 223.671054 88.460113 234.580982 115.92 234.580982 
L 115.92 234.580982 
z
" clip-path="url(#p2f976d2756)" style="fill: none; stroke: #000000; stroke-linejoin: miter"/>
   </g>
   <g id="PathCollection_1">
    <defs>
     <path id="mb2a479fa36" d="M 0 3 
C 0.795609 3 1.55874 2.683901 2.12132 2.12132 
C 2.683901 1.55874 3 0.795609 3 0 
C 3 -0.795609 2.683901 -1.55874 2.12132 -2.12132 
C 1.55874 -2.683901 0.795609 -3 0 -3 
C -0.795609 -3 -1.55874 -2.683901 -2.12132 -2.12132 
C -2.683901 -1.55874 -3 -0.795609 -3 0 
C -3 0.795609 -2.683901 1.55874 -2.12132 2.12132 
C -1.55874 2.683901 -0.795609 3 0 3 
z
" style="stroke: #0000ff"/>
    </defs>
    <g clip-path="url(#p2f976d2756)">
     <use xlink:href="#mb2a479fa36" x="52.328719" y="50.766976" style="fill: #0000ff; stroke: #0000ff"/>
     <use xlink:href="#mb2a479fa36" x="16.137944" y="107.997952" style="fill: #0000ff; stroke: #0000ff"/>
     <use xlink:href="#mb2a479fa36" x="218.035144" y="138.771546" style="fill: #0000ff; stroke: #0000ff"/>
    </g>
   </g>
   <g id="line2d_1">
    <path d="M 218.035144 138.771546 
L 217.294833 135.998287 
L 216.22146 133.208732 
L 214.818551 130.412046 
L 213.090717 127.617417 
L 211.043632 124.834026 
L 208.684024 122.071019 
L 206.019645 119.337472 
L 203.059247 116.642367 
L 199.812558 113.994559 
L 196.290244 111.402747 
L 192.503878 108.875446 
L 188.465899 106.420959 
L 184.189574 104.047351 
L 179.688953 101.762419 
L 174.978822 99.573672 
L 170.074657 97.488299 
L 164.992569 95.513152 
L 159.749255 93.654721 
L 154.361943 91.919112 
L 148.848332 90.312026 
L 143.226536 88.838743 
L 137.515026 87.504104 
L 131.732567 86.312495 
L 125.898156 85.267829 
L 120.030962 84.373539 
L 114.150262 83.632563 
L 108.275377 83.047336 
L 102.425608 82.61978 
L 96.620173 82.3513 
L 90.878148 82.242779 
L 85.218396 82.294572 
L 79.659512 82.506509 
L 74.219761 82.877895 
L 68.917014 83.407509 
L 63.768692 84.093611 
L 58.791712 84.933946 
L 54.002423 85.925755 
L 49.416561 87.065778 
L 45.049193 88.35027 
L 40.914668 89.775011 
L 37.026569 91.335319 
L 33.39767 93.02607 
L 30.039895 94.841707 
L 26.964274 96.776265 
L 24.180912 98.823389 
L 21.698955 100.976353 
L 19.526557 103.228084 
L 17.670854 105.571183 
L 16.137944 107.997952 
" clip-path="url(#p2f976d2756)" style="fill: none; stroke: #0000ff; stroke-width: 1.5; stroke-linecap: square"/>
   </g>
   <g id="line2d_2">
    <path d="M 52.328719 50.766976 
L 56.094833 48.211791 
L 59.989048 45.833959 
L 64.003025 43.638569 
L 68.12817 41.630324 
L 72.355649 39.813524 
L 76.67641 38.192058 
L 81.081202 36.7694 
L 85.560592 35.548594 
L 90.104989 34.532256 
L 94.704663 33.72256 
L 99.349764 33.121242 
L 104.030346 32.729589 
L 108.736387 32.548439 
L 113.45781 32.57818 
L 118.184505 32.818749 
L 122.906351 33.26963 
L 127.613238 33.929858 
L 132.295086 34.798019 
L 136.941872 35.872255 
L 141.543644 37.150264 
L 146.090549 38.629311 
L 150.572852 40.306229 
L 154.980954 42.177426 
L 159.305417 44.238897 
L 163.536981 46.486227 
L 167.666585 48.914603 
L 171.685386 51.518827 
L 175.58478 54.293321 
L 179.356416 57.232146 
L 182.99222 60.329007 
L 186.484404 63.577275 
L 189.825493 66.969993 
L 193.008331 70.499897 
L 196.026103 74.159429 
L 198.872349 77.940752 
L 201.540972 81.83577 
L 204.02626 85.836143 
L 206.322889 89.933305 
L 208.425944 94.118482 
L 210.33092 98.382714 
L 212.033738 102.716869 
L 213.530753 107.111667 
L 214.818758 111.557698 
L 215.894997 116.045441 
L 216.757163 120.565287 
L 217.403412 125.107559 
L 217.83236 129.662529 
L 218.043087 134.220444 
L 218.035144 138.771546 
" clip-path="url(#p2f976d2756)" style="fill: none; stroke: #0000ff; stroke-width: 1.5; stroke-linecap: square"/>
   </g>
   <g id="line2d_3">
    <path d="M 16.137944 107.997952 
L 16.473934 106.63266 
L 16.828308 105.271879 
L 17.201 103.915861 
L 17.591941 102.564857 
L 18.001059 101.219116 
L 18.428277 99.878888 
L 18.873518 98.54442 
L 19.336699 97.215959 
L 19.817734 95.893749 
L 20.316534 94.578037 
L 20.833007 93.269064 
L 21.367058 91.967074 
L 21.918588 90.672306 
L 22.487494 89.385 
L 23.073673 88.105394 
L 23.677014 86.833724 
L 24.297408 85.570226 
L 24.934739 84.315133 
L 25.588889 83.068677 
L 26.259737 81.831089 
L 26.94716 80.602597 
L 27.651031 79.383428 
L 28.371218 78.173808 
L 29.10759 76.973961 
L 29.86001 75.784108 
L 30.628338 74.604469 
L 31.412434 73.435262 
L 32.212151 72.276703 
L 33.027342 71.129007 
L 33.857857 69.992386 
L 34.703542 68.867049 
L 35.56424 67.753206 
L 36.439792 66.651061 
L 37.330037 65.560818 
L 38.23481 64.48268 
L 39.153944 63.416845 
L 40.087269 62.36351 
L 41.034612 61.32287 
L 41.995798 60.295118 
L 42.970649 59.280443 
L 43.958986 58.279033 
L 44.960626 57.291073 
L 45.975382 56.316746 
L 47.003069 55.356232 
L 48.043496 54.409708 
L 49.09647 53.477349 
L 50.161796 52.559329 
L 51.239279 51.655815 
L 52.328719 50.766976 
" clip-path="url(#p2f976d2756)" style="fill: none; stroke: #0000ff; stroke-width: 1.5; stroke-linecap: square"/>
   </g>
   <g id="line2d_4">
    <path d="M 170.275862 74.692566 
L 168.132418 72.736354 
L 165.947957 70.825941 
L 163.724197 68.962828 
L 161.462883 67.148479 
L 159.165793 65.384319 
L 156.834731 63.671734 
L 154.471529 62.012069 
L 152.078041 60.406628 
L 149.65615 58.856672 
L 147.207757 57.363418 
L 144.734785 55.928041 
L 142.239178 54.551667 
L 139.722895 53.235377 
L 137.187915 51.980205 
L 134.636226 50.787139 
L 132.069836 49.657114 
L 129.490758 48.591018 
L 126.90102 47.58969 
L 124.302656 46.653915 
L 121.697707 45.784428 
L 119.088219 44.981914 
L 116.476242 44.247001 
L 113.863828 43.580268 
L 111.253029 42.982238 
L 108.645897 42.453381 
L 106.044479 41.994112 
L 103.450818 41.604792 
L 100.866953 41.285728 
L 98.294913 41.037169 
L 95.736719 40.859311 
L 93.194379 40.752294 
L 90.669892 40.716202 
L 88.16524 40.751062 
L 85.682391 40.856848 
L 83.223296 41.033477 
L 80.789886 41.28081 
L 78.384072 41.598652 
L 76.007745 41.986754 
L 73.662772 42.444811 
L 71.350994 42.972463 
L 69.074227 43.569296 
L 66.834261 44.23484 
L 64.632854 44.968574 
L 62.471736 45.76992 
L 60.352605 46.638249 
L 58.277125 47.572879 
L 56.246927 48.573076 
L 54.263606 49.638054 
L 52.328719 50.766976 
" clip-path="url(#p2f976d2756)" style="fill: none; stroke: #ff0000; stroke-width: 1.5; stroke-linecap: square"/>
   </g>
   <g id="line2d_5">
    <path d="M 170.275862 74.692566 
L 166.897296 73.174125 
L 163.445041 71.739328 
L 159.924087 70.390249 
L 156.339523 69.128839 
L 152.696532 67.95692 
L 149.000379 66.876188 
L 145.256408 65.888203 
L 141.47003 64.994394 
L 137.646718 64.196054 
L 133.792 63.494335 
L 129.911447 62.890254 
L 126.01067 62.384682 
L 122.095306 61.978351 
L 118.171015 61.671848 
L 114.243471 61.465616 
L 110.31835 61.359953 
L 106.401326 61.355012 
L 102.498062 61.4508 
L 98.614199 61.647178 
L 94.755353 61.943864 
L 90.927101 62.340427 
L 87.134977 62.836294 
L 83.384462 63.43075 
L 79.680979 64.122934 
L 76.02988 64.911846 
L 72.436444 65.796346 
L 68.905864 66.775154 
L 65.443245 67.846857 
L 62.053591 69.009904 
L 58.741803 70.262615 
L 55.512668 71.603179 
L 52.370853 73.029658 
L 49.3209 74.53999 
L 46.367219 76.131992 
L 43.514078 77.803362 
L 40.765602 79.551685 
L 38.125765 81.374433 
L 35.598381 83.268971 
L 33.187104 85.232561 
L 30.89542 87.262365 
L 28.726642 89.355447 
L 26.683905 91.508783 
L 24.770161 93.71926 
L 22.988177 95.983683 
L 21.340528 98.298778 
L 19.829597 100.661198 
L 18.457568 103.067529 
L 17.226424 105.514293 
L 16.137944 107.997952 
" clip-path="url(#p2f976d2756)" style="fill: none; stroke: #ff0000; stroke-width: 1.5; stroke-linecap: square"/>
   </g>
   <g id="line2d_6">
    <path d="M 170.275862 74.692566 
L 171.961547 75.661314 
L 173.625731 76.651306 
L 175.267779 77.662163 
L 176.887059 78.693496 
L 178.48295 79.74491 
L 180.05484 80.816001 
L 181.602126 81.906359 
L 183.124215 83.015566 
L 184.620522 84.143195 
L 186.090474 85.288815 
L 187.533507 86.451985 
L 188.949066 87.63226 
L 190.33661 88.829186 
L 191.695605 90.042305 
L 193.02553 91.271151 
L 194.325876 92.515253 
L 195.596143 93.774134 
L 196.835843 95.04731 
L 198.044503 96.334293 
L 199.221656 97.634589 
L 200.366853 98.9477 
L 201.479654 100.273122 
L 202.559632 101.610346 
L 203.606372 102.958859 
L 204.619473 104.318145 
L 205.598547 105.687681 
L 206.543217 107.066942 
L 207.453122 108.455399 
L 208.327912 109.85252 
L 209.167252 111.257767 
L 209.970819 112.670604 
L 210.738306 114.090486 
L 211.469418 115.51687 
L 212.163874 116.949209 
L 212.821409 118.386952 
L 213.441769 119.829549 
L 214.024717 121.276446 
L 214.57003 122.727087 
L 215.077497 124.180917 
L 215.546925 125.637378 
L 215.978133 127.09591 
L 216.370956 128.555955 
L 216.725244 130.016952 
L 217.040859 131.478341 
L 217.317682 132.939561 
L 217.555605 134.400051 
L 217.754538 135.859252 
L 217.914405 137.316603 
L 218.035144 138.771546 
" clip-path="url(#p2f976d2756)" style="fill: none; stroke: #ff0000; stroke-width: 1.5; stroke-linecap: square"/>
   </g>
   <g id="text_1">
    <!-- vertex angles 158°, 60°, 44° -->
    <g transform="translate(29.783438 16.318125) scale(0.12 -0.12)">
     <defs>
      <path id="DejaVuSans-76" d="M 191 3500 
L 800 3500 
L 1894 563 
L 2988 3500 
L 3597 3500 
L 2284 0 
L 1503 0 
L 191 3500 
z
" transform="scale(0.015625)"/>
      <path id="DejaVuSans-65" d="M 3597 1894 
L 3597 1613 
L 953 1613 
Q 991 1019 1311 708 
Q 1631 397 2203 397 
Q 2534 397 2845 478 
Q 3156 559 3463 722 
L 3463 178 
Q 3153 47 2828 -22 
Q 2503 -91 2169 -91 
Q 1331 -91 842 396 
Q 353 884 353 1716 
Q 353 2575 817 3079 
Q 1281 3584 2069 3584 
Q 2775 3584 3186 3129 
Q 3597 2675 3597 1894 
z
M 3022 2063 
Q 3016 2534 2758 2815 
Q 2500 3097 2075 3097 
Q 1594 3097 1305 2825 
Q 1016 2553 972 2059 
L 3022 2063 
z
" transform="scale(0.015625)"/>
      <path id="DejaVuSans-72" d="M 2631 2963 
Q 2534 3019 2420 3045 
Q 2306 3072 2169 3072 
Q 1681 3072 1420 2755 
Q 1159 2438 1159 1844 
L 1159 0 
L 581 0 
L 581 3500 
L 1159 3500 
L 1159 2956 
Q 1341 3275 1631 3429 
Q 1922 3584 2338 3584 
Q 2397 3584 2469 3576 
Q 2541 3569 2628 3553 
L 2631 2963 
z
" transform="scale(0.015625)"/>
      <path id="DejaVuSans-74" d="M 1172 4494 
L 1172 3500 
L 2356 3500 
L 2356 3053 
L 1172 3053 
L 1172 1153 
Q 1172 725 1289 603 
Q 1406 481 1766 481 
L 2356 481 
L 2356 0 
L 1766 0 
Q 1100 0 847 248 
Q 594 497 594 1153 
L 594 3053 
L 172 3053 
L 172 3500 
L 594 3500 
L 594 4494 
L 1172 4494 
z
" transform="scale(0.015625)"/>
      <path id="DejaVuSans-78" d="M 3513 3500 
L 2247 1797 
L 3578 0 
L 2900 0 
L 1881 1375 
L 863 0 
L 184 0 
L 1544 1831 
L 300 3500 
L 978 3500 
L 1906 2253 
L 2834 3500 
L 3513 3500 
z
" transform="scale(0.015625)"/>
      <path id="DejaVuSans-20" transform="scale(0.015625)"/>
      <path id="DejaVuSans-61" d="M 2194 1759 
Q 1497 1759 1228 1600 
Q 959 1441 959 1056 
Q 959 750 1161 570 
Q 1363 391 1709 391 
Q 2188 391 2477 730 
Q 2766 1069 2766 1631 
L 2766 1759 
L 2194 1759 
z
M 3341 1997 
L 3341 0 
L 2766 0 
L 2766 531 
Q 2569 213 2275 61 
Q 1981 -91 1556 -91 
Q 1019 -91 701 211 
Q 384 513 384 1019 
Q 384 1609 779 1909 
Q 1175 2209 1959 2209 
L 2766 2209 
L 2766 2266 
Q 2766 2663 2505 2880 
Q 2244 3097 1772 3097 
Q 1472 3097 1187 3025 
Q 903 2953 641 2809 
L 641 3341 
Q 956 3463 1253 3523 
Q 1550 3584 1831 3584 
Q 2591 3584 2966 3190 
Q 3341 2797 3341 1997 
z
" transform="scale(0.015625)"/>
      <path id="DejaVuSans-6e" d="M 3513 2113 
L 3513 0 
L 2938 0 
L 2938 2094 
Q 2938 2591 2744 2837 
Q 2550 3084 2163 3084 
Q 1697 3084 1428 2787 
Q 1159 2491 1159 1978 
L 1159 0 
L 581 0 
L 581 3500 
L 1159 3500 
L 1159 2956 
Q 1366 3272 1645 3428 
Q 1925 3584 2291 3584 
Q 2894 3584 3203 3211 
Q 3513 2838 3513 2113 
z
" transform="scale(0.015625)"/>
      <path id="DejaVuSans-67" d="M 2906 1791 
Q 2906 2416 2648 2759 
Q 2391 3103 1925 3103 
Q 1463 3103 1205 2759 
Q 947 2416 947 1791 
Q 947 1169 1205 825 
Q 1463 481 1925 481 
Q 2391 481 2648 825 
Q 2906 1169 2906 1791 
z
M 3481 434 
Q 3481 -459 3084 -895 
Q 2688 -1331 1869 -1331 
Q 1566 -1331 1297 -1286 
Q 1028 -1241 775 -1147 
L 775 -588 
Q 1028 -725 1275 -790 
Q 1522 -856 1778 -856 
Q 2344 -856 2625 -561 
Q 2906 -266 2906 331 
L 2906 616 
Q 2728 306 2450 153 
Q 2172 0 1784 0 
Q 1141 0 747 490 
Q 353 981 353 1791 
Q 353 2603 747 3093 
Q 1141 3584 1784 3584 
Q 2172 3584 2450 3431 
Q 2728 3278 2906 2969 
L 2906 3500 
L 3481 3500 
L 3481 434 
z
" transform="scale(0.015625)"/>
      <path id="DejaVuSans-6c" d="M 603 4863 
L 1178 4863 
L 1178 0 
L 603 0 
L 603 4863 
z
" transform="scale(0.015625)"/>
      <path id="DejaVuSans-73" d="M 2834 3397 
L 2834 2853 
Q 2591 2978 2328 3040 
Q 2066 3103 1784 3103 
Q 1356 3103 1142 2972 
Q 928 2841 928 2578 
Q 928 2378 1081 2264 
Q 1234 2150 1697 2047 
L 1894 2003 
Q 2506 1872 2764 1633 
Q 3022 1394 3022 966 
Q 3022 478 2636 193 
Q 2250 -91 1575 -91 
Q 1294 -91 989 -36 
Q 684 19 347 128 
L 347 722 
Q 666 556 975 473 
Q 1284 391 1588 391 
Q 1994 391 2212 530 
Q 2431 669 2431 922 
Q 2431 1156 2273 1281 
Q 2116 1406 1581 1522 
L 1381 1569 
Q 847 1681 609 1914 
Q 372 2147 372 2553 
Q 372 3047 722 3315 
Q 1072 3584 1716 3584 
Q 2034 3584 2315 3537 
Q 2597 3491 2834 3397 
z
" transform="scale(0.015625)"/>
      <path id="DejaVuSans-31" d="M 794 531 
L 1825 531 
L 1825 4091 
L 703 3866 
L 703 4441 
L 1819 4666 
L 2450 4666 
L 2450 531 
L 3481 531 
L 3481 0 
L 794 0 
L 794 531 
z
" transform="scale(0.015625)"/>
      <path id="DejaVuSans-35" d="M 691 4666 
L 3169 4666 
L 3169 4134 
L 1269 4134 
L 1269 2991 
Q 1406 3038 1543 3061 
Q 1681 3084 1819 3084 
Q 2600 3084 3056 2656 
Q 3513 2228 3513 1497 
Q 3513 744 3044 326 
Q 2575 -91 1722 -91 
Q 1428 -91 1123 -41 
Q 819 9 494 109 
L 494 744 
Q 775 591 1075 516 
Q 1375 441 1709 441 
Q 2250 441 2565 725 
Q 2881 1009 2881 1497 
Q 2881 1984 2565 2268 
Q 2250 2553 1709 2553 
Q 1456 2553 1204 2497 
Q 953 2441 691 2322 
L 691 4666 
z
" transform="scale(0.015625)"/>
      <path id="DejaVuSans-38" d="M 2034 2216 
Q 1584 2216 1326 1975 
Q 1069 1734 1069 1313 
Q 1069 891 1326 650 
Q 1584 409 2034 409 
Q 2484 409 2743 651 
Q 3003 894 3003 1313 
Q 3003 1734 2745 1975 
Q 2488 2216 2034 2216 
z
M 1403 2484 
Q 997 2584 770 2862 
Q 544 3141 544 3541 
Q 544 4100 942 4425 
Q 1341 4750 2034 4750 
Q 2731 4750 3128 4425 
Q 3525 4100 3525 3541 
Q 3525 3141 3298 2862 
Q 3072 2584 2669 2484 
Q 3125 2378 3379 2068 
Q 3634 1759 3634 1313 
Q 3634 634 3220 271 
Q 2806 -91 2034 -91 
Q 1263 -91 848 271 
Q 434 634 434 1313 
Q 434 1759 690 2068 
Q 947 2378 1403 2484 
z
M 1172 3481 
Q 1172 3119 1398 2916 
Q 1625 2713 2034 2713 
Q 2441 2713 2670 2916 
Q 2900 3119 2900 3481 
Q 2900 3844 2670 4047 
Q 2441 4250 2034 4250 
Q 1625 4250 1398 4047 
Q 1172 3844 1172 3481 
z
" transform="scale(0.015625)"/>
      <path id="DejaVuSans-b0" d="M 1600 4347 
Q 1350 4347 1178 4173 
Q 1006 4000 1006 3750 
Q 1006 3503 1178 3333 
Q 1350 3163 1600 3163 
Q 1850 3163 2022 3333 
Q 2194 3503 2194 3750 
Q 2194 3997 2020 4172 
Q 1847 4347 1600 4347 
z
M 1600 4750 
Q 1800 4750 1984 4673 
Q 2169 4597 2303 4453 
Q 2447 4313 2519 4134 
Q 2591 3956 2591 3750 
Q 2591 3338 2302 3052 
Q 2013 2766 1594 2766 
Q 1172 2766 890 3047 
Q 609 3328 609 3750 
Q 609 4169 896 4459 
Q 1184 4750 1600 4750 
z
" transform="scale(0.015625)"/>
      <path id="DejaVuSans-2c" d="M 750 794 
L 1409 794 
L 1409 256 
L 897 -744 
L 494 -744 
L 750 256 
L 750 794 
z
" transform="scale(0.015625)"/>
      <path id="DejaVuSans-36" d="M 2113 2584 
Q 1688 2584 1439 2293 
Q 1191 2003 1191 1497 
Q 1191 994 1439 701 
Q 1688 409 2113 409 
Q 2538 409 2786 701 
Q 3034 994 3034 1497 
Q 3034 2003 2786 2293 
Q 2538 2584 2113 2584 
z
M 3366 4563 
L 3366 3988 
Q 3128 4100 2886 4159 
Q 2644 4219 2406 4219 
Q 1781 4219 1451 3797 
Q 1122 3375 1075 2522 
Q 1259 2794 1537 2939 
Q 1816 3084 2150 3084 
Q 2853 3084 3261 2657 
Q 3669 2231 3669 1497 
Q 3669 778 3244 343 
Q 2819 -91 2113 -91 
Q 1303 -91 875 529 
Q 447 1150 447 2328 
Q 447 3434 972 4092 
Q 1497 4750 2381 4750 
Q 2619 4750 2861 4703 
Q 3103 4656 3366 4563 
z
" transform="scale(0.015625)"/>
      <path id="DejaVuSans-30" d="M 2034 4250 
Q 1547 4250 1301 3770 
Q 1056 3291 1056 2328 
Q 1056 1369 1301 889 
Q 1547 409 2034 409 
Q 2525 409 2770 889 
Q 3016 1369 3016 2328 
Q 3016 3291 2770 3770 
Q 2525 4250 2034 4250 
z
M 2034 4750 
Q 2819 4750 3233 4129 
Q 3647 3509 3647 2328 
Q 3647 1150 3233 529 
Q 2819 -91 2034 -91 
Q 1250 -91 836 529 
Q 422 1150 422 2328 
Q 422 3509 836 4129 
Q 1250 4750 2034 4750 
z
" transform="scale(0.015625)"/>
      <path id="DejaVuSans-34" d="M 2419 4116 
L 825 1625 
L 2419 1625 
L 2419 4116 
z
M 2253 4666 
L 3047 4666 
L 3047 1625 
L 3713 1625 
L 3713 1100 
L 3047 1100 
L 3047 0 
L 2419 0 
L 2419 1100 
L 313 1100 
L 313 1709 
L 2253 4666 
z
" transform="scale(0.015625)"/>
     </defs>
     <use xlink:href="#DejaVuSans-76"/>
     <use xlink:href="#DejaVuSans-65" x="59.179688"/>
     <use xlink:href="#DejaVuSans-72" x="120.703125"/>
     <use xlink:href="#DejaVuSans-74" x="161.816406"/>
     <use xlink:href="#DejaVuSans-65" x="201.025391"/>
     <use xlink:href="#DejaVuSans-78" x="260.798828"/>
     <use xlink:href="#DejaVuSans-20" x="319.978516"/>
     <use xlink:href="#DejaVuSans-61" x="351.765625"/>
     <use xlink:href="#DejaVuSans-6e" x="413.044922"/>
     <use xlink:href="#DejaVuSans-67" x="476.423828"/>
     <use xlink:href="#DejaVuSans-6c" x="539.900391"/>
     <use xlink:href="#DejaVuSans-65" x="567.683594"/>
     <use xlink:href="#DejaVuSans-73" x="629.207031"/>
     <use xlink:href="#DejaVuSans-20" x="681.306641"/>
     <use xlink:href="#DejaVuSans-31" x="713.09375"/>
     <use xlink:href="#DejaVuSans-35" x="776.716797"/>
     <use xlink:href="#DejaVuSans-38" x="840.339844"/>
     <use xlink:href="#DejaVuSans-b0" x="903.962891"/>
     <use xlink:href="#DejaVuSans-2c" x="953.962891"/>
     <use xlink:href="#DejaVuSans-20" x="985.75"/>
     <use xlink:href="#DejaVuSans-36" x="1017.537109"/>
     <use xlink:href="#DejaVuSans-30" x="1081.160156"/>
     <use xlink:href="#DejaVuSans-b0" x="1144.783203"/>
     <use xlink:href="#DejaVuSans-2c" x="1194.783203"/>
     <use xlink:href="#DejaVuSans-20" x="1226.570312"/>
     <use xlink:href="#DejaVuSans-34" x="1258.357422"/>
     <use xlink:href="#DejaVuSans-34" x="1321.980469"/>
     <use xlink:href="#DejaVuSans-b0" x="1385.603516"/>
    </g>
   </g>
   <g id="PathCollection_2">
    <defs>
     <path id="mdb2bca24f0" d="M 0 3 
C 0.795609 3 1.55874 2.683901 2.12132 2.12132 
C 2.683901 1.55874 3 0.795609 3 0 
C 3 -0.795609 2.683901 -1.55874 2.12132 -2.12132 
C 1.55874 -2.683901 0.795609 -3 0 -3 
C -0.795609 -3 -1.55874 -2.683901 -2.12132 -2.12132 
C -2.683901 -1.55874 -3 -0.795609 -3 0 
C -3 0.795609 -2.683901 1.55874 -2.12132 2.12132 
C -1.55874 2.683901 -0.795609 3 0 3 
z
" style="stroke: #ff0000"/>
    </defs>
    <g clip-path="url(#p2f976d2756)">
     <use xlink:href="#mdb2bca24f0" x="170.275862" y="74.692566" style="fill: #ff0000; stroke: #ff0000"/>
    </g>
   </g>
  </g>
 </g>
 <defs>
  <clipPath id="p2f976d2756">
   <rect x="7.2" y="22.318125" width="217.44" height="217.44"/>
  </clipPath>
 </defs>
</svg>
