<?xml version="1.0" encoding="utf-8" standalone="no"?>
<!DOCTYPE svg PUBLIC "-//W3C//DTD SVG 1.1//EN"
  "http://www.w3.org/Graphics/SVG/1.1/DTD/svg11.dtd">
<svg xmlns:xlink="http://www.w3.org/1999/xlink" width="144pt" height="144pt" viewBox="0 0 144 144" xmlns="http://www.w3.org/2000/svg" version="1.1">
 <metadata>
  <rdf:RDF xmlns:dc="http://purl.org/dc/elements/1.1/" xmlns:cc="http://creativecommons.org/ns#" xmlns:rdf="http://www.w3.org/1999/02/22-rdf-syntax-ns#">
   <cc:Work>
    <dc:type rdf:resource="http://purl.org/dc/dcmitype/StillImage"/>
    <dc:date>2022-02-27T18:19:52.678624</dc:date>
    <dc:format>image/svg+xml</dc:format>
    <dc:creator>
     <cc:Agent>
      <dc:title>Matplotlib v3.5.1, https://matplotlib.org/</dc:title>
     </cc:Agent>
    </dc:creator>
   </cc:Work>
  </rdf:RDF>
 </metadata>
 <defs>
  <style type="text/css">*{stroke-linejoin: round; stroke-linecap: butt}</style>
 </defs>
 <g id="figure_1">
  <g id="patch_1">
   <path d="M 0 144 
L 144 144 
L 144 0 
L 0 0 
z
" style="fill: #ffffff"/>
  </g>
  <g id="axes_1">
   <g id="patch_2">
    <path d="M 40.05 116.2 
L 130.335227 116.2 
L 130.335227 11.167273 
L 40.05 11.167273 
z
" style="fill: #ffffff"/>
   </g>
   <g id="matplotlib.axis_1">
    <g id="xtick_1">
     <g id="line2d_1">
      <defs>
       <path id="mc64f75fbf5" d="M 0 0 
L 0 3.5 
" style="stroke: #000000; stroke-width: 0.8"/>
      </defs>
      <g>
       <use xlink:href="#mc64f75fbf5" x="44.153874" y="116.2" style="stroke: #000000; stroke-width: 0.8"/>
      </g>
     </g>
     <g id="text_1">
      <!-- 0.0 -->
      <g transform="translate(36.202311 130.798438)scale(0.1 -0.1)">
       <defs>
        <path id="DejaVuSans-30" d="M 2034 4250 
Q 1547 4250 1301 3770 
Q 1056 3291 1056 2328 
Q 1056 1369 1301 889 
Q 1547 409 2034 409 
Q 2525 409 2770 889 
Q 3016 1369 3016 2328 
Q 3016 3291 2770 3770 
Q 2525 4250 2034 4250 
z
M 2034 4750 
Q 2819 4750 3233 4129 
Q 3647 3509 3647 2328 
Q 3647 1150 3233 529 
Q 2819 -91 2034 -91 
Q 1250 -91 836 529 
Q 422 1150 422 2328 
Q 422 3509 836 4129 
Q 1250 4750 2034 4750 
z
" transform="scale(0.015625)"/>
        <path id="DejaVuSans-2e" d="M 684 794 
L 1344 794 
L 1344 0 
L 684 0 
L 684 794 
z
" transform="scale(0.015625)"/>
       </defs>
       <use xlink:href="#DejaVuSans-30"/>
       <use xlink:href="#DejaVuSans-2e" x="63.623047"/>
       <use xlink:href="#DejaVuSans-30" x="95.410156"/>
      </g>
     </g>
    </g>
    <g id="xtick_2">
     <g id="line2d_2">
      <g>
       <use xlink:href="#mc64f75fbf5" x="85.192614" y="116.2" style="stroke: #000000; stroke-width: 0.8"/>
      </g>
     </g>
     <g id="text_2">
      <!-- 0.5 -->
      <g transform="translate(77.241051 130.798438)scale(0.1 -0.1)">
       <defs>
        <path id="DejaVuSans-35" d="M 691 4666 
L 3169 4666 
L 3169 4134 
L 1269 4134 
L 1269 2991 
Q 1406 3038 1543 3061 
Q 1681 3084 1819 3084 
Q 2600 3084 3056 2656 
Q 3513 2228 3513 1497 
Q 3513 744 3044 326 
Q 2575 -91 1722 -91 
Q 1428 -91 1123 -41 
Q 819 9 494 109 
L 494 744 
Q 775 591 1075 516 
Q 1375 441 1709 441 
Q 2250 441 2565 725 
Q 2881 1009 2881 1497 
Q 2881 1984 2565 2268 
Q 2250 2553 1709 2553 
Q 1456 2553 1204 2497 
Q 953 2441 691 2322 
L 691 4666 
z
" transform="scale(0.015625)"/>
       </defs>
       <use xlink:href="#DejaVuSans-30"/>
       <use xlink:href="#DejaVuSans-2e" x="63.623047"/>
       <use xlink:href="#DejaVuSans-35" x="95.410156"/>
      </g>
     </g>
    </g>
    <g id="xtick_3">
     <g id="line2d_3">
      <g>
       <use xlink:href="#mc64f75fbf5" x="126.231353" y="116.2" style="stroke: #000000; stroke-width: 0.8"/>
      </g>
     </g>
     <g id="text_3">
      <!-- 1.0 -->
      <g transform="translate(118.279791 130.798438)scale(0.1 -0.1)">
       <defs>
        <path id="DejaVuSans-31" d="M 794 531 
L 1825 531 
L 1825 4091 
L 703 3866 
L 703 4441 
L 1819 4666 
L 2450 4666 
L 2450 531 
L 3481 531 
L 3481 0 
L 794 0 
L 794 531 
z
" transform="scale(0.015625)"/>
       </defs>
       <use xlink:href="#DejaVuSans-31"/>
       <use xlink:href="#DejaVuSans-2e" x="63.623047"/>
       <use xlink:href="#DejaVuSans-30" x="95.410156"/>
      </g>
     </g>
    </g>
   </g>
   <g id="matplotlib.axis_2">
    <g id="ytick_1">
     <g id="line2d_4">
      <defs>
       <path id="mdf3df8261d" d="M 0 0 
L -3.5 0 
" style="stroke: #000000; stroke-width: 0.8"/>
      </defs>
      <g>
       <use xlink:href="#mdf3df8261d" x="40.05" y="104.722376" style="stroke: #000000; stroke-width: 0.8"/>
      </g>
     </g>
     <g id="text_4">
      <!-- 0.0 -->
      <g transform="translate(17.146875 108.521595)scale(0.1 -0.1)">
       <use xlink:href="#DejaVuSans-30"/>
       <use xlink:href="#DejaVuSans-2e" x="63.623047"/>
       <use xlink:href="#DejaVuSans-30" x="95.410156"/>
      </g>
     </g>
    </g>
    <g id="ytick_2">
     <g id="line2d_5">
      <g>
       <use xlink:href="#mdf3df8261d" x="40.05" y="63.683636" style="stroke: #000000; stroke-width: 0.8"/>
      </g>
     </g>
     <g id="text_5">
      <!-- 0.5 -->
      <g transform="translate(17.146875 67.482855)scale(0.1 -0.1)">
       <use xlink:href="#DejaVuSans-30"/>
       <use xlink:href="#DejaVuSans-2e" x="63.623047"/>
       <use xlink:href="#DejaVuSans-35" x="95.410156"/>
      </g>
     </g>
    </g>
    <g id="ytick_3">
     <g id="line2d_6">
      <g>
       <use xlink:href="#mdf3df8261d" x="40.05" y="22.644897" style="stroke: #000000; stroke-width: 0.8"/>
      </g>
     </g>
     <g id="text_6">
      <!-- 1.0 -->
      <g transform="translate(17.146875 26.444115)scale(0.1 -0.1)">
       <use xlink:href="#DejaVuSans-31"/>
       <use xlink:href="#DejaVuSans-2e" x="63.623047"/>
       <use xlink:href="#DejaVuSans-30" x="95.410156"/>
      </g>
     </g>
    </g>
   </g>
   <g id="LineCollection_1">
    <path d="M 126.231353 104.722376 
L 126.218853 103.289927 
L 126.181354 101.857913 
L 126.118869 100.426773 
L 126.031417 98.996941 
L 125.919024 97.568852 
L 125.781724 96.142943 
L 125.61956 94.719648 
L 125.432581 93.299399 
L 125.220843 91.882629 
L 124.984412 90.469771 
L 124.723359 89.061255 
L 124.437763 87.657509 
L 124.127713 86.258961 
L 123.793301 84.866037 
L 123.434631 83.479161 
L 123.051811 82.098757 
L 122.644958 80.725243 
L 122.214196 79.35904 
L 121.759655 78.000563 
L 121.281476 76.650225 
L 120.779802 75.308438 
L 120.254788 73.975611 
L 119.706592 72.65215 
L 119.135382 71.338458 
L 118.541333 70.034934 
L 117.924624 68.741977 
L 117.285444 67.45998 
L 116.623987 66.189334 
L 115.940455 64.930424 
L 115.235056 63.683636 
L 114.508005 62.449349 
L 113.759524 61.227939 
L 112.98984 60.019777 
L 112.199188 58.825232 
L 111.387809 57.644668 
L 110.55595 56.478444 
L 109.703864 55.326916 
L 108.83181 54.190434 
L 107.940056 53.069345 
L 107.028871 51.963989 
L 106.098534 50.874705 
L 105.149328 49.801823 
L 104.181542 48.74567 
L 103.195472 47.706568 
L 102.191416 46.684834 
L 101.169682 45.680778 
L 100.13058 44.694708 
L 99.074427 43.726922 
L 98.001545 42.777716 
L 96.912261 41.847379 
L 95.806905 40.936194 
L 94.685816 40.04444 
L 93.549334 39.172386 
L 92.397806 38.3203 
L 91.231582 37.488441 
L 90.051018 36.677062 
L 88.856473 35.88641 
L 87.648311 35.116726 
L 86.426901 34.368245 
L 85.192614 33.641194 
L 83.945826 32.935795 
L 82.686916 32.252263 
L 81.41627 31.590806 
L 80.134273 30.951626 
L 78.841316 30.334917 
L 77.537792 29.740868 
L 76.2241 29.169658 
L 74.900639 28.621462 
L 73.567812 28.096448 
L 72.226025 27.594774 
L 70.875687 27.116595 
L 69.51721 26.662054 
L 68.151007 26.231292 
L 66.777493 25.824439 
L 65.397089 25.441619 
L 64.010213 25.082949 
L 62.617289 24.748537 
L 61.218741 24.438487 
L 59.814995 24.152891 
L 58.406479 23.891838 
L 56.993621 23.655407 
L 55.576851 23.443669 
L 54.156602 23.25669 
L 52.733307 23.094526 
L 51.307398 22.957226 
L 49.879309 22.844833 
L 48.449477 22.757381 
L 47.018337 22.694896 
L 45.586323 22.657397 
L 44.153874 22.644897 
" clip-path="url(#pd2512df860)" style="fill: none; stroke: #1f77b4; stroke-width: 1.5"/>
    <path d="M 107.243372 104.722376 
L 107.233763 103.621312 
L 107.204939 102.520584 
L 107.15691 101.420527 
L 107.089689 100.321475 
L 107.003297 99.223764 
L 106.897761 98.127728 
L 106.773112 97.0337 
L 106.629389 95.942015 
L 106.466635 94.853004 
L 106.2849 93.767 
L 106.08424 92.684332 
L 105.864715 91.605332 
L 105.626392 90.530327 
L 105.369344 89.459645 
L 105.093649 88.393613 
L 104.799391 87.332554 
L 104.486661 86.276792 
L 104.155552 85.226649 
L 103.806166 84.182445 
L 103.438609 83.144497 
L 103.052994 82.113122 
L 102.649438 81.088634 
L 102.228063 80.071345 
L 101.788998 79.061566 
L 101.332377 78.059602 
L 100.858339 77.065761 
L 100.367028 76.080343 
L 99.858594 75.103651 
L 99.333192 74.135981 
L 98.790982 73.177627 
L 98.232128 72.228883 
L 97.656802 71.290036 
L 97.065179 70.361373 
L 96.457438 69.443177 
L 95.833765 68.535727 
L 95.19435 67.6393 
L 94.539387 66.754169 
L 93.869077 65.880603 
L 93.183622 65.018869 
L 92.483233 64.169229 
L 91.768122 63.331941 
L 91.038508 62.507262 
L 90.294612 61.695442 
L 89.536661 60.896728 
L 88.764886 60.111364 
L 87.979522 59.339589 
L 87.180808 58.581638 
L 86.368988 57.837742 
L 85.544309 57.108128 
L 84.707021 56.393017 
L 83.857381 55.692628 
L 82.995647 55.007173 
L 82.122081 54.336863 
L 81.23695 53.6819 
L 80.340523 53.042485 
L 79.433073 52.418812 
L 78.514877 51.811071 
L 77.586214 51.219448 
L 76.647367 50.644122 
L 75.698623 50.085268 
L 74.740269 49.543058 
L 73.772599 49.017656 
L 72.795907 48.509222 
L 71.810489 48.017911 
L 70.816648 47.543873 
L 69.814684 47.087252 
L 68.804905 46.648187 
L 67.787616 46.226812 
L 66.763128 45.823256 
L 65.731753 45.437641 
L 64.693805 45.070084 
L 63.649601 44.720698 
L 62.599458 44.389589 
L 61.543696 44.076859 
L 60.482637 43.782601 
L 59.416605 43.506906 
L 58.345923 43.249858 
L 57.270918 43.011535 
L 56.191918 42.79201 
L 55.10925 42.59135 
L 54.023246 42.409615 
L 52.934235 42.246861 
L 51.84255 42.103138 
L 50.748522 41.978489 
L 49.652486 41.872953 
L 48.554775 41.786561 
L 47.455723 41.71934 
L 46.355666 41.671311 
L 45.254938 41.642487 
L 44.153874 41.632878 
" clip-path="url(#pd2512df860)" style="fill: none; stroke: #1f77b4; stroke-width: 1.5"/>
    <path d="M 91.700298 104.722376 
L 91.693057 103.892577 
L 91.671334 103.06303 
L 91.635137 102.233988 
L 91.584477 101.405705 
L 91.51937 100.578432 
L 91.439834 99.752421 
L 91.345894 98.927925 
L 91.23758 98.105193 
L 91.114923 97.284477 
L 90.977961 96.466026 
L 90.826736 95.650091 
L 90.661295 94.836919 
L 90.481686 94.026758 
L 90.287966 93.219855 
L 90.080193 92.416456 
L 89.85843 91.616805 
L 89.622746 90.821147 
L 89.373211 90.029723 
L 89.109901 89.242774 
L 88.832898 88.460541 
L 88.542285 87.683261 
L 88.238151 86.911172 
L 87.920588 86.144508 
L 87.589694 85.383503 
L 87.245568 84.628389 
L 86.888317 83.879396 
L 86.518048 83.136751 
L 86.134875 82.400682 
L 85.738914 81.671412 
L 85.330285 80.949164 
L 84.909114 80.234157 
L 84.475529 79.52661 
L 84.029661 78.826737 
L 83.571646 78.134753 
L 83.101625 77.450867 
L 82.619739 76.775289 
L 82.126137 76.108224 
L 81.620968 75.449874 
L 81.104386 74.800442 
L 80.576548 74.160124 
L 80.037616 73.529115 
L 79.487753 72.907608 
L 78.927127 72.295793 
L 78.355909 71.693854 
L 77.774273 71.101977 
L 77.182396 70.520341 
L 76.580457 69.949123 
L 75.968642 69.388497 
L 75.347135 68.838634 
L 74.716126 68.299702 
L 74.075808 67.771864 
L 73.426376 67.255282 
L 72.768026 66.750113 
L 72.100961 66.256511 
L 71.425383 65.774625 
L 70.741497 65.304604 
L 70.049513 64.846589 
L 69.34964 64.400721 
L 68.642093 63.967136 
L 67.927086 63.545965 
L 67.204838 63.137336 
L 66.475568 62.741375 
L 65.739499 62.358202 
L 64.996854 61.987933 
L 64.247861 61.630682 
L 63.492747 61.286556 
L 62.731742 60.955662 
L 61.965078 60.638099 
L 61.192989 60.333965 
L 60.415709 60.043352 
L 59.633476 59.766349 
L 58.846527 59.503039 
L 58.055103 59.253504 
L 57.259445 59.01782 
L 56.459794 58.796057 
L 55.656395 58.588284 
L 54.849492 58.394564 
L 54.039331 58.214955 
L 53.226159 58.049514 
L 52.410224 57.898289 
L 51.591773 57.761327 
L 50.771057 57.63867 
L 49.948325 57.530356 
L 49.123829 57.436416 
L 48.297818 57.35688 
L 47.470545 57.291773 
L 46.642262 57.241113 
L 45.81322 57.204916 
L 44.983673 57.183193 
L 44.153874 57.175952 
" clip-path="url(#pd2512df860)" style="fill: none; stroke: #1f77b4; stroke-width: 1.5"/>
    <path d="M 78.312974 104.722376 
L 78.307771 104.126218 
L 78.292165 103.530241 
L 78.26616 102.934627 
L 78.229764 102.339558 
L 78.182988 101.745214 
L 78.125847 101.151778 
L 78.058357 100.559429 
L 77.98054 99.968348 
L 77.892419 99.378716 
L 77.79402 98.790711 
L 77.685375 98.204513 
L 77.566516 97.6203 
L 77.437478 97.038251 
L 77.298303 96.458542 
L 77.149031 95.88135 
L 76.989708 95.306852 
L 76.820384 94.735222 
L 76.641108 94.166634 
L 76.451937 93.601261 
L 76.252928 93.039276 
L 76.044141 92.480849 
L 75.82564 91.926152 
L 75.597491 91.375352 
L 75.359764 90.828618 
L 75.112532 90.286117 
L 74.85587 89.748012 
L 74.589855 89.214469 
L 74.314569 88.68565 
L 74.030096 88.161716 
L 73.736522 87.642826 
L 73.433937 87.129139 
L 73.122434 86.620811 
L 72.802106 86.117997 
L 72.473051 85.62085 
L 72.13537 85.129521 
L 71.789166 84.644161 
L 71.434544 84.164917 
L 71.071612 83.691934 
L 70.70048 83.225358 
L 70.321263 82.76533 
L 69.934074 82.31199 
L 69.539032 81.865477 
L 69.136258 81.425926 
L 68.725874 80.993471 
L 68.308005 80.568245 
L 67.882779 80.150376 
L 67.450324 79.739992 
L 67.010773 79.337218 
L 66.56426 78.942176 
L 66.11092 78.554987 
L 65.650892 78.17577 
L 65.184316 77.804638 
L 64.711333 77.441706 
L 64.232089 77.087084 
L 63.746729 76.74088 
L 63.2554 76.403199 
L 62.758253 76.074144 
L 62.255439 75.753816 
L 61.747111 75.442313 
L 61.233424 75.139728 
L 60.714534 74.846154 
L 60.1906 74.561681 
L 59.661781 74.286395 
L 59.128238 74.02038 
L 58.590133 73.763718 
L 58.047632 73.516486 
L 57.500898 73.278759 
L 56.950098 73.05061 
L 56.395401 72.832109 
L 55.836974 72.623322 
L 55.274989 72.424313 
L 54.709616 72.235142 
L 54.141028 72.055866 
L 53.569398 71.886542 
L 52.9949 71.727219 
L 52.417708 71.577947 
L 51.837999 71.438772 
L 51.25595 71.309734 
L 50.671737 71.190875 
L 50.085539 71.08223 
L 49.497534 70.983831 
L 48.907902 70.89571 
L 48.316821 70.817893 
L 47.724472 70.750403 
L 47.131036 70.693262 
L 46.536692 70.646486 
L 45.941623 70.61009 
L 45.346009 70.584085 
L 44.750032 70.568479 
L 44.153874 70.563276 
" clip-path="url(#pd2512df860)" style="fill: none; stroke: #1f77b4; stroke-width: 1.5"/>
    <path d="M 66.274556 104.722376 
L 66.271187 104.336317 
L 66.261081 103.950375 
L 66.24424 103.564669 
L 66.220671 103.179315 
L 66.19038 102.794432 
L 66.153377 102.410135 
L 66.109672 102.026543 
L 66.059279 101.643772 
L 66.002214 101.261939 
L 65.938493 100.88116 
L 65.868137 100.501551 
L 65.791166 100.123228 
L 65.707604 99.746305 
L 65.617477 99.370899 
L 65.520812 98.997122 
L 65.417638 98.62509 
L 65.307987 98.254915 
L 65.191893 97.886709 
L 65.06939 97.520586 
L 64.940516 97.156657 
L 64.80531 96.795033 
L 64.663813 96.435823 
L 64.516069 96.079137 
L 64.362123 95.725084 
L 64.20202 95.373772 
L 64.035811 95.025307 
L 63.863546 94.679797 
L 63.685277 94.337345 
L 63.501058 93.998057 
L 63.310947 93.662035 
L 63.114999 93.329383 
L 62.913276 93.0002 
L 62.705839 92.674589 
L 62.492751 92.352648 
L 62.274076 92.034474 
L 62.049882 91.720165 
L 61.820236 91.409817 
L 61.585209 91.103524 
L 61.344873 90.80138 
L 61.0993 90.503476 
L 60.848565 90.209903 
L 60.592744 89.920751 
L 60.331917 89.636107 
L 60.066161 89.356059 
L 59.795558 89.080692 
L 59.520191 88.810089 
L 59.240143 88.544333 
L 58.955499 88.283506 
L 58.666347 88.027685 
L 58.372774 87.77695 
L 58.07487 87.531377 
L 57.772726 87.291041 
L 57.466433 87.056014 
L 57.156085 86.826368 
L 56.841776 86.602174 
L 56.523602 86.383499 
L 56.201661 86.170411 
L 55.87605 85.962974 
L 55.546867 85.761251 
L 55.214215 85.565303 
L 54.878193 85.375192 
L 54.538905 85.190973 
L 54.196453 85.012704 
L 53.850943 84.840439 
L 53.502478 84.67423 
L 53.151166 84.514127 
L 52.797113 84.360181 
L 52.440427 84.212437 
L 52.081217 84.07094 
L 51.719593 83.935734 
L 51.355664 83.80686 
L 50.989541 83.684357 
L 50.621335 83.568263 
L 50.25116 83.458612 
L 49.879128 83.355438 
L 49.505351 83.258773 
L 49.129945 83.168646 
L 48.753022 83.085084 
L 48.374699 83.008113 
L 47.99509 82.937757 
L 47.614311 82.874036 
L 47.232478 82.816971 
L 46.849707 82.766578 
L 46.466115 82.722873 
L 46.081818 82.68587 
L 45.696935 82.655579 
L 45.311581 82.63201 
L 44.925875 82.615169 
L 44.539933 82.605063 
L 44.153874 82.601694 
" clip-path="url(#pd2512df860)" style="fill: none; stroke: #1f77b4; stroke-width: 1.5"/>
    <path d="M 55.029825 104.722376 
L 55.028169 104.532565 
L 55.0232 104.342811 
L 55.01492 104.153173 
L 55.003332 103.963708 
L 54.988439 103.774474 
L 54.970246 103.58553 
L 54.948757 103.396931 
L 54.923981 103.208736 
L 54.895924 103.021002 
L 54.864595 102.833787 
L 54.830003 102.647147 
L 54.79216 102.461139 
L 54.751075 102.275819 
L 54.706763 102.091245 
L 54.659236 101.907473 
L 54.608509 101.724558 
L 54.554598 101.542556 
L 54.497518 101.361522 
L 54.437288 101.181513 
L 54.373925 101.002582 
L 54.307449 100.824784 
L 54.23788 100.648173 
L 54.16524 100.472803 
L 54.08955 100.298728 
L 54.010833 100.126 
L 53.929114 99.954673 
L 53.844417 99.784798 
L 53.756769 99.616426 
L 53.666195 99.44961 
L 53.572724 99.2844 
L 53.476384 99.120847 
L 53.377204 98.959 
L 53.275214 98.798908 
L 53.170446 98.640621 
L 53.062932 98.484187 
L 52.952703 98.329652 
L 52.839795 98.177065 
L 52.72424 98.026472 
L 52.606075 97.877918 
L 52.485336 97.731449 
L 52.362059 97.58711 
L 52.236281 97.444944 
L 52.108041 97.304995 
L 51.977379 97.167306 
L 51.844333 97.031917 
L 51.708944 96.898871 
L 51.571255 96.768209 
L 51.431306 96.639969 
L 51.28914 96.514191 
L 51.144801 96.390914 
L 50.998332 96.270175 
L 50.849778 96.15201 
L 50.699185 96.036455 
L 50.546598 95.923547 
L 50.392063 95.813318 
L 50.235629 95.705804 
L 50.077342 95.601036 
L 49.91725 95.499046 
L 49.755403 95.399866 
L 49.59185 95.303526 
L 49.42664 95.210055 
L 49.259824 95.119481 
L 49.091452 95.031833 
L 48.921577 94.947136 
L 48.75025 94.865417 
L 48.577522 94.7867 
L 48.403447 94.71101 
L 48.228077 94.63837 
L 48.051466 94.568801 
L 47.873668 94.502325 
L 47.694737 94.438962 
L 47.514728 94.378732 
L 47.333694 94.321652 
L 47.151692 94.267741 
L 46.968777 94.217014 
L 46.785005 94.169487 
L 46.600431 94.125175 
L 46.415111 94.08409 
L 46.229103 94.046247 
L 46.042463 94.011655 
L 45.855248 93.980326 
L 45.667514 93.952269 
L 45.479319 93.927493 
L 45.29072 93.906004 
L 45.101776 93.887811 
L 44.912542 93.872918 
L 44.723077 93.86133 
L 44.533439 93.85305 
L 44.343685 93.848081 
L 44.153874 93.846425 
" clip-path="url(#pd2512df860)" style="fill: none; stroke: #1f77b4; stroke-width: 1.5"/>
    <path d="M 44.153874 104.722376 
L 44.153874 104.722376 
L 44.153874 104.722376 
L 44.153874 104.722376 
L 44.153874 104.722376 
L 44.153874 104.722376 
L 44.153874 104.722376 
L 44.153874 104.722376 
L 44.153874 104.722376 
L 44.153874 104.722376 
L 44.153874 104.722376 
L 44.153874 104.722376 
L 44.153874 104.722376 
L 44.153874 104.722376 
L 44.153874 104.722376 
L 44.153874 104.722376 
L 44.153874 104.722376 
L 44.153874 104.722376 
L 44.153874 104.722376 
L 44.153874 104.722376 
L 44.153874 104.722376 
L 44.153874 104.722376 
L 44.153874 104.722376 
L 44.153874 104.722376 
L 44.153874 104.722376 
L 44.153874 104.722376 
L 44.153874 104.722376 
L 44.153874 104.722376 
L 44.153874 104.722376 
L 44.153874 104.722376 
L 44.153874 104.722376 
L 44.153874 104.722376 
L 44.153874 104.722376 
L 44.153874 104.722376 
L 44.153874 104.722376 
L 44.153874 104.722376 
L 44.153874 104.722376 
L 44.153874 104.722376 
L 44.153874 104.722376 
L 44.153874 104.722376 
L 44.153874 104.722376 
L 44.153874 104.722376 
L 44.153874 104.722376 
L 44.153874 104.722376 
L 44.153874 104.722376 
L 44.153874 104.722376 
L 44.153874 104.722376 
L 44.153874 104.722376 
L 44.153874 104.722376 
L 44.153874 104.722376 
L 44.153874 104.722376 
L 44.153874 104.722376 
L 44.153874 104.722376 
L 44.153874 104.722376 
L 44.153874 104.722376 
L 44.153874 104.722376 
L 44.153874 104.722376 
L 44.153874 104.722376 
L 44.153874 104.722376 
L 44.153874 104.722376 
L 44.153874 104.722376 
L 44.153874 104.722376 
L 44.153874 104.722376 
L 44.153874 104.722376 
L 44.153874 104.722376 
L 44.153874 104.722376 
L 44.153874 104.722376 
L 44.153874 104.722376 
L 44.153874 104.722376 
L 44.153874 104.722376 
L 44.153874 104.722376 
L 44.153874 104.722376 
L 44.153874 104.722376 
L 44.153874 104.722376 
L 44.153874 104.722376 
L 44.153874 104.722376 
L 44.153874 104.722376 
L 44.153874 104.722376 
L 44.153874 104.722376 
L 44.153874 104.722376 
L 44.153874 104.722376 
L 44.153874 104.722376 
L 44.153874 104.722376 
L 44.153874 104.722376 
L 44.153874 104.722376 
L 44.153874 104.722376 
L 44.153874 104.722376 
L 44.153874 104.722376 
L 44.153874 104.722376 
L 44.153874 104.722376 
L 44.153874 104.722376 
" clip-path="url(#pd2512df860)" style="fill: none; stroke: #1f77b4; stroke-width: 1.5"/>
    <path d="M 126.231353 104.722376 
L 124.820612 104.722376 
L 123.433694 104.722376 
L 122.069787 104.722376 
L 120.728112 104.722376 
L 119.407922 104.722376 
L 118.108501 104.722376 
L 116.829163 104.722376 
L 115.569246 104.722376 
L 114.328118 104.722376 
L 113.105169 104.722376 
L 111.899814 104.722376 
L 110.711488 104.722376 
L 109.539651 104.722376 
L 108.38378 104.722376 
L 107.243372 104.722376 
L 106.117942 104.722376 
L 105.007025 104.722376 
L 103.910168 104.722376 
L 102.826939 104.722376 
L 101.756916 104.722376 
L 100.699695 104.722376 
L 99.654885 104.722376 
L 98.622107 104.722376 
L 97.600996 104.722376 
L 96.591198 104.722376 
L 95.592371 104.722376 
L 94.604183 104.722376 
L 93.626314 104.722376 
L 92.658453 104.722376 
L 91.700298 104.722376 
L 90.751558 104.722376 
L 89.811949 104.722376 
L 88.881197 104.722376 
L 87.959034 104.722376 
L 87.045202 104.722376 
L 86.139448 104.722376 
L 85.241529 104.722376 
L 84.351206 104.722376 
L 83.468249 104.722376 
L 82.592431 104.722376 
L 81.723535 104.722376 
L 80.861346 104.722376 
L 80.005657 104.722376 
L 79.156266 104.722376 
L 78.312974 104.722376 
L 77.475589 104.722376 
L 76.643923 104.722376 
L 75.817793 104.722376 
L 74.99702 104.722376 
L 74.181427 104.722376 
L 73.370845 104.722376 
L 72.565105 104.722376 
L 71.764044 104.722376 
L 70.967502 104.722376 
L 70.175321 104.722376 
L 69.387347 104.722376 
L 68.60343 104.722376 
L 67.823423 104.722376 
L 67.047179 104.722376 
L 66.274556 104.722376 
L 65.505415 104.722376 
L 64.739618 104.722376 
L 63.97703 104.722376 
L 63.217518 104.722376 
L 62.460952 104.722376 
L 61.707202 104.722376 
L 60.956142 104.722376 
L 60.207646 104.722376 
L 59.461592 104.722376 
L 58.717858 104.722376 
L 57.976323 104.722376 
L 57.236869 104.722376 
L 56.499378 104.722376 
L 55.763735 104.722376 
L 55.029825 104.722376 
L 54.297534 104.722376 
L 53.56675 104.722376 
L 52.83736 104.722376 
L 52.109255 104.722376 
L 51.382324 104.722376 
L 50.656458 104.722376 
L 49.931549 104.722376 
L 49.207489 104.722376 
L 48.48417 104.722376 
L 47.761486 104.722376 
L 47.03933 104.722376 
L 46.317597 104.722376 
L 45.59618 104.722376 
L 44.874974 104.722376 
L 44.153874 104.722376 
" clip-path="url(#pd2512df860)" style="fill: none; stroke: #1f77b4; stroke-width: 1.5"/>
    <path d="M 123.434631 83.479161 
L 122.07196 83.844288 
L 120.7323 84.203249 
L 119.414867 84.556254 
L 118.118908 84.903505 
L 116.843703 85.245195 
L 115.588559 85.58151 
L 114.352812 85.912627 
L 113.135826 86.238718 
L 111.936989 86.559945 
L 110.755711 86.876468 
L 109.591427 87.188437 
L 108.443593 87.495998 
L 107.311685 87.799292 
L 106.195199 88.098453 
L 105.093649 88.393613 
L 104.006568 88.684895 
L 102.933504 88.972422 
L 101.874022 89.256309 
L 100.827702 89.536669 
L 99.79414 89.813612 
L 98.772943 90.087241 
L 97.763734 90.357657 
L 96.766147 90.62496 
L 95.77983 90.889243 
L 94.80444 91.150598 
L 93.839647 91.409113 
L 92.885131 91.664875 
L 91.940582 91.917966 
L 91.005699 92.168467 
L 90.080193 92.416456 
L 89.16378 92.662008 
L 88.256188 92.905197 
L 87.35715 93.146093 
L 86.466409 93.384766 
L 85.583715 93.621284 
L 84.708824 93.85571 
L 83.841501 94.088108 
L 82.981516 94.318541 
L 82.128644 94.547067 
L 81.282669 94.773745 
L 80.44338 94.998632 
L 79.61057 95.221783 
L 78.784037 95.443252 
L 77.963588 95.66309 
L 77.149031 95.88135 
L 76.340179 96.098082 
L 75.536852 96.313332 
L 74.738872 96.527151 
L 73.946065 96.739582 
L 73.158263 96.950673 
L 72.375301 97.160468 
L 71.597016 97.369008 
L 70.82325 97.576338 
L 70.053849 97.782499 
L 69.288661 97.98753 
L 68.527537 98.191473 
L 67.770332 98.394365 
L 67.016902 98.596246 
L 66.267108 98.797153 
L 65.520812 98.997122 
L 64.777879 99.196191 
L 64.038176 99.394393 
L 63.301573 99.591766 
L 62.56794 99.788342 
L 61.837153 99.984156 
L 61.109087 100.17924 
L 60.383618 100.373629 
L 59.660627 100.567354 
L 58.939994 100.760447 
L 58.221602 100.95294 
L 57.505334 101.144863 
L 56.791076 101.336248 
L 56.078715 101.527124 
L 55.368139 101.717523 
L 54.659236 101.907473 
L 53.951897 102.097004 
L 53.246014 102.286145 
L 52.541478 102.474924 
L 51.838182 102.663372 
L 51.13602 102.851516 
L 50.434888 103.039383 
L 49.734679 103.227004 
L 49.035291 103.414404 
L 48.336619 103.601613 
L 47.63856 103.788657 
L 46.941011 103.975565 
L 46.24387 104.162363 
L 45.547035 104.34908 
L 44.850404 104.535741 
L 44.153874 104.722376 
" clip-path="url(#pd2512df860)" style="fill: none; stroke: #1f77b4; stroke-width: 1.5"/>
    <path d="M 115.235056 63.683636 
L 114.013319 64.389007 
L 112.812213 65.082466 
L 111.631034 65.764419 
L 110.469109 66.435257 
L 109.325791 67.095352 
L 108.20046 67.745062 
L 107.09252 68.384732 
L 106.001401 69.01469 
L 104.926552 69.635254 
L 103.867447 70.246729 
L 102.823579 70.849406 
L 101.794459 71.443569 
L 100.779618 72.029488 
L 99.778604 72.607423 
L 98.790982 73.177627 
L 97.816331 73.740342 
L 96.854248 74.295801 
L 95.904343 74.844229 
L 94.966238 75.385844 
L 94.039572 75.920855 
L 93.123992 76.449465 
L 92.21916 76.97187 
L 91.324748 77.488259 
L 90.44044 77.998815 
L 89.565929 78.503714 
L 88.700919 79.003127 
L 87.845124 79.497221 
L 86.998264 79.986156 
L 86.160072 80.470087 
L 85.330285 80.949164 
L 84.508652 81.423534 
L 83.694927 81.893338 
L 82.888872 82.358715 
L 82.090255 82.819796 
L 81.298853 83.276712 
L 80.514448 83.729589 
L 79.736827 84.178548 
L 78.965785 84.62371 
L 78.201121 85.065189 
L 77.442641 85.503097 
L 76.690155 85.937545 
L 75.943478 86.36864 
L 75.202429 86.796484 
L 74.466834 87.22118 
L 73.736522 87.642826 
L 73.011326 88.061518 
L 72.291082 88.477351 
L 71.575633 88.890416 
L 70.864822 89.300803 
L 70.158498 89.708599 
L 69.456513 90.113891 
L 68.758722 90.51676 
L 68.064983 90.917291 
L 67.375157 91.315562 
L 66.689108 91.711653 
L 66.006703 92.10564 
L 65.327811 92.497598 
L 64.652304 92.887602 
L 63.980057 93.275724 
L 63.310947 93.662035 
L 62.644851 94.046606 
L 61.981651 94.429504 
L 61.321231 94.810798 
L 60.663474 95.190554 
L 60.008269 95.568837 
L 59.355502 95.945712 
L 58.705065 96.321242 
L 58.056849 96.69549 
L 57.410747 97.068517 
L 56.766654 97.440384 
L 56.124466 97.811152 
L 55.48408 98.180879 
L 54.845394 98.549624 
L 54.208309 98.917445 
L 53.572724 99.2844 
L 52.938541 99.650546 
L 52.305664 100.015938 
L 51.673994 100.380633 
L 51.043436 100.744686 
L 50.413895 101.108151 
L 49.785277 101.471084 
L 49.157487 101.833539 
L 48.530433 102.195569 
L 47.90402 102.557228 
L 47.278158 102.91857 
L 46.652753 103.279648 
L 46.027713 103.640514 
L 45.402948 104.001223 
L 44.778365 104.361826 
L 44.153874 104.722376 
" clip-path="url(#pd2512df860)" style="fill: none; stroke: #1f77b4; stroke-width: 1.5"/>
    <path d="M 102.191416 46.684834 
L 101.193872 47.682378 
L 100.213173 48.663077 
L 99.248745 49.627505 
L 98.300037 50.576213 
L 97.366522 51.509728 
L 96.447693 52.428557 
L 95.543063 53.333187 
L 94.652168 54.224082 
L 93.774558 55.101692 
L 92.909802 55.966448 
L 92.057487 56.818763 
L 91.217214 57.659036 
L 90.3886 58.48765 
L 89.571276 59.304974 
L 88.764886 60.111364 
L 87.969087 60.907163 
L 87.183549 61.692701 
L 86.407955 62.468295 
L 85.641996 63.234254 
L 84.885376 63.990874 
L 84.137808 64.738442 
L 83.399015 65.477235 
L 82.668731 66.207519 
L 81.946697 66.929553 
L 81.232662 67.643588 
L 80.526384 68.349866 
L 79.82763 69.04862 
L 79.136172 69.740078 
L 78.451791 70.424459 
L 77.774273 71.101977 
L 77.103412 71.772838 
L 76.439009 72.437241 
L 75.780867 73.095383 
L 75.1288 73.74745 
L 74.482623 74.393627 
L 73.842158 75.034092 
L 73.207234 75.669016 
L 72.57768 76.29857 
L 71.953335 76.922915 
L 71.334039 77.542211 
L 70.719636 78.156614 
L 70.109977 78.766273 
L 69.504913 79.371337 
L 68.904303 79.971947 
L 68.308005 80.568245 
L 67.715885 81.160365 
L 67.127808 81.748442 
L 66.543646 82.332604 
L 65.963272 82.912978 
L 65.386561 83.489689 
L 64.813392 84.062858 
L 64.243648 84.632602 
L 63.677213 85.199037 
L 63.113972 85.762278 
L 62.553815 86.322435 
L 61.996634 86.879616 
L 61.442321 87.433929 
L 60.890772 87.985478 
L 60.341885 88.534365 
L 59.795558 89.080692 
L 59.251693 89.624557 
L 58.710193 90.166057 
L 58.170962 90.705288 
L 57.633906 91.242344 
L 57.098933 91.777317 
L 56.565951 92.310299 
L 56.034872 92.841378 
L 55.505605 93.370645 
L 54.978065 93.898185 
L 54.452166 94.424084 
L 53.927821 94.948429 
L 53.404948 95.471302 
L 52.883464 95.992786 
L 52.363286 96.512964 
L 51.844333 97.031917 
L 51.326525 97.549725 
L 50.809782 98.066468 
L 50.294026 98.582224 
L 49.779178 99.097072 
L 49.26516 99.61109 
L 48.751895 100.124355 
L 48.239307 100.636943 
L 47.727319 101.148931 
L 47.215856 101.660394 
L 46.704841 102.171409 
L 46.1942 102.68205 
L 45.683857 103.192393 
L 45.173739 103.702511 
L 44.663769 104.212481 
L 44.153874 104.722376 
" clip-path="url(#pd2512df860)" style="fill: none; stroke: #1f77b4; stroke-width: 1.5"/>
    <path d="M 85.192614 33.641194 
L 84.487243 34.862931 
L 83.793784 36.064037 
L 83.111831 37.245216 
L 82.440993 38.407141 
L 81.780898 39.550459 
L 81.131188 40.67579 
L 80.491518 41.78373 
L 79.86156 42.874849 
L 79.240996 43.949698 
L 78.629521 45.008803 
L 78.026844 46.052671 
L 77.432681 47.081791 
L 76.846762 48.096632 
L 76.268827 49.097646 
L 75.698623 50.085268 
L 75.135908 51.059919 
L 74.580449 52.022002 
L 74.032021 52.971907 
L 73.490406 53.910012 
L 72.955395 54.836678 
L 72.426785 55.752258 
L 71.90438 56.65709 
L 71.387991 57.551502 
L 70.877435 58.43581 
L 70.372536 59.310321 
L 69.873123 60.175331 
L 69.379029 61.031126 
L 68.890094 61.877986 
L 68.406163 62.716178 
L 67.927086 63.545965 
L 67.452716 64.367598 
L 66.982912 65.181323 
L 66.517535 65.987378 
L 66.056454 66.785995 
L 65.599538 67.577397 
L 65.146661 68.361802 
L 64.697702 69.139423 
L 64.25254 69.910465 
L 63.811061 70.675129 
L 63.373153 71.433609 
L 62.938705 72.186095 
L 62.50761 72.932772 
L 62.079766 73.673821 
L 61.65507 74.409416 
L 61.233424 75.139728 
L 60.814732 75.864924 
L 60.398899 76.585168 
L 59.985834 77.300617 
L 59.575447 78.011428 
L 59.167651 78.717752 
L 58.762359 79.419737 
L 58.35949 80.117528 
L 57.958959 80.811267 
L 57.560688 81.501093 
L 57.164597 82.187142 
L 56.77061 82.869547 
L 56.378652 83.548439 
L 55.988648 84.223946 
L 55.600526 84.896193 
L 55.214215 85.565303 
L 54.829644 86.231399 
L 54.446746 86.894599 
L 54.065452 87.555019 
L 53.685696 88.212776 
L 53.307413 88.867981 
L 52.930538 89.520748 
L 52.555008 90.171185 
L 52.18076 90.819401 
L 51.807733 91.465503 
L 51.435866 92.109596 
L 51.065098 92.751784 
L 50.695371 93.39217 
L 50.326626 94.030856 
L 49.958805 94.667941 
L 49.59185 95.303526 
L 49.225704 95.937709 
L 48.860312 96.570586 
L 48.495617 97.202256 
L 48.131564 97.832814 
L 47.768099 98.462355 
L 47.405166 99.090973 
L 47.042711 99.718763 
L 46.680681 100.345817 
L 46.319022 100.97223 
L 45.95768 101.598092 
L 45.596602 102.223497 
L 45.235736 102.848537 
L 44.875027 103.473302 
L 44.514424 104.097885 
L 44.153874 104.722376 
" clip-path="url(#pd2512df860)" style="fill: none; stroke: #1f77b4; stroke-width: 1.5"/>
    <path d="M 65.397089 25.441619 
L 65.031962 26.80429 
L 64.673001 28.14395 
L 64.319996 29.461383 
L 63.972745 30.757342 
L 63.631055 32.032547 
L 63.29474 33.287691 
L 62.963623 34.523438 
L 62.637532 35.740424 
L 62.316305 36.939261 
L 61.999782 38.120539 
L 61.687813 39.284823 
L 61.380252 40.432657 
L 61.076958 41.564565 
L 60.777797 42.681051 
L 60.482637 43.782601 
L 60.191355 44.869682 
L 59.903828 45.942746 
L 59.619941 47.002228 
L 59.339581 48.048548 
L 59.062638 49.08211 
L 58.789009 50.103307 
L 58.518593 51.112516 
L 58.25129 52.110103 
L 57.987007 53.09642 
L 57.725652 54.07181 
L 57.467137 55.036603 
L 57.211375 55.991119 
L 56.958284 56.935668 
L 56.707783 57.870551 
L 56.459794 58.796057 
L 56.214242 59.71247 
L 55.971053 60.620062 
L 55.730157 61.5191 
L 55.491484 62.409841 
L 55.254966 63.292535 
L 55.02054 64.167426 
L 54.788142 65.034749 
L 54.557709 65.894734 
L 54.329183 66.747606 
L 54.102505 67.593581 
L 53.877618 68.43287 
L 53.654467 69.26568 
L 53.432998 70.092213 
L 53.21316 70.912662 
L 52.9949 71.727219 
L 52.778168 72.536071 
L 52.562918 73.339398 
L 52.349099 74.137378 
L 52.136668 74.930185 
L 51.925577 75.717987 
L 51.715782 76.500949 
L 51.507242 77.279234 
L 51.299912 78.053 
L 51.093751 78.822401 
L 50.88872 79.587589 
L 50.684777 80.348713 
L 50.481885 81.105918 
L 50.280004 81.859348 
L 50.079097 82.609142 
L 49.879128 83.355438 
L 49.680059 84.098371 
L 49.481857 84.838074 
L 49.284484 85.574677 
L 49.087908 86.30831 
L 48.892094 87.039097 
L 48.69701 87.767163 
L 48.502621 88.492632 
L 48.308896 89.215623 
L 48.115803 89.936256 
L 47.92331 90.654648 
L 47.731387 91.370916 
L 47.540002 92.085174 
L 47.349126 92.797535 
L 47.158727 93.508111 
L 46.968777 94.217014 
L 46.779246 94.924353 
L 46.590105 95.630236 
L 46.401326 96.334772 
L 46.212878 97.038068 
L 46.024734 97.74023 
L 45.836867 98.441362 
L 45.649246 99.141571 
L 45.461846 99.840959 
L 45.274637 100.539631 
L 45.087593 101.23769 
L 44.900685 101.935239 
L 44.713887 102.63238 
L 44.52717 103.329215 
L 44.340509 104.025846 
L 44.153874 104.722376 
" clip-path="url(#pd2512df860)" style="fill: none; stroke: #1f77b4; stroke-width: 1.5"/>
    <path d="M 44.153874 22.644897 
L 44.153874 24.055638 
L 44.153874 25.442556 
L 44.153874 26.806463 
L 44.153874 28.148138 
L 44.153874 29.468328 
L 44.153874 30.767749 
L 44.153874 32.047087 
L 44.153874 33.307004 
L 44.153874 34.548132 
L 44.153874 35.771081 
L 44.153874 36.976436 
L 44.153874 38.164762 
L 44.153874 39.336599 
L 44.153874 40.49247 
L 44.153874 41.632878 
L 44.153874 42.758308 
L 44.153874 43.869225 
L 44.153874 44.966082 
L 44.153874 46.049311 
L 44.153874 47.119334 
L 44.153874 48.176555 
L 44.153874 49.221365 
L 44.153874 50.254143 
L 44.153874 51.275254 
L 44.153874 52.285052 
L 44.153874 53.283879 
L 44.153874 54.272067 
L 44.153874 55.249936 
L 44.153874 56.217797 
L 44.153874 57.175952 
L 44.153874 58.124692 
L 44.153874 59.064301 
L 44.153874 59.995053 
L 44.153874 60.917216 
L 44.153874 61.831048 
L 44.153874 62.736802 
L 44.153874 63.634721 
L 44.153874 64.525044 
L 44.153874 65.408001 
L 44.153874 66.283819 
L 44.153874 67.152715 
L 44.153874 68.014904 
L 44.153874 68.870593 
L 44.153874 69.719984 
L 44.153874 70.563276 
L 44.153874 71.400661 
L 44.153874 72.232327 
L 44.153874 73.058457 
L 44.153874 73.87923 
L 44.153874 74.694823 
L 44.153874 75.505405 
L 44.153874 76.311145 
L 44.153874 77.112206 
L 44.153874 77.908748 
L 44.153874 78.700929 
L 44.153874 79.488903 
L 44.153874 80.27282 
L 44.153874 81.052827 
L 44.153874 81.829071 
L 44.153874 82.601694 
L 44.153874 83.370835 
L 44.153874 84.136632 
L 44.153874 84.89922 
L 44.153874 85.658732 
L 44.153874 86.415298 
L 44.153874 87.169048 
L 44.153874 87.920108 
L 44.153874 88.668604 
L 44.153874 89.414658 
L 44.153874 90.158392 
L 44.153874 90.899927 
L 44.153874 91.639381 
L 44.153874 92.376872 
L 44.153874 93.112515 
L 44.153874 93.846425 
L 44.153874 94.578716 
L 44.153874 95.3095 
L 44.153874 96.03889 
L 44.153874 96.766995 
L 44.153874 97.493926 
L 44.153874 98.219792 
L 44.153874 98.944701 
L 44.153874 99.668761 
L 44.153874 100.39208 
L 44.153874 101.114764 
L 44.153874 101.83692 
L 44.153874 102.558653 
L 44.153874 103.28007 
L 44.153874 104.001276 
L 44.153874 104.722376 
" clip-path="url(#pd2512df860)" style="fill: none; stroke: #1f77b4; stroke-width: 1.5"/>
   </g>
   <g id="patch_3">
    <path d="M 40.05 116.2 
L 40.05 11.167273 
" style="fill: none; stroke: #000000; stroke-width: 0.8; stroke-linejoin: miter; stroke-linecap: square"/>
   </g>
   <g id="patch_4">
    <path d="M 130.335227 116.2 
L 130.335227 11.167273 
" style="fill: none; stroke: #000000; stroke-width: 0.8; stroke-linejoin: miter; stroke-linecap: square"/>
   </g>
   <g id="patch_5">
    <path d="M 40.05 116.2 
L 130.335227 116.2 
" style="fill: none; stroke: #000000; stroke-width: 0.8; stroke-linejoin: miter; stroke-linecap: square"/>
   </g>
   <g id="patch_6">
    <path d="M 40.05 11.167273 
L 130.335227 11.167273 
" style="fill: none; stroke: #000000; stroke-width: 0.8; stroke-linejoin: miter; stroke-linecap: square"/>
   </g>
  </g>
 </g>
 <defs>
  <clipPath id="pd2512df860">
   <rect x="40.05" y="11.167273" width="90.285227" height="105.032727"/>
  </clipPath>
 </defs>
</svg>
