<?xml version="1.0" encoding="utf-8" standalone="no"?>
<!DOCTYPE svg PUBLIC "-//W3C//DTD SVG 1.1//EN"
  "http://www.w3.org/Graphics/SVG/1.1/DTD/svg11.dtd">
<svg xmlns:xlink="http://www.w3.org/1999/xlink" width="144pt" height="144pt" viewBox="0 0 144 144" xmlns="http://www.w3.org/2000/svg" version="1.1">
 <metadata>
  <rdf:RDF xmlns:dc="http://purl.org/dc/elements/1.1/" xmlns:cc="http://creativecommons.org/ns#" xmlns:rdf="http://www.w3.org/1999/02/22-rdf-syntax-ns#">
   <cc:Work>
    <dc:type rdf:resource="http://purl.org/dc/dcmitype/StillImage"/>
    <dc:date>2022-02-27T18:18:02.701225</dc:date>
    <dc:format>image/svg+xml</dc:format>
    <dc:creator>
     <cc:Agent>
      <dc:title>Matplotlib v3.5.1, https://matplotlib.org/</dc:title>
     </cc:Agent>
    </dc:creator>
   </cc:Work>
  </rdf:RDF>
 </metadata>
 <defs>
  <style type="text/css">*{stroke-linejoin: round; stroke-linecap: butt}</style>
 </defs>
 <g id="figure_1">
  <g id="patch_1">
   <path d="M 0 144 
L 144 144 
L 144 0 
L 0 0 
L 0 144 
z
" style="fill: none"/>
  </g>
  <g id="axes_1">
   <g id="patch_2">
    <path d="M 72 132.052613 
C 87.926139 132.052613 103.202129 125.725091 114.46361 114.46361 
C 125.725091 103.202129 132.052613 87.926139 132.052613 72 
C 132.052613 56.073861 125.725091 40.797871 114.46361 29.53639 
C 103.202129 18.274909 87.926139 11.947387 72 11.947387 
C 56.073861 11.947387 40.797871 18.274909 29.53639 29.53639 
C 18.274909 40.797871 11.947387 56.073861 11.947387 72 
C 11.947387 87.926139 18.274909 103.202129 29.53639 114.46361 
C 40.797871 125.725091 56.073861 132.052613 72 132.052613 
z
" clip-path="url(#p8b6f4cf85e)" style="fill: #ffffff; stroke: #000000; stroke-linejoin: miter"/>
   </g>
   <g id="LineCollection_1">
    <path d="M 11.947387 71.798655 
L 12.070772 74.519308 
L 12.440418 77.228781 
L 13.054808 79.915941 
L 13.911416 82.569745 
L 15.006723 85.179288 
L 16.336227 87.733847 
L 17.894465 90.222925 
L 19.675035 92.636294 
L 21.670619 94.964036 
L 23.873018 97.196587 
L 26.273181 99.324773 
L 28.861244 101.339848 
L 31.626575 103.233531 
L 34.557808 104.998042 
L 37.6429 106.62613 
L 40.869172 108.111104 
L 44.223367 109.446862 
L 47.691703 110.627916 
L 51.259926 111.649412 
L 54.913375 112.507153 
L 58.637036 113.197614 
L 62.415609 113.717957 
L 66.233566 114.066046 
L 70.075219 114.240448 
L 73.924781 114.240448 
L 77.766434 114.066046 
L 81.584391 113.717957 
L 85.362964 113.197614 
L 89.086625 112.507153 
L 92.740074 111.649412 
L 96.308297 110.627916 
L 99.776633 109.446862 
L 103.130828 108.111104 
L 106.3571 106.62613 
L 109.442192 104.998042 
L 112.373425 103.233531 
L 115.138756 101.339848 
L 117.726819 99.324773 
L 120.126982 97.196587 
L 122.329381 94.964036 
L 124.324965 92.636294 
L 126.105535 90.222925 
L 127.663773 87.733847 
L 128.993277 85.179288 
L 130.088584 82.569745 
L 130.945192 79.915941 
L 131.559582 77.228781 
L 131.929228 74.519308 
L 132.052613 71.798655 
" clip-path="url(#p8b6f4cf85e)" style="fill: none; stroke: #808080; stroke-width: 1.5"/>
    <path d="M 36.750742 120.322263 
L 35.308111 119.046438 
L 34.016269 117.577614 
L 32.880302 115.921964 
L 31.904664 114.086382 
L 31.093164 112.078453 
L 30.448959 109.906415 
L 29.974552 107.57913 
L 29.671778 105.106048 
L 29.541808 102.497175 
L 29.585145 99.763033 
L 29.801622 96.914629 
L 30.190401 93.963412 
L 30.749978 90.921244 
L 31.478184 87.800352 
L 32.372189 84.613292 
L 33.428508 81.37291 
L 34.643009 78.092292 
L 36.01092 74.784723 
L 37.526845 71.463639 
L 39.184774 68.142576 
L 40.9781 64.835121 
L 42.899642 61.554857 
L 44.941663 58.315307 
L 47.095899 55.129878 
L 49.353587 52.011803 
L 51.705496 48.97408 
L 54.141968 46.029411 
L 56.652951 43.190146 
L 59.228048 40.468218 
L 61.856558 37.875088 
L 64.527525 35.421683 
L 67.229791 33.118348 
L 69.952048 30.974786 
L 72.682889 29.000015 
L 75.410868 27.20232 
L 78.12455 25.589213 
L 80.812573 24.167399 
L 83.463694 22.942745 
L 86.066852 21.920254 
L 88.611212 21.104045 
L 91.086219 20.497343 
L 93.481642 20.102466 
L 95.787622 19.920825 
L 97.994709 19.952925 
L 100.093903 20.198373 
L 102.076685 20.655887 
" clip-path="url(#p8b6f4cf85e)" style="fill: none; stroke: #808080; stroke-width: 1.5"/>
    <path d="M 107.249258 120.322263 
L 108.691889 119.046438 
L 109.983731 117.577614 
L 111.119698 115.921964 
L 112.095336 114.086382 
L 112.906836 112.078453 
L 113.551041 109.906415 
L 114.025448 107.57913 
L 114.328222 105.106048 
L 114.458192 102.497175 
L 114.414855 99.763033 
L 114.198378 96.914629 
L 113.809599 93.963412 
L 113.250022 90.921244 
L 112.521816 87.800352 
L 111.627811 84.613292 
L 110.571492 81.37291 
L 109.356991 78.092292 
L 107.98908 74.784723 
L 106.473155 71.463639 
L 104.815226 68.142576 
L 103.0219 64.835121 
L 101.100358 61.554857 
L 99.058337 58.315307 
L 96.904101 55.129878 
L 94.646413 52.011803 
L 92.294504 48.97408 
L 89.858032 46.029411 
L 87.347049 43.190146 
L 84.771952 40.468218 
L 82.143442 37.875088 
L 79.472475 35.421683 
L 76.770209 33.118348 
L 74.047952 30.974786 
L 71.317111 29.000015 
L 68.589132 27.20232 
L 65.87545 25.589213 
L 63.187427 24.167399 
L 60.536306 22.942745 
L 57.933148 21.920254 
L 55.388788 21.104045 
L 52.913781 20.497343 
L 50.518358 20.102466 
L 48.212378 19.920825 
L 46.005291 19.952925 
L 43.906097 20.198373 
L 41.923315 20.655887 
" clip-path="url(#p8b6f4cf85e)" style="fill: none; stroke: #808080; stroke-width: 1.5"/>
   </g>
   <g id="LineCollection_2">
    <path d="M 29.53639 101.824962 
L 30.28395 102.34442 
L 31.044216 102.854574 
L 31.816959 103.355267 
L 32.601941 103.846348 
L 33.398924 104.327668 
L 34.207666 104.799078 
L 35.02792 105.260436 
L 35.859435 105.711602 
L 36.70196 106.152437 
L 37.555236 106.582808 
L 38.419005 107.002583 
L 39.293003 107.411635 
L 40.176964 107.809839 
L 41.070618 108.197073 
L 41.973694 108.57322 
L 42.885916 108.938165 
L 43.807006 109.291797 
L 44.736684 109.634009 
L 45.674667 109.964695 
L 46.620669 110.283756 
L 47.574402 110.591093 
L 48.535575 110.886614 
L 49.503895 111.170229 
L 50.479068 111.44185 
L 51.460797 111.701396 
L 52.448782 111.948787 
L 53.442722 112.183948 
L 54.442315 112.406807 
L 55.447257 112.617297 
L 56.45724 112.815353 
L 57.471958 113.000914 
L 58.491101 113.173926 
L 59.51436 113.334333 
L 60.541421 113.482089 
L 61.571973 113.617147 
L 62.605702 113.739468 
L 63.642292 113.849012 
L 64.681427 113.945748 
L 65.722793 114.029645 
L 66.76607 114.100678 
L 67.810941 114.158826 
L 68.857089 114.20407 
L 69.904194 114.236397 
L 70.951937 114.255798 
L 72 114.262265 
L 73.048063 114.255798 
L 74.095806 114.236397 
L 75.142911 114.20407 
L 76.189059 114.158826 
L 77.23393 114.100678 
L 78.277207 114.029645 
L 79.318573 113.945748 
L 80.357708 113.849012 
L 81.394298 113.739468 
L 82.428027 113.617147 
L 83.458579 113.482089 
L 84.48564 113.334333 
L 85.508899 113.173926 
L 86.528042 113.000914 
L 87.54276 112.815353 
L 88.552743 112.617297 
L 89.557685 112.406807 
L 90.557278 112.183948 
L 91.551218 111.948787 
L 92.539203 111.701396 
L 93.520932 111.44185 
L 94.496105 111.170229 
L 95.464425 110.886614 
L 96.425598 110.591093 
L 97.379331 110.283756 
L 98.325333 109.964695 
L 99.263316 109.634009 
L 100.192994 109.291797 
L 101.114084 108.938165 
L 102.026306 108.57322 
L 102.929382 108.197073 
L 103.823036 107.809839 
L 104.706997 107.411635 
L 105.580995 107.002583 
L 106.444764 106.582808 
L 107.29804 106.152437 
L 108.140565 105.711602 
L 108.97208 105.260436 
L 109.792334 104.799078 
L 110.601076 104.327668 
L 111.398059 103.846348 
L 112.183041 103.355267 
L 112.955784 102.854574 
L 113.71605 102.34442 
L 114.46361 101.824962 
" clip-path="url(#p8b6f4cf85e)" style="fill: none; stroke: #1f77b4; stroke-width: 1.5"/>
    <path d="M 30.974103 89.88908 
L 31.696352 90.39095 
L 32.430878 90.883831 
L 33.177457 91.367573 
L 33.935862 91.842027 
L 34.705861 92.30705 
L 35.487221 92.7625 
L 36.279703 93.208238 
L 37.083065 93.644128 
L 37.897064 94.070038 
L 38.721451 94.485837 
L 39.555974 94.8914 
L 40.400381 95.286602 
L 41.254413 95.671324 
L 42.11781 96.045447 
L 42.99031 96.408859 
L 43.871646 96.761448 
L 44.761551 97.103107 
L 45.659753 97.433732 
L 46.565978 97.753222 
L 47.47995 98.06148 
L 48.401392 98.358412 
L 49.330022 98.643927 
L 50.265558 98.917939 
L 51.207714 99.180364 
L 52.156203 99.431122 
L 53.110737 99.670138 
L 54.071025 99.897336 
L 55.036775 100.11265 
L 56.007691 100.316013 
L 56.983479 100.507363 
L 57.963842 100.686642 
L 58.948479 100.853796 
L 59.937093 101.008773 
L 60.92938 101.151526 
L 61.92504 101.282011 
L 62.923769 101.40019 
L 63.925263 101.506026 
L 64.929216 101.599486 
L 65.935323 101.680543 
L 66.943278 101.749171 
L 67.952773 101.80535 
L 68.9635 101.849062 
L 69.975153 101.880295 
L 70.987422 101.899038 
L 72 101.905287 
L 73.012578 101.899038 
L 74.024847 101.880295 
L 75.0365 101.849062 
L 76.047227 101.80535 
L 77.056722 101.749171 
L 78.064677 101.680543 
L 79.070784 101.599486 
L 80.074737 101.506026 
L 81.076231 101.40019 
L 82.07496 101.282011 
L 83.07062 101.151526 
L 84.062907 101.008773 
L 85.051521 100.853796 
L 86.036158 100.686642 
L 87.016521 100.507363 
L 87.992309 100.316013 
L 88.963225 100.11265 
L 89.928975 99.897336 
L 90.889263 99.670138 
L 91.843797 99.431122 
L 92.792286 99.180364 
L 93.734442 98.917939 
L 94.669978 98.643927 
L 95.598608 98.358412 
L 96.52005 98.06148 
L 97.434022 97.753222 
L 98.340247 97.433732 
L 99.238449 97.103107 
L 100.128354 96.761448 
L 101.00969 96.408859 
L 101.88219 96.045447 
L 102.745587 95.671324 
L 103.599619 95.286602 
L 104.444026 94.8914 
L 105.278549 94.485837 
L 106.102936 94.070038 
L 106.916935 93.644128 
L 107.720297 93.208238 
L 108.512779 92.7625 
L 109.294139 92.30705 
L 110.064138 91.842027 
L 110.822543 91.367573 
L 111.569122 90.883831 
L 112.303648 90.39095 
L 113.025897 89.88908 
" clip-path="url(#p8b6f4cf85e)" style="fill: none; stroke: #1f77b4; stroke-width: 1.5"/>
    <path d="M 35.194624 76.716645 
L 35.842572 77.166886 
L 36.501534 77.609062 
L 37.171309 78.043039 
L 37.851693 78.468684 
L 38.542479 78.885868 
L 39.243457 79.294464 
L 39.954412 79.694347 
L 40.675129 80.085395 
L 41.405388 80.467489 
L 42.144966 80.840513 
L 42.893639 81.204354 
L 43.651177 81.5589 
L 44.417351 81.904044 
L 45.191927 82.239679 
L 45.974669 82.565705 
L 46.765338 82.882022 
L 47.563694 83.188533 
L 48.369494 83.485145 
L 49.182491 83.771767 
L 50.002439 84.048313 
L 50.829088 84.314699 
L 51.662186 84.570842 
L 52.501479 84.816665 
L 53.346711 85.052093 
L 54.197625 85.277055 
L 55.053962 85.491481 
L 55.915461 85.695307 
L 56.781859 85.888471 
L 57.652893 86.070913 
L 58.528297 86.242578 
L 59.407805 86.403414 
L 60.291149 86.553371 
L 61.178059 86.692405 
L 62.068265 86.820472 
L 62.961497 86.937534 
L 63.857482 87.043555 
L 64.755948 87.138503 
L 65.65662 87.222349 
L 66.559224 87.295067 
L 67.463486 87.356635 
L 68.369129 87.407034 
L 69.275879 87.44625 
L 70.183458 87.47427 
L 71.091591 87.491085 
L 72 87.496691 
L 72.908409 87.491085 
L 73.816542 87.47427 
L 74.724121 87.44625 
L 75.630871 87.407034 
L 76.536514 87.356635 
L 77.440776 87.295067 
L 78.34338 87.222349 
L 79.244052 87.138503 
L 80.142518 87.043555 
L 81.038503 86.937534 
L 81.931735 86.820472 
L 82.821941 86.692405 
L 83.708851 86.553371 
L 84.592195 86.403414 
L 85.471703 86.242578 
L 86.347107 86.070913 
L 87.218141 85.888471 
L 88.084539 85.695307 
L 88.946038 85.491481 
L 89.802375 85.277055 
L 90.653289 85.052093 
L 91.498521 84.816665 
L 92.337814 84.570842 
L 93.170912 84.314699 
L 93.997561 84.048313 
L 94.817509 83.771767 
L 95.630506 83.485145 
L 96.436306 83.188533 
L 97.234662 82.882022 
L 98.025331 82.565705 
L 98.808073 82.239679 
L 99.582649 81.904044 
L 100.348823 81.5589 
L 101.106361 81.204354 
L 101.855034 80.840513 
L 102.594612 80.467489 
L 103.324871 80.085395 
L 104.045588 79.694347 
L 104.756543 79.294464 
L 105.457521 78.885868 
L 106.148307 78.468684 
L 106.828691 78.043039 
L 107.498466 77.609062 
L 108.157428 77.166886 
L 108.805376 76.716645 
" clip-path="url(#p8b6f4cf85e)" style="fill: none; stroke: #1f77b4; stroke-width: 1.5"/>
    <path d="M 41.923315 63.190743 
L 42.452806 63.558672 
L 42.991298 63.92001 
L 43.538626 64.274648 
L 44.094624 64.622477 
L 44.659122 64.963392 
L 45.231948 65.297289 
L 45.812928 65.624066 
L 46.401885 65.943624 
L 46.998639 66.255864 
L 47.603009 66.560693 
L 48.214811 66.858017 
L 48.833857 67.147746 
L 49.459961 67.42979 
L 50.09293 67.704066 
L 50.732572 67.970488 
L 51.378693 68.228976 
L 52.031095 68.479452 
L 52.68958 68.721838 
L 53.353947 68.95606 
L 54.023993 69.182049 
L 54.699516 69.399734 
L 55.380308 69.60905 
L 56.066163 69.809932 
L 56.756871 70.002319 
L 57.452223 70.186154 
L 58.152006 70.361379 
L 58.856007 70.527942 
L 59.564012 70.685792 
L 60.275805 70.83488 
L 60.991169 70.975162 
L 61.709887 71.106594 
L 62.431739 71.229137 
L 63.156506 71.342752 
L 63.883967 71.447407 
L 64.6139 71.543068 
L 65.346083 71.629706 
L 66.080292 71.707296 
L 66.816305 71.775813 
L 67.553897 71.835237 
L 68.292843 71.885549 
L 69.032918 71.926735 
L 69.773898 71.958781 
L 70.515555 71.981678 
L 71.257664 71.995419 
L 72 72 
L 72.742336 71.995419 
L 73.484445 71.981678 
L 74.226102 71.958781 
L 74.967082 71.926735 
L 75.707157 71.885549 
L 76.446103 71.835237 
L 77.183695 71.775813 
L 77.919708 71.707296 
L 78.653917 71.629706 
L 79.3861 71.543068 
L 80.116033 71.447407 
L 80.843494 71.342752 
L 81.568261 71.229137 
L 82.290113 71.106594 
L 83.008831 70.975162 
L 83.724195 70.83488 
L 84.435988 70.685792 
L 85.143993 70.527942 
L 85.847994 70.361379 
L 86.547777 70.186154 
L 87.243129 70.002319 
L 87.933837 69.809932 
L 88.619692 69.60905 
L 89.300484 69.399734 
L 89.976007 69.182049 
L 90.646053 68.95606 
L 91.31042 68.721838 
L 91.968905 68.479452 
L 92.621307 68.228976 
L 93.267428 67.970488 
L 93.90707 67.704066 
L 94.540039 67.42979 
L 95.166143 67.147746 
L 95.785189 66.858017 
L 96.396991 66.560693 
L 97.001361 66.255864 
L 97.598115 65.943624 
L 98.187072 65.624066 
L 98.768052 65.297289 
L 99.340878 64.963392 
L 99.905376 64.622477 
L 100.461374 64.274648 
L 101.008702 63.92001 
L 101.547194 63.558672 
L 102.076685 63.190743 
" clip-path="url(#p8b6f4cf85e)" style="fill: none; stroke: #1f77b4; stroke-width: 1.5"/>
    <path d="M 50.714693 50.229211 
L 51.089415 50.489594 
L 51.470506 50.745314 
L 51.857851 50.996291 
L 52.251331 51.242451 
L 52.650827 51.483717 
L 53.056217 51.720016 
L 53.467377 51.951276 
L 53.884183 52.177428 
L 54.306506 52.398401 
L 54.73422 52.614128 
L 55.167192 52.824545 
L 55.605292 53.029586 
L 56.048387 53.22919 
L 56.49634 53.423295 
L 56.949015 53.611842 
L 57.406276 53.794775 
L 57.867981 53.972036 
L 58.333992 54.143573 
L 58.804165 54.309333 
L 59.278358 54.469265 
L 59.756426 54.623321 
L 60.238224 54.771454 
L 60.723604 54.913619 
L 61.212419 55.049772 
L 61.70452 55.179872 
L 62.199757 55.303879 
L 62.69798 55.421756 
L 63.199036 55.533466 
L 63.702773 55.638976 
L 64.209037 55.738253 
L 64.717675 55.831268 
L 65.22853 55.917992 
L 65.741449 55.998398 
L 66.256273 56.072462 
L 66.772848 56.140161 
L 67.291015 56.201475 
L 67.810616 56.256385 
L 68.331493 56.304875 
L 68.853487 56.346929 
L 69.376441 56.382536 
L 69.900193 56.411683 
L 70.424585 56.434362 
L 70.949456 56.450566 
L 71.474648 56.460291 
L 72 56.463533 
L 72.525352 56.460291 
L 73.050544 56.450566 
L 73.575415 56.434362 
L 74.099807 56.411683 
L 74.623559 56.382536 
L 75.146513 56.346929 
L 75.668507 56.304875 
L 76.189384 56.256385 
L 76.708985 56.201475 
L 77.227152 56.140161 
L 77.743727 56.072462 
L 78.258551 55.998398 
L 78.77147 55.917992 
L 79.282325 55.831268 
L 79.790963 55.738253 
L 80.297227 55.638976 
L 80.800964 55.533466 
L 81.30202 55.421756 
L 81.800243 55.303879 
L 82.29548 55.179872 
L 82.787581 55.049772 
L 83.276396 54.913619 
L 83.761776 54.771454 
L 84.243574 54.623321 
L 84.721642 54.469265 
L 85.195835 54.309333 
L 85.666008 54.143573 
L 86.132019 53.972036 
L 86.593724 53.794775 
L 87.050985 53.611842 
L 87.50366 53.423295 
L 87.951613 53.22919 
L 88.394708 53.029586 
L 88.832808 52.824545 
L 89.26578 52.614128 
L 89.693494 52.398401 
L 90.115817 52.177428 
L 90.532623 51.951276 
L 90.943783 51.720016 
L 91.349173 51.483717 
L 91.748669 51.242451 
L 92.142149 50.996291 
L 92.529494 50.745314 
L 92.910585 50.489594 
L 93.285307 50.229211 
" clip-path="url(#p8b6f4cf85e)" style="fill: none; stroke: #1f77b4; stroke-width: 1.5"/>
    <path d="M 60.975125 38.724468 
L 61.169214 38.859335 
L 61.366603 38.991787 
L 61.567231 39.121783 
L 61.771037 39.249283 
L 61.977959 39.374248 
L 62.187933 39.496641 
L 62.400897 39.616424 
L 62.616784 39.73356 
L 62.83553 39.848015 
L 63.057067 39.959753 
L 63.281328 40.068739 
L 63.508245 40.174942 
L 63.737749 40.278328 
L 63.969769 40.378866 
L 64.204236 40.476526 
L 64.441077 40.571277 
L 64.680221 40.663091 
L 64.921594 40.751939 
L 65.165124 40.837796 
L 65.410735 40.920634 
L 65.658354 41.000428 
L 65.907905 41.077155 
L 66.159311 41.15079 
L 66.412496 41.221311 
L 66.667383 41.288697 
L 66.923895 41.352928 
L 67.181953 41.413983 
L 67.441478 41.471844 
L 67.702392 41.526494 
L 67.964616 41.577915 
L 68.228068 41.626093 
L 68.492669 41.671012 
L 68.758339 41.712659 
L 69.024996 41.751021 
L 69.29256 41.786086 
L 69.560948 41.817844 
L 69.830079 41.846285 
L 70.099871 41.871401 
L 70.370242 41.893183 
L 70.641109 41.911626 
L 70.91239 41.926723 
L 71.184002 41.93847 
L 71.455864 41.946863 
L 71.72789 41.9519 
L 72 41.953579 
L 72.27211 41.9519 
L 72.544136 41.946863 
L 72.815998 41.93847 
L 73.08761 41.926723 
L 73.358891 41.911626 
L 73.629758 41.893183 
L 73.900129 41.871401 
L 74.169921 41.846285 
L 74.439052 41.817844 
L 74.70744 41.786086 
L 74.975004 41.751021 
L 75.241661 41.712659 
L 75.507331 41.671012 
L 75.771932 41.626093 
L 76.035384 41.577915 
L 76.297608 41.526494 
L 76.558522 41.471844 
L 76.818047 41.413983 
L 77.076105 41.352928 
L 77.332617 41.288697 
L 77.587504 41.221311 
L 77.840689 41.15079 
L 78.092095 41.077155 
L 78.341646 41.000428 
L 78.589265 40.920634 
L 78.834876 40.837796 
L 79.078406 40.751939 
L 79.319779 40.663091 
L 79.558923 40.571277 
L 79.795764 40.476526 
L 80.030231 40.378866 
L 80.262251 40.278328 
L 80.491755 40.174942 
L 80.718672 40.068739 
L 80.942933 39.959753 
L 81.16447 39.848015 
L 81.383216 39.73356 
L 81.599103 39.616424 
L 81.812067 39.496641 
L 82.022041 39.374248 
L 82.228963 39.249283 
L 82.432769 39.121783 
L 82.633397 38.991787 
L 82.830786 38.859335 
L 83.024875 38.724468 
" clip-path="url(#p8b6f4cf85e)" style="fill: none; stroke: #1f77b4; stroke-width: 1.5"/>
    <path d="M 72 29.477418 
L 72 29.477418 
L 72 29.477418 
L 72 29.477418 
L 72 29.477418 
L 72 29.477418 
L 72 29.477418 
L 72 29.477418 
L 72 29.477418 
L 72 29.477418 
L 72 29.477418 
L 72 29.477418 
L 72 29.477418 
L 72 29.477418 
L 72 29.477418 
L 72 29.477418 
L 72 29.477418 
L 72 29.477418 
L 72 29.477418 
L 72 29.477418 
L 72 29.477418 
L 72 29.477418 
L 72 29.477418 
L 72 29.477418 
L 72 29.477418 
L 72 29.477418 
L 72 29.477418 
L 72 29.477418 
L 72 29.477418 
L 72 29.477418 
L 72 29.477418 
L 72 29.477418 
L 72 29.477418 
L 72 29.477418 
L 72 29.477418 
L 72 29.477418 
L 72 29.477418 
L 72 29.477418 
L 72 29.477418 
L 72 29.477418 
L 72 29.477418 
L 72 29.477418 
L 72 29.477418 
L 72 29.477418 
L 72 29.477418 
L 72 29.477418 
L 72 29.477418 
L 72 29.477418 
L 72 29.477418 
L 72 29.477418 
L 72 29.477418 
L 72 29.477418 
L 72 29.477418 
L 72 29.477418 
L 72 29.477418 
L 72 29.477418 
L 72 29.477418 
L 72 29.477418 
L 72 29.477418 
L 72 29.477418 
L 72 29.477418 
L 72 29.477418 
L 72 29.477418 
L 72 29.477418 
L 72 29.477418 
L 72 29.477418 
L 72 29.477418 
L 72 29.477418 
L 72 29.477418 
L 72 29.477418 
L 72 29.477418 
L 72 29.477418 
L 72 29.477418 
L 72 29.477418 
L 72 29.477418 
L 72 29.477418 
L 72 29.477418 
L 72 29.477418 
L 72 29.477418 
L 72 29.477418 
L 72 29.477418 
L 72 29.477418 
L 72 29.477418 
L 72 29.477418 
L 72 29.477418 
L 72 29.477418 
L 72 29.477418 
L 72 29.477418 
L 72 29.477418 
L 72 29.477418 
L 72 29.477418 
" clip-path="url(#p8b6f4cf85e)" style="fill: none; stroke: #1f77b4; stroke-width: 1.5"/>
    <path d="M 29.53639 101.824962 
L 29.542814 101.084287 
L 29.562085 100.334749 
L 29.594196 99.57657 
L 29.639139 98.809977 
L 29.696901 98.035198 
L 29.767466 97.252464 
L 29.850812 96.462008 
L 29.946917 95.664065 
L 30.055752 94.858874 
L 30.177286 94.046674 
L 30.311486 93.227708 
L 30.458311 92.402218 
L 30.61772 91.570451 
L 30.789667 90.732655 
L 30.974103 89.88908 
L 31.170974 89.039976 
L 31.380224 88.185598 
L 31.601793 87.3262 
L 31.835616 86.462038 
L 32.081626 85.593372 
L 32.339753 84.720459 
L 32.60992 83.843561 
L 32.892051 82.962941 
L 33.186063 82.078861 
L 33.491872 81.191587 
L 33.809387 80.301385 
L 34.138518 79.408521 
L 34.479167 78.513264 
L 34.831237 77.615882 
L 35.194624 76.716645 
L 35.569221 75.815824 
L 35.95492 74.913691 
L 36.351608 74.010516 
L 36.759168 73.106572 
L 37.17748 72.202133 
L 37.606421 71.297472 
L 38.045866 70.392863 
L 38.495684 69.488579 
L 38.955743 68.584895 
L 39.425907 67.682085 
L 39.906036 66.780423 
L 40.395989 65.880184 
L 40.895619 64.981642 
L 41.404778 64.08507 
L 41.923315 63.190743 
L 42.451075 62.298933 
L 42.9879 61.409913 
L 43.533629 60.523955 
L 44.0881 59.641331 
L 44.651146 58.762311 
L 45.222598 57.887165 
L 45.802283 57.016163 
L 46.390028 56.149572 
L 46.985656 55.287659 
L 47.588985 54.43069 
L 48.199834 53.57893 
L 48.818019 52.732641 
L 49.44335 51.892085 
L 50.075639 51.057522 
L 50.714693 50.229211 
L 51.360318 49.407408 
L 52.012317 48.592368 
L 52.670492 47.784345 
L 53.33464 46.98359 
L 54.004559 46.190351 
L 54.680044 45.404875 
L 55.360887 44.627407 
L 56.046881 43.858188 
L 56.737813 43.09746 
L 57.433473 42.345458 
L 58.133645 41.602418 
L 58.838114 40.868571 
L 59.546663 40.144147 
L 60.259073 39.429371 
L 60.975125 38.724468 
L 61.694596 38.029656 
L 62.417266 37.345155 
L 63.142909 36.671176 
L 63.871301 36.007932 
L 64.602217 35.355629 
L 65.335431 34.714471 
L 66.070714 34.084659 
L 66.807838 33.466389 
L 67.546576 32.859854 
L 68.286697 32.265244 
L 69.027972 31.682743 
L 69.770171 31.112535 
L 70.513062 30.554796 
L 71.256415 30.009701 
L 72 29.477418 
" clip-path="url(#p8b6f4cf85e)" style="fill: none; stroke: #1f77b4; stroke-width: 1.5"/>
    <path d="M 41.973694 108.57322 
L 41.978236 107.831525 
L 41.991862 107.078924 
L 42.014569 106.315642 
L 42.046348 105.541907 
L 42.087192 104.757948 
L 42.137089 103.964 
L 42.196023 103.160298 
L 42.26398 102.347083 
L 42.340938 101.524596 
L 42.426876 100.693082 
L 42.521769 99.852789 
L 42.62559 99.003966 
L 42.738309 98.146866 
L 42.859894 97.281745 
L 42.99031 96.408859 
L 43.129519 95.528469 
L 43.277481 94.640837 
L 43.434154 93.746227 
L 43.599492 92.844907 
L 43.773447 91.937144 
L 43.95597 91.023211 
L 44.147007 90.103378 
L 44.346504 89.177922 
L 44.554402 88.247119 
L 44.770641 87.311246 
L 44.995159 86.370585 
L 45.227889 85.425416 
L 45.468765 84.476023 
L 45.717716 83.522691 
L 45.974669 82.565705 
L 46.239549 81.605354 
L 46.51228 80.641925 
L 46.79278 79.675709 
L 47.080968 78.706997 
L 47.37676 77.73608 
L 47.680067 76.763252 
L 47.990802 75.788807 
L 48.308871 74.813039 
L 48.634182 73.836243 
L 48.966638 72.858715 
L 49.306141 71.880752 
L 49.652589 70.90265 
L 50.005881 69.924707 
L 50.365911 68.947221 
L 50.732572 67.970488 
L 51.105755 66.994807 
L 51.485347 66.020476 
L 51.871236 65.047791 
L 52.263306 64.077051 
L 52.66144 63.108553 
L 53.065517 62.142593 
L 53.475417 61.179468 
L 53.891015 60.219473 
L 54.312187 59.262904 
L 54.738806 58.310055 
L 55.170742 57.361219 
L 55.607864 56.416689 
L 56.05004 55.476756 
L 56.497136 54.541711 
L 56.949015 53.611842 
L 57.405541 52.687438 
L 57.866574 51.768783 
L 58.331974 50.856164 
L 58.801597 49.949863 
L 59.275302 49.050161 
L 59.752941 48.157338 
L 60.234371 47.271671 
L 60.719441 46.393436 
L 61.208004 45.522905 
L 61.69991 44.66035 
L 62.195006 43.80604 
L 62.693141 42.96024 
L 63.194161 42.123214 
L 63.697911 41.295223 
L 64.204236 40.476526 
L 64.712979 39.667377 
L 65.223983 38.86803 
L 65.737091 38.078733 
L 66.252142 37.299734 
L 66.768978 36.531275 
L 67.287438 35.773595 
L 67.807361 35.026933 
L 68.328587 34.29152 
L 68.850954 33.567586 
L 69.374298 32.855357 
L 69.898459 32.155054 
L 70.423273 31.466897 
L 70.948576 30.791098 
L 71.474206 30.12787 
L 72 29.477418 
" clip-path="url(#p8b6f4cf85e)" style="fill: none; stroke: #1f77b4; stroke-width: 1.5"/>
    <path d="M 56.45724 112.815353 
L 56.459591 112.073016 
L 56.466645 111.31849 
L 56.478399 110.552 
L 56.494849 109.773774 
L 56.515991 108.984045 
L 56.54182 108.183048 
L 56.572326 107.37102 
L 56.607503 106.548204 
L 56.64734 105.714844 
L 56.691824 104.871189 
L 56.740945 104.017489 
L 56.794686 103.153998 
L 56.853034 102.280973 
L 56.915971 101.398674 
L 56.983479 100.507363 
L 57.055539 99.607306 
L 57.13213 98.69877 
L 57.21323 97.782025 
L 57.298815 96.857346 
L 57.388861 95.925007 
L 57.483342 94.985286 
L 57.58223 94.038464 
L 57.685497 93.084823 
L 57.793113 92.124647 
L 57.905047 91.158224 
L 58.021266 90.185843 
L 58.141736 89.207794 
L 58.266422 88.22437 
L 58.395288 87.235866 
L 58.528297 86.242578 
L 58.66541 85.244804 
L 58.806585 84.242844 
L 58.951783 83.236998 
L 59.10096 82.227571 
L 59.254073 81.214865 
L 59.411076 80.199185 
L 59.571924 79.180839 
L 59.736569 78.160134 
L 59.904963 77.137378 
L 60.077055 76.11288 
L 60.252794 75.086952 
L 60.432129 74.059904 
L 60.615006 73.032048 
L 60.801372 72.003696 
L 60.991169 70.975162 
L 61.184343 69.946757 
L 61.380834 68.918797 
L 61.580585 67.891594 
L 61.783536 66.865462 
L 61.989625 65.840715 
L 62.19879 64.817667 
L 62.41097 63.796631 
L 62.6261 62.77792 
L 62.844115 61.761848 
L 63.064948 60.748726 
L 63.288535 59.738866 
L 63.514806 58.732579 
L 63.743693 57.730175 
L 63.975127 56.731964 
L 64.209037 55.738253 
L 64.445352 54.749351 
L 64.684 53.765561 
L 64.924909 52.78719 
L 65.168004 51.814541 
L 65.413211 50.847914 
L 65.660456 49.887609 
L 65.909662 48.933926 
L 66.160753 47.987159 
L 66.413652 47.047604 
L 66.668281 46.115553 
L 66.924562 45.191295 
L 67.182415 44.275118 
L 67.441762 43.367307 
L 67.702523 42.468147 
L 67.964616 41.577915 
L 68.22796 40.696891 
L 68.492476 39.825349 
L 68.75808 38.96356 
L 69.02469 38.111794 
L 69.292224 37.270316 
L 69.560598 36.439389 
L 69.829731 35.619271 
L 70.099537 34.810219 
L 70.369934 34.012485 
L 70.640837 33.226317 
L 70.912162 32.451961 
L 71.183826 31.689657 
L 71.455743 30.939644 
L 71.727829 30.202154 
L 72 29.477418 
" clip-path="url(#p8b6f4cf85e)" style="fill: none; stroke: #1f77b4; stroke-width: 1.5"/>
    <path d="M 72 114.262265 
L 72 113.519709 
L 72 112.764527 
L 72 111.996943 
L 72 111.217186 
L 72 110.425488 
L 72 109.622086 
L 72 108.807219 
L 72 107.981128 
L 72 107.14406 
L 72 106.296264 
L 72 105.437991 
L 72 104.569497 
L 72 103.69104 
L 72 102.802882 
L 72 101.905287 
L 72 100.998521 
L 72 100.082855 
L 72 99.158561 
L 72 98.225914 
L 72 97.285193 
L 72 96.336676 
L 72 95.380648 
L 72 94.417394 
L 72 93.4472 
L 72 92.470357 
L 72 91.487157 
L 72 90.497893 
L 72 89.502861 
L 72 88.502361 
L 72 87.496691 
L 72 86.486152 
L 72 85.47105 
L 72 84.451688 
L 72 83.428373 
L 72 82.401413 
L 72 81.371118 
L 72 80.337798 
L 72 79.301766 
L 72 78.263333 
L 72 77.222816 
L 72 76.180527 
L 72 75.136785 
L 72 74.091904 
L 72 73.046203 
L 72 72 
L 72 70.953613 
L 72 69.90736 
L 72 68.861562 
L 72 67.816537 
L 72 66.772605 
L 72 65.730085 
L 72 64.689297 
L 72 63.650559 
L 72 62.614191 
L 72 61.580511 
L 72 60.549837 
L 72 59.522486 
L 72 58.498774 
L 72 57.479018 
L 72 56.463533 
L 72 55.452631 
L 72 54.446625 
L 72 53.445827 
L 72 52.450547 
L 72 51.461093 
L 72 50.477773 
L 72 49.50089 
L 72 48.530749 
L 72 47.567651 
L 72 46.611895 
L 72 45.663779 
L 72 44.723598 
L 72 43.791645 
L 72 42.868209 
L 72 41.953579 
L 72 41.048039 
L 72 40.151873 
L 72 39.265358 
L 72 38.388773 
L 72 37.52239 
L 72 36.666478 
L 72 35.821307 
L 72 34.987138 
L 72 34.164232 
L 72 33.352845 
L 72 32.55323 
L 72 31.765637 
L 72 30.99031 
L 72 30.227491 
L 72 29.477418 
" clip-path="url(#p8b6f4cf85e)" style="fill: none; stroke: #1f77b4; stroke-width: 1.5"/>
    <path d="M 87.54276 112.815353 
L 87.540409 112.073016 
L 87.533355 111.31849 
L 87.521601 110.552 
L 87.505151 109.773774 
L 87.484009 108.984045 
L 87.45818 108.183048 
L 87.427674 107.37102 
L 87.392497 106.548204 
L 87.35266 105.714844 
L 87.308176 104.871189 
L 87.259055 104.017489 
L 87.205314 103.153998 
L 87.146966 102.280973 
L 87.084029 101.398674 
L 87.016521 100.507363 
L 86.944461 99.607306 
L 86.86787 98.69877 
L 86.78677 97.782025 
L 86.701185 96.857346 
L 86.611139 95.925007 
L 86.516658 94.985286 
L 86.41777 94.038464 
L 86.314503 93.084823 
L 86.206887 92.124647 
L 86.094953 91.158224 
L 85.978734 90.185843 
L 85.858264 89.207794 
L 85.733578 88.22437 
L 85.604712 87.235866 
L 85.471703 86.242578 
L 85.33459 85.244804 
L 85.193415 84.242844 
L 85.048217 83.236998 
L 84.89904 82.227571 
L 84.745927 81.214865 
L 84.588924 80.199185 
L 84.428076 79.180839 
L 84.263431 78.160134 
L 84.095037 77.137378 
L 83.922945 76.11288 
L 83.747206 75.086952 
L 83.567871 74.059904 
L 83.384994 73.032048 
L 83.198628 72.003696 
L 83.008831 70.975162 
L 82.815657 69.946757 
L 82.619166 68.918797 
L 82.419415 67.891594 
L 82.216464 66.865462 
L 82.010375 65.840715 
L 81.80121 64.817667 
L 81.58903 63.796631 
L 81.3739 62.77792 
L 81.155885 61.761848 
L 80.935052 60.748726 
L 80.711465 59.738866 
L 80.485194 58.732579 
L 80.256307 57.730175 
L 80.024873 56.731964 
L 79.790963 55.738253 
L 79.554648 54.749351 
L 79.316 53.765561 
L 79.075091 52.78719 
L 78.831996 51.814541 
L 78.586789 50.847914 
L 78.339544 49.887609 
L 78.090338 48.933926 
L 77.839247 47.987159 
L 77.586348 47.047604 
L 77.331719 46.115553 
L 77.075438 45.191295 
L 76.817585 44.275118 
L 76.558238 43.367307 
L 76.297477 42.468147 
L 76.035384 41.577915 
L 75.77204 40.696891 
L 75.507524 39.825349 
L 75.24192 38.96356 
L 74.97531 38.111794 
L 74.707776 37.270316 
L 74.439402 36.439389 
L 74.170269 35.619271 
L 73.900463 34.810219 
L 73.630066 34.012485 
L 73.359163 33.226317 
L 73.087838 32.451961 
L 72.816174 31.689657 
L 72.544257 30.939644 
L 72.272171 30.202154 
L 72 29.477418 
" clip-path="url(#p8b6f4cf85e)" style="fill: none; stroke: #1f77b4; stroke-width: 1.5"/>
    <path d="M 102.026306 108.57322 
L 102.021764 107.831525 
L 102.008138 107.078924 
L 101.985431 106.315642 
L 101.953652 105.541907 
L 101.912808 104.757948 
L 101.862911 103.964 
L 101.803977 103.160298 
L 101.73602 102.347083 
L 101.659062 101.524596 
L 101.573124 100.693082 
L 101.478231 99.852789 
L 101.37441 99.003966 
L 101.261691 98.146866 
L 101.140106 97.281745 
L 101.00969 96.408859 
L 100.870481 95.528469 
L 100.722519 94.640837 
L 100.565846 93.746227 
L 100.400508 92.844907 
L 100.226553 91.937144 
L 100.04403 91.023211 
L 99.852993 90.103378 
L 99.653496 89.177922 
L 99.445598 88.247119 
L 99.229359 87.311246 
L 99.004841 86.370585 
L 98.772111 85.425416 
L 98.531235 84.476023 
L 98.282284 83.522691 
L 98.025331 82.565705 
L 97.760451 81.605354 
L 97.48772 80.641925 
L 97.20722 79.675709 
L 96.919032 78.706997 
L 96.62324 77.73608 
L 96.319933 76.763252 
L 96.009198 75.788807 
L 95.691129 74.813039 
L 95.365818 73.836243 
L 95.033362 72.858715 
L 94.693859 71.880752 
L 94.347411 70.90265 
L 93.994119 69.924707 
L 93.634089 68.947221 
L 93.267428 67.970488 
L 92.894245 66.994807 
L 92.514653 66.020476 
L 92.128764 65.047791 
L 91.736694 64.077051 
L 91.33856 63.108553 
L 90.934483 62.142593 
L 90.524583 61.179468 
L 90.108985 60.219473 
L 89.687813 59.262904 
L 89.261194 58.310055 
L 88.829258 57.361219 
L 88.392136 56.416689 
L 87.94996 55.476756 
L 87.502864 54.541711 
L 87.050985 53.611842 
L 86.594459 52.687438 
L 86.133426 51.768783 
L 85.668026 50.856164 
L 85.198403 49.949863 
L 84.724698 49.050161 
L 84.247059 48.157338 
L 83.765629 47.271671 
L 83.280559 46.393436 
L 82.791996 45.522905 
L 82.30009 44.66035 
L 81.804994 43.80604 
L 81.306859 42.96024 
L 80.805839 42.123214 
L 80.302089 41.295223 
L 79.795764 40.476526 
L 79.287021 39.667377 
L 78.776017 38.86803 
L 78.262909 38.078733 
L 77.747858 37.299734 
L 77.231022 36.531275 
L 76.712562 35.773595 
L 76.192639 35.026933 
L 75.671413 34.29152 
L 75.149046 33.567586 
L 74.625702 32.855357 
L 74.101541 32.155054 
L 73.576727 31.466897 
L 73.051424 30.791098 
L 72.525794 30.12787 
L 72 29.477418 
" clip-path="url(#p8b6f4cf85e)" style="fill: none; stroke: #1f77b4; stroke-width: 1.5"/>
    <path d="M 114.46361 101.824962 
L 114.457186 101.084287 
L 114.437915 100.334749 
L 114.405804 99.57657 
L 114.360861 98.809977 
L 114.303099 98.035198 
L 114.232534 97.252464 
L 114.149188 96.462008 
L 114.053083 95.664065 
L 113.944248 94.858874 
L 113.822714 94.046674 
L 113.688514 93.227708 
L 113.541689 92.402218 
L 113.38228 91.570451 
L 113.210333 90.732655 
L 113.025897 89.88908 
L 112.829026 89.039976 
L 112.619776 88.185598 
L 112.398207 87.3262 
L 112.164384 86.462038 
L 111.918374 85.593372 
L 111.660247 84.720459 
L 111.39008 83.843561 
L 111.107949 82.962941 
L 110.813937 82.078861 
L 110.508128 81.191587 
L 110.190613 80.301385 
L 109.861482 79.408521 
L 109.520833 78.513264 
L 109.168763 77.615882 
L 108.805376 76.716645 
L 108.430779 75.815824 
L 108.04508 74.913691 
L 107.648392 74.010516 
L 107.240832 73.106572 
L 106.82252 72.202133 
L 106.393579 71.297472 
L 105.954134 70.392863 
L 105.504316 69.488579 
L 105.044257 68.584895 
L 104.574093 67.682085 
L 104.093964 66.780423 
L 103.604011 65.880184 
L 103.104381 64.981642 
L 102.595222 64.08507 
L 102.076685 63.190743 
L 101.548925 62.298933 
L 101.0121 61.409913 
L 100.466371 60.523955 
L 99.9119 59.641331 
L 99.348854 58.762311 
L 98.777402 57.887165 
L 98.197717 57.016163 
L 97.609972 56.149572 
L 97.014344 55.287659 
L 96.411015 54.43069 
L 95.800166 53.57893 
L 95.181981 52.732641 
L 94.55665 51.892085 
L 93.924361 51.057522 
L 93.285307 50.229211 
L 92.639682 49.407408 
L 91.987683 48.592368 
L 91.329508 47.784345 
L 90.66536 46.98359 
L 89.995441 46.190351 
L 89.319956 45.404875 
L 88.639113 44.627407 
L 87.953119 43.858188 
L 87.262187 43.09746 
L 86.566527 42.345458 
L 85.866355 41.602418 
L 85.161886 40.868571 
L 84.453337 40.144147 
L 83.740927 39.429371 
L 83.024875 38.724468 
L 82.305404 38.029656 
L 81.582734 37.345155 
L 80.857091 36.671176 
L 80.128699 36.007932 
L 79.397783 35.355629 
L 78.664569 34.714471 
L 77.929286 34.084659 
L 77.192162 33.466389 
L 76.453424 32.859854 
L 75.713303 32.265244 
L 74.972028 31.682743 
L 74.229829 31.112535 
L 73.486938 30.554796 
L 72.743585 30.009701 
L 72 29.477418 
" clip-path="url(#p8b6f4cf85e)" style="fill: none; stroke: #1f77b4; stroke-width: 1.5"/>
   </g>
  </g>
 </g>
 <defs>
  <clipPath id="p8b6f4cf85e">
   <rect x="10.8" y="10.8" width="122.4" height="122.4"/>
  </clipPath>
 </defs>
</svg>
