<?xml version="1.0" encoding="utf-8" standalone="no"?>
<!DOCTYPE svg PUBLIC "-//W3C//DTD SVG 1.1//EN"
  "http://www.w3.org/Graphics/SVG/1.1/DTD/svg11.dtd">
<svg xmlns:xlink="http://www.w3.org/1999/xlink" width="288pt" height="144pt" viewBox="0 0 288 144" xmlns="http://www.w3.org/2000/svg" version="1.1">
 <metadata>
  <rdf:RDF xmlns:dc="http://purl.org/dc/elements/1.1/" xmlns:cc="http://creativecommons.org/ns#" xmlns:rdf="http://www.w3.org/1999/02/22-rdf-syntax-ns#">
   <cc:Work>
    <dc:type rdf:resource="http://purl.org/dc/dcmitype/StillImage"/>
    <dc:date>2022-02-27T18:19:53.118167</dc:date>
    <dc:format>image/svg+xml</dc:format>
    <dc:creator>
     <cc:Agent>
      <dc:title>Matplotlib v3.5.1, https://matplotlib.org/</dc:title>
     </cc:Agent>
    </dc:creator>
   </cc:Work>
  </rdf:RDF>
 </metadata>
 <defs>
  <style type="text/css">*{stroke-linejoin: round; stroke-linecap: butt}</style>
 </defs>
 <g id="figure_1">
  <g id="patch_1">
   <path d="M 0 144 
L 288 144 
L 288 0 
L 0 0 
z
" style="fill: #ffffff"/>
  </g>
  <g id="axes_1">
   <g id="patch_2">
    <path d="M 30.425 116.2 
L 277.2 116.2 
L 277.2 10.8 
L 30.425 10.8 
z
" style="fill: #ffffff"/>
   </g>
   <g id="matplotlib.axis_1">
    <g id="xtick_1">
     <g id="line2d_1">
      <defs>
       <path id="m726a563446" d="M 0 0 
L 0 3.5 
" style="stroke: #000000; stroke-width: 0.8"/>
      </defs>
      <g>
       <use xlink:href="#m726a563446" x="45.620447" y="116.2" style="stroke: #000000; stroke-width: 0.8"/>
      </g>
     </g>
     <g id="text_1">
      <!-- −15 -->
      <g transform="translate(35.068103 130.798438)scale(0.1 -0.1)">
       <defs>
        <path id="DejaVuSans-2212" d="M 678 2272 
L 4684 2272 
L 4684 1741 
L 678 1741 
L 678 2272 
z
" transform="scale(0.015625)"/>
        <path id="DejaVuSans-31" d="M 794 531 
L 1825 531 
L 1825 4091 
L 703 3866 
L 703 4441 
L 1819 4666 
L 2450 4666 
L 2450 531 
L 3481 531 
L 3481 0 
L 794 0 
L 794 531 
z
" transform="scale(0.015625)"/>
        <path id="DejaVuSans-35" d="M 691 4666 
L 3169 4666 
L 3169 4134 
L 1269 4134 
L 1269 2991 
Q 1406 3038 1543 3061 
Q 1681 3084 1819 3084 
Q 2600 3084 3056 2656 
Q 3513 2228 3513 1497 
Q 3513 744 3044 326 
Q 2575 -91 1722 -91 
Q 1428 -91 1123 -41 
Q 819 9 494 109 
L 494 744 
Q 775 591 1075 516 
Q 1375 441 1709 441 
Q 2250 441 2565 725 
Q 2881 1009 2881 1497 
Q 2881 1984 2565 2268 
Q 2250 2553 1709 2553 
Q 1456 2553 1204 2497 
Q 953 2441 691 2322 
L 691 4666 
z
" transform="scale(0.015625)"/>
       </defs>
       <use xlink:href="#DejaVuSans-2212"/>
       <use xlink:href="#DejaVuSans-31" x="83.789062"/>
       <use xlink:href="#DejaVuSans-35" x="147.412109"/>
      </g>
     </g>
    </g>
    <g id="xtick_2">
     <g id="line2d_2">
      <g>
       <use xlink:href="#m726a563446" x="80.521109" y="116.2" style="stroke: #000000; stroke-width: 0.8"/>
      </g>
     </g>
     <g id="text_2">
      <!-- −10 -->
      <g transform="translate(69.968766 130.798438)scale(0.1 -0.1)">
       <defs>
        <path id="DejaVuSans-30" d="M 2034 4250 
Q 1547 4250 1301 3770 
Q 1056 3291 1056 2328 
Q 1056 1369 1301 889 
Q 1547 409 2034 409 
Q 2525 409 2770 889 
Q 3016 1369 3016 2328 
Q 3016 3291 2770 3770 
Q 2525 4250 2034 4250 
z
M 2034 4750 
Q 2819 4750 3233 4129 
Q 3647 3509 3647 2328 
Q 3647 1150 3233 529 
Q 2819 -91 2034 -91 
Q 1250 -91 836 529 
Q 422 1150 422 2328 
Q 422 3509 836 4129 
Q 1250 4750 2034 4750 
z
" transform="scale(0.015625)"/>
       </defs>
       <use xlink:href="#DejaVuSans-2212"/>
       <use xlink:href="#DejaVuSans-31" x="83.789062"/>
       <use xlink:href="#DejaVuSans-30" x="147.412109"/>
      </g>
     </g>
    </g>
    <g id="xtick_3">
     <g id="line2d_3">
      <g>
       <use xlink:href="#m726a563446" x="115.421772" y="116.2" style="stroke: #000000; stroke-width: 0.8"/>
      </g>
     </g>
     <g id="text_3">
      <!-- −5 -->
      <g transform="translate(108.050678 130.798438)scale(0.1 -0.1)">
       <use xlink:href="#DejaVuSans-2212"/>
       <use xlink:href="#DejaVuSans-35" x="83.789062"/>
      </g>
     </g>
    </g>
    <g id="xtick_4">
     <g id="line2d_4">
      <g>
       <use xlink:href="#m726a563446" x="150.322434" y="116.2" style="stroke: #000000; stroke-width: 0.8"/>
      </g>
     </g>
     <g id="text_4">
      <!-- 0 -->
      <g transform="translate(147.141184 130.798438)scale(0.1 -0.1)">
       <use xlink:href="#DejaVuSans-30"/>
      </g>
     </g>
    </g>
    <g id="xtick_5">
     <g id="line2d_5">
      <g>
       <use xlink:href="#m726a563446" x="185.223096" y="116.2" style="stroke: #000000; stroke-width: 0.8"/>
      </g>
     </g>
     <g id="text_5">
      <!-- 5 -->
      <g transform="translate(182.041846 130.798438)scale(0.1 -0.1)">
       <use xlink:href="#DejaVuSans-35"/>
      </g>
     </g>
    </g>
    <g id="xtick_6">
     <g id="line2d_6">
      <g>
       <use xlink:href="#m726a563446" x="220.123758" y="116.2" style="stroke: #000000; stroke-width: 0.8"/>
      </g>
     </g>
     <g id="text_6">
      <!-- 10 -->
      <g transform="translate(213.761258 130.798438)scale(0.1 -0.1)">
       <use xlink:href="#DejaVuSans-31"/>
       <use xlink:href="#DejaVuSans-30" x="63.623047"/>
      </g>
     </g>
    </g>
    <g id="xtick_7">
     <g id="line2d_7">
      <g>
       <use xlink:href="#m726a563446" x="255.024421" y="116.2" style="stroke: #000000; stroke-width: 0.8"/>
      </g>
     </g>
     <g id="text_7">
      <!-- 15 -->
      <g transform="translate(248.661921 130.798438)scale(0.1 -0.1)">
       <use xlink:href="#DejaVuSans-31"/>
       <use xlink:href="#DejaVuSans-35" x="63.623047"/>
      </g>
     </g>
    </g>
   </g>
   <g id="matplotlib.axis_2">
    <g id="ytick_1">
     <g id="line2d_8">
      <defs>
       <path id="me6f87faf3f" d="M 0 0 
L -3.5 0 
" style="stroke: #000000; stroke-width: 0.8"/>
      </defs>
      <g>
       <use xlink:href="#me6f87faf3f" x="30.425" y="96.522345" style="stroke: #000000; stroke-width: 0.8"/>
      </g>
     </g>
     <g id="text_8">
      <!-- 0 -->
      <g transform="translate(17.0625 100.321564)scale(0.1 -0.1)">
       <use xlink:href="#DejaVuSans-30"/>
      </g>
     </g>
    </g>
    <g id="ytick_2">
     <g id="line2d_9">
      <g>
       <use xlink:href="#me6f87faf3f" x="30.425" y="61.621683" style="stroke: #000000; stroke-width: 0.8"/>
      </g>
     </g>
     <g id="text_9">
      <!-- 5 -->
      <g transform="translate(17.0625 65.420902)scale(0.1 -0.1)">
       <use xlink:href="#DejaVuSans-35"/>
      </g>
     </g>
    </g>
    <g id="ytick_3">
     <g id="line2d_10">
      <g>
       <use xlink:href="#me6f87faf3f" x="30.425" y="26.721021" style="stroke: #000000; stroke-width: 0.8"/>
      </g>
     </g>
     <g id="text_10">
      <!-- 10 -->
      <g transform="translate(10.7 30.520239)scale(0.1 -0.1)">
       <use xlink:href="#DejaVuSans-31"/>
       <use xlink:href="#DejaVuSans-30" x="63.623047"/>
      </g>
     </g>
    </g>
   </g>
   <g id="line2d_11">
    <path d="M 157.302566 96.522345 
L 157.304693 96.522345 
L 157.311078 96.522345 
L 157.321738 96.522345 
L 157.336697 96.522345 
L 157.355994 96.522345 
L 157.379675 96.522345 
L 157.407799 96.522345 
L 157.440436 96.522345 
L 157.477667 96.522345 
L 157.519587 96.522345 
L 157.566301 96.522345 
L 157.617931 96.522345 
L 157.674608 96.522345 
L 157.736482 96.522345 
L 157.803717 96.522345 
L 157.876493 96.522345 
L 157.955008 96.522345 
L 158.039478 96.522345 
L 158.130141 96.522345 
L 158.227255 96.522345 
L 158.3311 96.522345 
L 158.441983 96.522345 
L 158.560239 96.522345 
L 158.686228 96.522345 
L 158.820346 96.522345 
L 158.963022 96.522345 
L 159.114722 96.522345 
L 159.275954 96.522345 
L 159.447271 96.522345 
L 159.629277 96.522345 
L 159.822628 96.522345 
L 160.028041 96.522345 
L 160.246299 96.522345 
L 160.478259 96.522345 
L 160.72486 96.522345 
L 160.987127 96.522345 
L 161.266191 96.522345 
L 161.56329 96.522345 
L 161.879789 96.522345 
L 162.217195 96.522345 
L 162.577169 96.522345 
L 162.961551 96.522345 
L 163.37238 96.522345 
L 163.811922 96.522345 
L 164.282699 96.522345 
L 164.787523 96.522345 
L 165.329542 96.522345 
L 165.912282 96.522345 
L 166.539707 96.522345 
L 167.216285 96.522345 
L 167.947066 96.522345 
L 168.737772 96.522345 
L 169.594914 96.522345 
L 170.525919 96.522345 
L 171.539291 96.522345 
L 172.644807 96.522345 
L 173.853745 96.522345 
L 175.179178 96.522345 
L 176.63632 96.522345 
L 178.242964 96.522345 
L 180.020024 96.522345 
L 181.992216 96.522345 
L 184.18892 96.522345 
L 186.645269 96.522345 
L 189.403567 96.522345 
L 192.515109 96.522345 
L 196.042583 96.522345 
L 200.063241 96.522345 
L 204.673159 96.522345 
L 209.993019 96.522345 
L 216.17608 96.522345 
L 223.41933 96.522345 
L 231.979352 96.522345 
L 242.195352 96.522345 
L 254.52327 96.522345 
L 269.587515 96.522345 
L 288.2616 96.522345 
L 289 96.522345 
" clip-path="url(#p8b6ca472a2)" style="fill: none; stroke: #1f77b4; stroke-width: 1.5; stroke-linecap: square"/>
   </g>
   <g id="line2d_12">
    <path d="M 156.840812 96.522345 
L 156.842404 96.463802 
L 156.847182 96.405129 
L 156.855154 96.346199 
L 156.866332 96.286881 
L 156.880736 96.227043 
L 156.898389 96.16655 
L 156.91932 96.105265 
L 156.943562 96.043047 
L 156.971156 95.979751 
L 157.002147 95.915226 
L 157.036587 95.849316 
L 157.074531 95.78186 
L 157.116042 95.712686 
L 157.161189 95.641618 
L 157.210047 95.568468 
L 157.262697 95.493039 
L 157.319225 95.415122 
L 157.379726 95.334496 
L 157.444301 95.250926 
L 157.513056 95.164161 
L 157.586106 95.073936 
L 157.663571 94.979964 
L 157.745581 94.88194 
L 157.83227 94.779536 
L 157.923781 94.672399 
L 158.020264 94.56015 
L 158.121876 94.442378 
L 158.228781 94.318643 
L 158.341149 94.188464 
L 158.459157 94.051326 
L 158.582988 93.906665 
L 158.71283 93.753871 
L 158.848876 93.592281 
L 158.99132 93.421173 
L 159.140361 93.239758 
L 159.296196 93.047179 
L 159.45902 92.842495 
L 159.629023 92.624679 
L 159.806386 92.392608 
L 159.991277 92.145048 
L 160.183847 91.880646 
L 160.384221 91.597916 
L 160.59249 91.295225 
L 160.808705 90.970775 
L 161.032859 90.622586 
L 161.264879 90.248475 
L 161.504602 89.846037 
L 161.75176 89.412614 
L 162.005945 88.945274 
L 162.266588 88.440777 
L 162.53291 87.895547 
L 162.803881 87.30563 
L 163.078162 86.666661 
L 163.354031 85.973824 
L 163.629306 85.221807 
L 163.901238 84.404762 
L 164.166386 83.516261 
L 164.420471 82.549261 
L 164.658195 81.496068 
L 164.873017 80.348318 
L 165.056898 79.096976 
L 165.199985 77.732359 
L 165.290235 76.244201 
L 165.312977 74.62178 
L 165.250394 72.85412 
L 165.080923 70.930314 
L 164.778576 68.839993 
L 164.31218 66.57401 
L 163.644567 64.125395 
L 162.731735 61.490665 
L 161.522077 58.671586 
L 159.955764 55.677499 
L 157.96449 52.528308 
L 155.471822 49.258216 
L 152.394536 45.920258 
L 148.645424 42.591524 
L 144.138185 39.378812 
L 138.795063 36.424113 
L 132.557875 33.908913 
L 125.402778 32.055725 
L 117.358527 31.124737 
L 108.526879 31.403032 
L 99.102239 33.18399 
L 89.385814 36.735529 
L 79.788029 42.258236 
L 70.812702 49.838108 
L 63.018636 59.402876 
L 56.959284 70.694017 
L 53.108457 83.266375 
L 51.786976 96.522345 
" clip-path="url(#p8b6ca472a2)" style="fill: none; stroke: #1f77b4; stroke-width: 1.5; stroke-linecap: square"/>
   </g>
   <g id="line2d_13">
    <path d="M 155.575051 96.522345 
L 155.575463 96.431108 
L 155.576697 96.339731 
L 155.578749 96.248073 
L 155.581611 96.155995 
L 155.585271 96.063354 
L 155.589716 95.970007 
L 155.594927 95.87581 
L 155.600883 95.780615 
L 155.607559 95.684273 
L 155.614924 95.586632 
L 155.622946 95.487538 
L 155.631585 95.386832 
L 155.640797 95.284352 
L 155.650533 95.179932 
L 155.660739 95.073402 
L 155.671351 94.964586 
L 155.682301 94.853305 
L 155.693513 94.739371 
L 155.704901 94.622595 
L 155.716371 94.502778 
L 155.727817 94.379716 
L 155.739125 94.2532 
L 155.750166 94.123011 
L 155.760798 93.988925 
L 155.770867 93.85071 
L 155.780199 93.708126 
L 155.788606 93.560928 
L 155.795878 93.40886 
L 155.801784 93.251661 
L 155.806073 93.089061 
L 155.808465 92.920785 
L 155.808654 92.746549 
L 155.806303 92.566066 
L 155.801044 92.379041 
L 155.79247 92.185177 
L 155.780136 91.984173 
L 155.763555 91.775728 
L 155.742193 91.559542 
L 155.715465 91.335318 
L 155.682731 91.102766 
L 155.643294 90.861604 
L 155.59639 90.611569 
L 155.541188 90.352412 
L 155.476785 90.083914 
L 155.402197 89.805885 
L 155.316356 89.518176 
L 155.218107 89.220689 
L 155.1062 88.913386 
L 154.979289 88.596298 
L 154.835923 88.269548 
L 154.674549 87.933356 
L 154.493507 87.588066 
L 154.291028 87.23416 
L 154.065239 86.872283 
L 153.814167 86.503267 
L 153.53574 86.128159 
L 153.227807 85.748248 
L 152.888145 85.365098 
L 152.514483 84.98058 
L 152.104528 84.596907 
L 151.656 84.216669 
L 151.16667 83.842869 
L 150.634415 83.478952 
L 150.057277 83.128838 
L 149.433536 82.796948 
L 148.761792 82.488214 
L 148.041059 82.208093 
L 147.27087 81.962556 
L 146.451392 81.758065 
L 145.583551 81.601526 
L 144.669154 81.500219 
L 143.71102 81.461703 
L 142.713098 81.493682 
L 141.68058 81.603843 
L 140.619987 81.799661 
L 139.539226 82.088166 
L 138.447612 82.475688 
L 137.355833 82.96757 
L 136.275865 83.56788 
L 135.220809 84.279114 
L 134.204671 85.101916 
L 133.242065 86.034839 
L 132.347847 87.074148 
L 131.536702 88.213701 
L 130.822684 89.444918 
L 130.218743 90.756847 
L 129.736251 92.136341 
L 129.384573 93.568334 
L 129.170689 95.036226 
L 129.098909 96.522345 
" clip-path="url(#p8b6ca472a2)" style="fill: none; stroke: #1f77b4; stroke-width: 1.5; stroke-linecap: square"/>
   </g>
   <g id="line2d_14">
    <path d="M 153.835929 96.522345 
L 153.835404 96.435905 
L 153.833828 96.349412 
L 153.831194 96.262811 
L 153.82749 96.17605 
L 153.822701 96.089074 
L 153.816805 96.001833 
L 153.809777 95.914274 
L 153.801587 95.826344 
L 153.7922 95.737995 
L 153.781577 95.649177 
L 153.769671 95.559841 
L 153.756434 95.46994 
L 153.741809 95.379429 
L 153.725738 95.288264 
L 153.708153 95.196404 
L 153.688983 95.103808 
L 153.668152 95.01044 
L 153.645576 94.916266 
L 153.621167 94.821254 
L 153.594829 94.725376 
L 153.566462 94.628609 
L 153.535958 94.530932 
L 153.503203 94.432331 
L 153.468078 94.332796 
L 153.430455 94.232322 
L 153.390201 94.130911 
L 153.347174 94.028574 
L 153.301229 93.925325 
L 153.252212 93.82119 
L 153.19996 93.716203 
L 153.144309 93.610408 
L 153.085083 93.503858 
L 153.022103 93.39662 
L 152.955184 93.288773 
L 152.884133 93.180409 
L 152.808754 93.071635 
L 152.728847 92.962574 
L 152.644205 92.853366 
L 152.554621 92.744169 
L 152.459883 92.635161 
L 152.359781 92.526539 
L 152.254103 92.418526 
L 152.142639 92.311363 
L 152.025181 92.205319 
L 151.901529 92.100689 
L 151.771487 91.997791 
L 151.63487 91.896976 
L 151.491504 91.79862 
L 151.34123 91.703131 
L 151.183907 91.610944 
L 151.019415 91.522529 
L 150.847657 91.438384 
L 150.668566 91.359037 
L 150.482108 91.285049 
L 150.288283 91.217006 
L 150.087133 91.155524 
L 149.878747 91.101245 
L 149.663263 91.054833 
L 149.440873 91.016972 
L 149.211829 90.988361 
L 148.976449 90.969712 
L 148.735116 90.961743 
L 148.488287 90.965172 
L 148.236494 90.980708 
L 147.980347 91.009048 
L 147.720538 91.050865 
L 147.457841 91.106801 
L 147.193109 91.177456 
L 146.927281 91.263377 
L 146.661373 91.36505 
L 146.396477 91.482888 
L 146.133756 91.61722 
L 145.874437 91.768279 
L 145.619805 91.936196 
L 145.371189 92.120984 
L 145.129954 92.322537 
L 144.897488 92.540617 
L 144.675186 92.774848 
L 144.464437 93.024716 
L 144.266604 93.289564 
L 144.083012 93.568592 
L 143.914925 93.860859 
L 143.763533 94.165288 
L 143.629933 94.480676 
L 143.515114 94.805698 
L 143.41994 95.138924 
L 143.345139 95.47883 
L 143.291288 95.823815 
L 143.258807 96.17222 
L 143.247952 96.522345 
" clip-path="url(#p8b6ca472a2)" style="fill: none; stroke: #1f77b4; stroke-width: 1.5; stroke-linecap: square"/>
   </g>
   <g id="line2d_15">
    <path d="M 152.085093 96.522345 
L 152.084426 96.469152 
L 152.082424 96.415975 
L 152.079085 96.36283 
L 152.074408 96.309732 
L 152.068387 96.256698 
L 152.061019 96.203746 
L 152.052297 96.150891 
L 152.042214 96.098152 
L 152.030764 96.045549 
L 152.017936 95.993099 
L 152.003722 95.940825 
L 151.988111 95.888748 
L 151.971091 95.83689 
L 151.952651 95.785275 
L 151.932779 95.733929 
L 151.91146 95.68288 
L 151.888682 95.632154 
L 151.86443 95.581784 
L 151.838691 95.5318 
L 151.811449 95.482237 
L 151.78269 95.43313 
L 151.752399 95.384517 
L 151.720562 95.336439 
L 151.687166 95.288938 
L 151.652196 95.242059 
L 151.615639 95.195848 
L 151.577485 95.150355 
L 151.53772 95.105633 
L 151.496336 95.061735 
L 151.453324 95.018719 
L 151.408677 94.976646 
L 151.36239 94.935576 
L 151.31446 94.895576 
L 151.264887 94.856713 
L 151.213671 94.819058 
L 151.160818 94.782684 
L 151.106335 94.747665 
L 151.050233 94.714081 
L 150.992528 94.682011 
L 150.933237 94.651538 
L 150.872384 94.622746 
L 150.809995 94.595721 
L 150.746103 94.570553 
L 150.680745 94.547329 
L 150.613962 94.526142 
L 150.545804 94.507082 
L 150.476324 94.490242 
L 150.405582 94.475715 
L 150.333644 94.463592 
L 150.260583 94.453965 
L 150.186479 94.446925 
L 150.111418 94.442562 
L 150.035494 94.440963 
L 149.958807 94.442212 
L 149.881466 94.446392 
L 149.803585 94.45358 
L 149.725287 94.46385 
L 149.6467 94.477272 
L 149.567962 94.49391 
L 149.489216 94.513819 
L 149.410611 94.537052 
L 149.332303 94.563651 
L 149.254454 94.593652 
L 149.177231 94.62708 
L 149.100807 94.663954 
L 149.025359 94.70428 
L 148.951066 94.748055 
L 148.878112 94.795266 
L 148.806683 94.845886 
L 148.736968 94.899879 
L 148.669152 94.957195 
L 148.603426 95.017772 
L 148.539975 95.081535 
L 148.478984 95.148398 
L 148.420634 95.218261 
L 148.365103 95.29101 
L 148.312562 95.366521 
L 148.263178 95.444655 
L 148.217109 95.525264 
L 148.174504 95.608187 
L 148.135504 95.69325 
L 148.100241 95.780273 
L 148.068834 95.869062 
L 148.041389 95.959418 
L 148.018002 96.051132 
L 147.998754 96.143988 
L 147.983713 96.237765 
L 147.972931 96.332237 
L 147.966446 96.427175 
L 147.964282 96.522345 
" clip-path="url(#p8b6ca472a2)" style="fill: none; stroke: #1f77b4; stroke-width: 1.5; stroke-linecap: square"/>
   </g>
   <g id="line2d_16">
    <path d="M 150.795903 96.522345 
L 150.795644 96.506391 
L 150.794866 96.490452 
L 150.793572 96.474544 
L 150.791761 96.458683 
L 150.789435 96.442884 
L 150.786595 96.427162 
L 150.783244 96.411533 
L 150.779383 96.396012 
L 150.775017 96.380614 
L 150.770147 96.365356 
L 150.764778 96.350253 
L 150.758913 96.335319 
L 150.752558 96.32057 
L 150.745716 96.306022 
L 150.738393 96.291689 
L 150.730594 96.277588 
L 150.722326 96.263732 
L 150.713596 96.250137 
L 150.704409 96.236818 
L 150.694774 96.223789 
L 150.684698 96.211067 
L 150.67419 96.198664 
L 150.663258 96.186596 
L 150.651912 96.174878 
L 150.640162 96.163523 
L 150.628017 96.152545 
L 150.615488 96.141959 
L 150.602587 96.131777 
L 150.589325 96.122015 
L 150.575714 96.112684 
L 150.561768 96.103798 
L 150.5475 96.095369 
L 150.532923 96.087411 
L 150.518051 96.079934 
L 150.5029 96.072951 
L 150.487485 96.066473 
L 150.471821 96.060512 
L 150.455925 96.055076 
L 150.439815 96.050178 
L 150.423506 96.045825 
L 150.407018 96.042028 
L 150.390368 96.038795 
L 150.373575 96.036134 
L 150.356659 96.034052 
L 150.339639 96.032557 
L 150.322535 96.031654 
L 150.305368 96.031348 
L 150.288159 96.031645 
L 150.270929 96.032549 
L 150.2537 96.034063 
L 150.236493 96.036189 
L 150.219331 96.038929 
L 150.202237 96.042285 
L 150.185232 96.046255 
L 150.16834 96.05084 
L 150.151584 96.056037 
L 150.134986 96.061844 
L 150.118571 96.068258 
L 150.102361 96.075273 
L 150.086379 96.082884 
L 150.07065 96.091085 
L 150.055194 96.099868 
L 150.040037 96.109225 
L 150.025199 96.119146 
L 150.010705 96.129621 
L 149.996575 96.140639 
L 149.982832 96.152187 
L 149.969497 96.164252 
L 149.956591 96.176819 
L 149.944134 96.189874 
L 149.932147 96.203399 
L 149.920649 96.217378 
L 149.909658 96.231793 
L 149.899193 96.246624 
L 149.88927 96.261852 
L 149.879906 96.277457 
L 149.871117 96.293417 
L 149.862917 96.30971 
L 149.855321 96.326313 
L 149.848341 96.343203 
L 149.841989 96.360356 
L 149.836275 96.377747 
L 149.831211 96.39535 
L 149.826804 96.413141 
L 149.823062 96.431094 
L 149.819991 96.449181 
L 149.817597 96.467377 
L 149.815884 96.485654 
L 149.814855 96.503986 
L 149.814512 96.522345 
" clip-path="url(#p8b6ca472a2)" style="fill: none; stroke: #1f77b4; stroke-width: 1.5; stroke-linecap: square"/>
   </g>
   <g id="line2d_17">
    <path d="M 150.322434 96.522345 
L 150.322434 96.522345 
L 150.322434 96.522345 
L 150.322434 96.522345 
L 150.322434 96.522345 
L 150.322434 96.522345 
L 150.322434 96.522345 
L 150.322434 96.522345 
L 150.322434 96.522345 
L 150.322434 96.522345 
L 150.322434 96.522345 
L 150.322434 96.522345 
L 150.322434 96.522345 
L 150.322434 96.522345 
L 150.322434 96.522345 
L 150.322434 96.522345 
L 150.322434 96.522345 
L 150.322434 96.522345 
L 150.322434 96.522345 
L 150.322434 96.522345 
L 150.322434 96.522345 
L 150.322434 96.522345 
L 150.322434 96.522345 
L 150.322434 96.522345 
L 150.322434 96.522345 
L 150.322434 96.522345 
L 150.322434 96.522345 
L 150.322434 96.522345 
L 150.322434 96.522345 
L 150.322434 96.522345 
L 150.322434 96.522345 
L 150.322434 96.522345 
L 150.322434 96.522345 
L 150.322434 96.522345 
L 150.322434 96.522345 
L 150.322434 96.522345 
L 150.322434 96.522345 
L 150.322434 96.522345 
L 150.322434 96.522345 
L 150.322434 96.522345 
L 150.322434 96.522345 
L 150.322434 96.522345 
L 150.322434 96.522345 
L 150.322434 96.522345 
L 150.322434 96.522345 
L 150.322434 96.522345 
L 150.322434 96.522345 
L 150.322434 96.522345 
L 150.322434 96.522345 
L 150.322434 96.522345 
L 150.322434 96.522345 
L 150.322434 96.522345 
L 150.322434 96.522345 
L 150.322434 96.522345 
L 150.322434 96.522345 
L 150.322434 96.522345 
L 150.322434 96.522345 
L 150.322434 96.522345 
L 150.322434 96.522345 
L 150.322434 96.522345 
L 150.322434 96.522345 
L 150.322434 96.522345 
L 150.322434 96.522345 
L 150.322434 96.522345 
L 150.322434 96.522345 
L 150.322434 96.522345 
L 150.322434 96.522345 
L 150.322434 96.522345 
L 150.322434 96.522345 
L 150.322434 96.522345 
L 150.322434 96.522345 
L 150.322434 96.522345 
L 150.322434 96.522345 
L 150.322434 96.522345 
L 150.322434 96.522345 
L 150.322434 96.522345 
L 150.322434 96.522345 
L 150.322434 96.522345 
L 150.322434 96.522345 
L 150.322434 96.522345 
L 150.322434 96.522345 
L 150.322434 96.522345 
L 150.322434 96.522345 
L 150.322434 96.522345 
L 150.322434 96.522345 
L 150.322434 96.522345 
L 150.322434 96.522345 
L 150.322434 96.522345 
L 150.322434 96.522345 
L 150.322434 96.522345 
L 150.322434 96.522345 
" clip-path="url(#p8b6ca472a2)" style="fill: none; stroke: #1f77b4; stroke-width: 1.5; stroke-linecap: square"/>
   </g>
   <g id="line2d_18">
    <path d="M 157.302566 96.522345 
L 157.300469 96.522345 
L 157.294178 96.522345 
L 157.283702 96.522345 
L 157.269052 96.522345 
L 157.250246 96.522345 
L 157.227307 96.522345 
L 157.200259 96.522345 
L 157.169137 96.522345 
L 157.133974 96.522345 
L 157.094814 96.522345 
L 157.051702 96.522345 
L 157.004688 96.522345 
L 156.953828 96.522345 
L 156.899181 96.522345 
L 156.840812 96.522345 
L 156.778789 96.522345 
L 156.713185 96.522345 
L 156.644077 96.522345 
L 156.571547 96.522345 
L 156.495681 96.522345 
L 156.416567 96.522345 
L 156.334299 96.522345 
L 156.248975 96.522345 
L 156.160696 96.522345 
L 156.069566 96.522345 
L 155.975693 96.522345 
L 155.879189 96.522345 
L 155.780168 96.522345 
L 155.678748 96.522345 
L 155.575051 96.522345 
L 155.469199 96.522345 
L 155.36132 96.522345 
L 155.251542 96.522345 
L 155.139997 96.522345 
L 155.026818 96.522345 
L 154.912141 96.522345 
L 154.796105 96.522345 
L 154.678848 96.522345 
L 154.560513 96.522345 
L 154.441242 96.522345 
L 154.321179 96.522345 
L 154.200469 96.522345 
L 154.07926 96.522345 
L 153.957697 96.522345 
L 153.835929 96.522345 
L 153.714104 96.522345 
L 153.59237 96.522345 
L 153.470877 96.522345 
L 153.349772 96.522345 
L 153.229203 96.522345 
L 153.109319 96.522345 
L 152.990267 96.522345 
L 152.872193 96.522345 
L 152.755242 96.522345 
L 152.639559 96.522345 
L 152.525286 96.522345 
L 152.412564 96.522345 
L 152.301533 96.522345 
L 152.192331 96.522345 
L 152.085093 96.522345 
L 151.979952 96.522345 
L 151.877038 96.522345 
L 151.776481 96.522345 
L 151.678404 96.522345 
L 151.582932 96.522345 
L 151.490182 96.522345 
L 151.400272 96.522345 
L 151.313312 96.522345 
L 151.229414 96.522345 
L 151.14868 96.522345 
L 151.071214 96.522345 
L 150.997112 96.522345 
L 150.926468 96.522345 
L 150.85937 96.522345 
L 150.795903 96.522345 
L 150.736146 96.522345 
L 150.680177 96.522345 
L 150.628064 96.522345 
L 150.579874 96.522345 
L 150.535667 96.522345 
L 150.4955 96.522345 
L 150.459424 96.522345 
L 150.427483 96.522345 
L 150.399719 96.522345 
L 150.376166 96.522345 
L 150.356855 96.522345 
L 150.34181 96.522345 
L 150.33105 96.522345 
L 150.324589 96.522345 
L 150.322434 96.522345 
" clip-path="url(#p8b6ca472a2)" style="fill: none; stroke: #1f77b4; stroke-width: 1.5; stroke-linecap: square"/>
   </g>
   <g id="line2d_19">
    <path d="M 157.803717 96.522345 
L 157.800985 96.452867 
L 157.792793 96.383552 
L 157.779156 96.314564 
L 157.760102 96.246065 
L 157.735664 96.178214 
L 157.70589 96.111169 
L 157.670834 96.045088 
L 157.630563 95.98012 
L 157.58515 95.916416 
L 157.534682 95.85412 
L 157.479249 95.793372 
L 157.418956 95.734306 
L 157.353911 95.677052 
L 157.284232 95.621734 
L 157.210047 95.568468 
L 157.131488 95.517367 
L 157.048696 95.468533 
L 156.961816 95.422063 
L 156.871002 95.378047 
L 156.776412 95.336567 
L 156.678209 95.297696 
L 156.576562 95.261499 
L 156.471643 95.228036 
L 156.363627 95.197355 
L 156.252695 95.169496 
L 156.139029 95.144494 
L 156.022813 95.122372 
L 155.904234 95.103145 
L 155.78348 95.086822 
L 155.660739 95.073402 
L 155.536201 95.062876 
L 155.410057 95.055226 
L 155.282495 95.050429 
L 155.153704 95.048451 
L 155.023871 95.049252 
L 154.893184 95.052785 
L 154.761827 95.058995 
L 154.629982 95.067822 
L 154.497828 95.079196 
L 154.365545 95.093045 
L 154.233305 95.109287 
L 154.10128 95.127838 
L 153.969637 95.148606 
L 153.838542 95.171495 
L 153.708153 95.196404 
L 153.578627 95.223228 
L 153.450116 95.251859 
L 153.322768 95.282183 
L 153.196725 95.314086 
L 153.072127 95.347448 
L 152.949107 95.382149 
L 152.827796 95.418065 
L 152.708317 95.455071 
L 152.590791 95.493041 
L 152.475333 95.531847 
L 152.362054 95.571361 
L 152.25106 95.611455 
L 152.142453 95.652 
L 152.036328 95.692867 
L 151.932779 95.733929 
L 151.831892 95.77506 
L 151.733752 95.816133 
L 151.638437 95.857024 
L 151.546022 95.897612 
L 151.456578 95.937776 
L 151.370172 95.977399 
L 151.286866 96.016365 
L 151.20672 96.054563 
L 151.129789 96.091882 
L 151.056125 96.128217 
L 150.985776 96.163466 
L 150.918788 96.197531 
L 150.855203 96.230316 
L 150.795059 96.261731 
L 150.738393 96.291689 
L 150.685237 96.32011 
L 150.635623 96.346915 
L 150.589578 96.372033 
L 150.547128 96.395395 
L 150.508296 96.416939 
L 150.473101 96.436607 
L 150.441564 96.454347 
L 150.413699 96.470112 
L 150.389522 96.48386 
L 150.369043 96.495555 
L 150.352275 96.505166 
L 150.339224 96.512667 
L 150.329898 96.518039 
L 150.3243 96.521268 
L 150.322434 96.522345 
" clip-path="url(#p8b6ca472a2)" style="fill: none; stroke: #1f77b4; stroke-width: 1.5; stroke-linecap: square"/>
   </g>
   <g id="line2d_20">
    <path d="M 159.629277 96.522345 
L 159.623685 96.336139 
L 159.606929 96.150547 
L 159.579077 95.966178 
L 159.540239 95.783635 
L 159.490568 95.60351 
L 159.430258 95.42638 
L 159.359545 95.252805 
L 159.278702 95.083325 
L 159.188039 94.918455 
L 159.0879 94.758684 
L 158.97866 94.604474 
L 158.860724 94.456253 
L 158.734522 94.314419 
L 158.600509 94.179335 
L 158.459157 94.051326 
L 158.310958 93.930683 
L 158.156415 93.817658 
L 157.996044 93.712466 
L 157.830368 93.615284 
L 157.659912 93.526249 
L 157.485206 93.445465 
L 157.306776 93.372994 
L 157.125146 93.308866 
L 156.940831 93.253076 
L 156.754338 93.205583 
L 156.566165 93.166316 
L 156.376793 93.135174 
L 156.186689 93.112026 
L 155.996305 93.096716 
L 155.806073 93.089061 
L 155.616405 93.088857 
L 155.427695 93.095878 
L 155.240314 93.10988 
L 155.05461 93.130601 
L 154.870911 93.157766 
L 154.689521 93.191085 
L 154.510721 93.230258 
L 154.33477 93.274977 
L 154.161904 93.324924 
L 153.992337 93.379779 
L 153.82626 93.439215 
L 153.663845 93.502904 
L 153.505239 93.570518 
L 153.350575 93.641726 
L 153.19996 93.716203 
L 153.053489 93.793624 
L 152.911234 93.873668 
L 152.773254 93.956019 
L 152.639591 94.040367 
L 152.510271 94.126409 
L 152.385308 94.213847 
L 152.264703 94.302392 
L 152.148444 94.391764 
L 152.036509 94.481688 
L 151.928866 94.571902 
L 151.825474 94.662151 
L 151.726283 94.752188 
L 151.631237 94.841778 
L 151.540274 94.930694 
L 151.453324 95.018719 
L 151.370315 95.105646 
L 151.29117 95.191275 
L 151.215809 95.275419 
L 151.144148 95.357897 
L 151.076103 95.43854 
L 151.011589 95.517186 
L 150.950518 95.593683 
L 150.892804 95.667886 
L 150.838361 95.739659 
L 150.787103 95.808876 
L 150.738946 95.875417 
L 150.693807 95.939168 
L 150.651607 96.000027 
L 150.612268 96.057896 
L 150.575714 96.112684 
L 150.541875 96.164308 
L 150.510682 96.21269 
L 150.48207 96.257761 
L 150.455979 96.299454 
L 150.432351 96.337713 
L 150.411136 96.372483 
L 150.392285 96.403717 
L 150.375754 96.431374 
L 150.361506 96.455416 
L 150.349508 96.475812 
L 150.33973 96.492535 
L 150.332149 96.505565 
L 150.326747 96.514883 
L 150.323511 96.520479 
L 150.322434 96.522345 
" clip-path="url(#p8b6ca472a2)" style="fill: none; stroke: #1f77b4; stroke-width: 1.5; stroke-linecap: square"/>
   </g>
   <g id="line2d_21">
    <path d="M 164.282699 96.522345 
L 164.265927 96.038762 
L 164.215753 95.557931 
L 164.132595 95.082569 
L 164.017143 94.615328 
L 163.870346 94.158762 
L 163.693398 93.715297 
L 163.487719 93.287204 
L 163.25493 92.876578 
L 162.99683 92.485316 
L 162.71537 92.115101 
L 162.412622 91.767392 
L 162.090751 91.443415 
L 161.751988 91.144159 
L 161.398599 90.870376 
L 161.032859 90.622586 
L 160.657025 90.401083 
L 160.273315 90.205946 
L 159.883882 90.03705 
L 159.490802 89.894082 
L 159.096049 89.776556 
L 158.70149 89.683832 
L 158.308866 89.615131 
L 157.919792 89.569556 
L 157.535744 89.546109 
L 157.15806 89.543709 
L 156.787938 89.56121 
L 156.426436 89.597416 
L 156.074475 89.651098 
L 155.732842 89.721006 
L 155.402197 89.805885 
L 155.083078 89.904482 
L 154.775907 90.015561 
L 154.481 90.13791 
L 154.198573 90.270348 
L 153.928749 90.411731 
L 153.67157 90.56096 
L 153.427002 90.716982 
L 153.194942 90.878794 
L 152.975231 91.045447 
L 152.767654 91.216045 
L 152.571954 91.389748 
L 152.387833 91.565769 
L 152.214963 91.743376 
L 152.052988 91.921892 
L 151.901529 92.100689 
L 151.760194 92.279191 
L 151.628575 92.456872 
L 151.506259 92.633249 
L 151.392825 92.807886 
L 151.287852 92.980388 
L 151.19092 93.150398 
L 151.101611 93.317599 
L 151.019513 93.481705 
L 150.944222 93.642465 
L 150.875341 93.799658 
L 150.812484 93.953088 
L 150.755276 94.102586 
L 150.703351 94.248008 
L 150.65636 94.389228 
L 150.613962 94.526142 
L 150.575833 94.658662 
L 150.541661 94.786717 
L 150.511145 94.91025 
L 150.484002 95.029215 
L 150.45996 95.14358 
L 150.438761 95.253321 
L 150.420159 95.358423 
L 150.403922 95.45888 
L 150.389832 95.55469 
L 150.377682 95.64586 
L 150.367277 95.732399 
L 150.358436 95.81432 
L 150.350987 95.89164 
L 150.34477 95.964379 
L 150.339639 96.032557 
L 150.335454 96.096197 
L 150.33209 96.155321 
L 150.329428 96.209953 
L 150.327361 96.260115 
L 150.325793 96.30583 
L 150.324633 96.34712 
L 150.323805 96.384005 
L 150.323236 96.416502 
L 150.322866 96.444631 
L 150.322642 96.468405 
L 150.322519 96.487839 
L 150.322461 96.502942 
L 150.322439 96.513724 
L 150.322434 96.52019 
L 150.322434 96.522345 
" clip-path="url(#p8b6ca472a2)" style="fill: none; stroke: #1f77b4; stroke-width: 1.5; stroke-linecap: square"/>
   </g>
   <g id="line2d_22">
    <path d="M 178.242964 96.522345 
L 178.159192 94.849175 
L 177.909597 93.197497 
L 177.499268 91.588154 
L 176.93645 90.040724 
L 176.232209 88.57298 
L 175.399996 87.200434 
L 174.455133 85.936008 
L 173.414264 84.789821 
L 172.294795 83.769101 
L 171.11435 82.878223 
L 169.890278 82.118844 
L 168.639219 81.490122 
L 167.376751 80.989007 
L 166.117113 80.610563 
L 164.873017 80.348318 
L 163.655533 80.194613 
L 162.474051 80.140938 
L 161.33629 80.178244 
L 160.248375 80.297217 
L 159.214928 80.488521 
L 158.239208 80.742994 
L 157.323246 81.051806 
L 156.468004 81.406584 
L 155.673524 81.799495 
L 154.939078 82.223306 
L 154.263307 82.671413 
L 153.64435 83.137853 
L 153.079956 83.617296 
L 152.567593 84.105025 
L 152.104528 84.596907 
L 151.687909 85.089356 
L 151.314822 85.579295 
L 150.982348 86.06411 
L 150.687603 86.541609 
L 150.427769 87.009978 
L 150.200122 87.467742 
L 150.002049 87.913723 
L 149.831059 88.347006 
L 149.684797 88.766904 
L 149.561042 89.172928 
L 149.457715 89.564759 
L 149.372872 89.94222 
L 149.304706 90.30526 
L 149.251542 90.653929 
L 149.211829 90.988361 
L 149.184139 91.30876 
L 149.167154 91.615387 
L 149.159667 91.908546 
L 149.16057 92.188577 
L 149.168849 92.455845 
L 149.183579 92.710736 
L 149.203914 92.953645 
L 149.229084 93.184976 
L 149.258389 93.405135 
L 149.291192 93.61453 
L 149.326914 93.813561 
L 149.365031 94.002623 
L 149.405067 94.182104 
L 149.446591 94.352381 
L 149.489216 94.513819 
L 149.532588 94.666772 
L 149.576391 94.811581 
L 149.620337 94.948572 
L 149.664168 95.078059 
L 149.707651 95.200342 
L 149.750578 95.315705 
L 149.79276 95.42442 
L 149.834029 95.526745 
L 149.874231 95.622923 
L 149.913232 95.713184 
L 149.95091 95.797745 
L 149.987155 95.876811 
L 150.021872 95.950572 
L 150.054972 96.019208 
L 150.086379 96.082884 
L 150.116025 96.141755 
L 150.143848 96.195966 
L 150.169795 96.245647 
L 150.193818 96.29092 
L 150.215876 96.331895 
L 150.235932 96.368673 
L 150.253954 96.401343 
L 150.269916 96.429984 
L 150.283794 96.454666 
L 150.295568 96.475451 
L 150.305223 96.492388 
L 150.312746 96.505518 
L 150.318126 96.514874 
L 150.321356 96.520479 
L 150.322434 96.522345 
" clip-path="url(#p8b6ca472a2)" style="fill: none; stroke: #1f77b4; stroke-width: 1.5; stroke-linecap: square"/>
   </g>
   <g id="line2d_23">
    <path d="M 254.52327 96.522345 
L 253.192944 83.155491 
L 249.314409 70.471974 
L 243.205592 59.070861 
L 235.337294 49.401434 
L 226.261639 41.728721 
L 216.539012 36.132602 
L 206.677987 32.534122 
L 197.09624 30.737714 
L 188.10352 30.477655 
L 179.902755 31.459838 
L 172.603148 33.393996 
L 166.239183 36.015061 
L 160.790797 39.094762 
L 156.201721 42.445683 
L 152.394536 45.920258 
L 149.282062 49.406796 
L 146.775373 52.824153 
L 144.789017 56.116115 
L 143.244089 59.246118 
L 142.069762 62.192624 
L 141.203781 64.945265 
L 140.592286 67.501733 
L 140.18925 69.865351 
L 139.955719 72.043211 
L 139.858981 74.044785 
L 139.87174 75.880901 
L 139.971339 77.563016 
L 140.139056 79.1027 
L 140.359483 80.511289 
L 140.619987 81.799661 
L 140.910243 82.978092 
L 141.221849 84.056186 
L 141.547988 85.04284 
L 141.883157 85.946246 
L 142.222929 86.773908 
L 142.563771 87.532675 
L 142.902875 88.22878 
L 143.238033 88.867885 
L 143.567524 89.455121 
L 143.890029 89.99514 
L 144.204552 90.492148 
L 144.510362 90.949954 
L 144.806944 91.372002 
L 145.093954 91.761405 
L 145.371189 92.120984 
L 145.638555 92.453289 
L 145.896049 92.760629 
L 146.143736 93.045095 
L 146.381736 93.308584 
L 146.610211 93.552816 
L 146.829355 93.779351 
L 147.039382 93.989605 
L 147.240527 94.184868 
L 147.433031 94.36631 
L 147.617145 94.534998 
L 147.793121 94.691902 
L 147.961211 94.837907 
L 148.121663 94.973822 
L 148.274725 95.100382 
L 148.420634 95.218261 
L 148.559624 95.328073 
L 148.69192 95.430381 
L 148.817739 95.525699 
L 148.937289 95.614497 
L 149.05077 95.697208 
L 149.158373 95.774224 
L 149.260279 95.845909 
L 149.35666 95.912593 
L 149.447681 95.974579 
L 149.533495 96.032145 
L 149.614248 96.085545 
L 149.690077 96.135012 
L 149.761112 96.18076 
L 149.827472 96.222981 
L 149.88927 96.261852 
L 149.94661 96.297536 
L 149.999588 96.330179 
L 150.048295 96.359913 
L 150.092812 96.386857 
L 150.133213 96.41112 
L 150.169567 96.432796 
L 150.201933 96.451972 
L 150.230366 96.468722 
L 150.254913 96.483111 
L 150.275616 96.495194 
L 150.292507 96.505018 
L 150.305616 96.51262 
L 150.314965 96.51803 
L 150.320567 96.521267 
L 150.322434 96.522345 
" clip-path="url(#p8b6ca472a2)" style="fill: none; stroke: #1f77b4; stroke-width: 1.5; stroke-linecap: square"/>
   </g>
   <g id="line2d_24">
    <path d="M -1 96.522345 
L 17.592356 96.522345 
L 36.518996 96.522345 
L 51.786976 96.522345 
L 64.28162 96.522345 
L 74.635785 96.522345 
L 83.311575 96.522345 
L 90.652784 96.522345 
L 96.919467 96.522345 
L 102.311274 96.522345 
L 106.983537 96.522345 
L 111.05857 96.522345 
L 114.63375 96.522345 
L 117.787373 96.522345 
L 120.582974 96.522345 
L 123.072542 96.522345 
L 125.298953 96.522345 
L 127.297817 96.522345 
L 129.098909 96.522345 
L 130.72728 96.522345 
L 132.204127 96.522345 
L 133.547484 96.522345 
L 134.772771 96.522345 
L 135.893236 96.522345 
L 136.920312 96.522345 
L 137.863907 96.522345 
L 138.732639 96.522345 
L 139.534038 96.522345 
L 140.2747 96.522345 
L 140.960427 96.522345 
L 141.596336 96.522345 
L 142.186955 96.522345 
L 142.736302 96.522345 
L 143.247952 96.522345 
L 143.725094 96.522345 
L 144.170578 96.522345 
L 144.586962 96.522345 
L 144.976541 96.522345 
L 145.341381 96.522345 
L 145.683348 96.522345 
L 146.004127 96.522345 
L 146.305242 96.522345 
L 146.588078 96.522345 
L 146.853891 96.522345 
L 147.103824 96.522345 
L 147.33892 96.522345 
L 147.560129 96.522345 
L 147.768318 96.522345 
L 147.964282 96.522345 
L 148.148748 96.522345 
L 148.322381 96.522345 
L 148.485792 96.522345 
L 148.639542 96.522345 
L 148.784146 96.522345 
L 148.920076 96.522345 
L 149.047768 96.522345 
L 149.167622 96.522345 
L 149.280003 96.522345 
L 149.385252 96.522345 
L 149.483678 96.522345 
L 149.575565 96.522345 
L 149.661177 96.522345 
L 149.740753 96.522345 
L 149.814512 96.522345 
L 149.882655 96.522345 
L 149.945366 96.522345 
L 150.002809 96.522345 
L 150.055136 96.522345 
L 150.102481 96.522345 
L 150.144967 96.522345 
L 150.182702 96.522345 
L 150.215779 96.522345 
L 150.244283 96.522345 
L 150.268284 96.522345 
L 150.287842 96.522345 
L 150.303003 96.522345 
L 150.313807 96.522345 
L 150.320278 96.522345 
L 150.322434 96.522345 
" clip-path="url(#p8b6ca472a2)" style="fill: none; stroke: #1f77b4; stroke-width: 1.5; stroke-linecap: square"/>
   </g>
   <g id="patch_3">
    <path d="M 30.425 116.2 
L 30.425 10.8 
" style="fill: none; stroke: #000000; stroke-width: 0.8; stroke-linejoin: miter; stroke-linecap: square"/>
   </g>
   <g id="patch_4">
    <path d="M 277.2 116.2 
L 277.2 10.8 
" style="fill: none; stroke: #000000; stroke-width: 0.8; stroke-linejoin: miter; stroke-linecap: square"/>
   </g>
   <g id="patch_5">
    <path d="M 30.425 116.2 
L 277.2 116.2 
" style="fill: none; stroke: #000000; stroke-width: 0.8; stroke-linejoin: miter; stroke-linecap: square"/>
   </g>
   <g id="patch_6">
    <path d="M 30.425 10.8 
L 277.2 10.8 
" style="fill: none; stroke: #000000; stroke-width: 0.8; stroke-linejoin: miter; stroke-linecap: square"/>
   </g>
  </g>
 </g>
 <defs>
  <clipPath id="p8b6ca472a2">
   <rect x="30.425" y="10.8" width="246.775" height="105.4"/>
  </clipPath>
 </defs>
</svg>
