<?xml version="1.0" encoding="utf-8" standalone="no"?>
<!DOCTYPE svg PUBLIC "-//W3C//DTD SVG 1.1//EN"
  "http://www.w3.org/Graphics/SVG/1.1/DTD/svg11.dtd">
<svg xmlns:xlink="http://www.w3.org/1999/xlink" width="144pt" height="144pt" viewBox="0 0 144 144" xmlns="http://www.w3.org/2000/svg" version="1.1">
 <metadata>
  <rdf:RDF xmlns:dc="http://purl.org/dc/elements/1.1/" xmlns:cc="http://creativecommons.org/ns#" xmlns:rdf="http://www.w3.org/1999/02/22-rdf-syntax-ns#">
   <cc:Work>
    <dc:type rdf:resource="http://purl.org/dc/dcmitype/StillImage"/>
    <dc:date>2022-02-27T18:19:54.464814</dc:date>
    <dc:format>image/svg+xml</dc:format>
    <dc:creator>
     <cc:Agent>
      <dc:title>Matplotlib v3.5.1, https://matplotlib.org/</dc:title>
     </cc:Agent>
    </dc:creator>
   </cc:Work>
  </rdf:RDF>
 </metadata>
 <defs>
  <style type="text/css">*{stroke-linejoin: round; stroke-linecap: butt}</style>
 </defs>
 <g id="figure_1">
  <g id="patch_1">
   <path d="M 0 144 
L 144 144 
L 144 0 
L 0 0 
z
" style="fill: #ffffff"/>
  </g>
  <g id="axes_1">
   <g id="patch_2">
    <path d="M 33.675 116.2 
L 125.2625 116.2 
L 125.2625 14.8 
L 33.675 14.8 
z
" style="fill: #ffffff"/>
   </g>
   <g id="matplotlib.axis_1">
    <g id="xtick_1">
     <g id="line2d_1">
      <defs>
       <path id="mc96abea73e" d="M 0 0 
L 0 3.5 
" style="stroke: #000000; stroke-width: 0.8"/>
      </defs>
      <g>
       <use xlink:href="#mc96abea73e" x="37.838068" y="116.2" style="stroke: #000000; stroke-width: 0.8"/>
      </g>
     </g>
     <g id="text_1">
      <!-- 0 -->
      <g transform="translate(34.656818 130.798438)scale(0.1 -0.1)">
       <defs>
        <path id="DejaVuSans-30" d="M 2034 4250 
Q 1547 4250 1301 3770 
Q 1056 3291 1056 2328 
Q 1056 1369 1301 889 
Q 1547 409 2034 409 
Q 2525 409 2770 889 
Q 3016 1369 3016 2328 
Q 3016 3291 2770 3770 
Q 2525 4250 2034 4250 
z
M 2034 4750 
Q 2819 4750 3233 4129 
Q 3647 3509 3647 2328 
Q 3647 1150 3233 529 
Q 2819 -91 2034 -91 
Q 1250 -91 836 529 
Q 422 1150 422 2328 
Q 422 3509 836 4129 
Q 1250 4750 2034 4750 
z
" transform="scale(0.015625)"/>
       </defs>
       <use xlink:href="#DejaVuSans-30"/>
      </g>
     </g>
    </g>
    <g id="xtick_2">
     <g id="line2d_2">
      <g>
       <use xlink:href="#mc96abea73e" x="84.967887" y="116.2" style="stroke: #000000; stroke-width: 0.8"/>
      </g>
     </g>
     <g id="text_2">
      <!-- 1 -->
      <g transform="translate(81.786637 130.798438)scale(0.1 -0.1)">
       <defs>
        <path id="DejaVuSans-31" d="M 794 531 
L 1825 531 
L 1825 4091 
L 703 3866 
L 703 4441 
L 1819 4666 
L 2450 4666 
L 2450 531 
L 3481 531 
L 3481 0 
L 794 0 
L 794 531 
z
" transform="scale(0.015625)"/>
       </defs>
       <use xlink:href="#DejaVuSans-31"/>
      </g>
     </g>
    </g>
   </g>
   <g id="matplotlib.axis_2">
    <g id="ytick_1">
     <g id="line2d_3">
      <defs>
       <path id="m6052945fbc" d="M 0 0 
L -3.5 0 
" style="stroke: #000000; stroke-width: 0.8"/>
      </defs>
      <g>
       <use xlink:href="#m6052945fbc" x="33.675" y="101.553228" style="stroke: #000000; stroke-width: 0.8"/>
      </g>
     </g>
     <g id="text_3">
      <!-- 0.0 -->
      <g transform="translate(10.771875 105.352447)scale(0.1 -0.1)">
       <defs>
        <path id="DejaVuSans-2e" d="M 684 794 
L 1344 794 
L 1344 0 
L 684 0 
L 684 794 
z
" transform="scale(0.015625)"/>
       </defs>
       <use xlink:href="#DejaVuSans-30"/>
       <use xlink:href="#DejaVuSans-2e" x="63.623047"/>
       <use xlink:href="#DejaVuSans-30" x="95.410156"/>
      </g>
     </g>
    </g>
    <g id="ytick_2">
     <g id="line2d_4">
      <g>
       <use xlink:href="#m6052945fbc" x="33.675" y="77.988319" style="stroke: #000000; stroke-width: 0.8"/>
      </g>
     </g>
     <g id="text_4">
      <!-- 0.5 -->
      <g transform="translate(10.771875 81.787538)scale(0.1 -0.1)">
       <defs>
        <path id="DejaVuSans-35" d="M 691 4666 
L 3169 4666 
L 3169 4134 
L 1269 4134 
L 1269 2991 
Q 1406 3038 1543 3061 
Q 1681 3084 1819 3084 
Q 2600 3084 3056 2656 
Q 3513 2228 3513 1497 
Q 3513 744 3044 326 
Q 2575 -91 1722 -91 
Q 1428 -91 1123 -41 
Q 819 9 494 109 
L 494 744 
Q 775 591 1075 516 
Q 1375 441 1709 441 
Q 2250 441 2565 725 
Q 2881 1009 2881 1497 
Q 2881 1984 2565 2268 
Q 2250 2553 1709 2553 
Q 1456 2553 1204 2497 
Q 953 2441 691 2322 
L 691 4666 
z
" transform="scale(0.015625)"/>
       </defs>
       <use xlink:href="#DejaVuSans-30"/>
       <use xlink:href="#DejaVuSans-2e" x="63.623047"/>
       <use xlink:href="#DejaVuSans-35" x="95.410156"/>
      </g>
     </g>
    </g>
    <g id="ytick_3">
     <g id="line2d_5">
      <g>
       <use xlink:href="#m6052945fbc" x="33.675" y="54.42341" style="stroke: #000000; stroke-width: 0.8"/>
      </g>
     </g>
     <g id="text_5">
      <!-- 1.0 -->
      <g transform="translate(10.771875 58.222628)scale(0.1 -0.1)">
       <use xlink:href="#DejaVuSans-31"/>
       <use xlink:href="#DejaVuSans-2e" x="63.623047"/>
       <use xlink:href="#DejaVuSans-30" x="95.410156"/>
      </g>
     </g>
    </g>
    <g id="ytick_4">
     <g id="line2d_6">
      <g>
       <use xlink:href="#m6052945fbc" x="33.675" y="30.8585" style="stroke: #000000; stroke-width: 0.8"/>
      </g>
     </g>
     <g id="text_6">
      <!-- 1.5 -->
      <g transform="translate(10.771875 34.657719)scale(0.1 -0.1)">
       <use xlink:href="#DejaVuSans-31"/>
       <use xlink:href="#DejaVuSans-2e" x="63.623047"/>
       <use xlink:href="#DejaVuSans-35" x="95.410156"/>
      </g>
     </g>
    </g>
   </g>
   <g id="line2d_7">
    <path d="M 121.099432 101.553228 
L 118.745859 97.47672 
L 118.311621 96.724597 
L 117.722342 95.703938 
L 117.084906 94.599865 
L 116.458009 93.514048 
L 115.860371 92.478909 
L 115.292497 91.495322 
L 114.750279 90.556173 
L 114.229651 89.654418 
L 113.727381 88.784461 
L 113.240945 87.941929 
L 112.768341 87.123355 
L 112.307945 86.325927 
L 111.858416 85.54732 
L 111.418628 84.785583 
L 110.987622 84.03906 
L 110.564574 83.306319 
L 110.148767 82.58612 
L 109.73957 81.877371 
L 109.336426 81.179105 
L 108.938837 80.49046 
L 108.546356 79.810662 
L 108.158577 79.13901 
L 107.775133 78.474865 
L 107.395687 77.817646 
L 107.019929 77.166814 
L 106.647573 76.521874 
L 106.278352 75.882365 
L 105.912019 75.247858 
L 105.548341 74.617948 
L 105.187098 73.992258 
L 104.828084 73.370427 
L 104.471102 72.752116 
L 104.115965 72.137001 
L 103.762495 71.524772 
L 103.410518 70.915131 
L 103.05987 70.307791 
L 102.71039 69.702474 
L 102.361923 69.098911 
L 102.014317 68.49684 
L 101.667424 67.896003 
L 101.321097 67.296148 
L 100.975194 66.697026 
L 100.629572 66.098391 
L 100.284091 65.5 
L 99.93861 64.901609 
L 99.592988 64.302974 
L 99.247085 63.703852 
L 98.900758 63.103997 
L 98.553864 62.50316 
L 98.206258 61.901088 
L 97.857791 61.297526 
L 97.508312 60.692209 
L 97.157664 60.084869 
L 96.805687 59.475228 
L 96.452216 58.862999 
L 96.09708 58.247884 
L 95.740098 57.629573 
L 95.381084 57.007742 
L 95.019841 56.382051 
L 94.656162 55.752142 
L 94.289829 55.117634 
L 93.920609 54.478126 
L 93.548253 53.833186 
L 93.172495 53.182354 
L 92.793049 52.525134 
L 92.409605 51.86099 
L 92.021826 51.189337 
L 91.629344 50.509539 
L 91.231755 49.820894 
L 90.828611 49.122628 
L 90.419414 48.413879 
L 90.003607 47.693679 
L 89.580559 46.960939 
L 89.149553 46.214415 
L 88.709764 45.452678 
L 88.260235 44.674071 
L 87.799839 43.876641 
L 87.327235 43.058067 
L 86.840798 42.215534 
L 86.338527 41.345575 
L 85.817897 40.443818 
L 85.275638 39.504597 
L 84.707364 38.520318 
L 84.106933 37.480341 
L 83.465206 36.368836 
L 82.76736 35.160133 
L 81.985848 33.806513 
L 81.054342 32.193097 
L 79.46875 29.446772 
" clip-path="url(#pd52b118d88)" style="fill: none; stroke: #1f77b4; stroke-width: 1.5; stroke-linecap: square"/>
   </g>
   <g id="line2d_8">
    <path d="M 101.82141 101.553228 
L 101.811258 100.710649 
L 101.780928 99.869674 
L 101.730793 99.031853 
L 101.661451 98.198628 
L 101.573685 97.371299 
L 101.46843 96.550989 
L 101.346721 95.738636 
L 101.209655 94.934985 
L 101.058348 94.140597 
L 100.89391 93.355865 
L 100.717412 92.581028 
L 100.529873 91.816198 
L 100.332247 91.061375 
L 100.125416 90.316469 
L 99.910186 89.581323 
L 99.686364 88.854537 
L 99.457373 88.139409 
L 99.22106 87.432086 
L 98.978848 86.733461 
L 98.731212 86.043204 
L 98.478566 85.360989 
L 98.221273 84.686484 
L 97.95965 84.019355 
L 97.693978 83.359279 
L 97.424498 82.705931 
L 97.151417 82.058997 
L 96.874916 81.418172 
L 96.595147 80.783157 
L 96.312239 80.153662 
L 96.026298 79.529409 
L 95.737412 78.910126 
L 95.44565 78.295554 
L 95.151063 77.685438 
L 94.853691 77.079536 
L 94.553557 76.477613 
L 94.250671 75.879441 
L 93.945034 75.284801 
L 93.636631 74.693482 
L 93.325442 74.105277 
L 93.011431 73.51999 
L 92.694557 72.937429 
L 92.374768 72.357408 
L 92.052001 71.779748 
L 91.726187 71.204276 
L 91.397247 70.630822 
L 91.065092 70.059224 
L 90.729625 69.489325 
L 90.39074 68.920971 
L 90.048322 68.354014 
L 89.702246 67.788313 
L 89.352378 67.223728 
L 88.998573 66.660128 
L 88.640676 66.097384 
L 88.278521 65.535374 
L 87.911932 64.973981 
L 87.540718 64.413096 
L 87.164678 63.852613 
L 86.783596 63.292436 
L 86.397241 62.732476 
L 86.00537 62.172652 
L 85.607721 61.612894 
L 85.204017 61.053141 
L 84.793962 60.493346 
L 84.377241 59.933476 
L 83.953521 59.373515 
L 83.522446 58.813464 
L 83.083638 58.253347 
L 82.6367 57.693212 
L 82.181207 57.133136 
L 81.716714 56.57323 
L 81.242753 56.013643 
L 80.758832 55.454568 
L 80.264438 54.896249 
L 79.759043 54.338987 
L 79.242101 53.78315 
L 78.71306 53.229182 
L 78.171369 52.677608 
L 77.616486 52.129047 
L 77.047893 51.584219 
L 76.465114 51.043949 
L 75.867735 50.509175 
L 75.255428 49.980946 
L 74.627979 49.460417 
L 73.985315 48.948838 
L 73.327534 48.447529 
L 72.654928 47.957857 
L 71.968006 47.481193 
L 71.267498 47.018864 
L 70.554358 46.57211 
L 69.829739 46.142029 
" clip-path="url(#pd52b118d88)" style="fill: none; stroke: #1f77b4; stroke-width: 1.5; stroke-linecap: square"/>
   </g>
   <g id="line2d_9">
    <path d="M 90.117873 101.553228 
L 90.113283 100.923779 
L 90.09952 100.294609 
L 90.076619 99.665997 
L 90.044629 99.038214 
L 90.003624 98.411525 
L 89.953692 97.786189 
L 89.894942 97.162451 
L 89.827495 96.540544 
L 89.75149 95.920689 
L 89.667076 95.303089 
L 89.574411 94.687936 
L 89.473663 94.0754 
L 89.365008 93.46564 
L 89.248622 92.858796 
L 89.124689 92.25499 
L 88.993391 91.65433 
L 88.854911 91.05691 
L 88.709429 90.462804 
L 88.557124 89.872077 
L 88.39817 89.284779 
L 88.232735 88.700946 
L 88.060984 88.120604 
L 87.883073 87.543768 
L 87.699153 86.970444 
L 87.509365 86.400629 
L 87.313844 85.834312 
L 87.112718 85.271474 
L 86.906105 84.712093 
L 86.694115 84.156138 
L 86.47685 83.603576 
L 86.254404 83.054369 
L 86.026862 82.508477 
L 85.794302 81.965857 
L 85.556793 81.426463 
L 85.311852 80.893604 
L 85.067163 80.357169 
L 84.815141 79.827172 
L 84.558368 79.300214 
L 84.296876 78.776247 
L 84.030687 78.255225 
L 83.75982 77.737103 
L 83.484283 77.221838 
L 83.204081 76.709389 
L 82.919211 76.199718 
L 82.629663 75.692789 
L 82.335423 75.188568 
L 82.036471 74.687028 
L 81.732778 74.188142 
L 81.424314 73.691887 
L 81.111041 73.198248 
L 80.792916 72.707211 
L 80.469894 72.218768 
L 80.141921 71.732918 
L 79.808942 71.249663 
L 79.470896 70.769013 
L 79.12772 70.290983 
L 78.779346 69.815597 
L 78.425703 69.342884 
L 78.066718 68.872881 
L 77.702314 68.405634 
L 77.332414 67.941196 
L 76.956937 67.47963 
L 76.575805 67.021006 
L 76.188937 66.565407 
L 75.796252 66.112923 
L 75.397672 65.663654 
L 74.993119 65.217712 
L 74.58252 64.775219 
L 74.165805 64.336307 
L 73.742908 63.901121 
L 73.313769 63.469813 
L 72.878337 63.042549 
L 72.436568 62.619506 
L 71.988426 62.200868 
L 71.533889 61.78683 
L 71.072944 61.377598 
L 70.605594 60.973383 
L 70.131855 60.574405 
L 69.651757 60.180887 
L 69.165351 59.79306 
L 68.672701 59.411155 
L 68.173893 59.035405 
L 67.669029 58.666042 
L 67.158231 58.303293 
L 66.64164 57.947383 
L 66.119415 57.598527 
L 65.591734 57.256932 
L 65.05879 56.922792 
L 64.520794 56.596289 
L 63.977971 56.277589 
" clip-path="url(#pd52b118d88)" style="fill: none; stroke: #1f77b4; stroke-width: 1.5; stroke-linecap: square"/>
   </g>
   <g id="line2d_10">
    <path d="M 79.601624 101.553228 
L 79.598596 101.063053 
L 79.589514 100.572977 
L 79.574383 100.083102 
L 79.553213 99.593526 
L 79.526016 99.104348 
L 79.492809 98.615665 
L 79.453612 98.127574 
L 79.408448 97.640168 
L 79.357344 97.153541 
L 79.300328 96.667784 
L 79.237432 96.182984 
L 79.168692 95.699228 
L 79.094144 95.216599 
L 79.013827 94.73518 
L 78.927782 94.255047 
L 78.836052 93.776278 
L 78.73868 93.298944 
L 78.635712 92.823115 
L 78.527194 92.348858 
L 78.413172 91.876238 
L 78.293695 91.405315 
L 78.168809 90.936149 
L 78.038561 90.468794 
L 77.903 90.003304 
L 77.762173 89.539729 
L 77.616125 89.078117 
L 77.464903 88.618514 
L 77.308552 88.160964 
L 77.147115 87.705507 
L 76.980636 87.252183 
L 76.809156 86.80103 
L 76.632716 86.352083 
L 76.451354 85.905378 
L 76.265108 85.460947 
L 76.074014 85.018823 
L 75.878106 84.579037 
L 75.677417 84.141619 
L 75.471977 83.706598 
L 75.261817 83.274005 
L 75.046964 82.843868 
L 74.827444 82.416216 
L 74.603281 81.991078 
L 74.374499 81.568482 
L 74.141119 81.148459 
L 73.90316 80.731037 
L 73.660642 80.316249 
L 73.413581 79.904124 
L 73.161994 79.494695 
L 72.905894 79.087995 
L 72.645297 78.684059 
L 72.380214 78.282922 
L 72.110657 77.884622 
L 71.836638 77.489196 
L 71.558168 77.096685 
L 71.275256 76.70713 
L 70.987912 76.320576 
L 70.696147 75.937067 
L 70.39997 75.55665 
L 70.099391 75.179375 
L 69.79442 74.805293 
L 69.48507 74.434456 
L 69.171351 74.066919 
L 68.853276 73.702739 
L 68.53086 73.341976 
L 68.204116 72.984689 
L 67.873062 72.630941 
L 67.537716 72.280797 
L 67.198099 71.934322 
L 66.854232 71.591584 
L 66.50614 71.252652 
L 66.153849 70.917597 
L 65.79739 70.586489 
L 65.436794 70.259401 
L 65.072096 69.936408 
L 64.703335 69.617582 
L 64.33055 69.302999 
L 63.953787 68.992733 
L 63.573093 68.686858 
L 63.188518 68.38545 
L 62.800117 68.088581 
L 62.407947 67.796324 
L 62.012067 67.508753 
L 61.612544 67.225937 
L 61.20939 66.947508 
L 60.802783 66.674782 
L 60.392773 66.406696 
L 59.979385 66.143582 
L 59.56271 65.885542 
L 59.142835 65.632639 
L 58.719845 65.384929 
" clip-path="url(#pd52b118d88)" style="fill: none; stroke: #1f77b4; stroke-width: 1.5; stroke-linecap: square"/>
   </g>
   <g id="line2d_11">
    <path d="M 69.061076 101.553228 
L 69.058937 101.189391 
L 69.05252 100.825608 
L 69.041826 100.461931 
L 69.026858 100.098415 
L 69.007619 99.735112 
L 68.984114 99.372076 
L 68.956346 99.009359 
L 68.924323 98.647014 
L 68.88805 98.285094 
L 68.847536 97.923651 
L 68.802788 97.562737 
L 68.753817 97.202403 
L 68.700631 96.8427 
L 68.643243 96.48368 
L 68.581663 96.125393 
L 68.515904 95.767889 
L 68.445978 95.411218 
L 68.371899 95.055428 
L 68.293681 94.700569 
L 68.211339 94.346688 
L 68.124889 93.993834 
L 68.034346 93.642054 
L 67.939726 93.291395 
L 67.841046 92.941902 
L 67.738323 92.593623 
L 67.631576 92.246602 
L 67.520822 91.900884 
L 67.40608 91.556513 
L 67.287367 91.213535 
L 67.164705 90.871991 
L 67.038111 90.531927 
L 66.907605 90.193383 
L 66.773207 89.856403 
L 66.634938 89.521029 
L 66.492817 89.187302 
L 66.346866 88.855263 
L 66.197105 88.524954 
L 66.043554 88.196415 
L 65.886236 87.869686 
L 65.725171 87.544808 
L 65.56038 87.22182 
L 65.391886 86.900763 
L 65.219711 86.581676 
L 65.043875 86.264597 
L 64.864403 85.949567 
L 64.681315 85.636623 
L 64.494634 85.325806 
L 64.304384 85.017154 
L 64.110587 84.710705 
L 63.913267 84.406499 
L 63.712447 84.104573 
L 63.508151 83.804967 
L 63.300403 83.507719 
L 63.089227 83.212867 
L 62.874649 82.92045 
L 62.656693 82.630507 
L 62.435385 82.343075 
L 62.210751 82.058193 
L 61.982816 81.7759 
L 61.751609 81.496234 
L 61.517155 81.219233 
L 61.279483 80.944936 
L 61.038621 80.673381 
L 60.794597 80.404606 
L 60.547442 80.13865 
L 60.297184 79.87555 
L 60.043854 79.615345 
L 59.787484 79.358072 
L 59.528106 79.103769 
L 59.26575 78.852473 
L 59.000452 78.604223 
L 58.732243 78.359055 
L 58.46116 78.117006 
L 58.187236 77.878113 
L 57.910508 77.642411 
L 57.631013 77.409938 
L 57.348786 77.180728 
L 57.063868 76.954817 
L 56.776295 76.73224 
L 56.486108 76.51303 
L 56.193346 76.297222 
L 55.89805 76.084849 
L 55.600262 75.875943 
L 55.300024 75.670538 
L 54.997378 75.468663 
L 54.692368 75.27035 
L 54.385038 75.075629 
L 54.075432 74.88453 
L 53.763594 74.697081 
L 53.449572 74.51331 
" clip-path="url(#pd52b118d88)" style="fill: none; stroke: #1f77b4; stroke-width: 1.5; stroke-linecap: square"/>
   </g>
   <g id="line2d_12">
    <path d="M 57.283502 101.553228 
L 57.282185 101.326955 
L 57.278233 101.100713 
L 57.271648 100.874533 
L 57.26243 100.648445 
L 57.25058 100.42248 
L 57.236101 100.196669 
L 57.218994 99.971042 
L 57.199261 99.745631 
L 57.176906 99.520466 
L 57.151931 99.295576 
L 57.12434 99.070994 
L 57.094137 98.84675 
L 57.061326 98.622873 
L 57.025912 98.399395 
L 56.987898 98.176345 
L 56.947292 97.953754 
L 56.904098 97.731653 
L 56.858323 97.51007 
L 56.809972 97.289037 
L 56.759053 97.068583 
L 56.705573 96.848738 
L 56.649538 96.629532 
L 56.590957 96.410994 
L 56.529837 96.193154 
L 56.466188 95.976042 
L 56.400018 95.759686 
L 56.331335 95.544116 
L 56.26015 95.329361 
L 56.186472 95.11545 
L 56.110312 94.902412 
L 56.031679 94.690276 
L 55.950584 94.47907 
L 55.867039 94.268822 
L 55.781055 94.059562 
L 55.692643 93.851316 
L 55.601816 93.644114 
L 55.508585 93.437984 
L 55.412965 93.232952 
L 55.314966 93.029046 
L 55.214604 92.826295 
L 55.111891 92.624724 
L 55.006841 92.424363 
L 54.899468 92.225236 
L 54.789787 92.027372 
L 54.677813 91.830797 
L 54.563561 91.635537 
L 54.447046 91.441618 
L 54.328284 91.249068 
L 54.20729 91.057911 
L 54.084082 90.868173 
L 53.958675 90.679881 
L 53.831087 90.493059 
L 53.701335 90.307733 
L 53.569435 90.123928 
L 53.435407 89.941668 
L 53.299267 89.760979 
L 53.161034 89.581884 
L 53.020727 89.404408 
L 52.878364 89.228575 
L 52.733965 89.054409 
L 52.587549 88.881933 
L 52.439136 88.711171 
L 52.288746 88.542145 
L 52.136398 88.374879 
L 51.982113 88.209396 
L 51.825913 88.045718 
L 51.667818 87.883867 
L 51.507849 87.723865 
L 51.346028 87.565735 
L 51.182377 87.409497 
L 51.016918 87.255172 
L 50.849673 87.102783 
L 50.680664 86.952349 
L 50.509916 86.803891 
L 50.33745 86.65743 
L 50.16329 86.512985 
L 49.987459 86.370576 
L 49.809982 86.230222 
L 49.630882 86.091943 
L 49.450183 85.955758 
L 49.267911 85.821684 
L 49.08409 85.689741 
L 48.898744 85.559947 
L 48.711899 85.432318 
L 48.523581 85.306873 
L 48.333814 85.183629 
L 48.142625 85.062602 
L 47.95004 84.943809 
L 47.756084 84.827266 
L 47.560785 84.712988 
" clip-path="url(#pd52b118d88)" style="fill: none; stroke: #1f77b4; stroke-width: 1.5; stroke-linecap: square"/>
   </g>
   <g id="line2d_13">
    <path d="M 37.838068 101.553228 
L 37.838068 101.553228 
L 37.838068 101.553228 
L 37.838068 101.553228 
L 37.838068 101.553228 
L 37.838068 101.553228 
L 37.838068 101.553228 
L 37.838068 101.553228 
L 37.838068 101.553228 
L 37.838068 101.553228 
L 37.838068 101.553228 
L 37.838068 101.553228 
L 37.838068 101.553228 
L 37.838068 101.553228 
L 37.838068 101.553228 
L 37.838068 101.553228 
L 37.838068 101.553228 
L 37.838068 101.553228 
L 37.838068 101.553228 
L 37.838068 101.553228 
L 37.838068 101.553228 
L 37.838068 101.553228 
L 37.838068 101.553228 
L 37.838068 101.553228 
L 37.838068 101.553228 
L 37.838068 101.553228 
L 37.838068 101.553228 
L 37.838068 101.553228 
L 37.838068 101.553228 
L 37.838068 101.553228 
L 37.838068 101.553228 
L 37.838068 101.553228 
L 37.838068 101.553228 
L 37.838068 101.553228 
L 37.838068 101.553228 
L 37.838068 101.553228 
L 37.838068 101.553228 
L 37.838068 101.553228 
L 37.838068 101.553228 
L 37.838068 101.553228 
L 37.838068 101.553228 
L 37.838068 101.553228 
L 37.838068 101.553228 
L 37.838068 101.553228 
L 37.838068 101.553228 
L 37.838068 101.553228 
L 37.838068 101.553228 
L 37.838068 101.553228 
L 37.838068 101.553228 
L 37.838068 101.553228 
L 37.838068 101.553228 
L 37.838068 101.553228 
L 37.838068 101.553228 
L 37.838068 101.553228 
L 37.838068 101.553228 
L 37.838068 101.553228 
L 37.838068 101.553228 
L 37.838068 101.553228 
L 37.838068 101.553228 
L 37.838068 101.553228 
L 37.838068 101.553228 
L 37.838068 101.553228 
L 37.838068 101.553228 
L 37.838068 101.553228 
L 37.838068 101.553228 
L 37.838068 101.553228 
L 37.838068 101.553228 
L 37.838068 101.553228 
L 37.838068 101.553228 
L 37.838068 101.553228 
L 37.838068 101.553228 
L 37.838068 101.553228 
L 37.838068 101.553228 
L 37.838068 101.553228 
L 37.838068 101.553228 
L 37.838068 101.553228 
L 37.838068 101.553228 
L 37.838068 101.553228 
L 37.838068 101.553228 
L 37.838068 101.553228 
L 37.838068 101.553228 
L 37.838068 101.553228 
L 37.838068 101.553228 
L 37.838068 101.553228 
L 37.838068 101.553228 
L 37.838068 101.553228 
L 37.838068 101.553228 
L 37.838068 101.553228 
L 37.838068 101.553228 
L 37.838068 101.553228 
L 37.838068 101.553228 
" clip-path="url(#pd52b118d88)" style="fill: none; stroke: #1f77b4; stroke-width: 1.5; stroke-linecap: square"/>
   </g>
   <g id="line2d_14">
    <path d="M 121.099432 101.553228 
L 117.942415 101.553228 
L 116.087715 101.553228 
L 114.531647 101.553228 
L 113.142146 101.553228 
L 111.864354 101.553228 
L 110.66876 101.553228 
L 109.537161 101.553228 
L 108.457324 101.553228 
L 107.420514 101.553228 
L 106.420218 101.553228 
L 105.451405 101.553228 
L 104.510085 101.553228 
L 103.593024 101.553228 
L 102.697547 101.553228 
L 101.82141 101.553228 
L 100.962703 101.553228 
L 100.119781 101.553228 
L 99.291214 101.553228 
L 98.475745 101.553228 
L 97.672261 101.553228 
L 96.879769 101.553228 
L 96.097376 101.553228 
L 95.324274 101.553228 
L 94.559729 101.553228 
L 93.803067 101.553228 
L 93.053671 101.553228 
L 92.310967 101.553228 
L 91.574426 101.553228 
L 90.843549 101.553228 
L 90.117873 101.553228 
L 89.39696 101.553228 
L 88.680396 101.553228 
L 87.967789 101.553228 
L 87.258763 101.553228 
L 86.552962 101.553228 
L 85.850041 101.553228 
L 85.149669 101.553228 
L 84.451526 101.553228 
L 83.755301 101.553228 
L 83.06069 101.553228 
L 82.367396 101.553228 
L 81.675128 101.553228 
L 80.983599 101.553228 
L 80.292525 101.553228 
L 79.601624 101.553228 
L 78.910616 101.553228 
L 78.219218 101.553228 
L 77.527149 101.553228 
L 76.834126 101.553228 
L 76.139861 101.553228 
L 75.444062 101.553228 
L 74.746434 101.553228 
L 74.046672 101.553228 
L 73.344465 101.553228 
L 72.639493 101.553228 
L 71.931424 101.553228 
L 71.219914 101.553228 
L 70.504606 101.553228 
L 69.785124 101.553228 
L 69.061076 101.553228 
L 68.332047 101.553228 
L 67.597599 101.553228 
L 66.857266 101.553228 
L 66.110551 101.553228 
L 65.356922 101.553228 
L 64.595804 101.553228 
L 63.826577 101.553228 
L 63.048567 101.553228 
L 62.261035 101.553228 
L 61.463172 101.553228 
L 60.654079 101.553228 
L 59.83276 101.553228 
L 58.998096 101.553228 
L 58.148823 101.553228 
L 57.283502 101.553228 
L 56.400479 101.553228 
L 55.497832 101.553228 
L 54.573301 101.553228 
L 53.624194 101.553228 
L 52.647252 101.553228 
L 51.638454 101.553228 
L 50.592732 101.553228 
L 49.503517 101.553228 
L 48.362007 101.553228 
L 47.155861 101.553228 
L 45.866723 101.553228 
L 44.464823 101.553228 
L 42.894818 101.553228 
L 41.023466 101.553228 
L 37.838068 101.553228 
" clip-path="url(#pd52b118d88)" style="fill: none; stroke: #1f77b4; stroke-width: 1.5; stroke-linecap: square"/>
   </g>
   <g id="line2d_15">
    <path d="M 111.418628 84.785583 
L 110.665691 85.210312 
L 109.905422 85.619443 
L 109.139209 86.012566 
L 108.368464 86.389505 
L 107.594558 86.750304 
L 106.818799 87.09519 
L 106.042407 87.424571 
L 105.266453 87.738995 
L 104.491901 88.039103 
L 103.719552 88.325617 
L 102.95008 88.599303 
L 102.184034 88.860939 
L 101.421824 89.111321 
L 100.664515 89.352316 
L 99.910186 89.581323 
L 99.161103 89.802412 
L 98.416645 90.015134 
L 97.676835 90.220121 
L 96.941647 90.417966 
L 96.211017 90.609219 
L 95.484848 90.794394 
L 94.763018 90.973963 
L 94.045385 91.148366 
L 93.331787 91.318009 
L 92.622053 91.483265 
L 91.915999 91.644482 
L 91.213435 91.801978 
L 90.514164 91.956049 
L 89.817983 92.106969 
L 89.124689 92.25499 
L 88.434074 92.400348 
L 87.745928 92.54326 
L 87.060041 92.683928 
L 86.376202 92.822543 
L 85.694199 92.959279 
L 85.013817 93.094301 
L 84.334845 93.227763 
L 83.657067 93.35981 
L 82.980267 93.490577 
L 82.30423 93.620194 
L 81.628737 93.748781 
L 80.953569 93.876453 
L 80.278504 94.00332 
L 79.603317 94.129484 
L 78.927782 94.255047 
L 78.251667 94.380104 
L 77.574738 94.504746 
L 76.896755 94.629062 
L 76.217473 94.753139 
L 75.536641 94.877061 
L 74.854003 95.000909 
L 74.169291 95.124765 
L 73.482232 95.248707 
L 72.792542 95.372816 
L 72.099925 95.497169 
L 71.404074 95.621846 
L 70.704669 95.746926 
L 70.001371 95.872489 
L 69.293827 95.998617 
L 68.581663 96.125393 
L 67.864484 96.252905 
L 67.141868 96.38124 
L 66.413368 96.510493 
L 65.678504 96.640759 
L 64.936759 96.772143 
L 64.187578 96.904753 
L 63.430354 97.038705 
L 62.664432 97.174124 
L 61.88909 97.311146 
L 61.103536 97.449917 
L 60.306891 97.5906 
L 59.498177 97.733372 
L 58.676296 97.878433 
L 57.840008 98.026006 
L 56.987898 98.176345 
L 56.118342 98.329741 
L 55.229447 98.486531 
L 54.318991 98.647109 
L 53.384325 98.811945 
L 52.42224 98.981608 
L 51.428778 99.156796 
L 50.39895 99.338393 
L 49.326288 99.527538 
L 48.202122 99.725762 
L 47.014302 99.935209 
L 45.74475 100.159066 
L 44.364148 100.402504 
L 42.817994 100.675133 
L 40.975072 101.00009 
L 37.838068 101.553228 
" clip-path="url(#pd52b118d88)" style="fill: none; stroke: #1f77b4; stroke-width: 1.5; stroke-linecap: square"/>
   </g>
   <g id="line2d_16">
    <path d="M 105.548341 74.617948 
L 104.923632 74.975851 
L 104.296694 75.329506 
L 103.667705 75.678837 
L 103.036851 76.023789 
L 102.404318 76.364321 
L 101.770296 76.70041 
L 101.13497 77.032051 
L 100.498525 77.359254 
L 99.861141 77.682045 
L 99.222994 78.000465 
L 98.584249 78.31457 
L 97.945064 78.624431 
L 97.305588 78.930129 
L 96.665957 79.231753 
L 96.026298 79.529409 
L 95.386726 79.823204 
L 94.747342 80.113257 
L 94.108236 80.399691 
L 93.469486 80.682635 
L 92.831156 80.962219 
L 92.193299 81.238581 
L 91.555954 81.511856 
L 90.919153 81.782184 
L 90.282911 82.049704 
L 89.647235 82.314554 
L 89.012121 82.576876 
L 88.377554 82.8368 
L 87.743511 83.09447 
L 87.109957 83.350017 
L 86.47685 83.603576 
L 85.844139 83.855276 
L 85.211763 84.105246 
L 84.579656 84.353613 
L 83.947742 84.600501 
L 83.315937 84.846032 
L 82.684153 85.090327 
L 82.05229 85.333502 
L 81.420246 85.575675 
L 80.787909 85.816958 
L 80.15516 86.057465 
L 79.521876 86.297305 
L 78.887923 86.53659 
L 78.253164 86.775426 
L 77.617453 87.013921 
L 76.980636 87.252183 
L 76.342553 87.490317 
L 75.703035 87.728429 
L 75.061906 87.966627 
L 74.41898 88.205016 
L 73.774063 88.443704 
L 73.126952 88.682799 
L 72.477431 88.922412 
L 71.825275 89.162654 
L 71.170248 89.403641 
L 70.512099 89.645487 
L 69.850563 89.888315 
L 69.185361 90.132248 
L 68.516198 90.377415 
L 67.842757 90.623949 
L 67.164705 90.871991 
L 66.481682 91.121688 
L 65.793308 91.373193 
L 65.099169 91.626671 
L 64.398825 91.882296 
L 63.691797 92.140254 
L 62.977567 92.400744 
L 62.25557 92.663983 
L 61.52519 92.930202 
L 60.78575 93.199659 
L 60.036501 93.472632 
L 59.276615 93.74943 
L 58.505165 94.030397 
L 57.72111 94.315917 
L 56.923274 94.606424 
L 56.110312 94.902412 
L 55.280677 95.204448 
L 54.43257 95.513189 
L 53.563873 95.829411 
L 52.672061 96.154035 
L 51.754076 96.488176 
L 50.806145 96.83321 
L 49.823506 97.190872 
L 48.799991 97.563407 
L 47.727329 97.953828 
L 46.593927 98.366355 
L 45.382535 98.807266 
L 44.065181 99.286744 
L 42.589858 99.823718 
L 40.831363 100.463758 
L 37.838068 101.553228 
" clip-path="url(#pd52b118d88)" style="fill: none; stroke: #1f77b4; stroke-width: 1.5; stroke-linecap: square"/>
   </g>
   <g id="line2d_17">
    <path d="M 100.284091 65.5 
L 99.689755 65.84314 
L 99.095473 66.186249 
L 98.501301 66.529294 
L 97.90729 66.872246 
L 97.313494 67.215075 
L 96.719963 67.55775 
L 96.126746 67.900244 
L 95.533889 68.24253 
L 94.941437 68.584583 
L 94.349429 68.926379 
L 93.757903 69.267897 
L 93.166894 69.609116 
L 92.576431 69.950019 
L 91.986541 70.290592 
L 91.397247 70.630822 
L 90.808565 70.970698 
L 90.220508 71.310212 
L 89.633086 71.649361 
L 89.0463 71.988141 
L 88.460151 72.326555 
L 87.874631 72.664605 
L 87.289729 73.002298 
L 86.705428 73.339645 
L 86.121706 73.676657 
L 85.538537 74.01335 
L 84.955888 74.349742 
L 84.373721 74.685856 
L 83.791994 75.021717 
L 83.210659 75.35735 
L 82.629663 75.692789 
L 82.048948 76.028065 
L 81.46845 76.363215 
L 80.613789 76.856654 
L 80.082205 77.163565 
L 79.54216 77.475359 
L 78.995035 77.791242 
L 78.441944 78.110569 
L 77.883787 78.432822 
L 77.404606 78.709477 
L 76.822926 79.04531 
L 76.240652 79.381486 
L 75.657665 79.718073 
L 75.073843 80.055144 
L 74.489053 80.392772 
L 73.90316 80.731037 
L 73.31602 81.070023 
L 72.727481 81.409816 
L 72.137385 81.750508 
L 71.545566 82.092195 
L 70.951848 82.434978 
L 70.356049 82.778963 
L 69.757974 83.124262 
L 69.157419 83.470992 
L 68.554171 83.819278 
L 67.948001 84.16925 
L 67.33867 84.521048 
L 66.725924 84.874817 
L 66.109491 85.230714 
L 65.489086 85.588905 
L 64.864403 85.949567 
L 64.235113 86.312887 
L 63.600867 86.679069 
L 62.961288 87.04833 
L 62.315971 87.420904 
L 61.664478 87.797044 
L 61.006331 88.177025 
L 60.341013 88.561147 
L 59.667958 88.949735 
L 58.986541 89.343151 
L 58.296076 89.741791 
L 57.5958 90.146096 
L 56.884859 90.556558 
L 56.162296 90.97373 
L 55.427027 91.398238 
L 54.677813 91.830797 
L 53.91323 92.272229 
L 53.13162 92.723492 
L 52.331032 93.185711 
L 51.50914 93.660231 
L 50.663124 94.148679 
L 49.789508 94.653061 
L 48.883905 95.175911 
L 47.94063 95.720511 
L 46.95206 96.291263 
L 45.907511 96.894333 
L 44.791087 97.538901 
L 43.577006 98.239851 
L 42.217342 99.024853 
L 40.596703 99.960529 
L 37.838068 101.553228 
" clip-path="url(#pd52b118d88)" style="fill: none; stroke: #1f77b4; stroke-width: 1.5; stroke-linecap: square"/>
   </g>
   <g id="line2d_18">
    <path d="M 95.019841 56.382051 
L 94.397533 56.744114 
L 93.777791 57.110231 
L 93.160767 57.480285 
L 92.546603 57.854145 
L 91.935427 58.231668 
L 91.327353 58.612704 
L 90.722481 58.997092 
L 90.120893 59.384668 
L 89.522656 59.775263 
L 88.927823 60.168705 
L 88.336426 60.564821 
L 87.748486 60.963441 
L 87.164007 61.364395 
L 86.582976 61.767519 
L 86.00537 62.172652 
L 85.43115 62.57964 
L 84.860265 62.988337 
L 84.292653 63.398601 
L 83.728241 63.810304 
L 83.166949 64.223322 
L 82.608684 64.637541 
L 82.053348 65.05286 
L 81.500837 65.469182 
L 80.951037 65.886424 
L 80.403832 66.304511 
L 79.859099 66.723376 
L 79.316713 67.142963 
L 78.776543 67.563226 
L 78.238455 67.984126 
L 77.702314 68.405634 
L 77.16798 68.827728 
L 76.635312 69.250396 
L 76.104166 69.673633 
L 75.574397 70.097443 
L 75.045859 70.521836 
L 74.518401 70.94683 
L 73.991874 71.372451 
L 73.466124 71.798732 
L 72.940998 72.22571 
L 72.416339 72.653433 
L 71.892199 73.081928 
L 71.367786 73.51133 
L 70.843568 73.941629 
L 70.31917 74.372924 
L 69.79442 74.805293 
L 69.269149 75.238822 
L 68.743178 75.673604 
L 68.216329 76.10974 
L 67.688415 76.547335 
L 67.159247 76.986506 
L 66.628628 77.427373 
L 66.096357 77.870068 
L 65.562223 78.31473 
L 65.02601 78.761507 
L 64.487489 79.210558 
L 63.946426 79.662051 
L 63.402574 80.116166 
L 62.855671 80.573095 
L 62.305446 81.033044 
L 61.751609 81.496234 
L 61.193854 81.962901 
L 60.631857 82.433298 
L 60.065269 82.9077 
L 59.493719 83.386404 
L 58.916807 83.869729 
L 58.334101 84.358025 
L 57.745132 84.851674 
L 57.149388 85.351092 
L 56.546312 85.856738 
L 55.935286 86.369119 
L 55.315629 86.888801 
L 54.686579 87.416413 
L 54.047284 87.952664 
L 53.396779 88.498357 
L 52.733965 89.054409 
L 52.057578 89.621876 
L 51.366146 90.201988 
L 50.657941 90.79619 
L 49.930903 91.40621 
L 49.182536 92.034137 
L 48.409762 92.682553 
L 47.608698 93.354713 
L 46.774316 94.054835 
L 45.899871 94.788577 
L 44.975911 95.563869 
L 43.988375 96.392509 
L 42.914457 97.293632 
L 41.711763 98.302812 
L 40.278224 99.505694 
L 37.838068 101.553228 
" clip-path="url(#pd52b118d88)" style="fill: none; stroke: #1f77b4; stroke-width: 1.5; stroke-linecap: square"/>
   </g>
   <g id="line2d_19">
    <path d="M 89.149553 46.214415 
L 88.405259 46.654115 
L 87.670809 47.107962 
L 86.947248 47.574958 
L 86.235433 48.053975 
L 85.536022 48.543799 
L 84.849463 49.04318 
L 84.176012 49.550868 
L 83.515739 50.06565 
L 82.86856 50.58638 
L 82.234257 51.111996 
L 81.612504 51.641534 
L 81.002896 52.17413 
L 80.404968 52.709024 
L 79.818213 53.245554 
L 79.242101 53.78315 
L 78.676091 54.32133 
L 78.119639 54.859688 
L 77.57221 55.397889 
L 77.033278 55.935658 
L 76.502332 56.472776 
L 75.978882 57.00907 
L 75.462456 57.544408 
L 74.952601 58.078695 
L 74.448888 58.611867 
L 73.950904 59.143887 
L 73.45826 59.674739 
L 72.970582 60.204429 
L 72.487517 60.732981 
L 72.008726 61.260431 
L 71.533889 61.78683 
L 71.062698 62.312242 
L 70.59486 62.836738 
L 70.130094 63.360399 
L 69.66813 63.883314 
L 69.208712 64.405578 
L 68.751589 64.927294 
L 68.296521 65.448571 
L 67.843276 65.969521 
L 67.391628 66.490262 
L 66.941358 67.010919 
L 66.492252 67.53162 
L 66.044101 68.052496 
L 65.596699 68.573687 
L 65.149841 69.095334 
L 64.703335 69.617582 
L 64.256975 70.140587 
L 63.810568 70.664504 
L 63.363915 71.189496 
L 62.91682 71.715733 
L 62.469085 72.24339 
L 62.02051 72.772648 
L 61.570892 73.303698 
L 61.120025 73.836737 
L 60.667699 74.371972 
L 60.213697 74.909619 
L 59.757799 75.449905 
L 59.299774 75.993068 
L 58.839384 76.53936 
L 58.376382 77.089048 
L 57.910508 77.642411 
L 57.441491 78.199751 
L 56.969041 78.761387 
L 56.492855 79.32766 
L 56.012609 79.898938 
L 55.527955 80.475615 
L 55.03852 81.058121 
L 54.543903 81.646919 
L 54.043665 82.242518 
L 53.53733 82.845473 
L 53.024373 83.456397 
L 52.504216 84.075971 
L 51.976215 84.704952 
L 51.439648 85.344191 
L 50.893702 85.994651 
L 50.33745 86.65743 
L 49.769826 87.33379 
L 49.189595 88.025201 
L 48.595303 88.73339 
L 47.985217 89.460416 
L 47.357242 90.208775 
L 46.708794 90.981544 
L 46.036613 91.782603 
L 45.336477 92.616983 
L 44.602727 93.491427 
L 43.827431 94.415386 
L 42.998789 95.402922 
L 42.097664 96.476839 
L 41.088484 97.679533 
L 39.885602 99.113072 
L 37.838068 101.553228 
" clip-path="url(#pd52b118d88)" style="fill: none; stroke: #1f77b4; stroke-width: 1.5; stroke-linecap: square"/>
   </g>
   <g id="line2d_20">
    <path d="M 79.46875 29.446772 
L 77.890242 32.180829 
L 76.962892 33.787046 
L 76.184857 35.134641 
L 75.490107 36.337984 
L 74.851211 37.444584 
L 74.253414 38.479999 
L 73.687615 39.459992 
L 73.147696 40.395159 
L 72.629291 41.293062 
L 72.129143 42.159344 
L 71.644736 42.998361 
L 71.174077 43.813567 
L 70.715546 44.607766 
L 70.267808 45.383271 
L 69.829739 46.142029 
L 69.400385 46.885691 
L 68.978925 47.615683 
L 68.564641 48.333243 
L 68.156907 49.03946 
L 67.755165 49.735297 
L 67.358919 50.421615 
L 66.967722 51.099188 
L 66.581171 51.768714 
L 66.198898 52.430829 
L 65.820568 53.086117 
L 65.445869 53.735114 
L 65.074518 54.378314 
L 64.706247 55.016177 
L 64.340809 55.649135 
L 63.977971 56.277589 
L 63.617514 56.901918 
L 63.259232 57.52248 
L 62.902928 58.139617 
L 62.548416 58.753651 
L 62.195515 59.364893 
L 61.844055 59.97364 
L 61.493869 60.58018 
L 61.144797 61.184789 
L 60.796685 61.787738 
L 60.449379 62.389289 
L 60.102732 62.989699 
L 59.756598 63.58922 
L 59.410834 64.188102 
L 59.065297 64.78659 
L 58.719845 65.384929 
L 58.374342 65.983359 
L 58.028643 66.582127 
L 57.682609 67.181476 
L 57.336097 67.781651 
L 56.988965 68.382903 
L 56.641065 68.985482 
L 56.292251 69.589646 
L 55.94237 70.195658 
L 55.591266 70.803787 
L 55.23878 71.41431 
L 54.884746 72.027516 
L 54.528991 72.643701 
L 54.171337 73.263177 
L 53.811596 73.886266 
L 53.449572 74.51331 
L 53.085058 75.144668 
L 52.717834 75.780718 
L 52.347667 76.421865 
L 51.97431 77.068539 
L 51.597495 77.721202 
L 51.216936 78.380349 
L 50.832323 79.046519 
L 50.443318 79.720296 
L 50.049552 80.402318 
L 49.65062 81.093288 
L 49.246074 81.793983 
L 48.835414 82.505266 
L 48.418082 83.228107 
L 47.993445 83.963599 
L 47.560785 84.712988 
L 47.119274 85.477709 
L 46.66795 86.259424 
L 46.205685 87.060091 
L 45.731131 87.882042 
L 45.24266 88.728099 
L 44.738261 89.601743 
L 44.2154 90.507366 
L 43.670793 91.450653 
L 43.100037 92.43923 
L 42.496965 93.483783 
L 41.852396 94.600209 
L 41.151446 95.81429 
L 40.366443 97.173954 
L 39.430767 98.794593 
L 37.838068 101.553228 
" clip-path="url(#pd52b118d88)" style="fill: none; stroke: #1f77b4; stroke-width: 1.5; stroke-linecap: square"/>
   </g>
   <g id="patch_3">
    <path d="M 33.675 116.2 
L 33.675 14.8 
" style="fill: none; stroke: #000000; stroke-width: 0.8; stroke-linejoin: miter; stroke-linecap: square"/>
   </g>
   <g id="patch_4">
    <path d="M 125.2625 116.2 
L 125.2625 14.8 
" style="fill: none; stroke: #000000; stroke-width: 0.8; stroke-linejoin: miter; stroke-linecap: square"/>
   </g>
   <g id="patch_5">
    <path d="M 33.675 116.2 
L 125.2625 116.2 
" style="fill: none; stroke: #000000; stroke-width: 0.8; stroke-linejoin: miter; stroke-linecap: square"/>
   </g>
   <g id="patch_6">
    <path d="M 33.675 14.8 
L 125.2625 14.8 
" style="fill: none; stroke: #000000; stroke-width: 0.8; stroke-linejoin: miter; stroke-linecap: square"/>
   </g>
  </g>
 </g>
 <defs>
  <clipPath id="pd52b118d88">
   <rect x="33.675" y="14.8" width="91.5875" height="101.4"/>
  </clipPath>
 </defs>
</svg>
