<?xml version="1.0" encoding="utf-8" standalone="no"?>
<!DOCTYPE svg PUBLIC "-//W3C//DTD SVG 1.1//EN"
  "http://www.w3.org/Graphics/SVG/1.1/DTD/svg11.dtd">
<svg height="246.958125pt" version="1.1" viewBox="0 0 231.84 246.958125" width="231.84pt" xmlns="http://www.w3.org/2000/svg" xmlns:xlink="http://www.w3.org/1999/xlink">
 <metadata>
  <rdf:RDF xmlns:cc="http://creativecommons.org/ns#" xmlns:dc="http://purl.org/dc/elements/1.1/" xmlns:rdf="http://www.w3.org/1999/02/22-rdf-syntax-ns#">
   <cc:Work>
    <dc:type rdf:resource="http://purl.org/dc/dcmitype/StillImage"/>
    <dc:date>2021-05-02T21:18:12.786238</dc:date>
    <dc:format>image/svg+xml</dc:format>
    <dc:creator>
     <cc:Agent>
      <dc:title>Matplotlib v3.4.1, https://matplotlib.org/</dc:title>
     </cc:Agent>
    </dc:creator>
   </cc:Work>
  </rdf:RDF>
 </metadata>
 <defs>
  <style type="text/css">*{stroke-linecap:butt;stroke-linejoin:round;}</style>
 </defs>
 <g id="figure_1">
  <g id="patch_1">
   <path d="M 0 246.958125 
L 231.84 246.958125 
L 231.84 0 
L 0 0 
z
" style="fill:#ffffff;"/>
  </g>
  <g id="axes_1">
   <g id="PathCollection_1">
    <defs>
     <path d="M 0 3 
C 0.795609 3 1.55874 2.683901 2.12132 2.12132 
C 2.683901 1.55874 3 0.795609 3 0 
C 3 -0.795609 2.683901 -1.55874 2.12132 -2.12132 
C 1.55874 -2.683901 0.795609 -3 0 -3 
C -0.795609 -3 -1.55874 -2.683901 -2.12132 -2.12132 
C -2.683901 -1.55874 -3 -0.795609 -3 0 
C -3 0.795609 -2.683901 1.55874 -2.12132 2.12132 
C -1.55874 2.683901 -0.795609 3 0 3 
z
" id="m802d1bbe31" style="stroke:#000000;"/>
    </defs>
    <g clip-path="url(#p0e5e7cc555)">
     <use style="stroke:#000000;" x="115.92" xlink:href="#m802d1bbe31" y="185.398125"/>
     <use style="stroke:#000000;" x="170.28" xlink:href="#m802d1bbe31" y="158.218125"/>
     <use style="stroke:#000000;" x="61.56" xlink:href="#m802d1bbe31" y="76.678125"/>
    </g>
   </g>
   <g id="patch_2">
    <path clip-path="url(#p0e5e7cc555)" d="M 115.92 239.758125 
C 144.752881 239.758125 172.408724 228.3027 192.796649 207.914774 
C 213.184575 187.526849 224.64 159.871006 224.64 131.038125 
C 224.64 102.205244 213.184575 74.549401 192.796649 54.161476 
C 172.408724 33.77355 144.752881 22.318125 115.92 22.318125 
C 87.087119 22.318125 59.431276 33.77355 39.043351 54.161476 
C 18.655425 74.549401 7.2 102.205244 7.2 131.038125 
C 7.2 159.871006 18.655425 187.526849 39.043351 207.914774 
C 59.431276 228.3027 87.087119 239.758125 115.92 239.758125 
z
" style="fill:none;stroke:#000000;stroke-linejoin:miter;"/>
   </g>
   <g id="line2d_1">
    <path clip-path="url(#p0e5e7cc555)" d="M 170.28 158.218125 
L 168.392478 156.50385 
L 166.464661 154.770019 
L 164.498031 153.017964 
L 162.494098 151.249031 
L 160.4544 149.464578 
L 158.380503 147.665975 
L 156.274001 145.854604 
L 154.136511 144.031854 
L 151.969674 142.199127 
L 149.775154 140.357829 
L 147.554637 138.509374 
L 145.309827 136.655183 
L 143.042448 134.796677 
L 140.754242 132.935286 
L 138.446966 131.072438 
L 136.122391 129.209563 
L 133.782302 127.348093 
L 131.428497 125.489456 
L 129.062782 123.63508 
L 126.686975 121.786389 
L 124.302901 119.944802 
L 121.912388 118.111734 
L 119.517275 116.288592 
L 117.119399 114.476777 
L 114.720601 112.677679 
L 112.322725 110.89268 
L 109.927612 109.123151 
L 107.537099 107.370451 
L 105.153025 105.635926 
L 102.777218 103.920906 
L 100.411503 102.226711 
L 98.057698 100.55464 
L 95.717609 98.905977 
L 93.393034 97.281989 
L 91.085758 95.683923 
L 88.797552 94.113005 
L 86.530173 92.570442 
L 84.285363 91.057419 
L 82.064846 89.575098 
L 79.870326 88.124616 
L 77.703489 86.707088 
L 75.565999 85.323602 
L 73.459497 83.97522 
L 71.3856 82.662979 
L 69.345902 81.387885 
L 67.341969 80.150918 
L 65.375339 78.953027 
L 63.447522 77.795133 
L 61.56 76.678125 
" style="fill:none;stroke:#000000;stroke-linecap:square;stroke-width:1.5;"/>
   </g>
   <g id="line2d_2">
    <path clip-path="url(#p0e5e7cc555)" d="M 61.56 76.678125 
L 62.093834 78.640143 
L 62.659948 80.633584 
L 63.258003 82.657253 
L 63.887639 84.709936 
L 64.548479 86.790403 
L 65.240127 88.897405 
L 65.962167 91.029679 
L 66.714168 93.185946 
L 67.495678 95.364914 
L 68.306228 97.565274 
L 69.145332 99.785709 
L 70.012487 102.024886 
L 70.907173 104.281462 
L 71.828853 106.554084 
L 72.776975 108.841389 
L 73.75097 111.142006 
L 74.750254 113.454555 
L 75.774228 115.777649 
L 76.822277 118.109894 
L 77.893774 120.449892 
L 78.988075 122.796241 
L 80.104524 125.147532 
L 81.242452 127.502355 
L 82.401176 129.8593 
L 83.580001 132.21695 
L 84.778221 134.573895 
L 85.995117 136.928718 
L 87.229959 139.280009 
L 88.482006 141.626358 
L 89.750509 143.966356 
L 91.034705 146.298601 
L 92.333824 148.621695 
L 93.647089 150.934244 
L 94.973711 153.234861 
L 96.312894 155.522166 
L 97.663836 157.794788 
L 99.025726 160.051364 
L 100.397748 162.290541 
L 101.779078 164.510976 
L 103.168889 166.711336 
L 104.566347 168.890304 
L 105.970614 171.046571 
L 107.380847 173.178845 
L 108.796201 175.285847 
L 110.215827 177.366314 
L 111.638875 179.418997 
L 113.064489 181.442666 
L 114.491816 183.436107 
L 115.92 185.398125 
" style="fill:none;stroke:#000000;stroke-linecap:square;stroke-width:1.5;"/>
   </g>
   <g id="line2d_3">
    <path clip-path="url(#p0e5e7cc555)" d="M 115.92 185.398125 
L 117.0913 184.992637 
L 118.262442 184.579903 
L 119.43327 184.15998 
L 120.603626 183.732922 
L 121.773353 183.298789 
L 122.942294 182.857637 
L 124.110292 182.409527 
L 125.27719 181.954518 
L 126.442832 181.492671 
L 127.60706 181.02405 
L 128.769719 180.548715 
L 129.930653 180.066732 
L 131.089705 179.578165 
L 132.24672 179.083079 
L 133.401542 178.581542 
L 134.554017 178.07362 
L 135.703989 177.559382 
L 136.851305 177.038897 
L 137.99581 176.512234 
L 139.13735 175.979464 
L 140.275773 175.44066 
L 141.410925 174.895892 
L 142.542654 174.345235 
L 143.670807 173.788763 
L 144.795234 173.226549 
L 145.915784 172.65867 
L 147.032305 172.085202 
L 148.144648 171.506222 
L 149.252664 170.921807 
L 150.356204 170.332037 
L 151.455119 169.73699 
L 152.549262 169.136746 
L 153.638487 168.531385 
L 154.722646 167.92099 
L 155.801595 167.305642 
L 156.875188 166.685424 
L 157.943281 166.060418 
L 159.005731 165.430709 
L 160.062394 164.796382 
L 161.113131 164.157522 
L 162.157798 163.514214 
L 163.196256 162.866545 
L 164.228365 162.214602 
L 165.253987 161.558472 
L 166.272984 160.898243 
L 167.28522 160.234005 
L 168.290557 159.565846 
L 169.288862 158.893856 
L 170.28 158.218125 
" style="fill:none;stroke:#000000;stroke-linecap:square;stroke-width:1.5;"/>
   </g>
   <g id="line2d_4">
    <path clip-path="url(#p0e5e7cc555)" d="M 115.92 185.398125 
L 115.826388 184.476627 
L 115.732785 183.549999 
L 115.6392 182.618331 
L 115.545642 181.681712 
L 115.45212 180.740231 
L 115.358643 179.793979 
L 115.265219 178.843048 
L 115.171859 177.887527 
L 115.07857 176.92751 
L 114.985362 175.963088 
L 114.892244 174.994353 
L 114.799225 174.021399 
L 114.706313 173.044319 
L 114.613517 172.063207 
L 114.520847 171.078157 
L 114.428312 170.089263 
L 114.335919 169.096622 
L 114.243679 168.100326 
L 114.151599 167.100474 
L 114.059689 166.097159 
L 113.967958 165.090479 
L 113.876414 164.080531 
L 113.785067 163.067411 
L 113.693924 162.051216 
L 113.602995 161.032045 
L 113.512288 160.009994 
L 113.421812 158.985163 
L 113.331577 157.957648 
L 113.241589 156.92755 
L 113.151859 155.894967 
L 113.062395 154.859998 
L 112.973205 153.822742 
L 112.884297 152.783299 
L 112.795681 151.741768 
L 112.707365 150.69825 
L 112.619358 149.652846 
L 112.531667 148.605654 
L 112.444301 147.556776 
L 112.357269 146.506312 
L 112.270579 145.454364 
L 112.18424 144.401032 
L 112.098258 143.346417 
L 112.012644 142.29062 
L 111.927405 141.233744 
L 111.842549 140.175889 
L 111.758085 139.117157 
L 111.67402 138.057649 
L 111.590362 136.997467 
L 111.50712 135.936714 
" style="fill:none;stroke:#0000ff;stroke-linecap:square;stroke-width:1.5;"/>
   </g>
   <g id="line2d_5">
    <path clip-path="url(#p0e5e7cc555)" d="M 170.28 158.218125 
L 169.212479 157.838819 
L 168.136649 157.455334 
L 167.052678 157.067731 
L 165.960736 156.676069 
L 164.860992 156.280411 
L 163.753618 155.880817 
L 162.638786 155.47735 
L 161.51667 155.070073 
L 160.387446 154.659049 
L 159.251289 154.244342 
L 158.108377 153.826018 
L 156.958887 153.40414 
L 155.802999 152.978776 
L 154.640893 152.549991 
L 153.47275 152.117853 
L 152.298753 151.682427 
L 151.119084 151.243784 
L 149.933927 150.80199 
L 148.743467 150.357115 
L 147.54789 149.909228 
L 146.347382 149.458398 
L 145.14213 149.004697 
L 143.932323 148.548195 
L 142.718148 148.088963 
L 141.499795 147.627073 
L 140.277454 147.162597 
L 139.051316 146.695606 
L 137.821571 146.226175 
L 136.588412 145.754375 
L 135.35203 145.280281 
L 134.112619 144.803967 
L 132.870372 144.325507 
L 131.625481 143.844975 
L 130.378143 143.362446 
L 129.12855 142.877996 
L 127.876898 142.3917 
L 126.623382 141.903634 
L 125.368197 141.413874 
L 124.111539 140.922496 
L 122.853604 140.429578 
L 121.594588 139.935195 
L 120.334687 139.439425 
L 119.074098 138.942345 
L 117.813018 138.444033 
L 116.551642 137.944567 
L 115.290168 137.444023 
L 114.028791 136.942481 
L 112.76771 136.440018 
L 111.50712 135.936714 
" style="fill:none;stroke:#0000ff;stroke-linecap:square;stroke-width:1.5;"/>
   </g>
   <g id="line2d_6">
    <path clip-path="url(#p0e5e7cc555)" d="M 61.56 76.678125 
L 62.335013 77.664488 
L 63.123967 78.664737 
L 63.926658 79.678613 
L 64.742877 80.705851 
L 65.572411 81.746186 
L 66.415044 82.799345 
L 67.270558 83.865055 
L 68.13873 84.943038 
L 69.019333 86.033015 
L 69.912139 87.134701 
L 70.816915 88.24781 
L 71.733427 89.372052 
L 72.661434 90.507134 
L 73.600697 91.652763 
L 74.550971 92.808638 
L 75.512008 93.97446 
L 76.483558 95.149926 
L 77.465369 96.334729 
L 78.457186 97.528561 
L 79.458749 98.731111 
L 80.469799 99.942068 
L 81.490072 101.161115 
L 82.519304 102.387935 
L 83.557225 103.62221 
L 84.603567 104.863617 
L 85.658057 106.111835 
L 86.72042 107.366538 
L 87.790381 108.6274 
L 88.86766 109.894093 
L 89.951978 111.166288 
L 91.043053 112.443652 
L 92.140599 113.725855 
L 93.244333 115.012561 
L 94.353967 116.303438 
L 95.469211 117.598148 
L 96.589777 118.896355 
L 97.715372 120.19772 
L 98.845703 121.501907 
L 99.980477 122.808574 
L 101.119398 124.117383 
L 102.26217 125.427992 
L 103.408495 126.740061 
L 104.558075 128.053249 
L 105.710612 129.367212 
L 106.865805 130.681611 
L 108.023354 131.996102 
L 109.182957 133.310345 
L 110.344314 134.623996 
L 111.50712 135.936714 
" style="fill:none;stroke:#0000ff;stroke-linecap:square;stroke-width:1.5;"/>
   </g>
   <g id="text_1">
    <!-- centroid (area) -->
    <g transform="translate(71.329688 16.318125)scale(0.12 -0.12)">
     <defs>
      <path d="M 3122 3366 
L 3122 2828 
Q 2878 2963 2633 3030 
Q 2388 3097 2138 3097 
Q 1578 3097 1268 2742 
Q 959 2388 959 1747 
Q 959 1106 1268 751 
Q 1578 397 2138 397 
Q 2388 397 2633 464 
Q 2878 531 3122 666 
L 3122 134 
Q 2881 22 2623 -34 
Q 2366 -91 2075 -91 
Q 1284 -91 818 406 
Q 353 903 353 1747 
Q 353 2603 823 3093 
Q 1294 3584 2113 3584 
Q 2378 3584 2631 3529 
Q 2884 3475 3122 3366 
z
" id="DejaVuSans-63" transform="scale(0.015625)"/>
      <path d="M 3597 1894 
L 3597 1613 
L 953 1613 
Q 991 1019 1311 708 
Q 1631 397 2203 397 
Q 2534 397 2845 478 
Q 3156 559 3463 722 
L 3463 178 
Q 3153 47 2828 -22 
Q 2503 -91 2169 -91 
Q 1331 -91 842 396 
Q 353 884 353 1716 
Q 353 2575 817 3079 
Q 1281 3584 2069 3584 
Q 2775 3584 3186 3129 
Q 3597 2675 3597 1894 
z
M 3022 2063 
Q 3016 2534 2758 2815 
Q 2500 3097 2075 3097 
Q 1594 3097 1305 2825 
Q 1016 2553 972 2059 
L 3022 2063 
z
" id="DejaVuSans-65" transform="scale(0.015625)"/>
      <path d="M 3513 2113 
L 3513 0 
L 2938 0 
L 2938 2094 
Q 2938 2591 2744 2837 
Q 2550 3084 2163 3084 
Q 1697 3084 1428 2787 
Q 1159 2491 1159 1978 
L 1159 0 
L 581 0 
L 581 3500 
L 1159 3500 
L 1159 2956 
Q 1366 3272 1645 3428 
Q 1925 3584 2291 3584 
Q 2894 3584 3203 3211 
Q 3513 2838 3513 2113 
z
" id="DejaVuSans-6e" transform="scale(0.015625)"/>
      <path d="M 1172 4494 
L 1172 3500 
L 2356 3500 
L 2356 3053 
L 1172 3053 
L 1172 1153 
Q 1172 725 1289 603 
Q 1406 481 1766 481 
L 2356 481 
L 2356 0 
L 1766 0 
Q 1100 0 847 248 
Q 594 497 594 1153 
L 594 3053 
L 172 3053 
L 172 3500 
L 594 3500 
L 594 4494 
L 1172 4494 
z
" id="DejaVuSans-74" transform="scale(0.015625)"/>
      <path d="M 2631 2963 
Q 2534 3019 2420 3045 
Q 2306 3072 2169 3072 
Q 1681 3072 1420 2755 
Q 1159 2438 1159 1844 
L 1159 0 
L 581 0 
L 581 3500 
L 1159 3500 
L 1159 2956 
Q 1341 3275 1631 3429 
Q 1922 3584 2338 3584 
Q 2397 3584 2469 3576 
Q 2541 3569 2628 3553 
L 2631 2963 
z
" id="DejaVuSans-72" transform="scale(0.015625)"/>
      <path d="M 1959 3097 
Q 1497 3097 1228 2736 
Q 959 2375 959 1747 
Q 959 1119 1226 758 
Q 1494 397 1959 397 
Q 2419 397 2687 759 
Q 2956 1122 2956 1747 
Q 2956 2369 2687 2733 
Q 2419 3097 1959 3097 
z
M 1959 3584 
Q 2709 3584 3137 3096 
Q 3566 2609 3566 1747 
Q 3566 888 3137 398 
Q 2709 -91 1959 -91 
Q 1206 -91 779 398 
Q 353 888 353 1747 
Q 353 2609 779 3096 
Q 1206 3584 1959 3584 
z
" id="DejaVuSans-6f" transform="scale(0.015625)"/>
      <path d="M 603 3500 
L 1178 3500 
L 1178 0 
L 603 0 
L 603 3500 
z
M 603 4863 
L 1178 4863 
L 1178 4134 
L 603 4134 
L 603 4863 
z
" id="DejaVuSans-69" transform="scale(0.015625)"/>
      <path d="M 2906 2969 
L 2906 4863 
L 3481 4863 
L 3481 0 
L 2906 0 
L 2906 525 
Q 2725 213 2448 61 
Q 2172 -91 1784 -91 
Q 1150 -91 751 415 
Q 353 922 353 1747 
Q 353 2572 751 3078 
Q 1150 3584 1784 3584 
Q 2172 3584 2448 3432 
Q 2725 3281 2906 2969 
z
M 947 1747 
Q 947 1113 1208 752 
Q 1469 391 1925 391 
Q 2381 391 2643 752 
Q 2906 1113 2906 1747 
Q 2906 2381 2643 2742 
Q 2381 3103 1925 3103 
Q 1469 3103 1208 2742 
Q 947 2381 947 1747 
z
" id="DejaVuSans-64" transform="scale(0.015625)"/>
      <path id="DejaVuSans-20" transform="scale(0.015625)"/>
      <path d="M 1984 4856 
Q 1566 4138 1362 3434 
Q 1159 2731 1159 2009 
Q 1159 1288 1364 580 
Q 1569 -128 1984 -844 
L 1484 -844 
Q 1016 -109 783 600 
Q 550 1309 550 2009 
Q 550 2706 781 3412 
Q 1013 4119 1484 4856 
L 1984 4856 
z
" id="DejaVuSans-28" transform="scale(0.015625)"/>
      <path d="M 2194 1759 
Q 1497 1759 1228 1600 
Q 959 1441 959 1056 
Q 959 750 1161 570 
Q 1363 391 1709 391 
Q 2188 391 2477 730 
Q 2766 1069 2766 1631 
L 2766 1759 
L 2194 1759 
z
M 3341 1997 
L 3341 0 
L 2766 0 
L 2766 531 
Q 2569 213 2275 61 
Q 1981 -91 1556 -91 
Q 1019 -91 701 211 
Q 384 513 384 1019 
Q 384 1609 779 1909 
Q 1175 2209 1959 2209 
L 2766 2209 
L 2766 2266 
Q 2766 2663 2505 2880 
Q 2244 3097 1772 3097 
Q 1472 3097 1187 3025 
Q 903 2953 641 2809 
L 641 3341 
Q 956 3463 1253 3523 
Q 1550 3584 1831 3584 
Q 2591 3584 2966 3190 
Q 3341 2797 3341 1997 
z
" id="DejaVuSans-61" transform="scale(0.015625)"/>
      <path d="M 513 4856 
L 1013 4856 
Q 1481 4119 1714 3412 
Q 1947 2706 1947 2009 
Q 1947 1309 1714 600 
Q 1481 -109 1013 -844 
L 513 -844 
Q 928 -128 1133 580 
Q 1338 1288 1338 2009 
Q 1338 2731 1133 3434 
Q 928 4138 513 4856 
z
" id="DejaVuSans-29" transform="scale(0.015625)"/>
     </defs>
     <use xlink:href="#DejaVuSans-63"/>
     <use x="54.980469" xlink:href="#DejaVuSans-65"/>
     <use x="116.503906" xlink:href="#DejaVuSans-6e"/>
     <use x="179.882812" xlink:href="#DejaVuSans-74"/>
     <use x="219.091797" xlink:href="#DejaVuSans-72"/>
     <use x="257.955078" xlink:href="#DejaVuSans-6f"/>
     <use x="319.136719" xlink:href="#DejaVuSans-69"/>
     <use x="346.919922" xlink:href="#DejaVuSans-64"/>
     <use x="410.396484" xlink:href="#DejaVuSans-20"/>
     <use x="442.183594" xlink:href="#DejaVuSans-28"/>
     <use x="481.197266" xlink:href="#DejaVuSans-61"/>
     <use x="542.476562" xlink:href="#DejaVuSans-72"/>
     <use x="581.339844" xlink:href="#DejaVuSans-65"/>
     <use x="642.863281" xlink:href="#DejaVuSans-61"/>
     <use x="704.142578" xlink:href="#DejaVuSans-29"/>
    </g>
   </g>
   <g id="PathCollection_2">
    <defs>
     <path d="M 0 3 
C 0.795609 3 1.55874 2.683901 2.12132 2.12132 
C 2.683901 1.55874 3 0.795609 3 0 
C 3 -0.795609 2.683901 -1.55874 2.12132 -2.12132 
C 1.55874 -2.683901 0.795609 -3 0 -3 
C -0.795609 -3 -1.55874 -2.683901 -2.12132 -2.12132 
C -2.683901 -1.55874 -3 -0.795609 -3 0 
C -3 0.795609 -2.683901 1.55874 -2.12132 2.12132 
C -1.55874 2.683901 -0.795609 3 0 3 
z
" id="mc702f8c2bd" style="stroke:#ff0000;"/>
    </defs>
    <g clip-path="url(#p0e5e7cc555)">
     <use style="fill:#ff0000;stroke:#ff0000;" x="111.50712" xlink:href="#mc702f8c2bd" y="135.936714"/>
    </g>
   </g>
  </g>
 </g>
 <defs>
  <clipPath id="p0e5e7cc555">
   <rect height="217.44" width="217.44" x="7.2" y="22.318125"/>
  </clipPath>
 </defs>
</svg>
