<?xml version="1.0" encoding="utf-8" standalone="no"?>
<!DOCTYPE svg PUBLIC "-//W3C//DTD SVG 1.1//EN"
  "http://www.w3.org/Graphics/SVG/1.1/DTD/svg11.dtd">
<svg height="231.84pt" version="1.1" viewBox="0 0 231.84 231.84" width="231.84pt" xmlns="http://www.w3.org/2000/svg" xmlns:xlink="http://www.w3.org/1999/xlink">
 <metadata>
  <rdf:RDF xmlns:cc="http://creativecommons.org/ns#" xmlns:dc="http://purl.org/dc/elements/1.1/" xmlns:rdf="http://www.w3.org/1999/02/22-rdf-syntax-ns#">
   <cc:Work>
    <dc:type rdf:resource="http://purl.org/dc/dcmitype/StillImage"/>
    <dc:date>2021-05-03T20:54:11.305259</dc:date>
    <dc:format>image/svg+xml</dc:format>
    <dc:creator>
     <cc:Agent>
      <dc:title>Matplotlib v3.4.1, https://matplotlib.org/</dc:title>
     </cc:Agent>
    </dc:creator>
   </cc:Work>
  </rdf:RDF>
 </metadata>
 <defs>
  <style type="text/css">*{stroke-linecap:butt;stroke-linejoin:round;}</style>
 </defs>
 <g id="figure_1">
  <g id="patch_1">
   <path d="M 0 231.84 
L 231.84 231.84 
L 231.84 0 
L 0 0 
z
" style="fill:#ffffff;"/>
  </g>
  <g id="axes_1">
   <g id="PathCollection_1">
    <defs>
     <path d="M 0 3 
C 0.795609 3 1.55874 2.683901 2.12132 2.12132 
C 2.683901 1.55874 3 0.795609 3 0 
C 3 -0.795609 2.683901 -1.55874 2.12132 -2.12132 
C 1.55874 -2.683901 0.795609 -3 0 -3 
C -0.795609 -3 -1.55874 -2.683901 -2.12132 -2.12132 
C -2.683901 -1.55874 -3 -0.795609 -3 0 
C -3 0.795609 -2.683901 1.55874 -2.12132 2.12132 
C -1.55874 2.683901 -0.795609 3 0 3 
z
" id="m1f9fbef1c4" style="stroke:#ff0000;"/>
    </defs>
    <g clip-path="url(#p790a617a4e)">
     <use style="fill:#ff0000;stroke:#ff0000;" x="61.56" xlink:href="#m1f9fbef1c4" y="88.74"/>
    </g>
   </g>
   <g id="PathCollection_2">
    <defs>
     <path d="M 0 3 
C 0.795609 3 1.55874 2.683901 2.12132 2.12132 
C 2.683901 1.55874 3 0.795609 3 0 
C 3 -0.795609 2.683901 -1.55874 2.12132 -2.12132 
C 1.55874 -2.683901 0.795609 -3 0 -3 
C -0.795609 -3 -1.55874 -2.683901 -2.12132 -2.12132 
C -2.683901 -1.55874 -3 -0.795609 -3 0 
C -3 0.795609 -2.683901 1.55874 -2.12132 2.12132 
C -1.55874 2.683901 -0.795609 3 0 3 
z
" id="m1f3fa0b886" style="stroke:#0000ff;"/>
    </defs>
    <g clip-path="url(#p790a617a4e)">
     <use style="fill:#0000ff;stroke:#0000ff;" x="170.28" xlink:href="#m1f3fa0b886" y="143.1"/>
    </g>
   </g>
   <g id="patch_2">
    <path clip-path="url(#p790a617a4e)" d="M 115.92 224.64 
C 144.752881 224.64 172.408724 213.184575 192.796649 192.796649 
C 213.184575 172.408724 224.64 144.752881 224.64 115.92 
C 224.64 87.087119 213.184575 59.431276 192.796649 39.043351 
C 172.408724 18.655425 144.752881 7.2 115.92 7.2 
C 87.087119 7.2 59.431276 18.655425 39.043351 39.043351 
C 18.655425 59.431276 7.2 87.087119 7.2 115.92 
C 7.2 144.752881 18.655425 172.408724 39.043351 192.796649 
C 59.431276 213.184575 87.087119 224.64 115.92 224.64 
z
" style="fill:none;stroke:#000000;stroke-linejoin:miter;"/>
   </g>
   <g id="line2d_1">
    <path clip-path="url(#p790a617a4e)" d="M 109.157314 112.538657 
L 110.759095 109.088215 
L 112.155526 105.555926 
L 113.339765 101.959094 
L 114.306011 98.31534 
L 115.04953 94.642516 
L 115.566679 90.958614 
L 115.854925 87.281683 
L 115.912856 83.629736 
L 115.740187 80.020664 
L 115.337766 76.472148 
L 114.707562 73.001573 
L 113.852665 69.625941 
L 112.777261 66.36179 
L 111.48662 63.225111 
L 109.987064 60.23127 
L 108.28594 57.394936 
L 106.391581 54.730002 
L 104.313269 52.249526 
L 102.061185 49.965658 
L 99.646362 47.889588 
L 97.08063 46.031487 
L 94.37656 44.400457 
L 91.547398 43.004489 
L 88.607006 41.850422 
L 85.569787 40.94391 
L 82.450623 40.289394 
L 79.264792 39.890081 
L 76.027904 39.747926 
L 72.755816 39.863626 
L 69.464559 40.236614 
L 66.170255 40.865063 
L 62.889045 41.745895 
L 59.637002 42.874793 
L 56.43006 44.246228 
L 53.283929 45.85348 
L 50.214023 47.688676 
L 47.23538 49.742825 
L 44.362594 52.005863 
L 41.609738 54.466704 
L 38.990299 57.113291 
L 36.51711 59.93266 
L 34.202287 62.910997 
L 32.05717 66.033712 
L 30.092269 69.285506 
L 28.31721 72.650449 
L 26.740689 76.112055 
L 25.370429 79.653366 
L 24.213143 83.257033 
L 23.274501 86.9054 
L 22.559102 90.580595 
L 22.07045 94.264613 
L 21.81094 97.939404 
L 21.781842 101.586967 
L 21.983299 105.189431 
L 22.414324 108.729148 
L 23.072805 112.188776 
L 23.955518 115.551367 
L 25.058136 118.800446 
L 26.375259 121.920098 
L 27.900433 124.895037 
L 29.626187 127.710689 
L 31.544066 130.353262 
L 33.644675 132.809808 
L 35.917722 135.068292 
L 38.352071 137.117651 
L 40.935797 138.947843 
L 43.656241 140.549904 
L 46.500076 141.915985 
L 49.45337 143.039392 
L 52.501655 143.914622 
L 55.629996 144.537388 
L 58.823068 144.904638 
L 62.065227 145.014573 
L 65.340591 144.866655 
L 68.633112 144.461608 
L 71.926661 143.801417 
L 75.205102 142.889316 
L 78.452374 141.729774 
L 81.652569 140.32847 
L 84.790008 138.692271 
L 87.84932 136.829192 
L 90.815519 134.74836 
L 93.674072 132.45997 
L 96.410976 129.975232 
L 99.012821 127.30632 
L 101.466862 124.466309 
L 103.761075 121.469111 
L 105.884222 118.329411 
L 107.825901 115.06259 
L 109.157314 112.538657 
L 109.157314 112.538657 
" style="fill:none;stroke:#ff0000;stroke-linecap:square;stroke-width:1.5;"/>
   </g>
   <g id="line2d_2">
    <path clip-path="url(#p790a617a4e)" d="M 208.396378 162.158189 
L 210.368688 157.909581 
L 212.088146 153.560192 
L 213.546326 149.13133 
L 214.736087 144.644693 
L 215.651599 140.12226 
L 216.288376 135.586187 
L 216.6433 131.058697 
L 216.714632 126.561971 
L 216.502021 122.118038 
L 216.00651 117.748669 
L 215.230526 113.47527 
L 214.177871 109.318777 
L 213.209867 106.290401 
L 212.091776 103.347599 
L 210.826681 100.498482 
L 209.418068 97.750904 
L 207.869821 95.112436 
L 206.186206 92.590352 
L 204.371863 90.191602 
L 202.431794 87.922798 
L 200.371346 85.790194 
L 198.196198 83.799667 
L 195.912344 81.956704 
L 193.52608 80.266384 
L 191.043983 78.733367 
L 188.472894 77.361876 
L 185.8199 76.155694 
L 183.092312 75.118144 
L 180.297649 74.252085 
L 177.443613 73.559905 
L 174.538071 73.043513 
L 171.58903 72.70433 
L 168.60462 72.543292 
L 165.593065 72.560842 
L 162.562667 72.756933 
L 159.521777 73.131024 
L 156.478778 73.682084 
L 153.442056 74.408593 
L 150.419981 75.30855 
L 147.420882 76.379475 
L 144.453026 77.618414 
L 140.558608 79.525723 
L 136.753342 81.716259 
L 133.05587 84.17929 
L 129.484305 86.90275 
L 126.056146 89.873296 
L 122.788186 93.076376 
L 119.696437 96.496297 
L 116.796045 100.116305 
L 114.101219 103.918665 
L 111.62516 107.88475 
L 109.38 111.995128 
L 107.376738 116.229664 
L 105.625188 120.567611 
L 104.13393 124.987719 
L 102.910271 129.468332 
L 101.960205 133.987499 
L 101.288387 138.523082 
L 100.898108 143.052859 
L 100.79128 147.55464 
L 100.968426 152.006369 
L 101.428679 156.386238 
L 102.169783 160.672788 
L 103.188109 164.845021 
L 104.130829 167.886854 
L 105.224108 170.844489 
L 106.464934 173.709772 
L 107.849886 176.474807 
L 109.375147 179.131974 
L 111.036513 181.673947 
L 112.829405 184.093721 
L 114.748882 186.384626 
L 116.789652 188.540349 
L 118.946092 190.554947 
L 121.212257 192.422868 
L 123.581902 194.138964 
L 126.048495 195.698504 
L 128.605238 197.09719 
L 131.245083 198.331167 
L 133.960756 199.397034 
L 136.74477 200.291853 
L 139.589452 201.013158 
L 142.486963 201.55896 
L 145.429315 201.927756 
L 148.408399 202.118529 
L 151.416005 202.130753 
L 154.443841 201.964395 
L 157.483564 201.619912 
L 160.526794 201.098255 
L 163.565145 200.400861 
L 166.590241 199.529653 
L 169.593745 198.487031 
L 172.567378 197.275869 
L 176.471606 195.404649 
L 180.289046 193.248958 
L 184.000995 190.819356 
L 187.589269 188.127745 
L 191.036287 185.187313 
L 194.325164 182.012464 
L 197.439786 178.618753 
L 200.364895 175.022806 
L 203.08616 171.242238 
L 205.590251 167.295572 
L 207.864898 163.202143 
L 208.396378 162.158189 
L 208.396378 162.158189 
" style="fill:none;stroke:#0000ff;stroke-linecap:square;stroke-width:1.5;"/>
   </g>
   <g id="PathCollection_3">
    <defs>
     <path d="M 0 3 
C 0.795609 3 1.55874 2.683901 2.12132 2.12132 
C 2.683901 1.55874 3 0.795609 3 0 
C 3 -0.795609 2.683901 -1.55874 2.12132 -2.12132 
C 1.55874 -2.683901 0.795609 -3 0 -3 
C -0.795609 -3 -1.55874 -2.683901 -2.12132 -2.12132 
C -2.683901 -1.55874 -3 -0.795609 -3 0 
C -3 0.795609 -2.683901 1.55874 -2.12132 2.12132 
C -1.55874 2.683901 -0.795609 3 0 3 
z
" id="m0b8dedb497" style="stroke:#000000;"/>
    </defs>
    <g clip-path="url(#p790a617a4e)">
     <use style="stroke:#000000;" x="109.95059" xlink:href="#m0b8dedb497" y="110.895314"/>
     <use style="stroke:#000000;" x="108.318605" xlink:href="#m0b8dedb497" y="114.159284"/>
    </g>
   </g>
  </g>
 </g>
 <defs>
  <clipPath id="p790a617a4e">
   <rect height="217.44" width="217.44" x="7.2" y="7.2"/>
  </clipPath>
 </defs>
</svg>
