<?xml version="1.0" encoding="utf-8" standalone="no"?>
<!DOCTYPE svg PUBLIC "-//W3C//DTD SVG 1.1//EN"
  "http://www.w3.org/Graphics/SVG/1.1/DTD/svg11.dtd">
<svg xmlns:xlink="http://www.w3.org/1999/xlink" width="231.84pt" height="231.84pt" viewBox="0 0 231.84 231.84" xmlns="http://www.w3.org/2000/svg" version="1.1">
 <metadata>
  <rdf:RDF xmlns:dc="http://purl.org/dc/elements/1.1/" xmlns:cc="http://creativecommons.org/ns#" xmlns:rdf="http://www.w3.org/1999/02/22-rdf-syntax-ns#">
   <cc:Work>
    <dc:type rdf:resource="http://purl.org/dc/dcmitype/StillImage"/>
    <dc:date>2022-07-23T16:12:58.614193</dc:date>
    <dc:format>image/svg+xml</dc:format>
    <dc:creator>
     <cc:Agent>
      <dc:title>Matplotlib v3.5.2, https://matplotlib.org/</dc:title>
     </cc:Agent>
    </dc:creator>
   </cc:Work>
  </rdf:RDF>
 </metadata>
 <defs>
  <style type="text/css">*{stroke-linejoin: round; stroke-linecap: butt}</style>
 </defs>
 <g id="figure_1">
  <g id="patch_1">
   <path d="M 0 231.84 
L 231.84 231.84 
L 231.84 0 
L 0 0 
z
" style="fill: #ffffff"/>
  </g>
  <g id="axes_1">
   <g id="patch_2">
    <path d="M 115.92 224.64 
C 144.752881 224.64 172.408724 213.184575 192.796649 192.796649 
C 213.184575 172.408724 224.64 144.752881 224.64 115.92 
C 224.64 87.087119 213.184575 59.431276 192.796649 39.043351 
C 172.408724 18.655425 144.752881 7.2 115.92 7.2 
C 87.087119 7.2 59.431276 18.655425 39.043351 39.043351 
C 18.655425 59.431276 7.2 87.087119 7.2 115.92 
C 7.2 144.752881 18.655425 172.408724 39.043351 192.796649 
C 59.431276 213.184575 87.087119 224.64 115.92 224.64 
L 115.92 224.64 
z
" clip-path="url(#p17dde7d527)" style="fill: none; stroke: #000000; stroke-linejoin: miter"/>
   </g>
   <g id="PathCollection_1">
    <defs>
     <path id="mcf0ddc5f3e" d="M 0 3 
C 0.795609 3 1.55874 2.683901 2.12132 2.12132 
C 2.683901 1.55874 3 0.795609 3 0 
C 3 -0.795609 2.683901 -1.55874 2.12132 -2.12132 
C 1.55874 -2.683901 0.795609 -3 0 -3 
C -0.795609 -3 -1.55874 -2.683901 -2.12132 -2.12132 
C -2.683901 -1.55874 -3 -0.795609 -3 0 
C -3 0.795609 -2.683901 1.55874 -2.12132 2.12132 
C -1.55874 2.683901 -0.795609 3 0 3 
z
" style="stroke: #ff0000"/>
    </defs>
    <g clip-path="url(#p17dde7d527)">
     <use xlink:href="#mcf0ddc5f3e" x="61.56" y="88.74" style="fill: #ff0000; stroke: #ff0000"/>
    </g>
   </g>
   <g id="PathCollection_2">
    <defs>
     <path id="m5c6259c0d7" d="M 0 3 
C 0.795609 3 1.55874 2.683901 2.12132 2.12132 
C 2.683901 1.55874 3 0.795609 3 0 
C 3 -0.795609 2.683901 -1.55874 2.12132 -2.12132 
C 1.55874 -2.683901 0.795609 -3 0 -3 
C -0.795609 -3 -1.55874 -2.683901 -2.12132 -2.12132 
C -2.683901 -1.55874 -3 -0.795609 -3 0 
C -3 0.795609 -2.683901 1.55874 -2.12132 2.12132 
C -1.55874 2.683901 -0.795609 3 0 3 
z
" style="stroke: #0000ff"/>
    </defs>
    <g clip-path="url(#p17dde7d527)">
     <use xlink:href="#m5c6259c0d7" x="170.28" y="143.1" style="fill: #0000ff; stroke: #0000ff"/>
    </g>
   </g>
   <g id="line2d_1">
    <path d="M 109.157314 112.538657 
L 110.759095 109.088215 
L 112.155526 105.555926 
L 113.339765 101.959094 
L 114.306011 98.31534 
L 115.04953 94.642516 
L 115.566679 90.958614 
L 115.854925 87.281683 
L 115.912856 83.629736 
L 115.740187 80.020664 
L 115.337766 76.472148 
L 114.707562 73.001573 
L 113.852665 69.625941 
L 112.777261 66.36179 
L 111.48662 63.225111 
L 109.987064 60.23127 
L 108.28594 57.394936 
L 106.391581 54.730002 
L 104.313269 52.249526 
L 102.061185 49.965658 
L 99.646362 47.889588 
L 97.08063 46.031487 
L 94.37656 44.400457 
L 91.547398 43.004489 
L 88.607006 41.850422 
L 85.569787 40.94391 
L 82.450623 40.289394 
L 79.264792 39.890081 
L 76.027904 39.747926 
L 72.755816 39.863626 
L 69.464559 40.236614 
L 66.170255 40.865063 
L 62.889045 41.745895 
L 59.637002 42.874793 
L 56.43006 44.246228 
L 53.283929 45.85348 
L 50.214023 47.688676 
L 47.23538 49.742825 
L 44.362594 52.005863 
L 41.609738 54.466704 
L 38.990299 57.113291 
L 36.51711 59.93266 
L 34.202287 62.910997 
L 32.05717 66.033712 
L 30.092269 69.285506 
L 28.31721 72.650449 
L 26.740689 76.112055 
L 25.370429 79.653366 
L 24.213143 83.257033 
L 23.274501 86.9054 
L 22.559102 90.580595 
L 22.07045 94.264613 
L 21.81094 97.939404 
L 21.781842 101.586967 
L 21.983299 105.189431 
L 22.414324 108.729148 
L 23.072805 112.188776 
L 23.955518 115.551367 
L 25.058136 118.800446 
L 26.375259 121.920098 
L 27.900433 124.895037 
L 29.626187 127.710689 
L 31.544066 130.353262 
L 33.644675 132.809808 
L 35.917722 135.068292 
L 38.352071 137.117651 
L 40.935797 138.947843 
L 43.656241 140.549904 
L 46.500076 141.915985 
L 49.45337 143.039392 
L 52.501655 143.914622 
L 55.629996 144.537388 
L 58.823068 144.904638 
L 62.065227 145.014573 
L 65.340591 144.866655 
L 68.633112 144.461608 
L 71.926661 143.801417 
L 75.205102 142.889316 
L 78.452374 141.729774 
L 81.652569 140.32847 
L 84.790008 138.692271 
L 87.84932 136.829192 
L 90.815519 134.74836 
L 93.674072 132.45997 
L 96.410976 129.975232 
L 99.012821 127.30632 
L 101.466862 124.466309 
L 103.761075 121.469111 
L 105.884222 118.329411 
L 107.825901 115.06259 
L 109.157314 112.538657 
L 109.157314 112.538657 
" clip-path="url(#p17dde7d527)" style="fill: none; stroke: #ff0000; stroke-width: 1.5; stroke-linecap: square"/>
   </g>
   <g id="line2d_2">
    <path d="M 208.385876 162.152938 
L 210.357305 157.906229 
L 212.075994 153.558783 
L 213.533524 149.1319 
L 214.722753 144.647268 
L 215.637855 140.126855 
L 216.274348 135.59281 
L 216.629113 131.067343 
L 216.700413 126.572626 
L 216.487897 122.130679 
L 215.992608 117.763262 
L 215.216971 113.491773 
L 214.164786 109.337138 
L 213.197214 106.310114 
L 212.079623 103.368627 
L 210.815093 100.520784 
L 209.40711 97.774433 
L 207.859554 95.137144 
L 206.176691 92.616187 
L 204.36316 90.218509 
L 202.423958 87.950719 
L 200.36443 85.819068 
L 198.190254 83.82943 
L 195.907421 81.987291 
L 193.522223 80.297726 
L 191.041235 78.765394 
L 188.471295 77.394516 
L 185.819486 76.188873 
L 183.093117 75.151786 
L 180.299703 74.286115 
L 177.446942 73.594244 
L 174.542698 73.078082 
L 171.594976 72.739051 
L 168.611899 72.578085 
L 165.60169 72.595627 
L 162.572646 72.791631 
L 159.533115 73.165555 
L 156.491475 73.716368 
L 153.45611 74.442553 
L 150.435385 75.342108 
L 147.437627 76.412553 
L 144.471097 77.650939 
L 140.57842 79.557396 
L 136.774854 81.746953 
L 133.079033 84.208884 
L 129.509065 86.931127 
L 126.082437 89.900346 
L 122.815938 93.101994 
L 119.725571 96.520387 
L 116.826474 100.138777 
L 114.132852 103.939438 
L 111.6579 107.903751 
L 109.413744 112.012293 
L 107.411377 116.244936 
L 105.660609 120.580945 
L 104.170017 124.999077 
L 102.946905 129.477688 
L 101.997264 133.994836 
L 101.325746 138.528392 
L 100.935641 143.056146 
L 100.828861 147.555915 
L 101.005928 152.005655 
L 101.465975 156.383566 
L 102.206748 160.668201 
L 103.224619 164.838569 
L 104.166917 167.879044 
L 105.259708 170.835356 
L 106.499979 173.699359 
L 107.884313 176.463159 
L 109.408892 179.119138 
L 111.069516 181.659975 
L 112.861607 184.078668 
L 114.780226 186.36855 
L 116.820085 188.523309 
L 118.975561 190.537007 
L 121.240713 192.404094 
L 123.609299 194.119422 
L 126.07479 195.678265 
L 128.63039 197.076326 
L 131.269056 198.309752 
L 133.983515 199.375143 
L 136.766285 200.269562 
L 139.609697 200.990545 
L 142.505912 201.536103 
L 145.44695 201.904735 
L 148.424703 202.095422 
L 151.430964 202.107641 
L 154.457448 201.941357 
L 157.495812 201.597028 
L 160.537683 201.075604 
L 163.574675 200.378522 
L 166.59842 199.507702 
L 169.600582 198.465546 
L 172.572886 197.254926 
L 176.47537 195.384542 
L 180.291104 193.229814 
L 184.001394 190.801298 
L 187.588065 188.11089 
L 191.033543 185.171772 
L 194.32095 181.998342 
L 197.43418 178.606147 
L 200.357982 175.011806 
L 203.078032 171.232928 
L 205.581003 167.288026 
L 207.854634 163.196425 
L 208.385876 162.152938 
L 208.385876 162.152938 
" clip-path="url(#p17dde7d527)" style="fill: none; stroke: #0000ff; stroke-width: 1.5; stroke-linecap: square"/>
   </g>
   <g id="PathCollection_3">
    <defs>
     <path id="m110ecc11d3" d="M 0 3 
C 0.795609 3 1.55874 2.683901 2.12132 2.12132 
C 2.683901 1.55874 3 0.795609 3 0 
C 3 -0.795609 2.683901 -1.55874 2.12132 -2.12132 
C 1.55874 -2.683901 0.795609 -3 0 -3 
C -0.795609 -3 -1.55874 -2.683901 -2.12132 -2.12132 
C -2.683901 -1.55874 -3 -0.795609 -3 0 
C -3 0.795609 -2.683901 1.55874 -2.12132 2.12132 
C -1.55874 2.683901 -0.795609 3 0 3 
z
" style="stroke: #000000"/>
    </defs>
    <g clip-path="url(#p17dde7d527)">
     <use xlink:href="#m110ecc11d3" x="109.496963" y="111.849287" style="stroke: #000000"/>
     <use xlink:href="#m110ecc11d3" x="108.809607" y="113.223998" style="stroke: #000000"/>
    </g>
   </g>
   <g id="PathCollection_4">
    <defs>
     <path id="ma969077f42" d="M -3 3 
L 3 -3 
M -3 -3 
L 3 3 
" style="stroke: #000000; stroke-width: 1.5"/>
    </defs>
    <g clip-path="url(#p17dde7d527)">
     <use xlink:href="#ma969077f42" x="109.153116" y="112.536558" style="stroke: #000000; stroke-width: 1.5"/>
    </g>
   </g>
  </g>
 </g>
 <defs>
  <clipPath id="p17dde7d527">
   <rect x="7.2" y="7.2" width="217.44" height="217.44"/>
  </clipPath>
 </defs>
</svg>
