<?xml version="1.0" encoding="utf-8" standalone="no"?>
<!DOCTYPE svg PUBLIC "-//W3C//DTD SVG 1.1//EN"
  "http://www.w3.org/Graphics/SVG/1.1/DTD/svg11.dtd">
<svg xmlns:xlink="http://www.w3.org/1999/xlink" width="231.84pt" height="231.84pt" viewBox="0 0 231.84 231.84" xmlns="http://www.w3.org/2000/svg" version="1.1">
 <metadata>
  <rdf:RDF xmlns:dc="http://purl.org/dc/elements/1.1/" xmlns:cc="http://creativecommons.org/ns#" xmlns:rdf="http://www.w3.org/1999/02/22-rdf-syntax-ns#">
   <cc:Work>
    <dc:type rdf:resource="http://purl.org/dc/dcmitype/StillImage"/>
    <dc:date>2022-07-23T16:11:20.661941</dc:date>
    <dc:format>image/svg+xml</dc:format>
    <dc:creator>
     <cc:Agent>
      <dc:title>Matplotlib v3.5.2, https://matplotlib.org/</dc:title>
     </cc:Agent>
    </dc:creator>
   </cc:Work>
  </rdf:RDF>
 </metadata>
 <defs>
  <style type="text/css">*{stroke-linejoin: round; stroke-linecap: butt}</style>
 </defs>
 <g id="figure_1">
  <g id="patch_1">
   <path d="M 0 231.84 
L 231.84 231.84 
L 231.84 0 
L 0 0 
z
" style="fill: #ffffff"/>
  </g>
  <g id="axes_1">
   <g id="patch_2">
    <path d="M 115.92 224.64 
C 144.752881 224.64 172.408724 213.184575 192.796649 192.796649 
C 213.184575 172.408724 224.64 144.752881 224.64 115.92 
C 224.64 87.087119 213.184575 59.431276 192.796649 39.043351 
C 172.408724 18.655425 144.752881 7.2 115.92 7.2 
C 87.087119 7.2 59.431276 18.655425 39.043351 39.043351 
C 18.655425 59.431276 7.2 87.087119 7.2 115.92 
C 7.2 144.752881 18.655425 172.408724 39.043351 192.796649 
C 59.431276 213.184575 87.087119 224.64 115.92 224.64 
L 115.92 224.64 
z
" clip-path="url(#p3b3bad5e87)" style="fill: none; stroke: #000000; stroke-linejoin: miter"/>
   </g>
   <g id="PathCollection_1">
    <defs>
     <path id="m0c660a2260" d="M 0 3 
C 0.795609 3 1.55874 2.683901 2.12132 2.12132 
C 2.683901 1.55874 3 0.795609 3 0 
C 3 -0.795609 2.683901 -1.55874 2.12132 -2.12132 
C 1.55874 -2.683901 0.795609 -3 0 -3 
C -0.795609 -3 -1.55874 -2.683901 -2.12132 -2.12132 
C -2.683901 -1.55874 -3 -0.795609 -3 0 
C -3 0.795609 -2.683901 1.55874 -2.12132 2.12132 
C -1.55874 2.683901 -0.795609 3 0 3 
z
" style="stroke: #ff0000"/>
    </defs>
    <g clip-path="url(#p3b3bad5e87)">
     <use xlink:href="#m0c660a2260" x="61.56" y="88.74" style="fill: #ff0000; stroke: #ff0000"/>
    </g>
   </g>
   <g id="PathCollection_2">
    <defs>
     <path id="m68aeaddaff" d="M 0 3 
C 0.795609 3 1.55874 2.683901 2.12132 2.12132 
C 2.683901 1.55874 3 0.795609 3 0 
C 3 -0.795609 2.683901 -1.55874 2.12132 -2.12132 
C 1.55874 -2.683901 0.795609 -3 0 -3 
C -0.795609 -3 -1.55874 -2.683901 -2.12132 -2.12132 
C -2.683901 -1.55874 -3 -0.795609 -3 0 
C -3 0.795609 -2.683901 1.55874 -2.12132 2.12132 
C -1.55874 2.683901 -0.795609 3 0 3 
z
" style="stroke: #0000ff"/>
    </defs>
    <g clip-path="url(#p3b3bad5e87)">
     <use xlink:href="#m68aeaddaff" x="170.28" y="143.1" style="fill: #0000ff; stroke: #0000ff"/>
    </g>
   </g>
   <g id="line2d_1">
    <path d="M 109.157314 112.538657 
L 110.759095 109.088215 
L 112.155526 105.555926 
L 113.339765 101.959094 
L 114.306011 98.31534 
L 115.04953 94.642516 
L 115.566679 90.958614 
L 115.854925 87.281683 
L 115.912856 83.629736 
L 115.740187 80.020664 
L 115.337766 76.472148 
L 114.707562 73.001573 
L 113.852665 69.625941 
L 112.777261 66.36179 
L 111.48662 63.225111 
L 109.987064 60.23127 
L 108.28594 57.394936 
L 106.391581 54.730002 
L 104.313269 52.249526 
L 102.061185 49.965658 
L 99.646362 47.889588 
L 97.08063 46.031487 
L 94.37656 44.400457 
L 91.547398 43.004489 
L 88.607006 41.850422 
L 85.569787 40.94391 
L 82.450623 40.289394 
L 79.264792 39.890081 
L 76.027904 39.747926 
L 72.755816 39.863626 
L 69.464559 40.236614 
L 66.170255 40.865063 
L 62.889045 41.745895 
L 59.637002 42.874793 
L 56.43006 44.246228 
L 53.283929 45.85348 
L 50.214023 47.688676 
L 47.23538 49.742825 
L 44.362594 52.005863 
L 41.609738 54.466704 
L 38.990299 57.113291 
L 36.51711 59.93266 
L 34.202287 62.910997 
L 32.05717 66.033712 
L 30.092269 69.285506 
L 28.31721 72.650449 
L 26.740689 76.112055 
L 25.370429 79.653366 
L 24.213143 83.257033 
L 23.274501 86.9054 
L 22.559102 90.580595 
L 22.07045 94.264613 
L 21.81094 97.939404 
L 21.781842 101.586967 
L 21.983299 105.189431 
L 22.414324 108.729148 
L 23.072805 112.188776 
L 23.955518 115.551367 
L 25.058136 118.800446 
L 26.375259 121.920098 
L 27.900433 124.895037 
L 29.626187 127.710689 
L 31.544066 130.353262 
L 33.644675 132.809808 
L 35.917722 135.068292 
L 38.352071 137.117651 
L 40.935797 138.947843 
L 43.656241 140.549904 
L 46.500076 141.915985 
L 49.45337 143.039392 
L 52.501655 143.914622 
L 55.629996 144.537388 
L 58.823068 144.904638 
L 62.065227 145.014573 
L 65.340591 144.866655 
L 68.633112 144.461608 
L 71.926661 143.801417 
L 75.205102 142.889316 
L 78.452374 141.729774 
L 81.652569 140.32847 
L 84.790008 138.692271 
L 87.84932 136.829192 
L 90.815519 134.74836 
L 93.674072 132.45997 
L 96.410976 129.975232 
L 99.012821 127.30632 
L 101.466862 124.466309 
L 103.761075 121.469111 
L 105.884222 118.329411 
L 107.825901 115.06259 
L 109.157314 112.538657 
L 109.157314 112.538657 
" clip-path="url(#p3b3bad5e87)" style="fill: none; stroke: #ff0000; stroke-width: 1.5; stroke-linecap: square"/>
   </g>
   <g id="line2d_2">
    <path d="M 211.371574 163.645787 
L 213.097336 159.997837 
L 214.6612 156.281371 
L 216.058857 152.506632 
L 217.286453 148.684025 
L 218.340606 144.824085 
L 219.218409 140.937452 
L 219.917445 137.034837 
L 220.435784 133.126998 
L 220.772 129.224704 
L 220.925166 125.338712 
L 220.894859 121.479732 
L 220.681162 117.6584 
L 220.284665 113.885249 
L 219.706461 110.170679 
L 218.948144 106.524927 
L 218.011802 102.958042 
L 216.900018 99.479856 
L 215.615855 96.099954 
L 214.162853 92.827653 
L 212.545017 89.671971 
L 210.766806 86.641607 
L 208.83312 83.744913 
L 206.74929 80.989873 
L 204.521059 78.38408 
L 202.154569 75.934716 
L 199.656342 73.648533 
L 197.033263 71.531831 
L 194.292564 69.590445 
L 191.441796 67.829725 
L 188.488819 66.254525 
L 185.44177 64.869186 
L 182.309049 63.677527 
L 179.09929 62.682831 
L 175.821339 61.887841 
L 172.484231 61.294747 
L 169.097164 60.905185 
L 165.669474 60.720227 
L 162.210608 60.740385 
L 158.730099 60.965602 
L 155.23754 61.395257 
L 151.742559 62.028166 
L 148.254787 62.862586 
L 144.783837 63.896215 
L 141.339277 65.126206 
L 137.930601 66.549167 
L 134.567202 68.161177 
L 131.258353 69.957794 
L 128.013172 71.934064 
L 124.840604 74.084542 
L 121.749393 76.403299 
L 118.748059 78.883945 
L 115.844876 81.519643 
L 113.047843 84.303128 
L 110.364672 87.226728 
L 107.802756 90.282385 
L 105.369158 93.461677 
L 103.070584 96.755842 
L 100.913371 100.155799 
L 98.903464 103.652178 
L 97.046402 107.235342 
L 95.347305 110.895415 
L 93.810855 114.622309 
L 92.441286 118.405752 
L 91.242375 122.235316 
L 90.217425 126.100446 
L 89.369261 129.990489 
L 88.700222 133.894722 
L 88.21215 137.802385 
L 87.906392 141.702708 
L 87.783789 145.58494 
L 87.844681 149.438382 
L 88.088899 153.252412 
L 88.515769 157.016517 
L 89.124117 160.720324 
L 89.912263 164.353624 
L 90.878038 167.906402 
L 92.018777 171.368866 
L 93.331339 174.731474 
L 94.812103 177.984956 
L 96.456991 181.120347 
L 98.261467 184.129002 
L 100.220558 187.002632 
L 102.328864 189.733314 
L 104.580575 192.313523 
L 106.969485 194.736147 
L 109.489008 196.994508 
L 112.132201 199.082383 
L 114.891779 200.994017 
L 117.760134 202.724139 
L 120.729363 204.267984 
L 123.79128 205.621293 
L 126.937447 206.780339 
L 130.159191 207.741926 
L 133.447634 208.503404 
L 136.793711 209.062675 
L 140.1882 209.418196 
L 143.621745 209.568987 
L 147.084882 209.514634 
L 150.568066 209.255286 
L 154.061698 208.791658 
L 157.556146 208.125027 
L 161.041781 207.257231 
L 164.508995 206.190662 
L 167.948232 204.92826 
L 171.350011 203.473504 
L 174.704958 201.830403 
L 178.003825 200.003487 
L 181.23752 197.997791 
L 184.39713 195.818843 
L 187.473947 193.472648 
L 190.459489 190.965673 
L 193.345529 188.304828 
L 196.124112 185.497447 
L 198.787579 182.551268 
L 201.328589 179.474411 
L 203.74014 176.275356 
L 206.015583 172.96292 
L 208.148647 169.546235 
L 210.133454 166.034715 
L 211.371574 163.645787 
L 211.371574 163.645787 
" clip-path="url(#p3b3bad5e87)" style="fill: none; stroke: #0000ff; stroke-width: 1.5; stroke-linecap: square"/>
   </g>
   <g id="PathCollection_3">
    <defs>
     <path id="m3c8c8c0d1a" d="M 0 3 
C 0.795609 3 1.55874 2.683901 2.12132 2.12132 
C 2.683901 1.55874 3 0.795609 3 0 
C 3 -0.795609 2.683901 -1.55874 2.12132 -2.12132 
C 1.55874 -2.683901 0.795609 -3 0 -3 
C -0.795609 -3 -1.55874 -2.683901 -2.12132 -2.12132 
C -2.683901 -1.55874 -3 -0.795609 -3 0 
C -3 0.795609 -2.683901 1.55874 -2.12132 2.12132 
C -1.55874 2.683901 -0.795609 3 0 3 
z
" style="stroke: #000000"/>
    </defs>
    <g clip-path="url(#p3b3bad5e87)">
     <use xlink:href="#m3c8c8c0d1a" x="115.840435" y="81.523865" style="stroke: #000000"/>
     <use xlink:href="#m3c8c8c0d1a" x="88.355353" y="136.494029" style="stroke: #000000"/>
    </g>
   </g>
   <g id="PathCollection_4">
    <defs>
     <path id="m61667d3bc4" d="M -3 3 
L 3 -3 
M -3 -3 
L 3 3 
" style="stroke: #000000; stroke-width: 1.5"/>
    </defs>
    <g clip-path="url(#p3b3bad5e87)">
     <use xlink:href="#m61667d3bc4" x="101.51033" y="108.715165" style="stroke: #000000; stroke-width: 1.5"/>
    </g>
   </g>
  </g>
 </g>
 <defs>
  <clipPath id="p3b3bad5e87">
   <rect x="7.2" y="7.2" width="217.44" height="217.44"/>
  </clipPath>
 </defs>
</svg>
