<?xml version="1.0" encoding="utf-8" standalone="no"?>
<!DOCTYPE svg PUBLIC "-//W3C//DTD SVG 1.1//EN"
  "http://www.w3.org/Graphics/SVG/1.1/DTD/svg11.dtd">
<svg height="231.84pt" version="1.1" viewBox="0 0 231.84 231.84" width="231.84pt" xmlns="http://www.w3.org/2000/svg" xmlns:xlink="http://www.w3.org/1999/xlink">
 <metadata>
  <rdf:RDF xmlns:cc="http://creativecommons.org/ns#" xmlns:dc="http://purl.org/dc/elements/1.1/" xmlns:rdf="http://www.w3.org/1999/02/22-rdf-syntax-ns#">
   <cc:Work>
    <dc:type rdf:resource="http://purl.org/dc/dcmitype/StillImage"/>
    <dc:date>2021-05-03T20:54:32.046257</dc:date>
    <dc:format>image/svg+xml</dc:format>
    <dc:creator>
     <cc:Agent>
      <dc:title>Matplotlib v3.4.1, https://matplotlib.org/</dc:title>
     </cc:Agent>
    </dc:creator>
   </cc:Work>
  </rdf:RDF>
 </metadata>
 <defs>
  <style type="text/css">*{stroke-linecap:butt;stroke-linejoin:round;}</style>
 </defs>
 <g id="figure_1">
  <g id="patch_1">
   <path d="M 0 231.84 
L 231.84 231.84 
L 231.84 0 
L 0 0 
z
" style="fill:#ffffff;"/>
  </g>
  <g id="axes_1">
   <g id="PathCollection_1">
    <defs>
     <path d="M 0 3 
C 0.795609 3 1.55874 2.683901 2.12132 2.12132 
C 2.683901 1.55874 3 0.795609 3 0 
C 3 -0.795609 2.683901 -1.55874 2.12132 -2.12132 
C 1.55874 -2.683901 0.795609 -3 0 -3 
C -0.795609 -3 -1.55874 -2.683901 -2.12132 -2.12132 
C -2.683901 -1.55874 -3 -0.795609 -3 0 
C -3 0.795609 -2.683901 1.55874 -2.12132 2.12132 
C -1.55874 2.683901 -0.795609 3 0 3 
z
" id="m3d29acc2a8" style="stroke:#ff0000;"/>
    </defs>
    <g clip-path="url(#p57d37a279e)">
     <use style="fill:#ff0000;stroke:#ff0000;" x="61.56" xlink:href="#m3d29acc2a8" y="88.74"/>
    </g>
   </g>
   <g id="PathCollection_2">
    <defs>
     <path d="M 0 3 
C 0.795609 3 1.55874 2.683901 2.12132 2.12132 
C 2.683901 1.55874 3 0.795609 3 0 
C 3 -0.795609 2.683901 -1.55874 2.12132 -2.12132 
C 1.55874 -2.683901 0.795609 -3 0 -3 
C -0.795609 -3 -1.55874 -2.683901 -2.12132 -2.12132 
C -2.683901 -1.55874 -3 -0.795609 -3 0 
C -3 0.795609 -2.683901 1.55874 -2.12132 2.12132 
C -1.55874 2.683901 -0.795609 3 0 3 
z
" id="md298b504e1" style="stroke:#0000ff;"/>
    </defs>
    <g clip-path="url(#p57d37a279e)">
     <use style="fill:#0000ff;stroke:#0000ff;" x="170.28" xlink:href="#md298b504e1" y="143.1"/>
    </g>
   </g>
   <g id="patch_2">
    <path clip-path="url(#p57d37a279e)" d="M 115.92 224.64 
C 144.752881 224.64 172.408724 213.184575 192.796649 192.796649 
C 213.184575 172.408724 224.64 144.752881 224.64 115.92 
C 224.64 87.087119 213.184575 59.431276 192.796649 39.043351 
C 172.408724 18.655425 144.752881 7.2 115.92 7.2 
C 87.087119 7.2 59.431276 18.655425 39.043351 39.043351 
C 18.655425 59.431276 7.2 87.087119 7.2 115.92 
C 7.2 144.752881 18.655425 172.408724 39.043351 192.796649 
C 59.431276 213.184575 87.087119 224.64 115.92 224.64 
z
" style="fill:none;stroke:#000000;stroke-linejoin:miter;"/>
   </g>
   <g id="line2d_1">
    <path clip-path="url(#p57d37a279e)" d="M 109.157314 112.538657 
L 110.759095 109.088215 
L 112.155526 105.555926 
L 113.339765 101.959094 
L 114.306011 98.31534 
L 115.04953 94.642516 
L 115.566679 90.958614 
L 115.854925 87.281683 
L 115.912856 83.629736 
L 115.740187 80.020664 
L 115.337766 76.472148 
L 114.707562 73.001573 
L 113.852665 69.625941 
L 112.777261 66.36179 
L 111.48662 63.225111 
L 109.987064 60.23127 
L 108.28594 57.394936 
L 106.391581 54.730002 
L 104.313269 52.249526 
L 102.061185 49.965658 
L 99.646362 47.889588 
L 97.08063 46.031487 
L 94.37656 44.400457 
L 91.547398 43.004489 
L 88.607006 41.850422 
L 85.569787 40.94391 
L 82.450623 40.289394 
L 79.264792 39.890081 
L 76.027904 39.747926 
L 72.755816 39.863626 
L 69.464559 40.236614 
L 66.170255 40.865063 
L 62.889045 41.745895 
L 59.637002 42.874793 
L 56.43006 44.246228 
L 53.283929 45.85348 
L 50.214023 47.688676 
L 47.23538 49.742825 
L 44.362594 52.005863 
L 41.609738 54.466704 
L 38.990299 57.113291 
L 36.51711 59.93266 
L 34.202287 62.910997 
L 32.05717 66.033712 
L 30.092269 69.285506 
L 28.31721 72.650449 
L 26.740689 76.112055 
L 25.370429 79.653366 
L 24.213143 83.257033 
L 23.274501 86.9054 
L 22.559102 90.580595 
L 22.07045 94.264613 
L 21.81094 97.939404 
L 21.781842 101.586967 
L 21.983299 105.189431 
L 22.414324 108.729148 
L 23.072805 112.188776 
L 23.955518 115.551367 
L 25.058136 118.800446 
L 26.375259 121.920098 
L 27.900433 124.895037 
L 29.626187 127.710689 
L 31.544066 130.353262 
L 33.644675 132.809808 
L 35.917722 135.068292 
L 38.352071 137.117651 
L 40.935797 138.947843 
L 43.656241 140.549904 
L 46.500076 141.915985 
L 49.45337 143.039392 
L 52.501655 143.914622 
L 55.629996 144.537388 
L 58.823068 144.904638 
L 62.065227 145.014573 
L 65.340591 144.866655 
L 68.633112 144.461608 
L 71.926661 143.801417 
L 75.205102 142.889316 
L 78.452374 141.729774 
L 81.652569 140.32847 
L 84.790008 138.692271 
L 87.84932 136.829192 
L 90.815519 134.74836 
L 93.674072 132.45997 
L 96.410976 129.975232 
L 99.012821 127.30632 
L 101.466862 124.466309 
L 103.761075 121.469111 
L 105.884222 118.329411 
L 107.825901 115.06259 
L 109.157314 112.538657 
L 109.157314 112.538657 
" style="fill:none;stroke:#ff0000;stroke-linecap:square;stroke-width:1.5;"/>
   </g>
   <g id="line2d_2">
    <path clip-path="url(#p57d37a279e)" d="M 207.857516 161.888758 
L 209.785468 157.735703 
L 211.466254 153.484133 
L 212.89164 149.154878 
L 214.054642 144.769146 
L 214.949564 140.348425 
L 215.57202 135.91437 
L 215.918961 131.488705 
L 215.988688 127.093112 
L 215.78086 122.749124 
L 215.296493 118.478024 
L 214.537961 114.300736 
L 213.508981 110.237724 
L 212.214593 106.308893 
L 211.073394 103.461933 
L 209.78959 100.709139 
L 208.36672 98.058098 
L 206.808703 95.516118 
L 205.119836 93.090204 
L 203.304772 90.787043 
L 201.368515 88.612983 
L 199.316401 86.574016 
L 197.154087 84.675762 
L 194.887531 82.923453 
L 192.522982 81.321919 
L 190.066956 79.875573 
L 187.526223 78.588403 
L 184.907786 77.463955 
L 182.218861 76.50533 
L 179.46686 75.71517 
L 176.659368 75.095651 
L 173.804123 74.648483 
L 170.908995 74.374896 
L 167.981963 74.275646 
L 165.031095 74.351006 
L 162.064524 74.600768 
L 159.090426 75.024244 
L 156.117 75.620267 
L 153.152439 76.387193 
L 149.227601 77.671891 
L 145.352273 79.250313 
L 141.545442 81.114726 
L 137.825758 83.255996 
L 134.211443 85.663633 
L 130.720204 88.325841 
L 127.369145 91.229579 
L 124.174683 94.36062 
L 121.152469 97.703626 
L 118.317307 101.242218 
L 115.683089 104.959062 
L 113.262718 108.835948 
L 111.068052 112.853883 
L 109.109844 116.993182 
L 107.397687 121.233568 
L 105.939968 125.554265 
L 104.743829 129.934107 
L 103.815131 134.351637 
L 103.158422 138.785213 
L 102.776921 143.213114 
L 102.672495 147.613648 
L 102.845657 151.965256 
L 103.295559 156.24662 
L 104.019996 160.436764 
L 105.015419 164.515162 
L 106.276951 168.461832 
L 107.798413 172.25744 
L 109.105651 174.993794 
L 110.551329 177.627158 
L 112.131462 180.150272 
L 113.841695 182.556182 
L 115.677314 184.838258 
L 117.63326 186.990209 
L 119.704142 189.006104 
L 121.884252 190.880386 
L 124.167581 192.60789 
L 126.547836 194.183855 
L 129.018456 195.603937 
L 131.572632 196.864221 
L 134.203324 197.961234 
L 136.903281 198.891953 
L 139.665062 199.653812 
L 142.481054 200.244711 
L 145.343496 200.663022 
L 148.244498 200.907592 
L 151.176065 200.977746 
L 154.130116 200.873292 
L 157.09851 200.594517 
L 160.073066 200.142189 
L 163.045583 199.517556 
L 166.00787 198.722338 
L 169.927568 197.40055 
L 173.795365 195.785928 
L 177.592315 193.88638 
L 181.299815 191.711213 
L 184.899703 189.271084 
L 188.374341 186.577946 
L 191.706708 183.644994 
L 194.880478 180.486596 
L 197.880102 177.118226 
L 200.690886 173.556385 
L 203.299059 169.818523 
L 205.691843 165.922953 
L 207.857516 161.888758 
L 207.857516 161.888758 
" style="fill:none;stroke:#0000ff;stroke-linecap:square;stroke-width:1.5;"/>
   </g>
   <g id="PathCollection_3">
    <defs>
     <path d="M 0 3 
C 0.795609 3 1.55874 2.683901 2.12132 2.12132 
C 2.683901 1.55874 3 0.795609 3 0 
C 3 -0.795609 2.683901 -1.55874 2.12132 -2.12132 
C 1.55874 -2.683901 0.795609 -3 0 -3 
C -0.795609 -3 -1.55874 -2.683901 -2.12132 -2.12132 
C -2.683901 -1.55874 -3 -0.795609 -3 0 
C -3 0.795609 -2.683901 1.55874 -2.12132 2.12132 
C -1.55874 2.683901 -0.795609 3 0 3 
z
" id="mb099ae2bcb" style="stroke:#000000;"/>
    </defs>
    <g clip-path="url(#p57d37a279e)">
     <use style="stroke:#000000;" x="110.058697" xlink:href="#mb099ae2bcb" y="112.989348"/>
     <use style="stroke:#000000;" x="110.058697" xlink:href="#mb099ae2bcb" y="112.989348"/>
    </g>
   </g>
  </g>
 </g>
 <defs>
  <clipPath id="p57d37a279e">
   <rect height="217.44" width="217.44" x="7.2" y="7.2"/>
  </clipPath>
 </defs>
</svg>
