<?xml version="1.0" encoding="utf-8" standalone="no"?>
<!DOCTYPE svg PUBLIC "-//W3C//DTD SVG 1.1//EN"
  "http://www.w3.org/Graphics/SVG/1.1/DTD/svg11.dtd">
<svg height="246.958125pt" version="1.1" viewBox="0 0 231.84 246.958125" width="231.84pt" xmlns="http://www.w3.org/2000/svg" xmlns:xlink="http://www.w3.org/1999/xlink">
 <metadata>
  <rdf:RDF xmlns:cc="http://creativecommons.org/ns#" xmlns:dc="http://purl.org/dc/elements/1.1/" xmlns:rdf="http://www.w3.org/1999/02/22-rdf-syntax-ns#">
   <cc:Work>
    <dc:type rdf:resource="http://purl.org/dc/dcmitype/StillImage"/>
    <dc:date>2021-05-02T21:18:18.341405</dc:date>
    <dc:format>image/svg+xml</dc:format>
    <dc:creator>
     <cc:Agent>
      <dc:title>Matplotlib v3.4.1, https://matplotlib.org/</dc:title>
     </cc:Agent>
    </dc:creator>
   </cc:Work>
  </rdf:RDF>
 </metadata>
 <defs>
  <style type="text/css">*{stroke-linecap:butt;stroke-linejoin:round;}</style>
 </defs>
 <g id="figure_1">
  <g id="patch_1">
   <path d="M 0 246.958125 
L 231.84 246.958125 
L 231.84 0 
L 0 0 
z
" style="fill:#ffffff;"/>
  </g>
  <g id="axes_1">
   <g id="PathCollection_1">
    <defs>
     <path d="M 0 3 
C 0.795609 3 1.55874 2.683901 2.12132 2.12132 
C 2.683901 1.55874 3 0.795609 3 0 
C 3 -0.795609 2.683901 -1.55874 2.12132 -2.12132 
C 1.55874 -2.683901 0.795609 -3 0 -3 
C -0.795609 -3 -1.55874 -2.683901 -2.12132 -2.12132 
C -2.683901 -1.55874 -3 -0.795609 -3 0 
C -3 0.795609 -2.683901 1.55874 -2.12132 2.12132 
C -1.55874 2.683901 -0.795609 3 0 3 
z
" id="m2ae55743d6" style="stroke:#000000;"/>
    </defs>
    <g clip-path="url(#pd826e35961)">
     <use style="stroke:#000000;" x="115.92" xlink:href="#m2ae55743d6" y="185.398125"/>
     <use style="stroke:#000000;" x="170.28" xlink:href="#m2ae55743d6" y="158.218125"/>
     <use style="stroke:#000000;" x="61.56" xlink:href="#m2ae55743d6" y="76.678125"/>
    </g>
   </g>
   <g id="PathCollection_2">
    <defs>
     <path d="M 0 3 
C 0.795609 3 1.55874 2.683901 2.12132 2.12132 
C 2.683901 1.55874 3 0.795609 3 0 
C 3 -0.795609 2.683901 -1.55874 2.12132 -2.12132 
C 1.55874 -2.683901 0.795609 -3 0 -3 
C -0.795609 -3 -1.55874 -2.683901 -2.12132 -2.12132 
C -2.683901 -1.55874 -3 -0.795609 -3 0 
C -3 0.795609 -2.683901 1.55874 -2.12132 2.12132 
C -1.55874 2.683901 -0.795609 3 0 3 
z
" id="m4054e0c699" style="stroke:#1f77b4;"/>
    </defs>
    <g clip-path="url(#pd826e35961)">
     <use style="fill:#1f77b4;stroke:#1f77b4;" x="115.92" xlink:href="#m4054e0c699" y="142.291564"/>
    </g>
   </g>
   <g id="PathCollection_3">
    <defs>
     <path d="M 0 3 
C 0.795609 3 1.55874 2.683901 2.12132 2.12132 
C 2.683901 1.55874 3 0.795609 3 0 
C 3 -0.795609 2.683901 -1.55874 2.12132 -2.12132 
C 1.55874 -2.683901 0.795609 -3 0 -3 
C -0.795609 -3 -1.55874 -2.683901 -2.12132 -2.12132 
C -2.683901 -1.55874 -3 -0.795609 -3 0 
C -3 0.795609 -2.683901 1.55874 -2.12132 2.12132 
C -1.55874 2.683901 -0.795609 3 0 3 
z
" id="mca50ab4fb4" style="stroke:#ff7f0e;"/>
    </defs>
    <g clip-path="url(#pd826e35961)">
     <use style="fill:#ff7f0e;stroke:#ff7f0e;" x="111.50712" xlink:href="#mca50ab4fb4" y="135.936714"/>
    </g>
   </g>
   <g id="PathCollection_4">
    <defs>
     <path d="M 0 3 
C 0.795609 3 1.55874 2.683901 2.12132 2.12132 
C 2.683901 1.55874 3 0.795609 3 0 
C 3 -0.795609 2.683901 -1.55874 2.12132 -2.12132 
C 1.55874 -2.683901 0.795609 -3 0 -3 
C -0.795609 -3 -1.55874 -2.683901 -2.12132 -2.12132 
C -2.683901 -1.55874 -3 -0.795609 -3 0 
C -3 0.795609 -2.683901 1.55874 -2.12132 2.12132 
C -1.55874 2.683901 -0.795609 3 0 3 
z
" id="m2b1fce0ffa" style="stroke:#2ca02c;"/>
    </defs>
    <g clip-path="url(#pd826e35961)">
     <use style="fill:#2ca02c;stroke:#2ca02c;" x="126.324888" xlink:href="#m2b1fce0ffa" y="154.94047"/>
    </g>
   </g>
   <g id="PathCollection_5">
    <defs>
     <path d="M 0 3 
C 0.795609 3 1.55874 2.683901 2.12132 2.12132 
C 2.683901 1.55874 3 0.795609 3 0 
C 3 -0.795609 2.683901 -1.55874 2.12132 -2.12132 
C 1.55874 -2.683901 0.795609 -3 0 -3 
C -0.795609 -3 -1.55874 -2.683901 -2.12132 -2.12132 
C -2.683901 -1.55874 -3 -0.795609 -3 0 
C -3 0.795609 -2.683901 1.55874 -2.12132 2.12132 
C -1.55874 2.683901 -0.795609 3 0 3 
z
" id="mefd94f5008" style="stroke:#d62728;"/>
    </defs>
    <g clip-path="url(#pd826e35961)">
     <use style="fill:#d62728;stroke:#d62728;" x="115.428418" xlink:href="#mefd94f5008" y="114.214573"/>
    </g>
   </g>
   <g id="PathCollection_6">
    <defs>
     <path d="M 0 3 
C 0.795609 3 1.55874 2.683901 2.12132 2.12132 
C 2.683901 1.55874 3 0.795609 3 0 
C 3 -0.795609 2.683901 -1.55874 2.12132 -2.12132 
C 1.55874 -2.683901 0.795609 -3 0 -3 
C -0.795609 -3 -1.55874 -2.683901 -2.12132 -2.12132 
C -2.683901 -1.55874 -3 -0.795609 -3 0 
C -3 0.795609 -2.683901 1.55874 -2.12132 2.12132 
C -1.55874 2.683901 -0.795609 3 0 3 
z
" id="ma0c01dca6e" style="stroke:#9467bd;"/>
    </defs>
    <g clip-path="url(#pd826e35961)">
     <use style="fill:#9467bd;stroke:#9467bd;" x="80.323549" xlink:href="#ma0c01dca6e" y="210.511831"/>
    </g>
   </g>
   <g id="patch_2">
    <path clip-path="url(#pd826e35961)" d="M 115.92 239.758125 
C 144.752881 239.758125 172.408724 228.3027 192.796649 207.914774 
C 213.184575 187.526849 224.64 159.871006 224.64 131.038125 
C 224.64 102.205244 213.184575 74.549401 192.796649 54.161476 
C 172.408724 33.77355 144.752881 22.318125 115.92 22.318125 
C 87.087119 22.318125 59.431276 33.77355 39.043351 54.161476 
C 18.655425 74.549401 7.2 102.205244 7.2 131.038125 
C 7.2 159.871006 18.655425 187.526849 39.043351 207.914774 
C 59.431276 228.3027 87.087119 239.758125 115.92 239.758125 
z
" style="fill:none;stroke:#000000;stroke-linejoin:miter;"/>
   </g>
   <g id="line2d_1">
    <path clip-path="url(#pd826e35961)" d="M 170.28 158.218125 
L 168.392478 156.50385 
L 166.464661 154.770019 
L 164.498031 153.017964 
L 162.494098 151.249031 
L 160.4544 149.464578 
L 158.380503 147.665975 
L 156.274001 145.854604 
L 154.136511 144.031854 
L 151.969674 142.199127 
L 149.775154 140.357829 
L 147.554637 138.509374 
L 145.309827 136.655183 
L 143.042448 134.796677 
L 140.754242 132.935286 
L 138.446966 131.072438 
L 136.122391 129.209563 
L 133.782302 127.348093 
L 131.428497 125.489456 
L 129.062782 123.63508 
L 126.686975 121.786389 
L 124.302901 119.944802 
L 121.912388 118.111734 
L 119.517275 116.288592 
L 117.119399 114.476777 
L 114.720601 112.677679 
L 112.322725 110.89268 
L 109.927612 109.123151 
L 107.537099 107.370451 
L 105.153025 105.635926 
L 102.777218 103.920906 
L 100.411503 102.226711 
L 98.057698 100.55464 
L 95.717609 98.905977 
L 93.393034 97.281989 
L 91.085758 95.683923 
L 88.797552 94.113005 
L 86.530173 92.570442 
L 84.285363 91.057419 
L 82.064846 89.575098 
L 79.870326 88.124616 
L 77.703489 86.707088 
L 75.565999 85.323602 
L 73.459497 83.97522 
L 71.3856 82.662979 
L 69.345902 81.387885 
L 67.341969 80.150918 
L 65.375339 78.953027 
L 63.447522 77.795133 
L 61.56 76.678125 
" style="fill:none;stroke:#000000;stroke-linecap:square;stroke-width:1.5;"/>
   </g>
   <g id="line2d_2">
    <path clip-path="url(#pd826e35961)" d="M 61.56 76.678125 
L 62.093834 78.640143 
L 62.659948 80.633584 
L 63.258003 82.657253 
L 63.887639 84.709936 
L 64.548479 86.790403 
L 65.240127 88.897405 
L 65.962167 91.029679 
L 66.714168 93.185946 
L 67.495678 95.364914 
L 68.306228 97.565274 
L 69.145332 99.785709 
L 70.012487 102.024886 
L 70.907173 104.281462 
L 71.828853 106.554084 
L 72.776975 108.841389 
L 73.75097 111.142006 
L 74.750254 113.454555 
L 75.774228 115.777649 
L 76.822277 118.109894 
L 77.893774 120.449892 
L 78.988075 122.796241 
L 80.104524 125.147532 
L 81.242452 127.502355 
L 82.401176 129.8593 
L 83.580001 132.21695 
L 84.778221 134.573895 
L 85.995117 136.928718 
L 87.229959 139.280009 
L 88.482006 141.626358 
L 89.750509 143.966356 
L 91.034705 146.298601 
L 92.333824 148.621695 
L 93.647089 150.934244 
L 94.973711 153.234861 
L 96.312894 155.522166 
L 97.663836 157.794788 
L 99.025726 160.051364 
L 100.397748 162.290541 
L 101.779078 164.510976 
L 103.168889 166.711336 
L 104.566347 168.890304 
L 105.970614 171.046571 
L 107.380847 173.178845 
L 108.796201 175.285847 
L 110.215827 177.366314 
L 111.638875 179.418997 
L 113.064489 181.442666 
L 114.491816 183.436107 
L 115.92 185.398125 
" style="fill:none;stroke:#000000;stroke-linecap:square;stroke-width:1.5;"/>
   </g>
   <g id="line2d_3">
    <path clip-path="url(#pd826e35961)" d="M 115.92 185.398125 
L 117.0913 184.992637 
L 118.262442 184.579903 
L 119.43327 184.15998 
L 120.603626 183.732922 
L 121.773353 183.298789 
L 122.942294 182.857637 
L 124.110292 182.409527 
L 125.27719 181.954518 
L 126.442832 181.492671 
L 127.60706 181.02405 
L 128.769719 180.548715 
L 129.930653 180.066732 
L 131.089705 179.578165 
L 132.24672 179.083079 
L 133.401542 178.581542 
L 134.554017 178.07362 
L 135.703989 177.559382 
L 136.851305 177.038897 
L 137.99581 176.512234 
L 139.13735 175.979464 
L 140.275773 175.44066 
L 141.410925 174.895892 
L 142.542654 174.345235 
L 143.670807 173.788763 
L 144.795234 173.226549 
L 145.915784 172.65867 
L 147.032305 172.085202 
L 148.144648 171.506222 
L 149.252664 170.921807 
L 150.356204 170.332037 
L 151.455119 169.73699 
L 152.549262 169.136746 
L 153.638487 168.531385 
L 154.722646 167.92099 
L 155.801595 167.305642 
L 156.875188 166.685424 
L 157.943281 166.060418 
L 159.005731 165.430709 
L 160.062394 164.796382 
L 161.113131 164.157522 
L 162.157798 163.514214 
L 163.196256 162.866545 
L 164.228365 162.214602 
L 165.253987 161.558472 
L 166.272984 160.898243 
L 167.28522 160.234005 
L 168.290557 159.565846 
L 169.288862 158.893856 
L 170.28 158.218125 
" style="fill:none;stroke:#000000;stroke-linecap:square;stroke-width:1.5;"/>
   </g>
   <g id="text_1">
    <!-- triangle centers -->
    <g transform="translate(68.450625 16.318125)scale(0.12 -0.12)">
     <defs>
      <path d="M 1172 4494 
L 1172 3500 
L 2356 3500 
L 2356 3053 
L 1172 3053 
L 1172 1153 
Q 1172 725 1289 603 
Q 1406 481 1766 481 
L 2356 481 
L 2356 0 
L 1766 0 
Q 1100 0 847 248 
Q 594 497 594 1153 
L 594 3053 
L 172 3053 
L 172 3500 
L 594 3500 
L 594 4494 
L 1172 4494 
z
" id="DejaVuSans-74" transform="scale(0.015625)"/>
      <path d="M 2631 2963 
Q 2534 3019 2420 3045 
Q 2306 3072 2169 3072 
Q 1681 3072 1420 2755 
Q 1159 2438 1159 1844 
L 1159 0 
L 581 0 
L 581 3500 
L 1159 3500 
L 1159 2956 
Q 1341 3275 1631 3429 
Q 1922 3584 2338 3584 
Q 2397 3584 2469 3576 
Q 2541 3569 2628 3553 
L 2631 2963 
z
" id="DejaVuSans-72" transform="scale(0.015625)"/>
      <path d="M 603 3500 
L 1178 3500 
L 1178 0 
L 603 0 
L 603 3500 
z
M 603 4863 
L 1178 4863 
L 1178 4134 
L 603 4134 
L 603 4863 
z
" id="DejaVuSans-69" transform="scale(0.015625)"/>
      <path d="M 2194 1759 
Q 1497 1759 1228 1600 
Q 959 1441 959 1056 
Q 959 750 1161 570 
Q 1363 391 1709 391 
Q 2188 391 2477 730 
Q 2766 1069 2766 1631 
L 2766 1759 
L 2194 1759 
z
M 3341 1997 
L 3341 0 
L 2766 0 
L 2766 531 
Q 2569 213 2275 61 
Q 1981 -91 1556 -91 
Q 1019 -91 701 211 
Q 384 513 384 1019 
Q 384 1609 779 1909 
Q 1175 2209 1959 2209 
L 2766 2209 
L 2766 2266 
Q 2766 2663 2505 2880 
Q 2244 3097 1772 3097 
Q 1472 3097 1187 3025 
Q 903 2953 641 2809 
L 641 3341 
Q 956 3463 1253 3523 
Q 1550 3584 1831 3584 
Q 2591 3584 2966 3190 
Q 3341 2797 3341 1997 
z
" id="DejaVuSans-61" transform="scale(0.015625)"/>
      <path d="M 3513 2113 
L 3513 0 
L 2938 0 
L 2938 2094 
Q 2938 2591 2744 2837 
Q 2550 3084 2163 3084 
Q 1697 3084 1428 2787 
Q 1159 2491 1159 1978 
L 1159 0 
L 581 0 
L 581 3500 
L 1159 3500 
L 1159 2956 
Q 1366 3272 1645 3428 
Q 1925 3584 2291 3584 
Q 2894 3584 3203 3211 
Q 3513 2838 3513 2113 
z
" id="DejaVuSans-6e" transform="scale(0.015625)"/>
      <path d="M 2906 1791 
Q 2906 2416 2648 2759 
Q 2391 3103 1925 3103 
Q 1463 3103 1205 2759 
Q 947 2416 947 1791 
Q 947 1169 1205 825 
Q 1463 481 1925 481 
Q 2391 481 2648 825 
Q 2906 1169 2906 1791 
z
M 3481 434 
Q 3481 -459 3084 -895 
Q 2688 -1331 1869 -1331 
Q 1566 -1331 1297 -1286 
Q 1028 -1241 775 -1147 
L 775 -588 
Q 1028 -725 1275 -790 
Q 1522 -856 1778 -856 
Q 2344 -856 2625 -561 
Q 2906 -266 2906 331 
L 2906 616 
Q 2728 306 2450 153 
Q 2172 0 1784 0 
Q 1141 0 747 490 
Q 353 981 353 1791 
Q 353 2603 747 3093 
Q 1141 3584 1784 3584 
Q 2172 3584 2450 3431 
Q 2728 3278 2906 2969 
L 2906 3500 
L 3481 3500 
L 3481 434 
z
" id="DejaVuSans-67" transform="scale(0.015625)"/>
      <path d="M 603 4863 
L 1178 4863 
L 1178 0 
L 603 0 
L 603 4863 
z
" id="DejaVuSans-6c" transform="scale(0.015625)"/>
      <path d="M 3597 1894 
L 3597 1613 
L 953 1613 
Q 991 1019 1311 708 
Q 1631 397 2203 397 
Q 2534 397 2845 478 
Q 3156 559 3463 722 
L 3463 178 
Q 3153 47 2828 -22 
Q 2503 -91 2169 -91 
Q 1331 -91 842 396 
Q 353 884 353 1716 
Q 353 2575 817 3079 
Q 1281 3584 2069 3584 
Q 2775 3584 3186 3129 
Q 3597 2675 3597 1894 
z
M 3022 2063 
Q 3016 2534 2758 2815 
Q 2500 3097 2075 3097 
Q 1594 3097 1305 2825 
Q 1016 2553 972 2059 
L 3022 2063 
z
" id="DejaVuSans-65" transform="scale(0.015625)"/>
      <path id="DejaVuSans-20" transform="scale(0.015625)"/>
      <path d="M 3122 3366 
L 3122 2828 
Q 2878 2963 2633 3030 
Q 2388 3097 2138 3097 
Q 1578 3097 1268 2742 
Q 959 2388 959 1747 
Q 959 1106 1268 751 
Q 1578 397 2138 397 
Q 2388 397 2633 464 
Q 2878 531 3122 666 
L 3122 134 
Q 2881 22 2623 -34 
Q 2366 -91 2075 -91 
Q 1284 -91 818 406 
Q 353 903 353 1747 
Q 353 2603 823 3093 
Q 1294 3584 2113 3584 
Q 2378 3584 2631 3529 
Q 2884 3475 3122 3366 
z
" id="DejaVuSans-63" transform="scale(0.015625)"/>
      <path d="M 2834 3397 
L 2834 2853 
Q 2591 2978 2328 3040 
Q 2066 3103 1784 3103 
Q 1356 3103 1142 2972 
Q 928 2841 928 2578 
Q 928 2378 1081 2264 
Q 1234 2150 1697 2047 
L 1894 2003 
Q 2506 1872 2764 1633 
Q 3022 1394 3022 966 
Q 3022 478 2636 193 
Q 2250 -91 1575 -91 
Q 1294 -91 989 -36 
Q 684 19 347 128 
L 347 722 
Q 666 556 975 473 
Q 1284 391 1588 391 
Q 1994 391 2212 530 
Q 2431 669 2431 922 
Q 2431 1156 2273 1281 
Q 2116 1406 1581 1522 
L 1381 1569 
Q 847 1681 609 1914 
Q 372 2147 372 2553 
Q 372 3047 722 3315 
Q 1072 3584 1716 3584 
Q 2034 3584 2315 3537 
Q 2597 3491 2834 3397 
z
" id="DejaVuSans-73" transform="scale(0.015625)"/>
     </defs>
     <use xlink:href="#DejaVuSans-74"/>
     <use x="39.208984" xlink:href="#DejaVuSans-72"/>
     <use x="80.322266" xlink:href="#DejaVuSans-69"/>
     <use x="108.105469" xlink:href="#DejaVuSans-61"/>
     <use x="169.384766" xlink:href="#DejaVuSans-6e"/>
     <use x="232.763672" xlink:href="#DejaVuSans-67"/>
     <use x="296.240234" xlink:href="#DejaVuSans-6c"/>
     <use x="324.023438" xlink:href="#DejaVuSans-65"/>
     <use x="385.546875" xlink:href="#DejaVuSans-20"/>
     <use x="417.333984" xlink:href="#DejaVuSans-63"/>
     <use x="472.314453" xlink:href="#DejaVuSans-65"/>
     <use x="533.837891" xlink:href="#DejaVuSans-6e"/>
     <use x="597.216797" xlink:href="#DejaVuSans-74"/>
     <use x="636.425781" xlink:href="#DejaVuSans-65"/>
     <use x="697.949219" xlink:href="#DejaVuSans-72"/>
     <use x="739.0625" xlink:href="#DejaVuSans-73"/>
    </g>
   </g>
   <g id="legend_1">
    <g id="patch_3">
     <path d="M 112.54625 103.70875 
L 217.64 103.70875 
Q 219.64 103.70875 219.64 101.70875 
L 219.64 29.318125 
Q 219.64 27.318125 217.64 27.318125 
L 112.54625 27.318125 
Q 110.54625 27.318125 110.54625 29.318125 
L 110.54625 101.70875 
Q 110.54625 103.70875 112.54625 103.70875 
z
" style="fill:#ffffff;opacity:0.8;stroke:#cccccc;stroke-linejoin:miter;"/>
    </g>
    <g id="PathCollection_7">
     <g>
      <use style="fill:#1f77b4;stroke:#1f77b4;" x="124.54625" xlink:href="#m4054e0c699" y="36.291563"/>
     </g>
    </g>
    <g id="text_2">
     <!-- vertex-median -->
     <g transform="translate(142.54625 38.916563)scale(0.1 -0.1)">
      <defs>
       <path d="M 191 3500 
L 800 3500 
L 1894 563 
L 2988 3500 
L 3597 3500 
L 2284 0 
L 1503 0 
L 191 3500 
z
" id="DejaVuSans-76" transform="scale(0.015625)"/>
       <path d="M 3513 3500 
L 2247 1797 
L 3578 0 
L 2900 0 
L 1881 1375 
L 863 0 
L 184 0 
L 1544 1831 
L 300 3500 
L 978 3500 
L 1906 2253 
L 2834 3500 
L 3513 3500 
z
" id="DejaVuSans-78" transform="scale(0.015625)"/>
       <path d="M 313 2009 
L 1997 2009 
L 1997 1497 
L 313 1497 
L 313 2009 
z
" id="DejaVuSans-2d" transform="scale(0.015625)"/>
       <path d="M 3328 2828 
Q 3544 3216 3844 3400 
Q 4144 3584 4550 3584 
Q 5097 3584 5394 3201 
Q 5691 2819 5691 2113 
L 5691 0 
L 5113 0 
L 5113 2094 
Q 5113 2597 4934 2840 
Q 4756 3084 4391 3084 
Q 3944 3084 3684 2787 
Q 3425 2491 3425 1978 
L 3425 0 
L 2847 0 
L 2847 2094 
Q 2847 2600 2669 2842 
Q 2491 3084 2119 3084 
Q 1678 3084 1418 2786 
Q 1159 2488 1159 1978 
L 1159 0 
L 581 0 
L 581 3500 
L 1159 3500 
L 1159 2956 
Q 1356 3278 1631 3431 
Q 1906 3584 2284 3584 
Q 2666 3584 2933 3390 
Q 3200 3197 3328 2828 
z
" id="DejaVuSans-6d" transform="scale(0.015625)"/>
       <path d="M 2906 2969 
L 2906 4863 
L 3481 4863 
L 3481 0 
L 2906 0 
L 2906 525 
Q 2725 213 2448 61 
Q 2172 -91 1784 -91 
Q 1150 -91 751 415 
Q 353 922 353 1747 
Q 353 2572 751 3078 
Q 1150 3584 1784 3584 
Q 2172 3584 2448 3432 
Q 2725 3281 2906 2969 
z
M 947 1747 
Q 947 1113 1208 752 
Q 1469 391 1925 391 
Q 2381 391 2643 752 
Q 2906 1113 2906 1747 
Q 2906 2381 2643 2742 
Q 2381 3103 1925 3103 
Q 1469 3103 1208 2742 
Q 947 2381 947 1747 
z
" id="DejaVuSans-64" transform="scale(0.015625)"/>
      </defs>
      <use xlink:href="#DejaVuSans-76"/>
      <use x="59.179688" xlink:href="#DejaVuSans-65"/>
      <use x="120.703125" xlink:href="#DejaVuSans-72"/>
      <use x="161.816406" xlink:href="#DejaVuSans-74"/>
      <use x="201.025391" xlink:href="#DejaVuSans-65"/>
      <use x="260.798828" xlink:href="#DejaVuSans-78"/>
      <use x="319.978516" xlink:href="#DejaVuSans-2d"/>
      <use x="356.0625" xlink:href="#DejaVuSans-6d"/>
      <use x="453.474609" xlink:href="#DejaVuSans-65"/>
      <use x="514.998047" xlink:href="#DejaVuSans-64"/>
      <use x="578.474609" xlink:href="#DejaVuSans-69"/>
      <use x="606.257812" xlink:href="#DejaVuSans-61"/>
      <use x="667.537109" xlink:href="#DejaVuSans-6e"/>
     </g>
    </g>
    <g id="PathCollection_8">
     <g>
      <use style="fill:#ff7f0e;stroke:#ff7f0e;" x="124.54625" xlink:href="#mca50ab4fb4" y="50.969688"/>
     </g>
    </g>
    <g id="text_3">
     <!-- areal -->
     <g transform="translate(142.54625 53.594688)scale(0.1 -0.1)">
      <use xlink:href="#DejaVuSans-61"/>
      <use x="61.279297" xlink:href="#DejaVuSans-72"/>
      <use x="100.142578" xlink:href="#DejaVuSans-65"/>
      <use x="161.666016" xlink:href="#DejaVuSans-61"/>
      <use x="222.945312" xlink:href="#DejaVuSans-6c"/>
     </g>
    </g>
    <g id="PathCollection_9">
     <g>
      <use style="fill:#2ca02c;stroke:#2ca02c;" x="124.54625" xlink:href="#m2b1fce0ffa" y="65.647813"/>
     </g>
    </g>
    <g id="text_4">
     <!-- incenter -->
     <g transform="translate(142.54625 68.272813)scale(0.1 -0.1)">
      <use xlink:href="#DejaVuSans-69"/>
      <use x="27.783203" xlink:href="#DejaVuSans-6e"/>
      <use x="91.162109" xlink:href="#DejaVuSans-63"/>
      <use x="146.142578" xlink:href="#DejaVuSans-65"/>
      <use x="207.666016" xlink:href="#DejaVuSans-6e"/>
      <use x="271.044922" xlink:href="#DejaVuSans-74"/>
      <use x="310.253906" xlink:href="#DejaVuSans-65"/>
      <use x="371.777344" xlink:href="#DejaVuSans-72"/>
     </g>
    </g>
    <g id="PathCollection_10">
     <g>
      <use style="fill:#d62728;stroke:#d62728;" x="124.54625" xlink:href="#mefd94f5008" y="80.325938"/>
     </g>
    </g>
    <g id="text_5">
     <!-- circumcenter -->
     <g transform="translate(142.54625 82.950938)scale(0.1 -0.1)">
      <defs>
       <path d="M 544 1381 
L 544 3500 
L 1119 3500 
L 1119 1403 
Q 1119 906 1312 657 
Q 1506 409 1894 409 
Q 2359 409 2629 706 
Q 2900 1003 2900 1516 
L 2900 3500 
L 3475 3500 
L 3475 0 
L 2900 0 
L 2900 538 
Q 2691 219 2414 64 
Q 2138 -91 1772 -91 
Q 1169 -91 856 284 
Q 544 659 544 1381 
z
M 1991 3584 
L 1991 3584 
z
" id="DejaVuSans-75" transform="scale(0.015625)"/>
      </defs>
      <use xlink:href="#DejaVuSans-63"/>
      <use x="54.980469" xlink:href="#DejaVuSans-69"/>
      <use x="82.763672" xlink:href="#DejaVuSans-72"/>
      <use x="121.626953" xlink:href="#DejaVuSans-63"/>
      <use x="176.607422" xlink:href="#DejaVuSans-75"/>
      <use x="239.986328" xlink:href="#DejaVuSans-6d"/>
      <use x="337.398438" xlink:href="#DejaVuSans-63"/>
      <use x="392.378906" xlink:href="#DejaVuSans-65"/>
      <use x="453.902344" xlink:href="#DejaVuSans-6e"/>
      <use x="517.28125" xlink:href="#DejaVuSans-74"/>
      <use x="556.490234" xlink:href="#DejaVuSans-65"/>
      <use x="618.013672" xlink:href="#DejaVuSans-72"/>
     </g>
    </g>
    <g id="PathCollection_11">
     <g>
      <use style="fill:#9467bd;stroke:#9467bd;" x="124.54625" xlink:href="#ma0c01dca6e" y="95.004063"/>
     </g>
    </g>
    <g id="text_6">
     <!-- orthocenter -->
     <g transform="translate(142.54625 97.629063)scale(0.1 -0.1)">
      <defs>
       <path d="M 1959 3097 
Q 1497 3097 1228 2736 
Q 959 2375 959 1747 
Q 959 1119 1226 758 
Q 1494 397 1959 397 
Q 2419 397 2687 759 
Q 2956 1122 2956 1747 
Q 2956 2369 2687 2733 
Q 2419 3097 1959 3097 
z
M 1959 3584 
Q 2709 3584 3137 3096 
Q 3566 2609 3566 1747 
Q 3566 888 3137 398 
Q 2709 -91 1959 -91 
Q 1206 -91 779 398 
Q 353 888 353 1747 
Q 353 2609 779 3096 
Q 1206 3584 1959 3584 
z
" id="DejaVuSans-6f" transform="scale(0.015625)"/>
       <path d="M 3513 2113 
L 3513 0 
L 2938 0 
L 2938 2094 
Q 2938 2591 2744 2837 
Q 2550 3084 2163 3084 
Q 1697 3084 1428 2787 
Q 1159 2491 1159 1978 
L 1159 0 
L 581 0 
L 581 4863 
L 1159 4863 
L 1159 2956 
Q 1366 3272 1645 3428 
Q 1925 3584 2291 3584 
Q 2894 3584 3203 3211 
Q 3513 2838 3513 2113 
z
" id="DejaVuSans-68" transform="scale(0.015625)"/>
      </defs>
      <use xlink:href="#DejaVuSans-6f"/>
      <use x="61.181641" xlink:href="#DejaVuSans-72"/>
      <use x="102.294922" xlink:href="#DejaVuSans-74"/>
      <use x="141.503906" xlink:href="#DejaVuSans-68"/>
      <use x="204.882812" xlink:href="#DejaVuSans-6f"/>
      <use x="266.064453" xlink:href="#DejaVuSans-63"/>
      <use x="321.044922" xlink:href="#DejaVuSans-65"/>
      <use x="382.568359" xlink:href="#DejaVuSans-6e"/>
      <use x="445.947266" xlink:href="#DejaVuSans-74"/>
      <use x="485.15625" xlink:href="#DejaVuSans-65"/>
      <use x="546.679688" xlink:href="#DejaVuSans-72"/>
     </g>
    </g>
   </g>
  </g>
 </g>
 <defs>
  <clipPath id="pd826e35961">
   <rect height="217.44" width="217.44" x="7.2" y="22.318125"/>
  </clipPath>
 </defs>
</svg>
