<?xml version="1.0" encoding="utf-8" standalone="no"?>
<!DOCTYPE svg PUBLIC "-//W3C//DTD SVG 1.1//EN"
  "http://www.w3.org/Graphics/SVG/1.1/DTD/svg11.dtd">
<svg height="231.84pt" version="1.1" viewBox="0 0 231.84 231.84" width="231.84pt" xmlns="http://www.w3.org/2000/svg" xmlns:xlink="http://www.w3.org/1999/xlink">
 <metadata>
  <rdf:RDF xmlns:cc="http://creativecommons.org/ns#" xmlns:dc="http://purl.org/dc/elements/1.1/" xmlns:rdf="http://www.w3.org/1999/02/22-rdf-syntax-ns#">
   <cc:Work>
    <dc:type rdf:resource="http://purl.org/dc/dcmitype/StillImage"/>
    <dc:date>2021-05-02T21:18:05.426469</dc:date>
    <dc:format>image/svg+xml</dc:format>
    <dc:creator>
     <cc:Agent>
      <dc:title>Matplotlib v3.4.1, https://matplotlib.org/</dc:title>
     </cc:Agent>
    </dc:creator>
   </cc:Work>
  </rdf:RDF>
 </metadata>
 <defs>
  <style type="text/css">*{stroke-linecap:butt;stroke-linejoin:round;}</style>
 </defs>
 <g id="figure_1">
  <g id="patch_1">
   <path d="M 0 231.84 
L 231.84 231.84 
L 231.84 0 
L 0 0 
z
" style="fill:#ffffff;"/>
  </g>
  <g id="axes_1">
   <g id="line2d_1">
    <path clip-path="url(#pd05ff37e76)" d="M 0 0 
" style="fill:none;stroke:#ffbbbb;stroke-linecap:square;stroke-width:1.5;"/>
   </g>
   <g id="line2d_2">
    <path clip-path="url(#pd05ff37e76)" d="M 164.187808 18.502412 
L 159.878631 16.543247 
L 155.448294 14.857986 
L 150.909008 13.451274 
L 146.273285 12.326988 
L 141.553902 11.488227 
L 136.763866 10.937302 
L 131.916381 10.675733 
L 127.024805 10.70424 
L 122.102622 11.022744 
L 117.163399 11.630369 
L 112.220748 12.525438 
L 107.288294 13.705485 
L 102.37963 15.167258 
L 97.508287 16.906727 
L 92.68769 18.919098 
L 87.931127 21.198825 
L 83.251707 23.739625 
L 78.662328 26.534493 
L 74.175639 29.575727 
L 69.804006 32.854945 
L 65.55948 36.363109 
L 61.453758 40.090548 
L 57.498157 44.026991 
L 53.703579 48.161585 
L 50.080483 52.482937 
L 46.638856 56.979135 
L 43.388182 61.637788 
L 40.337422 66.446053 
L 37.494984 71.39068 
L 34.868702 76.458039 
L 32.465815 81.634164 
L 30.292947 86.904788 
L 28.356085 92.255385 
L 26.660568 97.671206 
L 25.21107 103.137325 
L 24.011585 108.638676 
L 23.06542 114.160096 
L 22.375183 119.686366 
L 21.942775 125.202256 
L 21.769389 130.692561 
L 21.855503 136.14215 
L 22.200879 141.536003 
L 22.804565 146.859252 
L 23.664898 152.097226 
L 24.779506 157.235487 
L 26.145317 162.259874 
L 27.758567 167.156539 
L 29.614809 171.911984 
L 31.708926 176.513103 
L 34.035148 180.947214 
L 36.587062 185.202096 
L 39.357636 189.266022 
L 42.339231 193.12779 
L 45.523632 196.776756 
L 48.90206 200.202864 
L 52.465204 203.396669 
L 56.203243 206.34937 
L 60.105875 209.052828 
L 64.162343 211.499591 
L 66.946614 212.984799 
L 66.946614 212.984799 
" style="fill:none;stroke:#ffbbbb;stroke-linecap:square;stroke-width:1.5;"/>
   </g>
   <g id="line2d_3">
    <path clip-path="url(#pd05ff37e76)" d="M 211.371574 163.645787 
L 213.097336 159.997837 
L 214.6612 156.281371 
L 216.058857 152.506632 
L 217.286453 148.684025 
L 218.340606 144.824085 
L 219.218409 140.937452 
L 219.917445 137.034837 
L 220.435784 133.126998 
L 220.772 129.224704 
L 220.925166 125.338712 
L 220.894859 121.479732 
L 220.681162 117.6584 
L 220.284665 113.885249 
L 219.706461 110.170679 
L 218.948144 106.524927 
L 218.011802 102.958042 
L 216.900018 99.479856 
L 215.615855 96.099954 
L 214.162853 92.827653 
L 212.545017 89.671971 
L 210.766806 86.641607 
L 208.83312 83.744913 
L 206.74929 80.989873 
L 204.521059 78.38408 
L 202.154569 75.934716 
L 199.656342 73.648533 
L 197.033263 71.531831 
L 194.292564 69.590445 
L 191.441796 67.829725 
L 188.488819 66.254525 
L 185.44177 64.869186 
L 182.309049 63.677527 
L 179.09929 62.682831 
L 175.821339 61.887841 
L 172.484231 61.294747 
L 169.097164 60.905185 
L 165.669474 60.720227 
L 162.210608 60.740385 
L 158.730099 60.965602 
L 155.23754 61.395257 
L 151.742559 62.028166 
L 148.254787 62.862586 
L 144.783837 63.896215 
L 141.339277 65.126206 
L 137.930601 66.549167 
L 134.567202 68.161177 
L 131.258353 69.957794 
L 128.013172 71.934064 
L 124.840604 74.084542 
L 121.749393 76.403299 
L 118.748059 78.883945 
L 115.844876 81.519643 
L 113.047843 84.303128 
L 110.364672 87.226728 
L 107.802756 90.282385 
L 105.369158 93.461677 
L 103.070584 96.755842 
L 100.913371 100.155799 
L 98.903464 103.652178 
L 97.046402 107.235342 
L 95.347305 110.895415 
L 93.810855 114.622309 
L 92.441286 118.405752 
L 91.242375 122.235316 
L 90.217425 126.100446 
L 89.369261 129.990489 
L 88.700222 133.894722 
L 88.21215 137.802385 
L 87.906392 141.702708 
L 87.783789 145.58494 
L 87.844681 149.438382 
L 88.088899 153.252412 
L 88.515769 157.016517 
L 89.124117 160.720324 
L 89.912263 164.353624 
L 90.878038 167.906402 
L 92.018777 171.368866 
L 93.331339 174.731474 
L 94.812103 177.984956 
L 96.456991 181.120347 
L 98.261467 184.129002 
L 100.220558 187.002632 
L 102.328864 189.733314 
L 104.580575 192.313523 
L 106.969485 194.736147 
L 109.489008 196.994508 
L 112.132201 199.082383 
L 114.891779 200.994017 
L 117.760134 202.724139 
L 120.729363 204.267984 
L 123.79128 205.621293 
L 126.937447 206.780339 
L 130.159191 207.741926 
L 133.447634 208.503404 
L 136.793711 209.062675 
L 140.1882 209.418196 
L 143.621745 209.568987 
L 147.084882 209.514634 
L 150.568066 209.255286 
L 154.061698 208.791658 
L 157.556146 208.125027 
L 161.041781 207.257231 
L 164.508995 206.190662 
L 167.948232 204.92826 
L 171.350011 203.473504 
L 174.704958 201.830403 
L 178.003825 200.003487 
L 181.23752 197.997791 
L 184.39713 195.818843 
L 187.473947 193.472648 
L 190.459489 190.965673 
L 193.345529 188.304828 
L 196.124112 185.497447 
L 198.787579 182.551268 
L 201.328589 179.474411 
L 203.74014 176.275356 
L 206.015583 172.96292 
L 208.148647 169.546235 
L 210.133454 166.034715 
L 211.371574 163.645787 
L 211.371574 163.645787 
" style="fill:none;stroke:#ffbbbb;stroke-linecap:square;stroke-width:1.5;"/>
   </g>
   <g id="PathCollection_1">
    <defs>
     <path d="M 0 3 
C 0.795609 3 1.55874 2.683901 2.12132 2.12132 
C 2.683901 1.55874 3 0.795609 3 0 
C 3 -0.795609 2.683901 -1.55874 2.12132 -2.12132 
C 1.55874 -2.683901 0.795609 -3 0 -3 
C -0.795609 -3 -1.55874 -2.683901 -2.12132 -2.12132 
C -2.683901 -1.55874 -3 -0.795609 -3 0 
C -3 0.795609 -2.683901 1.55874 -2.12132 2.12132 
C -1.55874 2.683901 -0.795609 3 0 3 
z
" id="mec72a8d2fe" style="stroke:#ff0000;"/>
    </defs>
    <g clip-path="url(#pd05ff37e76)">
     <use style="fill:#ff0000;stroke:#ff0000;" x="61.56" xlink:href="#mec72a8d2fe" y="88.74"/>
    </g>
   </g>
   <g id="PathCollection_2">
    <defs>
     <path d="M 0 3 
C 0.795609 3 1.55874 2.683901 2.12132 2.12132 
C 2.683901 1.55874 3 0.795609 3 0 
C 3 -0.795609 2.683901 -1.55874 2.12132 -2.12132 
C 1.55874 -2.683901 0.795609 -3 0 -3 
C -0.795609 -3 -1.55874 -2.683901 -2.12132 -2.12132 
C -2.683901 -1.55874 -3 -0.795609 -3 0 
C -3 0.795609 -2.683901 1.55874 -2.12132 2.12132 
C -1.55874 2.683901 -0.795609 3 0 3 
z
" id="m01cfa3d708" style="stroke:#ffbbbb;"/>
    </defs>
    <g clip-path="url(#pd05ff37e76)">
     <use style="fill:#ffbbbb;stroke:#ffbbbb;" x="170.28" xlink:href="#m01cfa3d708" y="143.1"/>
    </g>
   </g>
   <g id="patch_2">
    <path clip-path="url(#pd05ff37e76)" d="M 115.92 224.64 
C 144.752881 224.64 172.408724 213.184575 192.796649 192.796649 
C 213.184575 172.408724 224.64 144.752881 224.64 115.92 
C 224.64 87.087119 213.184575 59.431276 192.796649 39.043351 
C 172.408724 18.655425 144.752881 7.2 115.92 7.2 
C 87.087119 7.2 59.431276 18.655425 39.043351 39.043351 
C 18.655425 59.431276 7.2 87.087119 7.2 115.92 
C 7.2 144.752881 18.655425 172.408724 39.043351 192.796649 
C 59.431276 213.184575 87.087119 224.64 115.92 224.64 
z
" style="fill:none;stroke:#000000;stroke-linejoin:miter;"/>
   </g>
   <g id="line2d_4">
    <path clip-path="url(#pd05ff37e76)" d="M 134.494924 125.207462 
L 136.220686 121.559512 
L 137.784551 117.843046 
L 139.182207 114.068308 
L 140.409804 110.2457 
L 141.463956 106.385761 
L 142.34176 102.499127 
L 143.040795 98.596513 
L 143.559135 94.688673 
L 143.895351 90.786379 
L 144.048517 86.900387 
L 144.018209 83.041407 
L 143.804513 79.220075 
L 143.408016 75.446925 
L 142.829812 71.732354 
L 142.071494 68.086602 
L 141.135153 64.519718 
L 140.023369 61.041531 
L 138.739206 57.661629 
L 137.286204 54.389328 
L 135.668368 51.233647 
L 133.890156 48.203283 
L 131.956471 45.306589 
L 129.872641 42.551548 
L 127.64441 39.945755 
L 125.27792 37.496392 
L 122.779693 35.210208 
L 120.156614 33.093506 
L 117.415914 31.15212 
L 114.565147 29.391401 
L 111.61217 27.816201 
L 108.565121 26.430862 
L 105.4324 25.239202 
L 102.22264 24.244506 
L 98.944689 23.449516 
L 95.607581 22.856422 
L 92.220515 22.46686 
L 88.792825 22.281903 
L 85.333958 22.30206 
L 81.85345 22.527277 
L 78.360891 22.956932 
L 74.86591 23.589842 
L 71.378137 24.424261 
L 67.907188 25.45789 
L 64.462628 26.687881 
L 61.053951 28.110842 
L 57.690553 29.722853 
L 54.381704 31.519469 
L 51.136523 33.49574 
L 47.963954 35.646217 
L 44.872744 37.964974 
L 41.87141 40.44562 
L 38.968226 43.081318 
L 36.171194 45.864803 
L 33.488022 48.788403 
L 30.926107 51.84406 
L 28.492509 55.023353 
L 26.193935 58.317517 
L 24.036722 61.717474 
L 22.026815 65.213854 
L 20.169753 68.797018 
L 18.470655 72.457091 
L 16.934205 76.183985 
L 15.564637 79.967428 
L 14.365726 83.796992 
L 13.340776 87.662122 
L 12.492612 91.552164 
L 11.823572 95.456397 
L 11.335501 99.364061 
L 11.029742 103.264384 
L 10.90714 107.146616 
L 10.968032 111.000057 
L 11.212249 114.814087 
L 11.63912 118.578193 
L 12.247467 122.281999 
L 13.035614 125.915299 
L 14.001388 129.468077 
L 15.142128 132.930542 
L 16.454689 136.293149 
L 17.935454 139.546632 
L 19.580341 142.682022 
L 21.384817 145.690678 
L 23.343908 148.564307 
L 25.452215 151.294989 
L 27.703926 153.875198 
L 30.092835 156.297822 
L 32.612359 158.556184 
L 35.255552 160.644059 
L 38.015129 162.555692 
L 40.883485 164.285815 
L 43.852714 165.829659 
L 46.914631 167.182969 
L 50.060797 168.342015 
L 53.282542 169.303602 
L 56.570985 170.06508 
L 59.917062 170.62435 
L 63.311551 170.979871 
L 66.745095 171.130663 
L 70.208233 171.076309 
L 73.691417 170.816961 
L 77.185048 170.353333 
L 80.679497 169.686702 
L 84.165132 168.818907 
L 87.632346 167.752338 
L 91.071582 166.489936 
L 94.473362 165.035179 
L 97.828309 163.392079 
L 101.127176 161.565163 
L 104.360871 159.559466 
L 107.520481 157.380518 
L 110.597297 155.034323 
L 113.58284 152.527348 
L 116.46888 149.866504 
L 119.247463 147.059123 
L 121.91093 144.112944 
L 124.45194 141.036086 
L 126.86349 137.837031 
L 129.138933 134.524596 
L 131.271998 131.10791 
L 133.256804 127.596391 
L 134.494924 125.207462 
L 134.494924 125.207462 
" style="fill:none;stroke:#ff0000;stroke-linecap:square;stroke-width:1.5;"/>
   </g>
   <g id="line2d_5">
    <path clip-path="url(#pd05ff37e76)" d="M 196.54891 156.234455 
L 198.989506 151.075475 
L 201.201144 145.819598 
L 203.177729 140.481311 
L 204.913813 135.075329 
L 206.40461 129.61655 
L 207.646012 124.12002 
L 208.634597 118.600889 
L 209.36764 113.074369 
L 209.843121 107.555693 
L 210.05973 102.06007 
L 210.016869 96.602648 
L 209.714656 91.198469 
L 209.153925 85.862428 
L 208.336221 80.609232 
L 207.263798 75.45336 
L 205.939611 70.409024 
L 204.367311 65.490125 
L 202.55123 60.710222 
L 200.496375 56.082489 
L 198.20841 51.619682 
L 195.693639 47.3341 
L 192.958994 43.237556 
L 190.012014 39.341341 
L 186.86082 35.656193 
L 183.514097 32.192269 
L 179.98107 28.959118 
L 176.271477 25.965649 
L 172.395542 23.220115 
L 168.363949 20.730081 
L 165.595213 19.215423 
M 68.361466 213.682917 
L 72.691671 215.596786 
L 77.141022 217.235924 
L 81.697257 218.595814 
L 86.347817 219.672706 
L 91.079885 220.463634 
L 95.880417 220.966416 
L 100.736183 221.179668 
L 105.633799 221.102801 
L 110.559765 220.736027 
L 115.500506 220.080358 
L 120.442403 219.137599 
L 125.371835 217.910351 
L 130.275216 216.401995 
L 135.139031 214.616689 
L 139.949874 212.559353 
L 144.694485 210.235658 
L 149.359788 207.652008 
L 153.932923 204.815525 
L 158.401286 201.734027 
L 162.752562 198.416006 
L 166.974757 194.870609 
L 171.056234 191.107606 
L 174.985743 187.13737 
L 178.752454 182.970843 
L 182.345986 178.61951 
L 185.756432 174.095363 
L 188.974395 169.410872 
L 191.991003 164.578948 
L 194.797944 159.61291 
L 196.54891 156.234455 
L 196.54891 156.234455 
" style="fill:none;stroke:#ff0000;stroke-linecap:square;stroke-width:1.5;"/>
   </g>
   <g id="line2d_6">
    <path clip-path="url(#pd05ff37e76)" d="M 0 0 
" style="fill:none;stroke:#ff0000;stroke-linecap:square;stroke-width:1.5;"/>
   </g>
  </g>
 </g>
 <defs>
  <clipPath id="pd05ff37e76">
   <rect height="217.44" width="217.44" x="7.2" y="7.2"/>
  </clipPath>
 </defs>
</svg>
