<?xml version="1.0" encoding="utf-8" standalone="no"?>
<!DOCTYPE svg PUBLIC "-//W3C//DTD SVG 1.1//EN"
  "http://www.w3.org/Graphics/SVG/1.1/DTD/svg11.dtd">
<svg xmlns:xlink="http://www.w3.org/1999/xlink" width="231.84pt" height="246.958125pt" viewBox="0 0 231.84 246.958125" xmlns="http://www.w3.org/2000/svg" version="1.1">
 <metadata>
  <rdf:RDF xmlns:dc="http://purl.org/dc/elements/1.1/" xmlns:cc="http://creativecommons.org/ns#" xmlns:rdf="http://www.w3.org/1999/02/22-rdf-syntax-ns#">
   <cc:Work>
    <dc:type rdf:resource="http://purl.org/dc/dcmitype/StillImage"/>
    <dc:date>2023-02-05T20:38:46.428922</dc:date>
    <dc:format>image/svg+xml</dc:format>
    <dc:creator>
     <cc:Agent>
      <dc:title>Matplotlib v3.6.2, https://matplotlib.org/</dc:title>
     </cc:Agent>
    </dc:creator>
   </cc:Work>
  </rdf:RDF>
 </metadata>
 <defs>
  <style type="text/css">*{stroke-linejoin: round; stroke-linecap: butt}</style>
 </defs>
 <g id="figure_1">
  <g id="patch_1">
   <path d="M 0 246.958125 
L 231.84 246.958125 
L 231.84 0 
L 0 0 
z
" style="fill: #ffffff"/>
  </g>
  <g id="axes_1">
   <g id="patch_2">
    <path d="M 115.92 239.758125 
C 144.752881 239.758125 172.408724 228.3027 192.796649 207.914774 
C 213.184575 187.526849 224.64 159.871006 224.64 131.038125 
C 224.64 102.205244 213.184575 74.549401 192.796649 54.161476 
C 172.408724 33.77355 144.752881 22.318125 115.92 22.318125 
C 87.087119 22.318125 59.431276 33.77355 39.043351 54.161476 
C 18.655425 74.549401 7.2 102.205244 7.2 131.038125 
C 7.2 159.871006 18.655425 187.526849 39.043351 207.914774 
C 59.431276 228.3027 87.087119 239.758125 115.92 239.758125 
L 115.92 239.758125 
z
" clip-path="url(#p7081683ddd)" style="fill: none; stroke: #000000; stroke-linejoin: miter"/>
   </g>
   <g id="PathCollection_1">
    <defs>
     <path id="m99821bece5" d="M 0 3 
C 0.795609 3 1.55874 2.683901 2.12132 2.12132 
C 2.683901 1.55874 3 0.795609 3 0 
C 3 -0.795609 2.683901 -1.55874 2.12132 -2.12132 
C 1.55874 -2.683901 0.795609 -3 0 -3 
C -0.795609 -3 -1.55874 -2.683901 -2.12132 -2.12132 
C -2.683901 -1.55874 -3 -0.795609 -3 0 
C -3 0.795609 -2.683901 1.55874 -2.12132 2.12132 
C -1.55874 2.683901 -0.795609 3 0 3 
z
" style="stroke: #000000"/>
    </defs>
    <g clip-path="url(#p7081683ddd)">
     <use xlink:href="#m99821bece5" x="115.92" y="185.398125" style="stroke: #000000"/>
     <use xlink:href="#m99821bece5" x="170.28" y="158.218125" style="stroke: #000000"/>
     <use xlink:href="#m99821bece5" x="61.56" y="76.678125" style="stroke: #000000"/>
    </g>
   </g>
   <g id="PathCollection_2">
    <defs>
     <path id="mb6a98442d5" d="M 0 3 
C 0.795609 3 1.55874 2.683901 2.12132 2.12132 
C 2.683901 1.55874 3 0.795609 3 0 
C 3 -0.795609 2.683901 -1.55874 2.12132 -2.12132 
C 1.55874 -2.683901 0.795609 -3 0 -3 
C -0.795609 -3 -1.55874 -2.683901 -2.12132 -2.12132 
C -2.683901 -1.55874 -3 -0.795609 -3 0 
C -3 0.795609 -2.683901 1.55874 -2.12132 2.12132 
C -1.55874 2.683901 -0.795609 3 0 3 
z
" style="stroke: #0000ff"/>
    </defs>
    <g clip-path="url(#p7081683ddd)">
     <use xlink:href="#mb6a98442d5" x="142.827724" y="134.621405" style="fill: #0000ff; stroke: #0000ff"/>
     <use xlink:href="#mb6a98442d5" x="104.049297" y="168.087982" style="fill: #0000ff; stroke: #0000ff"/>
     <use xlink:href="#mb6a98442d5" x="136.492374" y="177.202529" style="fill: #0000ff; stroke: #0000ff"/>
    </g>
   </g>
   <g id="line2d_1">
    <path d="M 115.92 185.398125 
L 121.017403 192.134677 
L 126.075795 198.403655 
L 131.056465 204.157082 
L 134.959398 208.358896 
L 138.769056 212.181912 
L 142.466775 215.607398 
L 146.034439 218.618573 
L 149.454571 221.200686 
L 152.710415 223.341087 
L 155.034855 224.650123 
L 157.251487 225.701144 
L 159.3542 226.491252 
L 161.337199 227.018271 
L 163.195019 227.280748 
L 164.922538 227.27796 
L 166.514995 227.009913 
L 167.968002 226.477347 
M 63.199056 35.96395 
L 61.962612 36.890316 
L 60.874885 38.076173 
L 59.938876 39.518254 
L 59.157162 41.212584 
L 58.531899 43.154492 
L 58.06481 45.338627 
L 57.757183 47.758968 
L 57.609866 50.408845 
L 57.66345 54.286357 
L 58.002437 58.539882 
L 58.625167 63.14858 
L 59.528587 68.089873 
L 60.708273 73.339555 
L 62.158445 78.871905 
L 63.871998 84.659822 
L 66.371412 92.210801 
L 69.250022 100.058927 
L 72.4858 108.144138 
L 76.053981 116.404557 
L 79.927258 124.776968 
L 84.075988 133.197295 
L 88.468422 141.601099 
L 93.070944 149.924063 
L 97.84833 158.102493 
L 102.76402 166.073798 
L 107.780393 173.776974 
L 112.859058 181.153068 
L 115.92 185.398125 
L 115.92 185.398125 
" clip-path="url(#p7081683ddd)" style="fill: none; stroke: #000000; stroke-width: 1.5; stroke-linecap: square"/>
   </g>
   <g id="line2d_2">
    <path d="M 89.012276 94.259819 
L 93.56603 97.244531 
L 98.334026 100.116078 
L 103.292903 102.860391 
L 108.418369 105.464027 
L 113.685313 107.91423 
L 119.067933 110.198995 
L 124.539858 112.307131 
L 130.074281 114.228308 
L 135.644089 115.953116 
L 141.221995 117.473103 
L 146.780671 118.780825 
L 152.292887 119.869873 
L 157.731637 120.734912 
L 163.070276 121.371706 
L 168.28265 121.777133 
L 173.343223 121.949209 
L 178.227204 121.887089 
L 182.910664 121.591078 
L 187.37066 121.062626 
L 191.585342 120.304323 
L 195.534062 119.319883 
L 199.197474 118.114129 
L 201.746949 117.06809 
L 204.118786 115.903746 
L 206.306447 114.624306 
L 208.303904 113.233297 
L 210.105649 111.734552 
L 211.706719 110.132203 
L 213.102698 108.430666 
L 214.289741 106.63463 
L 215.264575 104.749047 
L 216.024514 102.779112 
L 216.567462 100.730256 
L 216.891924 98.608126 
L 216.997004 96.418571 
L 216.882414 94.167625 
L 216.548469 91.861493 
L 215.99609 89.506531 
L 215.2268 87.10923 
L 214.242717 84.676197 
L 213.86741 83.858402 
M 73.259816 31.039623 
L 70.857905 32.184464 
L 68.639116 33.444958 
L 66.609562 34.81763 
L 64.774838 36.298698 
L 63.140001 37.884079 
L 61.709557 39.569403 
L 60.487448 41.350026 
L 59.477044 43.221039 
L 58.681128 45.177286 
L 58.101894 47.213375 
L 57.74094 49.323693 
L 57.59926 51.502426 
L 57.677243 53.743566 
L 57.974677 56.040938 
L 58.490739 58.388209 
L 59.224009 60.778909 
L 60.172466 63.20645 
L 61.333494 65.664141 
L 62.703894 68.145207 
L 64.279889 70.64281 
L 66.693443 73.98677 
L 69.452888 77.331506 
L 72.544705 80.660631 
L 75.953749 83.957838 
L 79.663317 87.206971 
L 83.655237 90.392114 
L 87.909951 93.497661 
L 89.012276 94.259819 
L 89.012276 94.259819 
" clip-path="url(#p7081683ddd)" style="fill: none; stroke: #ff0000; stroke-width: 1.5; stroke-linecap: square"/>
   </g>
   <g id="line2d_3">
    <path d="M 170.28 158.218125 
L 176.107723 154.061545 
L 181.640583 149.792171 
L 186.851473 145.43092 
L 191.714865 140.999158 
L 196.206932 136.518595 
L 199.318991 133.139348 
L 202.201185 129.754309 
L 204.845569 126.372808 
L 207.244854 123.004166 
L 209.392428 119.657667 
L 211.282372 116.342535 
L 212.909476 113.067908 
L 214.269256 109.84281 
L 215.357965 106.676132 
L 216.1726 103.5766 
L 216.710917 100.552758 
L 216.971433 97.612941 
L 216.953429 94.76525 
L 216.656955 92.017536 
L 216.082828 89.377371 
L 215.23263 86.852032 
L 214.888265 86.036981 
M 17.135293 176.44164 
L 18.394967 178.781793 
L 19.923441 180.990355 
L 21.716503 183.061237 
L 23.76921 184.988732 
L 26.075905 186.767527 
L 28.630229 188.39272 
L 31.425143 189.859832 
L 34.452944 191.164817 
L 37.705285 192.304081 
L 41.173204 193.274482 
L 44.84714 194.073346 
L 48.716969 194.698472 
L 52.772025 195.148135 
L 57.00113 195.421098 
L 61.392628 195.516607 
L 65.934415 195.434399 
L 70.613974 195.174701 
L 77.045353 194.553649 
L 83.667182 193.621429 
L 90.447019 192.38261 
L 97.351651 190.84326 
L 104.34725 189.010921 
L 111.399544 186.894569 
L 118.473985 184.504573 
L 125.535914 181.852641 
L 132.550733 178.951765 
L 139.484078 175.816157 
L 146.30198 172.461178 
L 152.971039 168.903265 
L 159.458583 165.159848 
L 165.732828 161.249266 
L 170.28 158.218125 
L 170.28 158.218125 
" clip-path="url(#p7081683ddd)" style="fill: none; stroke: #000000; stroke-width: 1.5; stroke-linecap: square"/>
   </g>
   <g id="line2d_4">
    <path d="M 66.999441 93.988268 
L 65.667214 90.533502 
L 64.208855 87.270484 
L 62.631508 84.215199 
L 60.942899 81.382616 
L 59.151302 78.786611 
L 57.265494 76.439903 
L 55.294713 74.353987 
L 53.248615 72.539084 
L 51.137223 71.004085 
L 48.970881 69.756509 
L 46.760203 68.802469 
L 44.516018 68.146639 
L 42.8175 67.852454 
L 41.110999 67.72866 
L 39.401217 67.775599 
L 37.692867 67.993141 
L 35.990658 68.380687 
L 33.738704 69.159951 
L 31.517036 70.235673 
L 29.33654 71.602584 
L 27.207897 73.253985 
L 25.141535 75.181789 
L 23.147578 77.376548 
L 21.235795 79.827513 
L 19.415551 82.522674 
L 17.695764 85.448829 
L 16.08486 88.591642 
L 14.590729 91.935715 
L 13.220693 95.464667 
L 11.981462 99.161208 
L 11.692819 100.109424 
M 10.459067 157.458325 
L 11.785202 162.191068 
L 13.001686 165.79976 
L 14.350048 169.231464 
L 15.823684 172.46937 
L 17.415374 175.497614 
L 19.117319 178.301361 
L 20.921182 180.866875 
L 22.818126 183.181587 
L 24.798858 185.234158 
L 26.853673 187.014531 
L 28.972505 188.513985 
L 31.144974 189.725174 
L 33.360437 190.642164 
L 35.60804 191.260462 
L 37.308214 191.526292 
L 39.015589 191.621641 
L 40.72546 191.546247 
L 42.433113 191.300316 
L 44.133841 190.884528 
L 46.382611 190.067968 
L 48.599724 188.95553 
L 50.774318 187.552663 
L 52.895741 185.86624 
L 54.953598 183.904524 
L 56.93781 181.677124 
L 58.838654 179.194953 
L 60.646819 176.470171 
L 62.353446 173.516128 
L 63.950174 170.347295 
L 65.429181 166.979196 
L 66.783221 163.428333 
L 68.00566 159.7121 
L 69.339586 154.862065 
L 70.44837 149.819258 
L 71.323526 144.622272 
L 71.958356 139.31088 
L 72.348002 133.92573 
L 72.489481 128.508034 
L 72.381713 123.099255 
L 72.02552 117.740786 
L 71.423629 112.473636 
L 70.580646 107.338114 
L 69.503023 102.373523 
L 68.199007 97.617857 
L 66.999441 93.988268 
L 66.999441 93.988268 
" clip-path="url(#p7081683ddd)" style="fill: none; stroke: #ff0000; stroke-width: 1.5; stroke-linecap: square"/>
   </g>
   <g id="line2d_5">
    <path d="M 61.56 76.678125 
L 54.798088 72.830994 
L 48.709572 69.625148 
L 44.198844 67.469182 
L 40.237001 65.799711 
L 36.854362 64.629513 
L 34.582829 64.058978 
L 32.709772 63.816578 
L 31.572075 63.850893 
L 30.666858 64.070389 
L 29.996618 64.474464 
L 29.82576 64.649995 
M 202.089783 197.33086 
L 202.404299 196.652166 
L 202.480446 195.792624 
L 202.318012 194.754605 
L 201.917448 193.54097 
L 201.014936 191.655458 
L 199.695539 189.472978 
L 197.96572 187.004222 
L 195.239389 183.534255 
L 191.906023 179.662533 
L 187.140934 174.528073 
L 181.591184 168.914473 
L 175.317917 162.883578 
L 168.390247 156.501834 
L 159.583058 148.707009 
L 150.121327 140.647314 
L 140.146892 132.443569 
L 129.809278 124.218757 
L 119.263453 116.096172 
L 108.667507 108.197578 
L 98.180281 100.641381 
L 87.958987 93.540854 
L 78.15685 87.00244 
L 68.920811 81.124155 
L 61.56 76.678125 
L 61.56 76.678125 
" clip-path="url(#p7081683ddd)" style="fill: none; stroke: #000000; stroke-width: 1.5; stroke-linecap: square"/>
   </g>
   <g id="line2d_6">
    <path d="M 151.798217 169.549608 
L 149.052917 171.18952 
L 146.425717 173.038307 
L 143.945562 175.075599 
L 141.639776 177.278951 
L 139.533763 179.624088 
L 137.650725 182.085173 
L 136.011409 184.635092 
L 134.633874 187.245751 
L 133.533299 189.888387 
L 132.836561 192.094011 
L 132.345964 194.284744 
L 132.065263 196.44382 
L 131.996607 198.554717 
L 132.14052 200.601278 
L 132.495901 202.567843 
L 133.060031 204.43936 
L 133.828592 206.201507 
L 134.795702 207.840798 
L 135.95396 209.344688 
L 137.294502 210.701668 
L 138.807068 211.901351 
L 140.480083 212.934557 
L 142.300744 213.79338 
L 144.255116 214.471245 
L 146.328243 214.962966 
L 148.504259 215.26478 
L 150.766511 215.374376 
L 153.097686 215.290916 
L 155.479943 215.015038 
L 158.380391 214.43307 
L 161.296175 213.583549 
L 164.195173 212.475836 
L 167.045444 211.122134 
L 169.815587 209.537357 
L 172.475082 207.738966 
L 174.994628 205.746773 
L 177.346468 203.582727 
L 179.50469 201.27067 
L 181.445516 198.836075 
L 183.147565 196.305764 
L 184.592083 193.707615 
L 185.763157 191.070251 
L 186.520769 188.86345 
L 187.073674 186.666482 
L 187.417643 184.49616 
L 187.550042 182.369094 
L 187.469858 180.301563 
L 187.177705 178.309389 
L 186.675819 176.407818 
L 185.96804 174.611404 
L 185.059786 172.933894 
L 183.958007 171.388126 
L 182.671135 169.985931 
L 181.209019 168.738038 
L 179.582847 167.653999 
L 177.805067 166.74211 
L 175.889282 166.009349 
L 173.850155 165.461324 
L 171.70329 165.102229 
L 169.465119 164.934812 
L 167.152769 164.960355 
L 164.783937 165.178662 
L 161.892331 165.692624 
L 158.97737 166.47602 
L 156.071168 167.520221 
L 153.205744 168.81372 
L 151.798217 169.549608 
L 151.798217 169.549608 
" clip-path="url(#p7081683ddd)" style="fill: none; stroke: #ff0000; stroke-width: 1.5; stroke-linecap: square"/>
   </g>
   <g id="line2d_7">
    <path d="M 142.827724 134.621405 
L 141.044605 133.293996 
L 139.146527 132.126944 
L 137.148016 131.129183 
L 135.064367 130.308348 
L 132.911526 129.670721 
L 130.705969 129.221181 
L 128.464576 128.963169 
L 126.204498 128.898659 
L 123.943034 129.028146 
L 121.697491 129.350638 
L 119.485052 129.863668 
L 117.322651 130.563308 
L 115.226835 131.444205 
L 113.213646 132.499616 
L 111.298488 133.721466 
L 109.49602 135.100403 
L 107.820036 136.625874 
L 106.283362 138.286205 
L 104.897757 140.068688 
L 103.673828 141.959683 
L 102.620939 143.944718 
L 101.747149 146.008601 
L 101.059145 148.135538 
L 100.562192 150.30925 
L 100.260094 152.513102 
L 100.155162 154.730228 
L 100.2482 156.943661 
L 100.538495 159.13646 
L 101.023827 161.291845 
L 101.700479 163.39332 
L 102.563275 165.424802 
L 103.605611 167.370745 
L 104.819511 169.216255 
L 106.195683 170.94721 
L 107.723597 172.550362 
L 109.391558 174.013442 
L 111.186803 175.325253 
L 113.095592 176.475757 
L 115.103316 177.456147 
L 117.194612 178.258921 
L 119.353473 178.877936 
L 121.563379 179.308454 
L 123.807416 179.54718 
L 126.068411 179.592288 
L 128.329061 179.443431 
L 130.572065 179.10175 
L 132.780256 178.569859 
L 134.936736 177.851829 
L 137.025001 176.953155 
L 139.02907 175.880714 
L 140.933604 174.642715 
L 142.724029 173.24863 
L 144.386643 171.70913 
L 145.908721 170.035996 
L 147.278615 168.242033 
L 148.485842 166.34097 
L 149.521161 164.347356 
L 150.37665 162.276448 
L 151.045762 160.144094 
L 151.523376 157.966615 
L 151.805837 155.760674 
L 151.890983 153.543153 
L 151.778162 151.331023 
L 151.468238 149.141213 
L 150.963583 146.990483 
L 150.268059 144.895292 
L 149.386989 142.871674 
L 148.327116 140.935116 
L 147.09655 139.100439 
L 145.70471 137.381684 
L 144.162247 135.792004 
L 142.827724 134.621405 
L 142.827724 134.621405 
" clip-path="url(#p7081683ddd)" style="fill: none; stroke: #0000ff; stroke-width: 1.5; stroke-linecap: square"/>
   </g>
   <g id="text_1">
    <!-- intouch &amp; extouch points -->
    <g transform="translate(40.630313 16.318125) scale(0.12 -0.12)">
     <defs>
      <path id="DejaVuSans-69" d="M 603 3500 
L 1178 3500 
L 1178 0 
L 603 0 
L 603 3500 
z
M 603 4863 
L 1178 4863 
L 1178 4134 
L 603 4134 
L 603 4863 
z
" transform="scale(0.015625)"/>
      <path id="DejaVuSans-6e" d="M 3513 2113 
L 3513 0 
L 2938 0 
L 2938 2094 
Q 2938 2591 2744 2837 
Q 2550 3084 2163 3084 
Q 1697 3084 1428 2787 
Q 1159 2491 1159 1978 
L 1159 0 
L 581 0 
L 581 3500 
L 1159 3500 
L 1159 2956 
Q 1366 3272 1645 3428 
Q 1925 3584 2291 3584 
Q 2894 3584 3203 3211 
Q 3513 2838 3513 2113 
z
" transform="scale(0.015625)"/>
      <path id="DejaVuSans-74" d="M 1172 4494 
L 1172 3500 
L 2356 3500 
L 2356 3053 
L 1172 3053 
L 1172 1153 
Q 1172 725 1289 603 
Q 1406 481 1766 481 
L 2356 481 
L 2356 0 
L 1766 0 
Q 1100 0 847 248 
Q 594 497 594 1153 
L 594 3053 
L 172 3053 
L 172 3500 
L 594 3500 
L 594 4494 
L 1172 4494 
z
" transform="scale(0.015625)"/>
      <path id="DejaVuSans-6f" d="M 1959 3097 
Q 1497 3097 1228 2736 
Q 959 2375 959 1747 
Q 959 1119 1226 758 
Q 1494 397 1959 397 
Q 2419 397 2687 759 
Q 2956 1122 2956 1747 
Q 2956 2369 2687 2733 
Q 2419 3097 1959 3097 
z
M 1959 3584 
Q 2709 3584 3137 3096 
Q 3566 2609 3566 1747 
Q 3566 888 3137 398 
Q 2709 -91 1959 -91 
Q 1206 -91 779 398 
Q 353 888 353 1747 
Q 353 2609 779 3096 
Q 1206 3584 1959 3584 
z
" transform="scale(0.015625)"/>
      <path id="DejaVuSans-75" d="M 544 1381 
L 544 3500 
L 1119 3500 
L 1119 1403 
Q 1119 906 1312 657 
Q 1506 409 1894 409 
Q 2359 409 2629 706 
Q 2900 1003 2900 1516 
L 2900 3500 
L 3475 3500 
L 3475 0 
L 2900 0 
L 2900 538 
Q 2691 219 2414 64 
Q 2138 -91 1772 -91 
Q 1169 -91 856 284 
Q 544 659 544 1381 
z
M 1991 3584 
L 1991 3584 
z
" transform="scale(0.015625)"/>
      <path id="DejaVuSans-63" d="M 3122 3366 
L 3122 2828 
Q 2878 2963 2633 3030 
Q 2388 3097 2138 3097 
Q 1578 3097 1268 2742 
Q 959 2388 959 1747 
Q 959 1106 1268 751 
Q 1578 397 2138 397 
Q 2388 397 2633 464 
Q 2878 531 3122 666 
L 3122 134 
Q 2881 22 2623 -34 
Q 2366 -91 2075 -91 
Q 1284 -91 818 406 
Q 353 903 353 1747 
Q 353 2603 823 3093 
Q 1294 3584 2113 3584 
Q 2378 3584 2631 3529 
Q 2884 3475 3122 3366 
z
" transform="scale(0.015625)"/>
      <path id="DejaVuSans-68" d="M 3513 2113 
L 3513 0 
L 2938 0 
L 2938 2094 
Q 2938 2591 2744 2837 
Q 2550 3084 2163 3084 
Q 1697 3084 1428 2787 
Q 1159 2491 1159 1978 
L 1159 0 
L 581 0 
L 581 4863 
L 1159 4863 
L 1159 2956 
Q 1366 3272 1645 3428 
Q 1925 3584 2291 3584 
Q 2894 3584 3203 3211 
Q 3513 2838 3513 2113 
z
" transform="scale(0.015625)"/>
      <path id="DejaVuSans-20" transform="scale(0.015625)"/>
      <path id="DejaVuSans-26" d="M 1556 2509 
Q 1272 2256 1139 2004 
Q 1006 1753 1006 1478 
Q 1006 1022 1337 719 
Q 1669 416 2169 416 
Q 2466 416 2725 514 
Q 2984 613 3213 813 
L 1556 2509 
z
M 1997 2859 
L 3584 1234 
Q 3769 1513 3872 1830 
Q 3975 2147 3994 2503 
L 4575 2503 
Q 4538 2091 4375 1687 
Q 4213 1284 3922 891 
L 4794 0 
L 4006 0 
L 3559 459 
Q 3234 181 2878 45 
Q 2522 -91 2113 -91 
Q 1359 -91 881 339 
Q 403 769 403 1441 
Q 403 1841 612 2192 
Q 822 2544 1241 2853 
Q 1091 3050 1012 3245 
Q 934 3441 934 3628 
Q 934 4134 1281 4442 
Q 1628 4750 2203 4750 
Q 2463 4750 2720 4694 
Q 2978 4638 3244 4525 
L 3244 3956 
Q 2972 4103 2725 4179 
Q 2478 4256 2266 4256 
Q 1938 4256 1733 4082 
Q 1528 3909 1528 3634 
Q 1528 3475 1620 3314 
Q 1713 3153 1997 2859 
z
" transform="scale(0.015625)"/>
      <path id="DejaVuSans-65" d="M 3597 1894 
L 3597 1613 
L 953 1613 
Q 991 1019 1311 708 
Q 1631 397 2203 397 
Q 2534 397 2845 478 
Q 3156 559 3463 722 
L 3463 178 
Q 3153 47 2828 -22 
Q 2503 -91 2169 -91 
Q 1331 -91 842 396 
Q 353 884 353 1716 
Q 353 2575 817 3079 
Q 1281 3584 2069 3584 
Q 2775 3584 3186 3129 
Q 3597 2675 3597 1894 
z
M 3022 2063 
Q 3016 2534 2758 2815 
Q 2500 3097 2075 3097 
Q 1594 3097 1305 2825 
Q 1016 2553 972 2059 
L 3022 2063 
z
" transform="scale(0.015625)"/>
      <path id="DejaVuSans-78" d="M 3513 3500 
L 2247 1797 
L 3578 0 
L 2900 0 
L 1881 1375 
L 863 0 
L 184 0 
L 1544 1831 
L 300 3500 
L 978 3500 
L 1906 2253 
L 2834 3500 
L 3513 3500 
z
" transform="scale(0.015625)"/>
      <path id="DejaVuSans-70" d="M 1159 525 
L 1159 -1331 
L 581 -1331 
L 581 3500 
L 1159 3500 
L 1159 2969 
Q 1341 3281 1617 3432 
Q 1894 3584 2278 3584 
Q 2916 3584 3314 3078 
Q 3713 2572 3713 1747 
Q 3713 922 3314 415 
Q 2916 -91 2278 -91 
Q 1894 -91 1617 61 
Q 1341 213 1159 525 
z
M 3116 1747 
Q 3116 2381 2855 2742 
Q 2594 3103 2138 3103 
Q 1681 3103 1420 2742 
Q 1159 2381 1159 1747 
Q 1159 1113 1420 752 
Q 1681 391 2138 391 
Q 2594 391 2855 752 
Q 3116 1113 3116 1747 
z
" transform="scale(0.015625)"/>
      <path id="DejaVuSans-73" d="M 2834 3397 
L 2834 2853 
Q 2591 2978 2328 3040 
Q 2066 3103 1784 3103 
Q 1356 3103 1142 2972 
Q 928 2841 928 2578 
Q 928 2378 1081 2264 
Q 1234 2150 1697 2047 
L 1894 2003 
Q 2506 1872 2764 1633 
Q 3022 1394 3022 966 
Q 3022 478 2636 193 
Q 2250 -91 1575 -91 
Q 1294 -91 989 -36 
Q 684 19 347 128 
L 347 722 
Q 666 556 975 473 
Q 1284 391 1588 391 
Q 1994 391 2212 530 
Q 2431 669 2431 922 
Q 2431 1156 2273 1281 
Q 2116 1406 1581 1522 
L 1381 1569 
Q 847 1681 609 1914 
Q 372 2147 372 2553 
Q 372 3047 722 3315 
Q 1072 3584 1716 3584 
Q 2034 3584 2315 3537 
Q 2597 3491 2834 3397 
z
" transform="scale(0.015625)"/>
     </defs>
     <use xlink:href="#DejaVuSans-69"/>
     <use xlink:href="#DejaVuSans-6e" x="27.783203"/>
     <use xlink:href="#DejaVuSans-74" x="91.162109"/>
     <use xlink:href="#DejaVuSans-6f" x="130.371094"/>
     <use xlink:href="#DejaVuSans-75" x="191.552734"/>
     <use xlink:href="#DejaVuSans-63" x="254.931641"/>
     <use xlink:href="#DejaVuSans-68" x="309.912109"/>
     <use xlink:href="#DejaVuSans-20" x="373.291016"/>
     <use xlink:href="#DejaVuSans-26" x="405.078125"/>
     <use xlink:href="#DejaVuSans-20" x="483.056641"/>
     <use xlink:href="#DejaVuSans-65" x="514.84375"/>
     <use xlink:href="#DejaVuSans-78" x="574.617188"/>
     <use xlink:href="#DejaVuSans-74" x="633.796875"/>
     <use xlink:href="#DejaVuSans-6f" x="673.005859"/>
     <use xlink:href="#DejaVuSans-75" x="734.1875"/>
     <use xlink:href="#DejaVuSans-63" x="797.566406"/>
     <use xlink:href="#DejaVuSans-68" x="852.546875"/>
     <use xlink:href="#DejaVuSans-20" x="915.925781"/>
     <use xlink:href="#DejaVuSans-70" x="947.712891"/>
     <use xlink:href="#DejaVuSans-6f" x="1011.189453"/>
     <use xlink:href="#DejaVuSans-69" x="1072.371094"/>
     <use xlink:href="#DejaVuSans-6e" x="1100.154297"/>
     <use xlink:href="#DejaVuSans-74" x="1163.533203"/>
     <use xlink:href="#DejaVuSans-73" x="1202.742188"/>
    </g>
   </g>
   <g id="PathCollection_3">
    <g clip-path="url(#p7081683ddd)">
     <use xlink:href="#m99821bece5" x="126.324888" y="154.94047" style="stroke: #000000"/>
    </g>
   </g>
   <g id="PathCollection_4">
    <g clip-path="url(#p7081683ddd)">
     <use xlink:href="#m99821bece5" x="149.467392" y="41.754788" style="stroke: #000000"/>
    </g>
   </g>
   <g id="PathCollection_5">
    <g clip-path="url(#p7081683ddd)">
     <use xlink:href="#m99821bece5" x="23.433965" y="129.377018" style="stroke: #000000"/>
    </g>
   </g>
   <g id="PathCollection_6">
    <g clip-path="url(#p7081683ddd)">
     <use xlink:href="#m99821bece5" x="161.621929" y="192.641246" style="stroke: #000000"/>
    </g>
   </g>
   <g id="PathCollection_7">
    <defs>
     <path id="m1aaf285337" d="M 0 3 
C 0.795609 3 1.55874 2.683901 2.12132 2.12132 
C 2.683901 1.55874 3 0.795609 3 0 
C 3 -0.795609 2.683901 -1.55874 2.12132 -2.12132 
C 1.55874 -2.683901 0.795609 -3 0 -3 
C -0.795609 -3 -1.55874 -2.683901 -2.12132 -2.12132 
C -2.683901 -1.55874 -3 -0.795609 -3 0 
C -3 0.795609 -2.683901 1.55874 -2.12132 2.12132 
C -1.55874 2.683901 -0.795609 3 0 3 
z
" style="stroke: #ff0000"/>
    </defs>
    <g clip-path="url(#p7081683ddd)">
     <use xlink:href="#m1aaf285337" x="89.012276" y="94.259819" style="fill: #ff0000; stroke: #ff0000"/>
    </g>
   </g>
   <g id="PathCollection_8">
    <g clip-path="url(#p7081683ddd)">
     <use xlink:href="#m1aaf285337" x="66.999441" y="93.988268" style="fill: #ff0000; stroke: #ff0000"/>
    </g>
   </g>
   <g id="PathCollection_9">
    <g clip-path="url(#p7081683ddd)">
     <use xlink:href="#m1aaf285337" x="151.798217" y="169.549608" style="fill: #ff0000; stroke: #ff0000"/>
    </g>
   </g>
  </g>
 </g>
 <defs>
  <clipPath id="p7081683ddd">
   <rect x="7.2" y="22.318125" width="217.44" height="217.44"/>
  </clipPath>
 </defs>
</svg>
