<?xml version="1.0" encoding="utf-8" standalone="no"?>
<!DOCTYPE svg PUBLIC "-//W3C//DTD SVG 1.1//EN"
  "http://www.w3.org/Graphics/SVG/1.1/DTD/svg11.dtd">
<svg height="241.612837pt" version="1.1" viewBox="0 0 231.84 241.612837" width="231.84pt" xmlns="http://www.w3.org/2000/svg" xmlns:xlink="http://www.w3.org/1999/xlink">
 <metadata>
  <rdf:RDF xmlns:cc="http://creativecommons.org/ns#" xmlns:dc="http://purl.org/dc/elements/1.1/" xmlns:rdf="http://www.w3.org/1999/02/22-rdf-syntax-ns#">
   <cc:Work>
    <dc:type rdf:resource="http://purl.org/dc/dcmitype/StillImage"/>
    <dc:date>2021-05-02T22:10:49.527381</dc:date>
    <dc:format>image/svg+xml</dc:format>
    <dc:creator>
     <cc:Agent>
      <dc:title>Matplotlib v3.4.1, https://matplotlib.org/</dc:title>
     </cc:Agent>
    </dc:creator>
   </cc:Work>
  </rdf:RDF>
 </metadata>
 <defs>
  <style type="text/css">*{stroke-linecap:butt;stroke-linejoin:round;}</style>
 </defs>
 <g id="figure_1">
  <g id="patch_1">
   <path d="M 0 241.612837 
L 231.84 241.612837 
L 231.84 0 
L 0 0 
z
" style="fill:#ffffff;"/>
  </g>
  <g id="axes_1">
   <g id="line2d_1">
    <path clip-path="url(#pbf32e2992e)" d="M 116.315846 16.982523 
L 117.871547 17.208499 
L 119.421868 17.733481 
L 120.962538 18.556023 
L 122.489309 19.673857 
L 123.997974 21.083903 
L 125.484374 22.782274 
L 126.944413 24.764288 
L 128.374066 27.024484 
L 130.226206 30.459929 
L 132.008259 34.361927 
L 133.711495 38.71136 
L 135.327568 43.486922 
L 136.848563 48.665216 
L 138.267028 54.220874 
L 139.576013 60.126678 
L 141.048572 67.957096 
L 142.328822 76.229368 
L 143.406964 84.880185 
L 144.274747 93.843343 
L 144.92553 103.050246 
L 145.354334 112.430434 
L 145.557875 121.912119 
L 145.534596 131.422739 
L 145.284676 140.889507 
L 144.810027 150.239974 
L 144.114282 159.402582 
L 143.202765 168.307208 
L 142.082452 176.885704 
L 140.761916 185.07242 
L 139.251265 192.804701 
L 137.913583 198.62344 
L 136.468153 204.084886 
L 134.922055 209.162284 
L 133.282866 213.83076 
L 131.558615 218.067443 
L 129.757749 221.851576 
L 127.889091 225.16462 
L 126.448605 227.330399 
L 124.979099 229.216043 
L 123.484625 230.816354 
L 121.969301 232.126922 
L 120.437304 233.144135 
L 118.892857 233.865188 
L 117.340215 234.288094 
L 116.302681 234.403785 
L 116.302681 234.403785 
" style="fill:none;stroke:#ffbbbb;stroke-dasharray:5.55,2.4;stroke-dashoffset:0;stroke-width:1.5;"/>
   </g>
   <g id="line2d_2">
    <path clip-path="url(#pbf32e2992e)" d="M 214.665936 171.181853 
L 213.849684 172.575541 
L 212.763517 173.840009 
L 211.410427 174.971773 
L 209.794146 175.967714 
L 207.919126 176.825086 
L 205.790537 177.541526 
L 203.414245 178.115061 
L 200.7968 178.544108 
L 197.945416 178.827486 
L 193.793339 178.977433 
L 189.259756 178.866336 
L 184.366876 178.494738 
L 179.13867 177.864461 
L 173.600752 176.97859 
L 167.780251 175.841468 
L 161.705684 174.458664 
L 155.40681 172.836953 
L 147.264889 170.486063 
L 138.883084 167.792369 
L 130.325542 164.776485 
L 121.657754 161.461493 
L 112.946054 157.872763 
L 104.257115 154.037758 
L 95.657432 149.985829 
L 87.212818 145.747984 
L 78.987902 141.356657 
L 71.045629 136.845454 
L 63.446781 132.2489 
L 56.249512 127.602171 
L 49.508903 122.940831 
L 44.480005 119.225214 
L 39.801097 115.541282 
L 35.4951 111.907083 
L 31.58311 108.340422 
L 28.084292 104.858771 
L 25.015788 101.479188 
L 22.392629 98.218229 
L 20.227667 95.09187 
L 18.911104 92.844672 
L 17.861918 90.688011 
L 17.083002 88.627832 
L 16.576502 86.669811 
L 16.343814 84.819346 
L 16.38558 83.081538 
L 16.701685 81.461176 
L 17.064432 80.448401 
L 17.064432 80.448401 
" style="fill:none;stroke:#bbbbff;stroke-dasharray:5.55,2.4;stroke-dashoffset:0;stroke-width:1.5;"/>
   </g>
   <g id="PathCollection_1">
    <defs>
     <path d="M 0 3 
C 0.795609 3 1.55874 2.683901 2.12132 2.12132 
C 2.683901 1.55874 3 0.795609 3 0 
C 3 -0.795609 2.683901 -1.55874 2.12132 -2.12132 
C 1.55874 -2.683901 0.795609 -3 0 -3 
C -0.795609 -3 -1.55874 -2.683901 -2.12132 -2.12132 
C -2.683901 -1.55874 -3 -0.795609 -3 0 
C -3 0.795609 -2.683901 1.55874 -2.12132 2.12132 
C -1.55874 2.683901 -0.795609 3 0 3 
z
" id="mc655d2c5d8" style="stroke:#000000;"/>
    </defs>
    <g clip-path="url(#pbf32e2992e)">
     <use style="stroke:#000000;" x="115.92" xlink:href="#mc655d2c5d8" y="16.972837"/>
    </g>
   </g>
   <g id="PathCollection_2">
    <defs>
     <path d="M 0 3 
C 0.795609 3 1.55874 2.683901 2.12132 2.12132 
C 2.683901 1.55874 3 0.795609 3 0 
C 3 -0.795609 2.683901 -1.55874 2.12132 -2.12132 
C 1.55874 -2.683901 0.795609 -3 0 -3 
C -0.795609 -3 -1.55874 -2.683901 -2.12132 -2.12132 
C -2.683901 -1.55874 -3 -0.795609 -3 0 
C -3 0.795609 -2.683901 1.55874 -2.12132 2.12132 
C -1.55874 2.683901 -0.795609 3 0 3 
z
" id="mb5210aa931" style="stroke:#ffbbbb;"/>
    </defs>
    <g clip-path="url(#pbf32e2992e)">
     <use style="fill:#ffbbbb;stroke:#ffbbbb;" x="11.322814" xlink:href="#mb5210aa931" y="125.692837"/>
    </g>
   </g>
   <g id="PathCollection_3">
    <defs>
     <path d="M 0 3 
C 0.795609 3 1.55874 2.683901 2.12132 2.12132 
C 2.683901 1.55874 3 0.795609 3 0 
C 3 -0.795609 2.683901 -1.55874 2.12132 -2.12132 
C 1.55874 -2.683901 0.795609 -3 0 -3 
C -0.795609 -3 -1.55874 -2.683901 -2.12132 -2.12132 
C -2.683901 -1.55874 -3 -0.795609 -3 0 
C -3 0.795609 -2.683901 1.55874 -2.12132 2.12132 
C -1.55874 2.683901 -0.795609 3 0 3 
z
" id="m5ab9c35c33" style="stroke:#bbbbff;"/>
    </defs>
    <g clip-path="url(#pbf32e2992e)">
     <use style="fill:#bbbbff;stroke:#bbbbff;" x="159.524049" xlink:href="#m5ab9c35c33" y="30.926213"/>
    </g>
   </g>
   <g id="patch_2">
    <path clip-path="url(#pbf32e2992e)" d="M 115.92 234.412837 
C 144.752881 234.412837 172.408724 222.957412 192.796649 202.569487 
C 213.184575 182.181561 224.64 154.525719 224.64 125.692837 
C 224.64 96.859956 213.184575 69.204114 192.796649 48.816188 
C 172.408724 28.428263 144.752881 16.972837 115.92 16.972837 
C 87.087119 16.972837 59.431276 28.428263 39.043351 48.816188 
C 18.655425 69.204114 7.2 96.859956 7.2 125.692837 
C 7.2 154.525719 18.655425 182.181561 39.043351 202.569487 
C 59.431276 222.957412 87.087119 234.412837 115.92 234.412837 
z
" style="fill:none;stroke:#000000;stroke-linejoin:miter;"/>
   </g>
   <g id="line2d_3">
    <path clip-path="url(#pbf32e2992e)" d="M 88.74 82.204837 
L 90.700875 82.842249 
L 92.672253 83.497506 
L 94.653313 84.170337 
L 96.64323 84.860461 
L 98.641176 85.567591 
L 100.646318 86.291433 
L 102.657821 87.031684 
L 104.674847 87.788036 
L 106.696557 88.560176 
L 108.722108 89.34778 
L 110.750657 90.150521 
L 112.781359 90.968065 
L 114.813368 91.800071 
L 116.845838 92.646192 
L 118.877922 93.506077 
L 120.908775 94.379367 
L 122.93755 95.265698 
L 124.963402 96.164701 
L 126.985487 97.076003 
L 129.002965 97.999222 
L 131.014993 98.933976 
L 133.020735 99.879873 
L 135.019354 100.836522 
L 137.010019 101.803522 
L 138.991901 102.780472 
L 140.964173 103.766965 
L 142.926016 104.762589 
L 144.87661 105.76693 
L 146.815145 106.77957 
L 148.740813 107.800087 
L 150.652812 108.828056 
L 152.550345 109.863048 
L 154.432622 110.904634 
L 156.29886 111.952378 
L 158.148281 113.005845 
L 159.980114 114.064596 
L 161.793598 115.128189 
L 163.587976 116.196183 
L 165.362502 117.268132 
L 167.116435 118.343589 
L 168.849047 119.422108 
L 170.559614 120.503238 
L 172.247426 121.586529 
L 173.911778 122.671531 
L 175.551978 123.75779 
L 177.167342 124.844856 
L 178.757199 125.932275 
L 180.320884 127.019594 
L 181.857749 128.106361 
" style="fill:none;stroke:#0000ff;stroke-linecap:square;stroke-width:1.5;"/>
   </g>
   <g id="line2d_4">
    <path clip-path="url(#pbf32e2992e)" d="M 88.74 82.204837 
L 89.880747 73.66261 
L 91.220773 65.518573 
L 92.749824 57.83505 
L 94.101344 52.059449 
L 95.559755 46.644583 
L 97.117913 41.616979 
L 98.768183 37.001269 
L 100.502481 32.820065 
L 102.312311 29.093851 
L 104.188805 25.840881 
L 105.634406 23.721398 
L 107.108356 21.88297 
L 108.606593 20.330664 
L 110.124987 19.06876 
L 111.659354 18.100734 
L 113.205463 17.429257 
L 114.759055 17.056177 
L 115.796825 16.973775 
M 115.783659 234.411689 
L 114.227479 234.23563 
L 112.675963 233.760404 
L 111.133389 232.98732 
L 109.604008 231.918509 
L 108.092036 230.556917 
L 106.601638 228.906297 
L 105.136925 226.971198 
L 103.701931 224.756953 
L 102.300614 222.269667 
L 100.491235 218.540507 
L 98.757444 214.35648 
L 97.107733 209.738085 
L 95.550184 204.707945 
L 94.092429 199.290706 
L 92.741608 193.512906 
L 91.50434 187.40285 
L 90.126617 179.343792 
L 88.946291 170.874141 
L 87.972396 162.058717 
L 87.212386 152.964982 
L 86.672075 143.662534 
L 86.3556 134.222562 
L 86.265383 124.717312 
L 86.402113 115.219528 
L 86.764744 105.801897 
L 87.350502 96.536492 
L 88.154903 87.494221 
L 88.74 82.204837 
L 88.74 82.204837 
" style="fill:none;stroke:#ff0000;stroke-dasharray:5.55,2.4;stroke-dashoffset:0;stroke-width:1.5;"/>
   </g>
   <g id="line2d_5">
    <path clip-path="url(#pbf32e2992e)" d="M 88.74 82.204837 
L 97.217787 85.062361 
L 105.838703 88.230831 
L 114.536772 91.685999 
L 123.245426 95.401423 
L 131.898019 99.348668 
L 140.428332 103.497526 
L 148.771081 107.816245 
L 156.86242 112.271775 
L 164.640425 116.830016 
L 172.045571 121.456085 
L 179.021186 126.114577 
L 185.513885 130.769843 
L 190.326821 134.467782 
L 194.775232 138.122732 
L 198.837326 141.716787 
L 202.493203 145.23234 
L 205.724952 148.652168 
L 208.51674 151.959516 
L 210.85489 155.138182 
L 212.303827 157.42834 
L 213.487109 159.631028 
L 214.401476 161.740175 
L 215.044405 163.749968 
L 215.414126 165.654867 
L 215.50962 167.449622 
L 215.330623 169.129286 
L 214.877629 170.689229 
M 17.291257 79.962726 
L 18.152671 78.590318 
L 19.283554 77.347734 
L 20.680787 76.238401 
L 22.340521 75.265374 
L 24.25818 74.431337 
L 26.428478 73.738588 
L 28.845436 73.189036 
L 31.502389 72.784195 
L 34.392016 72.525183 
L 38.592933 72.407852 
L 43.17268 72.551568 
L 48.108822 72.955626 
L 53.377175 73.618048 
L 58.951929 74.535587 
L 64.805774 75.703749 
L 70.910031 77.116812 
L 78.846831 79.216872 
L 87.067352 81.672615 
L 88.74 82.204837 
L 88.74 82.204837 
" style="fill:none;stroke:#0000ff;stroke-dasharray:5.55,2.4;stroke-dashoffset:0;stroke-width:1.5;"/>
   </g>
   <g id="text_1">
    <!-- $\mathbf{\hat{n}}$ -->
    <g transform="translate(115.92 14.798437)scale(0.1 -0.1)">
     <defs>
      <path d="M -1986 5119 
L -1230 5119 
L -430 3944 
L -986 3944 
L -1608 4647 
L -2230 3944 
L -2786 3944 
L -1986 5119 
z
" id="DejaVuSans-Bold-302" transform="scale(0.015625)"/>
      <path d="M 4056 2131 
L 4056 0 
L 2931 0 
L 2931 347 
L 2931 1631 
Q 2931 2084 2911 2256 
Q 2891 2428 2841 2509 
Q 2775 2619 2662 2680 
Q 2550 2741 2406 2741 
Q 2056 2741 1856 2470 
Q 1656 2200 1656 1722 
L 1656 0 
L 538 0 
L 538 3500 
L 1656 3500 
L 1656 2988 
Q 1909 3294 2193 3439 
Q 2478 3584 2822 3584 
Q 3428 3584 3742 3212 
Q 4056 2841 4056 2131 
z
" id="DejaVuSans-Bold-6e" transform="scale(0.015625)"/>
     </defs>
     <use transform="translate(69.329102 7.015625)" xlink:href="#DejaVuSans-Bold-302"/>
     <use transform="translate(0 0.140625)" xlink:href="#DejaVuSans-Bold-6e"/>
    </g>
   </g>
   <g id="text_2">
    <!-- $\theta$ -->
    <g transform="translate(90.9144 78.943237)scale(0.1 -0.1)">
     <defs>
      <path d="M 2913 2219 
L 925 2219 
Q 791 1284 928 888 
Q 1100 400 1566 400 
Q 2034 400 2391 891 
Q 2703 1322 2913 2219 
z
M 3009 2750 
Q 3094 3638 2984 3950 
Q 2813 4444 2353 4444 
Q 1875 4444 1525 3956 
Q 1250 3563 1034 2750 
L 3009 2750 
z
M 2444 4913 
Q 3194 4913 3494 4250 
Q 3794 3591 3566 2422 
Q 3341 1256 2781 594 
Q 2225 -72 1475 -72 
Q 722 -72 425 594 
Q 128 1256 353 2422 
Q 581 3591 1134 4250 
Q 1691 4913 2444 4913 
z
" id="DejaVuSans-Oblique-3b8" transform="scale(0.015625)"/>
     </defs>
     <use transform="translate(0 0.234375)" xlink:href="#DejaVuSans-Oblique-3b8"/>
    </g>
   </g>
   <g id="text_3">
    <!-- $\ell$ -->
    <g transform="translate(126.792 109.384837)scale(0.1 -0.1)">
     <defs>
      <path d="M 950 838 
Q 1078 213 1350 213 
Q 1531 213 1766 572 
L 2181 572 
Q 1994 253 1775 88 
Q 1538 -91 1319 -91 
Q 831 -91 634 344 
L 400 0 
L -88 0 
Q 250 459 500 888 
Q 469 1131 469 1397 
Q 469 1872 566 2347 
Q 931 4131 1256 4497 
Q 1481 4750 1866 4750 
Q 2256 4750 2256 4209 
Q 2253 3966 2197 3675 
Q 1972 2484 950 838 
z
M 947 1656 
Q 1531 2744 1709 3613 
Q 1803 4072 1803 4191 
Q 1803 4406 1725 4406 
Q 1384 4134 1081 2516 
Q 997 2063 947 1656 
z
" id="DejaVuSans-Oblique-2113" transform="scale(0.015625)"/>
     </defs>
     <use transform="translate(0 0.78125)" xlink:href="#DejaVuSans-Oblique-2113"/>
    </g>
   </g>
   <g id="text_4">
    <!-- $\mathbf{\hat{a}}$ -->
    <g transform="translate(77.868 96.338437)scale(0.1 -0.1)">
     <defs>
      <path d="M 2106 1575 
Q 1756 1575 1579 1456 
Q 1403 1338 1403 1106 
Q 1403 894 1545 773 
Q 1688 653 1941 653 
Q 2256 653 2472 879 
Q 2688 1106 2688 1447 
L 2688 1575 
L 2106 1575 
z
M 3816 1997 
L 3816 0 
L 2688 0 
L 2688 519 
Q 2463 200 2181 54 
Q 1900 -91 1497 -91 
Q 953 -91 614 226 
Q 275 544 275 1050 
Q 275 1666 698 1953 
Q 1122 2241 2028 2241 
L 2688 2241 
L 2688 2328 
Q 2688 2594 2478 2717 
Q 2269 2841 1825 2841 
Q 1466 2841 1156 2769 
Q 847 2697 581 2553 
L 581 3406 
Q 941 3494 1303 3539 
Q 1666 3584 2028 3584 
Q 2975 3584 3395 3211 
Q 3816 2838 3816 1997 
z
" id="DejaVuSans-Bold-61" transform="scale(0.015625)"/>
     </defs>
     <use transform="translate(67.401367 7.015625)" xlink:href="#DejaVuSans-Bold-302"/>
     <use transform="translate(0 0.140625)" xlink:href="#DejaVuSans-Bold-61"/>
    </g>
   </g>
   <g id="text_5">
    <!-- $\mathbf{\hat{b}}$ -->
    <g transform="translate(181.152 124.605637)scale(0.1 -0.1)">
     <defs>
      <path d="M 2400 722 
Q 2759 722 2948 984 
Q 3138 1247 3138 1747 
Q 3138 2247 2948 2509 
Q 2759 2772 2400 2772 
Q 2041 2772 1848 2508 
Q 1656 2244 1656 1747 
Q 1656 1250 1848 986 
Q 2041 722 2400 722 
z
M 1656 2988 
Q 1888 3294 2169 3439 
Q 2450 3584 2816 3584 
Q 3463 3584 3878 3070 
Q 4294 2556 4294 1747 
Q 4294 938 3878 423 
Q 3463 -91 2816 -91 
Q 2450 -91 2169 54 
Q 1888 200 1656 506 
L 1656 0 
L 538 0 
L 538 4863 
L 1656 4863 
L 1656 2988 
z
" id="DejaVuSans-Bold-62" transform="scale(0.015625)"/>
     </defs>
     <use transform="translate(69.426758 27.015625)" xlink:href="#DejaVuSans-Bold-302"/>
     <use transform="translate(0 0.15625)" xlink:href="#DejaVuSans-Bold-62"/>
    </g>
   </g>
   <g id="text_6">
    <!-- $\mathbf{\hat{c}}_1$ -->
    <g style="fill:#888888;" transform="translate(12.636 125.692837)scale(0.1 -0.1)">
     <defs>
      <path d="M 3366 3391 
L 3366 2478 
Q 3138 2634 2908 2709 
Q 2678 2784 2431 2784 
Q 1963 2784 1702 2511 
Q 1441 2238 1441 1747 
Q 1441 1256 1702 982 
Q 1963 709 2431 709 
Q 2694 709 2930 787 
Q 3166 866 3366 1019 
L 3366 103 
Q 3103 6 2833 -42 
Q 2563 -91 2291 -91 
Q 1344 -91 809 395 
Q 275 881 275 1747 
Q 275 2613 809 3098 
Q 1344 3584 2291 3584 
Q 2566 3584 2833 3536 
Q 3100 3488 3366 3391 
z
" id="DejaVuSans-Bold-63" transform="scale(0.015625)"/>
      <path d="M 794 531 
L 1825 531 
L 1825 4091 
L 703 3866 
L 703 4441 
L 1819 4666 
L 2450 4666 
L 2450 531 
L 3481 531 
L 3481 0 
L 794 0 
L 794 531 
z
" id="DejaVuSans-31" transform="scale(0.015625)"/>
     </defs>
     <use transform="translate(62.350586 7.015625)" xlink:href="#DejaVuSans-Bold-302"/>
     <use transform="translate(0 0.140625)" xlink:href="#DejaVuSans-Bold-63"/>
     <use transform="translate(60.234375 -16.265625)scale(0.7)" xlink:href="#DejaVuSans-31"/>
    </g>
   </g>
   <g id="text_7">
    <!-- $\mathbf{\hat{c}}_2$ -->
    <g style="fill:#888888;" transform="translate(150.7104 41.978437)scale(0.1 -0.1)">
     <defs>
      <path d="M 1228 531 
L 3431 531 
L 3431 0 
L 469 0 
L 469 531 
Q 828 903 1448 1529 
Q 2069 2156 2228 2338 
Q 2531 2678 2651 2914 
Q 2772 3150 2772 3378 
Q 2772 3750 2511 3984 
Q 2250 4219 1831 4219 
Q 1534 4219 1204 4116 
Q 875 4013 500 3803 
L 500 4441 
Q 881 4594 1212 4672 
Q 1544 4750 1819 4750 
Q 2544 4750 2975 4387 
Q 3406 4025 3406 3419 
Q 3406 3131 3298 2873 
Q 3191 2616 2906 2266 
Q 2828 2175 2409 1742 
Q 1991 1309 1228 531 
z
" id="DejaVuSans-32" transform="scale(0.015625)"/>
     </defs>
     <use transform="translate(62.350586 7.015625)" xlink:href="#DejaVuSans-Bold-302"/>
     <use transform="translate(0 0.140625)" xlink:href="#DejaVuSans-Bold-63"/>
     <use transform="translate(60.234375 -16.265625)scale(0.7)" xlink:href="#DejaVuSans-32"/>
    </g>
   </g>
   <g id="PathCollection_4">
    <g clip-path="url(#pbf32e2992e)">
     <use style="stroke:#000000;" x="88.74" xlink:href="#mc655d2c5d8" y="82.204837"/>
    </g>
   </g>
   <g id="PathCollection_5">
    <g clip-path="url(#pbf32e2992e)">
     <use style="stroke:#000000;" x="181.857749" xlink:href="#mc655d2c5d8" y="128.106361"/>
    </g>
   </g>
  </g>
 </g>
 <defs>
  <clipPath id="pbf32e2992e">
   <rect height="217.44" width="217.44" x="7.2" y="16.972837"/>
  </clipPath>
 </defs>
</svg>
