<?xml version="1.0" encoding="utf-8" standalone="no"?>
<!DOCTYPE svg PUBLIC "-//W3C//DTD SVG 1.1//EN"
  "http://www.w3.org/Graphics/SVG/1.1/DTD/svg11.dtd">
<svg height="246.958125pt" version="1.1" viewBox="0 0 231.84 246.958125" width="231.84pt" xmlns="http://www.w3.org/2000/svg" xmlns:xlink="http://www.w3.org/1999/xlink">
 <metadata>
  <rdf:RDF xmlns:cc="http://creativecommons.org/ns#" xmlns:dc="http://purl.org/dc/elements/1.1/" xmlns:rdf="http://www.w3.org/1999/02/22-rdf-syntax-ns#">
   <cc:Work>
    <dc:type rdf:resource="http://purl.org/dc/dcmitype/StillImage"/>
    <dc:date>2021-05-02T21:18:13.779468</dc:date>
    <dc:format>image/svg+xml</dc:format>
    <dc:creator>
     <cc:Agent>
      <dc:title>Matplotlib v3.4.1, https://matplotlib.org/</dc:title>
     </cc:Agent>
    </dc:creator>
   </cc:Work>
  </rdf:RDF>
 </metadata>
 <defs>
  <style type="text/css">*{stroke-linecap:butt;stroke-linejoin:round;}</style>
 </defs>
 <g id="figure_1">
  <g id="patch_1">
   <path d="M 0 246.958125 
L 231.84 246.958125 
L 231.84 0 
L 0 0 
z
" style="fill:#ffffff;"/>
  </g>
  <g id="axes_1">
   <g id="PathCollection_1">
    <defs>
     <path d="M 0 3 
C 0.795609 3 1.55874 2.683901 2.12132 2.12132 
C 2.683901 1.55874 3 0.795609 3 0 
C 3 -0.795609 2.683901 -1.55874 2.12132 -2.12132 
C 1.55874 -2.683901 0.795609 -3 0 -3 
C -0.795609 -3 -1.55874 -2.683901 -2.12132 -2.12132 
C -2.683901 -1.55874 -3 -0.795609 -3 0 
C -3 0.795609 -2.683901 1.55874 -2.12132 2.12132 
C -1.55874 2.683901 -0.795609 3 0 3 
z
" id="mb8b005ce42" style="stroke:#000000;"/>
    </defs>
    <g clip-path="url(#p68874fa259)">
     <use style="stroke:#000000;" x="115.92" xlink:href="#mb8b005ce42" y="185.398125"/>
     <use style="stroke:#000000;" x="170.28" xlink:href="#mb8b005ce42" y="158.218125"/>
     <use style="stroke:#000000;" x="61.56" xlink:href="#mb8b005ce42" y="76.678125"/>
    </g>
   </g>
   <g id="PathCollection_2">
    <defs>
     <path d="M 0 3 
C 0.795609 3 1.55874 2.683901 2.12132 2.12132 
C 2.683901 1.55874 3 0.795609 3 0 
C 3 -0.795609 2.683901 -1.55874 2.12132 -2.12132 
C 1.55874 -2.683901 0.795609 -3 0 -3 
C -0.795609 -3 -1.55874 -2.683901 -2.12132 -2.12132 
C -2.683901 -1.55874 -3 -0.795609 -3 0 
C -3 0.795609 -2.683901 1.55874 -2.12132 2.12132 
C -1.55874 2.683901 -0.795609 3 0 3 
z
" id="m79f8cc4c43" style="stroke:#0000ff;"/>
    </defs>
    <g clip-path="url(#p68874fa259)">
     <use style="fill:#0000ff;stroke:#0000ff;" x="134.230856" xlink:href="#m79f8cc4c43" y="127.703841"/>
     <use style="fill:#0000ff;stroke:#0000ff;" x="92.990092" xlink:href="#m79f8cc4c43" y="149.781759"/>
     <use style="fill:#0000ff;stroke:#0000ff;" x="143.559823" xlink:href="#m79f8cc4c43" y="173.843843"/>
    </g>
   </g>
   <g id="patch_2">
    <path clip-path="url(#p68874fa259)" d="M 115.92 239.758125 
C 144.752881 239.758125 172.408724 228.3027 192.796649 207.914774 
C 213.184575 187.526849 224.64 159.871006 224.64 131.038125 
C 224.64 102.205244 213.184575 74.549401 192.796649 54.161476 
C 172.408724 33.77355 144.752881 22.318125 115.92 22.318125 
C 87.087119 22.318125 59.431276 33.77355 39.043351 54.161476 
C 18.655425 74.549401 7.2 102.205244 7.2 131.038125 
C 7.2 159.871006 18.655425 187.526849 39.043351 207.914774 
C 59.431276 228.3027 87.087119 239.758125 115.92 239.758125 
z
" style="fill:none;stroke:#000000;stroke-linejoin:miter;"/>
   </g>
   <g id="line2d_1">
    <path clip-path="url(#p68874fa259)" d="M 170.28 158.218125 
L 168.392478 156.50385 
L 166.464661 154.770019 
L 164.498031 153.017964 
L 162.494098 151.249031 
L 160.4544 149.464578 
L 158.380503 147.665975 
L 156.274001 145.854604 
L 154.136511 144.031854 
L 151.969674 142.199127 
L 149.775154 140.357829 
L 147.554637 138.509374 
L 145.309827 136.655183 
L 143.042448 134.796677 
L 140.754242 132.935286 
L 138.446966 131.072438 
L 136.122391 129.209563 
L 133.782302 127.348093 
L 131.428497 125.489456 
L 129.062782 123.63508 
L 126.686975 121.786389 
L 124.302901 119.944802 
L 121.912388 118.111734 
L 119.517275 116.288592 
L 117.119399 114.476777 
L 114.720601 112.677679 
L 112.322725 110.89268 
L 109.927612 109.123151 
L 107.537099 107.370451 
L 105.153025 105.635926 
L 102.777218 103.920906 
L 100.411503 102.226711 
L 98.057698 100.55464 
L 95.717609 98.905977 
L 93.393034 97.281989 
L 91.085758 95.683923 
L 88.797552 94.113005 
L 86.530173 92.570442 
L 84.285363 91.057419 
L 82.064846 89.575098 
L 79.870326 88.124616 
L 77.703489 86.707088 
L 75.565999 85.323602 
L 73.459497 83.97522 
L 71.3856 82.662979 
L 69.345902 81.387885 
L 67.341969 80.150918 
L 65.375339 78.953027 
L 63.447522 77.795133 
L 61.56 76.678125 
" style="fill:none;stroke:#000000;stroke-linecap:square;stroke-width:1.5;"/>
   </g>
   <g id="line2d_2">
    <path clip-path="url(#p68874fa259)" d="M 61.56 76.678125 
L 62.093834 78.640143 
L 62.659948 80.633584 
L 63.258003 82.657253 
L 63.887639 84.709936 
L 64.548479 86.790403 
L 65.240127 88.897405 
L 65.962167 91.029679 
L 66.714168 93.185946 
L 67.495678 95.364914 
L 68.306228 97.565274 
L 69.145332 99.785709 
L 70.012487 102.024886 
L 70.907173 104.281462 
L 71.828853 106.554084 
L 72.776975 108.841389 
L 73.75097 111.142006 
L 74.750254 113.454555 
L 75.774228 115.777649 
L 76.822277 118.109894 
L 77.893774 120.449892 
L 78.988075 122.796241 
L 80.104524 125.147532 
L 81.242452 127.502355 
L 82.401176 129.8593 
L 83.580001 132.21695 
L 84.778221 134.573895 
L 85.995117 136.928718 
L 87.229959 139.280009 
L 88.482006 141.626358 
L 89.750509 143.966356 
L 91.034705 146.298601 
L 92.333824 148.621695 
L 93.647089 150.934244 
L 94.973711 153.234861 
L 96.312894 155.522166 
L 97.663836 157.794788 
L 99.025726 160.051364 
L 100.397748 162.290541 
L 101.779078 164.510976 
L 103.168889 166.711336 
L 104.566347 168.890304 
L 105.970614 171.046571 
L 107.380847 173.178845 
L 108.796201 175.285847 
L 110.215827 177.366314 
L 111.638875 179.418997 
L 113.064489 181.442666 
L 114.491816 183.436107 
L 115.92 185.398125 
" style="fill:none;stroke:#000000;stroke-linecap:square;stroke-width:1.5;"/>
   </g>
   <g id="line2d_3">
    <path clip-path="url(#p68874fa259)" d="M 115.92 185.398125 
L 117.0913 184.992637 
L 118.262442 184.579903 
L 119.43327 184.15998 
L 120.603626 183.732922 
L 121.773353 183.298789 
L 122.942294 182.857637 
L 124.110292 182.409527 
L 125.27719 181.954518 
L 126.442832 181.492671 
L 127.60706 181.02405 
L 128.769719 180.548715 
L 129.930653 180.066732 
L 131.089705 179.578165 
L 132.24672 179.083079 
L 133.401542 178.581542 
L 134.554017 178.07362 
L 135.703989 177.559382 
L 136.851305 177.038897 
L 137.99581 176.512234 
L 139.13735 175.979464 
L 140.275773 175.44066 
L 141.410925 174.895892 
L 142.542654 174.345235 
L 143.670807 173.788763 
L 144.795234 173.226549 
L 145.915784 172.65867 
L 147.032305 172.085202 
L 148.144648 171.506222 
L 149.252664 170.921807 
L 150.356204 170.332037 
L 151.455119 169.73699 
L 152.549262 169.136746 
L 153.638487 168.531385 
L 154.722646 167.92099 
L 155.801595 167.305642 
L 156.875188 166.685424 
L 157.943281 166.060418 
L 159.005731 165.430709 
L 160.062394 164.796382 
L 161.113131 164.157522 
L 162.157798 163.514214 
L 163.196256 162.866545 
L 164.228365 162.214602 
L 165.253987 161.558472 
L 166.272984 160.898243 
L 167.28522 160.234005 
L 168.290557 159.565846 
L 169.288862 158.893856 
L 170.28 158.218125 
" style="fill:none;stroke:#000000;stroke-linecap:square;stroke-width:1.5;"/>
   </g>
   <g id="line2d_4">
    <path clip-path="url(#p68874fa259)" d="M 115.92 185.398125 
L 116.31528 184.339107 
L 116.710505 183.27269 
L 117.10562 182.19902 
L 117.500571 181.118248 
L 117.895302 180.030523 
L 118.289759 178.935996 
L 118.683887 177.834819 
L 119.077631 176.727145 
L 119.470937 175.613128 
L 119.86375 174.492923 
L 120.256015 173.366684 
L 120.647679 172.234569 
L 121.038686 171.096734 
L 121.428982 169.953338 
L 121.818514 168.804539 
L 122.207226 167.650497 
L 122.595066 166.491372 
L 122.981979 165.327324 
L 123.367911 164.158516 
L 123.75281 162.98511 
L 124.136621 161.807269 
L 124.519291 160.625156 
L 124.900768 159.438935 
L 125.280997 158.248771 
L 125.659927 157.054829 
L 126.037505 155.857276 
L 126.413678 154.656276 
L 126.788394 153.451998 
L 127.161602 152.244608 
L 127.533248 151.034273 
L 127.903283 149.821163 
L 128.271653 148.605444 
L 128.638309 147.387287 
L 129.003199 146.16686 
L 129.366273 144.944333 
L 129.72748 143.719875 
L 130.086769 142.493656 
L 130.444093 141.265847 
L 130.799399 140.036618 
L 131.15264 138.806139 
L 131.503766 137.574583 
L 131.852729 136.342118 
L 132.199479 135.108918 
L 132.543969 133.875152 
L 132.886152 132.640992 
L 133.225979 131.40661 
L 133.563403 130.172176 
L 133.898378 128.937863 
L 134.230856 127.703841 
" style="fill:none;stroke:#0000ff;stroke-linecap:square;stroke-width:1.5;"/>
   </g>
   <g id="line2d_5">
    <path clip-path="url(#p68874fa259)" d="M 170.28 158.218125 
L 168.863191 158.187055 
L 167.434161 158.149718 
L 165.993241 158.106123 
L 164.540761 158.056279 
L 163.077059 158.000199 
L 161.602471 157.937896 
L 160.117338 157.869383 
L 158.622003 157.794676 
L 157.116811 157.713793 
L 155.60211 157.626753 
L 154.078248 157.533575 
L 152.545579 157.434281 
L 151.004455 157.328895 
L 149.455232 157.217439 
L 147.898269 157.09994 
L 146.333924 156.976426 
L 144.762558 156.846924 
L 143.184535 156.711464 
L 141.600218 156.570079 
L 140.009974 156.4228 
L 138.414168 156.269661 
L 136.813171 156.110698 
L 135.20735 155.945947 
L 133.597077 155.775447 
L 131.982724 155.599237 
L 130.364664 155.417357 
L 128.743268 155.22985 
L 127.118913 155.036759 
L 125.491973 154.838127 
L 123.862823 154.634003 
L 122.23184 154.424431 
L 120.5994 154.209461 
L 118.96588 153.989143 
L 117.331656 153.763526 
L 115.697107 153.532664 
L 114.062609 153.29661 
L 112.42854 153.055417 
L 110.795277 152.809143 
L 109.163197 152.557842 
L 107.532676 152.301575 
L 105.904092 152.040399 
L 104.277819 151.774375 
L 102.654234 151.503564 
L 101.033711 151.22803 
L 99.416625 150.947835 
L 97.803348 150.663044 
L 96.194252 150.373723 
L 94.58971 150.079939 
L 92.990092 149.781759 
" style="fill:none;stroke:#0000ff;stroke-linecap:square;stroke-width:1.5;"/>
   </g>
   <g id="line2d_6">
    <path clip-path="url(#p68874fa259)" d="M 61.56 76.678125 
L 62.768967 78.297702 
L 64.01338 79.95245 
L 65.292407 81.641266 
L 66.605197 83.363023 
L 67.950874 85.116574 
L 69.328541 86.900749 
L 70.737278 88.714358 
L 72.176147 90.556192 
L 73.644187 92.425022 
L 75.14042 94.319603 
L 76.663848 96.23867 
L 78.213456 98.180945 
L 79.788208 100.145131 
L 81.387056 102.129918 
L 83.008934 104.133984 
L 84.652759 106.155992 
L 86.317435 108.194593 
L 88.001853 110.248428 
L 89.704889 112.316127 
L 91.425407 114.396311 
L 93.16226 116.487594 
L 94.914289 118.58858 
L 96.680327 120.697868 
L 98.459195 122.814051 
L 100.249707 124.93572 
L 102.05067 127.061457 
L 103.860881 129.189847 
L 105.679135 131.31947 
L 107.504218 133.448904 
L 109.334913 135.576731 
L 111.17 137.701531 
L 113.008254 139.821888 
L 114.848451 141.936387 
L 116.689361 144.043618 
L 118.529759 146.142176 
L 120.368416 148.230662 
L 122.204107 150.307682 
L 124.035607 152.371852 
L 125.861695 154.421795 
L 127.681153 156.456143 
L 129.492768 158.473542 
L 131.295331 160.472644 
L 133.087641 162.452116 
L 134.868503 164.41064 
L 136.636728 166.346908 
L 138.391137 168.25963 
L 140.130561 170.147529 
L 141.85384 172.009348 
L 143.559823 173.843843 
" style="fill:none;stroke:#0000ff;stroke-linecap:square;stroke-width:1.5;"/>
   </g>
   <g id="line2d_7">
    <path clip-path="url(#p68874fa259)" d="M 142.827724 134.621405 
L 141.044605 133.293996 
L 139.146527 132.126944 
L 137.148016 131.129183 
L 135.064367 130.308348 
L 132.911526 129.670721 
L 130.705969 129.221181 
L 128.464576 128.963169 
L 126.204498 128.898659 
L 123.943034 129.028146 
L 121.697491 129.350638 
L 119.485052 129.863668 
L 117.322651 130.563308 
L 115.226835 131.444205 
L 113.213646 132.499616 
L 111.298488 133.721466 
L 109.49602 135.100403 
L 107.820036 136.625874 
L 106.283362 138.286205 
L 104.897757 140.068688 
L 103.673828 141.959683 
L 102.620939 143.944718 
L 101.747149 146.008601 
L 101.059145 148.135538 
L 100.562192 150.30925 
L 100.260094 152.513102 
L 100.155162 154.730228 
L 100.2482 156.943661 
L 100.538495 159.13646 
L 101.023827 161.291845 
L 101.700479 163.39332 
L 102.563275 165.424802 
L 103.605611 167.370745 
L 104.819511 169.216255 
L 106.195683 170.94721 
L 107.723597 172.550362 
L 109.391558 174.013442 
L 111.186803 175.325253 
L 113.095592 176.475757 
L 115.103316 177.456147 
L 117.194612 178.258921 
L 119.353473 178.877936 
L 121.563379 179.308454 
L 123.807416 179.54718 
L 126.068411 179.592288 
L 128.329061 179.443431 
L 130.572065 179.10175 
L 132.780256 178.569859 
L 134.936736 177.851829 
L 137.025001 176.953155 
L 139.02907 175.880714 
L 140.933604 174.642715 
L 142.724029 173.24863 
L 144.386643 171.70913 
L 145.908721 170.035996 
L 147.278615 168.242033 
L 148.485842 166.34097 
L 149.521161 164.347356 
L 150.37665 162.276448 
L 151.045762 160.144094 
L 151.523376 157.966615 
L 151.805837 155.760674 
L 151.890983 153.543153 
L 151.778162 151.331023 
L 151.468238 149.141213 
L 150.963583 146.990483 
L 150.268059 144.895292 
L 149.386989 142.871674 
L 148.327116 140.935116 
L 147.09655 139.100439 
L 145.70471 137.381684 
L 144.162247 135.792004 
L 142.827724 134.621405 
L 142.827724 134.621405 
" style="fill:none;stroke:#ff0000;stroke-linecap:square;stroke-width:1.5;"/>
   </g>
   <g id="text_1">
    <!-- incenter -->
    <g transform="translate(91.146563 16.318125)scale(0.12 -0.12)">
     <defs>
      <path d="M 603 3500 
L 1178 3500 
L 1178 0 
L 603 0 
L 603 3500 
z
M 603 4863 
L 1178 4863 
L 1178 4134 
L 603 4134 
L 603 4863 
z
" id="DejaVuSans-69" transform="scale(0.015625)"/>
      <path d="M 3513 2113 
L 3513 0 
L 2938 0 
L 2938 2094 
Q 2938 2591 2744 2837 
Q 2550 3084 2163 3084 
Q 1697 3084 1428 2787 
Q 1159 2491 1159 1978 
L 1159 0 
L 581 0 
L 581 3500 
L 1159 3500 
L 1159 2956 
Q 1366 3272 1645 3428 
Q 1925 3584 2291 3584 
Q 2894 3584 3203 3211 
Q 3513 2838 3513 2113 
z
" id="DejaVuSans-6e" transform="scale(0.015625)"/>
      <path d="M 3122 3366 
L 3122 2828 
Q 2878 2963 2633 3030 
Q 2388 3097 2138 3097 
Q 1578 3097 1268 2742 
Q 959 2388 959 1747 
Q 959 1106 1268 751 
Q 1578 397 2138 397 
Q 2388 397 2633 464 
Q 2878 531 3122 666 
L 3122 134 
Q 2881 22 2623 -34 
Q 2366 -91 2075 -91 
Q 1284 -91 818 406 
Q 353 903 353 1747 
Q 353 2603 823 3093 
Q 1294 3584 2113 3584 
Q 2378 3584 2631 3529 
Q 2884 3475 3122 3366 
z
" id="DejaVuSans-63" transform="scale(0.015625)"/>
      <path d="M 3597 1894 
L 3597 1613 
L 953 1613 
Q 991 1019 1311 708 
Q 1631 397 2203 397 
Q 2534 397 2845 478 
Q 3156 559 3463 722 
L 3463 178 
Q 3153 47 2828 -22 
Q 2503 -91 2169 -91 
Q 1331 -91 842 396 
Q 353 884 353 1716 
Q 353 2575 817 3079 
Q 1281 3584 2069 3584 
Q 2775 3584 3186 3129 
Q 3597 2675 3597 1894 
z
M 3022 2063 
Q 3016 2534 2758 2815 
Q 2500 3097 2075 3097 
Q 1594 3097 1305 2825 
Q 1016 2553 972 2059 
L 3022 2063 
z
" id="DejaVuSans-65" transform="scale(0.015625)"/>
      <path d="M 1172 4494 
L 1172 3500 
L 2356 3500 
L 2356 3053 
L 1172 3053 
L 1172 1153 
Q 1172 725 1289 603 
Q 1406 481 1766 481 
L 2356 481 
L 2356 0 
L 1766 0 
Q 1100 0 847 248 
Q 594 497 594 1153 
L 594 3053 
L 172 3053 
L 172 3500 
L 594 3500 
L 594 4494 
L 1172 4494 
z
" id="DejaVuSans-74" transform="scale(0.015625)"/>
      <path d="M 2631 2963 
Q 2534 3019 2420 3045 
Q 2306 3072 2169 3072 
Q 1681 3072 1420 2755 
Q 1159 2438 1159 1844 
L 1159 0 
L 581 0 
L 581 3500 
L 1159 3500 
L 1159 2956 
Q 1341 3275 1631 3429 
Q 1922 3584 2338 3584 
Q 2397 3584 2469 3576 
Q 2541 3569 2628 3553 
L 2631 2963 
z
" id="DejaVuSans-72" transform="scale(0.015625)"/>
     </defs>
     <use xlink:href="#DejaVuSans-69"/>
     <use x="27.783203" xlink:href="#DejaVuSans-6e"/>
     <use x="91.162109" xlink:href="#DejaVuSans-63"/>
     <use x="146.142578" xlink:href="#DejaVuSans-65"/>
     <use x="207.666016" xlink:href="#DejaVuSans-6e"/>
     <use x="271.044922" xlink:href="#DejaVuSans-74"/>
     <use x="310.253906" xlink:href="#DejaVuSans-65"/>
     <use x="371.777344" xlink:href="#DejaVuSans-72"/>
    </g>
   </g>
   <g id="PathCollection_3">
    <defs>
     <path d="M 0 3 
C 0.795609 3 1.55874 2.683901 2.12132 2.12132 
C 2.683901 1.55874 3 0.795609 3 0 
C 3 -0.795609 2.683901 -1.55874 2.12132 -2.12132 
C 1.55874 -2.683901 0.795609 -3 0 -3 
C -0.795609 -3 -1.55874 -2.683901 -2.12132 -2.12132 
C -2.683901 -1.55874 -3 -0.795609 -3 0 
C -3 0.795609 -2.683901 1.55874 -2.12132 2.12132 
C -1.55874 2.683901 -0.795609 3 0 3 
z
" id="mc54f4b616c" style="stroke:#ff0000;"/>
    </defs>
    <g clip-path="url(#p68874fa259)">
     <use style="fill:#ff0000;stroke:#ff0000;" x="126.324888" xlink:href="#mc54f4b616c" y="154.94047"/>
    </g>
   </g>
  </g>
 </g>
 <defs>
  <clipPath id="p68874fa259">
   <rect height="217.44" width="217.44" x="7.2" y="22.318125"/>
  </clipPath>
 </defs>
</svg>
