<?xml version="1.0" encoding="utf-8" standalone="no"?>
<!DOCTYPE svg PUBLIC "-//W3C//DTD SVG 1.1//EN"
  "http://www.w3.org/Graphics/SVG/1.1/DTD/svg11.dtd">
<svg height="231.84pt" version="1.1" viewBox="0 0 231.84 231.84" width="231.84pt" xmlns="http://www.w3.org/2000/svg" xmlns:xlink="http://www.w3.org/1999/xlink">
 <metadata>
  <rdf:RDF xmlns:cc="http://creativecommons.org/ns#" xmlns:dc="http://purl.org/dc/elements/1.1/" xmlns:rdf="http://www.w3.org/1999/02/22-rdf-syntax-ns#">
   <cc:Work>
    <dc:type rdf:resource="http://purl.org/dc/dcmitype/StillImage"/>
    <dc:date>2021-05-02T21:44:19.415186</dc:date>
    <dc:format>image/svg+xml</dc:format>
    <dc:creator>
     <cc:Agent>
      <dc:title>Matplotlib v3.4.1, https://matplotlib.org/</dc:title>
     </cc:Agent>
    </dc:creator>
   </cc:Work>
  </rdf:RDF>
 </metadata>
 <defs>
  <style type="text/css">*{stroke-linecap:butt;stroke-linejoin:round;}</style>
 </defs>
 <g id="figure_1">
  <g id="patch_1">
   <path d="M 0 231.84 
L 231.84 231.84 
L 231.84 0 
L 0 0 
z
" style="fill:#ffffff;"/>
  </g>
  <g id="axes_1">
   <g id="line2d_1">
    <path clip-path="url(#p1c77a2803f)" d="M 168.420645 211.123151 
L 169.681555 210.240302 
L 170.794287 209.097485 
L 171.755773 207.697851 
L 172.563364 206.045257 
L 173.214833 204.144258 
L 173.708386 202.000094 
L 174.042661 199.618675 
L 174.216737 197.006564 
L 174.198875 193.177427 
L 173.895501 188.969802 
L 173.308101 184.4043 
L 172.439553 179.50329 
L 171.294111 174.29078 
L 169.877388 168.792308 
L 168.196325 163.034811 
L 165.735932 155.516767 
L 162.894297 147.695686 
L 159.693165 139.631426 
L 156.157036 131.385701 
L 152.312972 123.021616 
L 148.190391 114.603183 
L 143.820843 106.194827 
L 139.23777 97.860898 
L 134.476244 89.665176 
L 129.572708 81.670384 
L 124.564686 73.937704 
L 119.490506 66.526317 
L 114.389001 59.492942 
L 109.299213 52.891404 
L 104.260094 46.772227 
L 99.310209 41.18224 
L 95.440036 37.12016 
L 91.670196 33.444126 
L 88.019157 30.172147 
L 84.504806 27.320252 
L 81.14436 24.902414 
L 77.954283 22.930477 
L 75.682964 21.750042 
L 73.522547 20.82916 
L 71.478986 20.170369 
L 69.557915 19.775485 
L 67.764628 19.645596 
L 66.104068 19.78106 
L 64.580811 20.181505 
L 63.643675 20.595164 
L 63.643675 20.595164 
" style="fill:none;stroke:#ffbbbb;stroke-linecap:square;stroke-width:1.5;"/>
   </g>
   <g id="line2d_2">
    <path clip-path="url(#p1c77a2803f)" d="M 214.683622 70.471518 
L 213.418883 68.13377 
L 211.885416 65.92773 
L 210.087448 63.859481 
L 208.029933 61.934721 
L 205.718543 60.158756 
L 203.159649 58.536482 
L 200.360303 57.072369 
L 197.328222 55.770454 
L 194.071762 54.634323 
L 190.599898 53.667109 
L 186.9222 52.871478 
L 183.048805 52.249622 
L 178.990388 51.803255 
L 174.758136 51.533609 
L 170.363712 51.441425 
L 165.81923 51.526958 
L 161.137215 51.789972 
L 154.702942 52.415417 
L 148.078669 53.351975 
L 141.296848 54.595058 
L 134.390705 56.138576 
L 127.394072 57.974968 
L 120.341227 60.095235 
L 113.266722 62.488993 
L 106.205216 65.144512 
L 99.191303 68.048784 
L 92.259345 71.18758 
L 85.443302 74.545523 
L 78.776567 78.106163 
L 72.291799 81.852056 
L 66.02077 85.764849 
L 59.9942 89.825375 
L 54.241614 94.013739 
L 48.791195 98.309425 
L 43.669644 102.691385 
L 38.902053 107.138154 
L 34.511778 111.627945 
L 31.479697 115.010295 
L 28.680351 118.395153 
L 26.121457 121.773188 
L 23.810067 125.135091 
L 21.752552 128.471595 
L 19.954584 131.773504 
L 18.421117 135.031718 
L 17.156378 138.237255 
L 16.163853 141.381281 
L 15.446278 144.455131 
L 15.00563 147.450331 
L 14.843125 150.358627 
L 14.959209 153.172002 
L 15.353563 155.882703 
L 16.025101 158.483258 
L 16.97197 160.966499 
L 16.97197 160.966499 
" style="fill:none;stroke:#bbbbff;stroke-linecap:square;stroke-width:1.5;"/>
   </g>
   <g id="PathCollection_1">
    <defs>
     <path d="M 0 3 
C 0.795609 3 1.55874 2.683901 2.12132 2.12132 
C 2.683901 1.55874 3 0.795609 3 0 
C 3 -0.795609 2.683901 -1.55874 2.12132 -2.12132 
C 1.55874 -2.683901 0.795609 -3 0 -3 
C -0.795609 -3 -1.55874 -2.683901 -2.12132 -2.12132 
C -2.683901 -1.55874 -3 -0.795609 -3 0 
C -3 0.795609 -2.683901 1.55874 -2.12132 2.12132 
C -1.55874 2.683901 -0.795609 3 0 3 
z
" id="m123d800aa8" style="stroke:#ff0000;"/>
    </defs>
    <g clip-path="url(#p1c77a2803f)">
     <use style="fill:#ff0000;stroke:#ff0000;" x="207.671505" xlink:href="#m123d800aa8" y="65.409855"/>
    </g>
   </g>
   <g id="PathCollection_2">
    <defs>
     <path d="M 0 3 
C 0.795609 3 1.55874 2.683901 2.12132 2.12132 
C 2.683901 1.55874 3 0.795609 3 0 
C 3 -0.795609 2.683901 -1.55874 2.12132 -2.12132 
C 1.55874 -2.683901 0.795609 -3 0 -3 
C -0.795609 -3 -1.55874 -2.683901 -2.12132 -2.12132 
C -2.683901 -1.55874 -3 -0.795609 -3 0 
C -3 0.795609 -2.683901 1.55874 -2.12132 2.12132 
C -1.55874 2.683901 -0.795609 3 0 3 
z
" id="m3a45dbb7be" style="stroke:#0000ff;"/>
    </defs>
    <g clip-path="url(#p1c77a2803f)">
     <use style="fill:#0000ff;stroke:#0000ff;" x="75.87867" xlink:href="#m3a45dbb7be" y="28.38402"/>
    </g>
   </g>
   <g id="patch_2">
    <path clip-path="url(#p1c77a2803f)" d="M 115.92 224.64 
C 144.752881 224.64 172.408724 213.184575 192.796649 192.796649 
C 213.184575 172.408724 224.64 144.752881 224.64 115.92 
C 224.64 87.087119 213.184575 59.431276 192.796649 39.043351 
C 172.408724 18.655425 144.752881 7.2 115.92 7.2 
C 87.087119 7.2 59.431276 18.655425 39.043351 39.043351 
C 18.655425 59.431276 7.2 87.087119 7.2 115.92 
C 7.2 144.752881 18.655425 172.408724 39.043351 192.796649 
C 59.431276 213.184575 87.087119 224.64 115.92 224.64 
z
" style="fill:none;stroke:#000000;stroke-linejoin:miter;"/>
   </g>
   <g id="line2d_3">
    <path clip-path="url(#p1c77a2803f)" d="M 207.671505 65.409855 
L 205.990585 63.18959 
L 204.238048 61.011252 
L 202.415288 58.876572 
L 200.523755 56.787249 
L 198.564952 54.744942 
L 196.540437 52.751277 
L 194.45182 50.807838 
L 192.300762 48.91617 
L 190.088972 47.077778 
L 187.818209 45.294123 
L 185.490279 43.566624 
L 183.107033 41.896654 
L 180.670365 40.285541 
L 178.182214 38.734565 
L 175.644557 37.244961 
L 173.059413 35.817913 
L 170.428836 34.454554 
L 167.754919 33.15597 
L 165.039787 31.923192 
L 162.285599 30.757202 
L 159.494545 29.658925 
L 156.668845 28.629236 
L 153.810745 27.668952 
L 150.922517 26.778839 
L 148.006458 25.959602 
L 145.064887 25.211894 
L 142.100143 24.53631 
L 139.114582 23.933385 
L 136.11058 23.403601 
L 133.090523 22.947377 
L 130.056814 22.565077 
L 127.011864 22.257005 
L 123.958095 22.023405 
L 120.897935 21.864464 
L 117.833817 21.780307 
L 114.768178 21.771002 
L 111.703454 21.836556 
L 108.642082 21.976918 
L 105.586498 22.191974 
L 102.53913 22.481555 
L 99.502401 22.84543 
L 96.478726 23.283309 
L 93.470509 23.794846 
L 90.480141 24.379632 
L 87.510002 25.037203 
L 84.562451 25.767036 
L 81.639834 26.568551 
L 78.744472 27.44111 
L 75.87867 28.38402 
" style="fill:none;stroke:#000000;stroke-dasharray:5.55,2.4;stroke-dashoffset:0;stroke-width:1.5;"/>
   </g>
   <g id="line2d_4">
    <path clip-path="url(#p1c77a2803f)" d="M 115.92 170.28 
L 121.017403 177.016552 
L 126.075795 183.28553 
L 131.056465 189.038957 
L 134.959398 193.240771 
L 138.769056 197.063787 
L 142.466775 200.489273 
L 146.034439 203.500448 
L 149.454571 206.082561 
L 152.710415 208.222962 
L 155.034855 209.531998 
L 157.251487 210.583019 
L 159.3542 211.373127 
L 161.337199 211.900146 
L 163.195019 212.162623 
L 164.922538 212.159835 
L 166.514995 211.891788 
L 167.968002 211.359222 
M 63.199056 20.845825 
L 61.962612 21.772191 
L 60.874885 22.958048 
L 59.938876 24.400129 
L 59.157162 26.094459 
L 58.531899 28.036367 
L 58.06481 30.220502 
L 57.757183 32.640843 
L 57.609866 35.29072 
L 57.66345 39.168232 
L 58.002437 43.421757 
L 58.625167 48.030455 
L 59.528587 52.971748 
L 60.708273 58.22143 
L 62.158445 63.75378 
L 63.871998 69.541697 
L 66.371412 77.092676 
L 69.250022 84.940802 
L 72.4858 93.026013 
L 76.053981 101.286432 
L 79.927258 109.658843 
L 84.075988 118.07917 
L 88.468422 126.482974 
L 93.070944 134.805938 
L 97.84833 142.984368 
L 102.76402 150.955673 
L 107.780393 158.658849 
L 112.859058 166.034943 
L 115.92 170.28 
L 115.92 170.28 
" style="fill:none;stroke:#ff0000;stroke-linecap:square;stroke-width:1.5;"/>
   </g>
   <g id="line2d_5">
    <path clip-path="url(#p1c77a2803f)" d="M 115.92 170.28 
L 122.990442 167.721184 
L 130.026246 164.908591 
L 136.992942 161.856 
L 143.8564 158.578365 
L 150.582996 155.091744 
L 157.139775 151.413217 
L 163.494616 147.560807 
L 169.616386 143.553387 
L 175.475094 139.410589 
L 181.042037 135.152708 
L 186.289943 130.800606 
L 191.193102 126.375602 
L 195.727492 121.899376 
L 198.872847 118.521777 
L 201.789566 115.137006 
L 204.469609 111.754394 
L 206.90559 108.383263 
L 209.090796 105.032905 
L 211.019202 101.712554 
L 212.685494 98.431362 
L 214.085079 95.198373 
L 215.2141 92.022497 
L 216.069445 88.912487 
L 216.648756 85.876917 
L 216.950436 82.924151 
L 216.973655 80.062329 
L 216.718348 77.299339 
L 216.185218 74.642796 
L 215.375736 72.100022 
L 215.04486 71.278933 
M 17.348349 161.766984 
L 18.658138 164.083219 
L 20.236002 166.266705 
L 22.077592 168.311426 
L 24.177832 170.211744 
L 26.530934 171.962422 
L 29.130411 173.558634 
L 31.969099 174.995983 
L 35.039174 176.270505 
L 38.332175 177.378687 
L 41.839024 178.317477 
L 45.550057 179.084285 
L 49.455045 179.676999 
L 53.543224 180.093984 
L 57.803328 180.334092 
L 62.223614 180.396661 
L 66.791899 180.281518 
L 71.495591 179.98898 
L 77.955358 179.324448 
L 84.601117 178.349292 
L 91.400309 177.068291 
L 98.319625 175.48772 
L 105.325166 173.615324 
L 112.382612 171.460273 
L 115.92 170.28 
L 115.92 170.28 
" style="fill:none;stroke:#0000ff;stroke-linecap:square;stroke-width:1.5;"/>
   </g>
   <g id="text_1">
    <!-- $\theta$ -->
    <g transform="translate(132.228 34.38)scale(0.1 -0.1)">
     <defs>
      <path d="M 2913 2219 
L 925 2219 
Q 791 1284 928 888 
Q 1100 400 1566 400 
Q 2034 400 2391 891 
Q 2703 1322 2913 2219 
z
M 3009 2750 
Q 3094 3638 2984 3950 
Q 2813 4444 2353 4444 
Q 1875 4444 1525 3956 
Q 1250 3563 1034 2750 
L 3009 2750 
z
M 2444 4913 
Q 3194 4913 3494 4250 
Q 3794 3591 3566 2422 
Q 3341 1256 2781 594 
Q 2225 -72 1475 -72 
Q 722 -72 425 594 
Q 128 1256 353 2422 
Q 581 3591 1134 4250 
Q 1691 4913 2444 4913 
z
" id="DejaVuSans-Oblique-3b8" transform="scale(0.015625)"/>
     </defs>
     <use transform="translate(0 0.234375)" xlink:href="#DejaVuSans-Oblique-3b8"/>
    </g>
   </g>
   <g id="text_2">
    <!-- $\theta$ -->
    <g transform="translate(99.612 170.28)scale(0.1 -0.1)">
     <use transform="translate(0 0.234375)" xlink:href="#DejaVuSans-Oblique-3b8"/>
    </g>
   </g>
   <g id="text_3">
    <!-- $\pi - \theta$ -->
    <g transform="translate(110.484 159.408)scale(0.1 -0.1)">
     <defs>
      <path d="M 584 3500 
L 3938 3500 
L 3825 2925 
L 3384 2925 
L 2966 775 
Q 2922 550 2981 450 
Q 3038 353 3209 353 
Q 3256 353 3325 363 
Q 3397 369 3419 372 
L 3338 -44 
Q 3222 -84 3103 -103 
Q 2981 -122 2866 -122 
Q 2491 -122 2388 81 
Q 2284 288 2391 838 
L 2797 2925 
L 1506 2925 
L 938 0 
L 350 0 
L 919 2925 
L 472 2925 
L 584 3500 
z
" id="DejaVuSans-Oblique-3c0" transform="scale(0.015625)"/>
      <path d="M 678 2272 
L 4684 2272 
L 4684 1741 
L 678 1741 
L 678 2272 
z
" id="DejaVuSans-2212" transform="scale(0.015625)"/>
     </defs>
     <use transform="translate(0 0.234375)" xlink:href="#DejaVuSans-Oblique-3c0"/>
     <use transform="translate(79.6875 0.234375)" xlink:href="#DejaVuSans-2212"/>
     <use transform="translate(182.958984 0.234375)" xlink:href="#DejaVuSans-Oblique-3b8"/>
    </g>
   </g>
   <g id="PathCollection_3">
    <defs>
     <path d="M 0 3 
C 0.795609 3 1.55874 2.683901 2.12132 2.12132 
C 2.683901 1.55874 3 0.795609 3 0 
C 3 -0.795609 2.683901 -1.55874 2.12132 -2.12132 
C 1.55874 -2.683901 0.795609 -3 0 -3 
C -0.795609 -3 -1.55874 -2.683901 -2.12132 -2.12132 
C -2.683901 -1.55874 -3 -0.795609 -3 0 
C -3 0.795609 -2.683901 1.55874 -2.12132 2.12132 
C -1.55874 2.683901 -0.795609 3 0 3 
z
" id="mfe3f7120b1" style="stroke:#000000;"/>
    </defs>
    <g clip-path="url(#p1c77a2803f)">
     <use style="stroke:#000000;" x="115.92" xlink:href="#mfe3f7120b1" y="170.28"/>
    </g>
   </g>
   <g id="PathCollection_4">
    <defs>
     <path d="M 0 3 
C 0.795609 3 1.55874 2.683901 2.12132 2.12132 
C 2.683901 1.55874 3 0.795609 3 0 
C 3 -0.795609 2.683901 -1.55874 2.12132 -2.12132 
C 1.55874 -2.683901 0.795609 -3 0 -3 
C -0.795609 -3 -1.55874 -2.683901 -2.12132 -2.12132 
C -2.683901 -1.55874 -3 -0.795609 -3 0 
C -3 0.795609 -2.683901 1.55874 -2.12132 2.12132 
C -1.55874 2.683901 -0.795609 3 0 3 
z
" id="mcb0fa20339" style="stroke:#bbbbbb;"/>
    </defs>
    <g clip-path="url(#p1c77a2803f)">
     <use style="fill:#bbbbbb;stroke:#bbbbbb;" x="115.92" xlink:href="#mcb0fa20339" y="61.56"/>
    </g>
   </g>
  </g>
 </g>
 <defs>
  <clipPath id="p1c77a2803f">
   <rect height="217.44" width="217.44" x="7.2" y="7.2"/>
  </clipPath>
 </defs>
</svg>
