<?xml version="1.0" encoding="utf-8" standalone="no"?>
<!DOCTYPE svg PUBLIC "-//W3C//DTD SVG 1.1//EN"
  "http://www.w3.org/Graphics/SVG/1.1/DTD/svg11.dtd">
<svg height="231.84pt" version="1.1" viewBox="0 0 231.84 231.84" width="231.84pt" xmlns="http://www.w3.org/2000/svg" xmlns:xlink="http://www.w3.org/1999/xlink">
 <metadata>
  <rdf:RDF xmlns:cc="http://creativecommons.org/ns#" xmlns:dc="http://purl.org/dc/elements/1.1/" xmlns:rdf="http://www.w3.org/1999/02/22-rdf-syntax-ns#">
   <cc:Work>
    <dc:type rdf:resource="http://purl.org/dc/dcmitype/StillImage"/>
    <dc:date>2021-05-07T19:42:28.666582</dc:date>
    <dc:format>image/svg+xml</dc:format>
    <dc:creator>
     <cc:Agent>
      <dc:title>Matplotlib v3.4.1, https://matplotlib.org/</dc:title>
     </cc:Agent>
    </dc:creator>
   </cc:Work>
  </rdf:RDF>
 </metadata>
 <defs>
  <style type="text/css">*{stroke-linecap:butt;stroke-linejoin:round;}</style>
 </defs>
 <g id="figure_1">
  <g id="patch_1">
   <path d="M 0 231.84 
L 231.84 231.84 
L 231.84 0 
L 0 0 
z
" style="fill:#ffffff;"/>
  </g>
  <g id="axes_1">
   <g id="PathCollection_1">
    <defs>
     <path d="M 0 3 
C 0.795609 3 1.55874 2.683901 2.12132 2.12132 
C 2.683901 1.55874 3 0.795609 3 0 
C 3 -0.795609 2.683901 -1.55874 2.12132 -2.12132 
C 1.55874 -2.683901 0.795609 -3 0 -3 
C -0.795609 -3 -1.55874 -2.683901 -2.12132 -2.12132 
C -2.683901 -1.55874 -3 -0.795609 -3 0 
C -3 0.795609 -2.683901 1.55874 -2.12132 2.12132 
C -1.55874 2.683901 -0.795609 3 0 3 
z
" id="mf0b4343a1c" style="stroke:#ff0000;"/>
    </defs>
    <g clip-path="url(#pc783386850)">
     <use style="fill:#ff0000;stroke:#ff0000;" x="61.56" xlink:href="#mf0b4343a1c" y="88.74"/>
    </g>
   </g>
   <g id="PathCollection_2">
    <defs>
     <path d="M 0 3 
C 0.795609 3 1.55874 2.683901 2.12132 2.12132 
C 2.683901 1.55874 3 0.795609 3 0 
C 3 -0.795609 2.683901 -1.55874 2.12132 -2.12132 
C 1.55874 -2.683901 0.795609 -3 0 -3 
C -0.795609 -3 -1.55874 -2.683901 -2.12132 -2.12132 
C -2.683901 -1.55874 -3 -0.795609 -3 0 
C -3 0.795609 -2.683901 1.55874 -2.12132 2.12132 
C -1.55874 2.683901 -0.795609 3 0 3 
z
" id="m3fcfc0c548" style="stroke:#0000ff;"/>
    </defs>
    <g clip-path="url(#pc783386850)">
     <use style="fill:#0000ff;stroke:#0000ff;" x="170.28" xlink:href="#m3fcfc0c548" y="143.1"/>
    </g>
   </g>
   <g id="PathCollection_3">
    <defs>
     <path d="M 0 3 
C 0.795609 3 1.55874 2.683901 2.12132 2.12132 
C 2.683901 1.55874 3 0.795609 3 0 
C 3 -0.795609 2.683901 -1.55874 2.12132 -2.12132 
C 1.55874 -2.683901 0.795609 -3 0 -3 
C -0.795609 -3 -1.55874 -2.683901 -2.12132 -2.12132 
C -2.683901 -1.55874 -3 -0.795609 -3 0 
C -3 0.795609 -2.683901 1.55874 -2.12132 2.12132 
C -1.55874 2.683901 -0.795609 3 0 3 
z
" id="mdca6632c6d" style="stroke:#008000;"/>
    </defs>
    <g clip-path="url(#pc783386850)">
     <use style="fill:#008000;stroke:#008000;" x="72.432" xlink:href="#mdca6632c6d" y="159.408"/>
    </g>
   </g>
   <g id="PathCollection_4">
    <g clip-path="url(#pc783386850)">
     <use style="fill:#008000;stroke:#008000;" x="159.408" xlink:href="#mdca6632c6d" y="72.432"/>
    </g>
   </g>
   <g id="patch_2">
    <path clip-path="url(#pc783386850)" d="M 115.92 224.64 
C 144.752881 224.64 172.408724 213.184575 192.796649 192.796649 
C 213.184575 172.408724 224.64 144.752881 224.64 115.92 
C 224.64 87.087119 213.184575 59.431276 192.796649 39.043351 
C 172.408724 18.655425 144.752881 7.2 115.92 7.2 
C 87.087119 7.2 59.431276 18.655425 39.043351 39.043351 
C 18.655425 59.431276 7.2 87.087119 7.2 115.92 
C 7.2 144.752881 18.655425 172.408724 39.043351 192.796649 
C 59.431276 213.184575 87.087119 224.64 115.92 224.64 
z
" style="fill:none;stroke:#000000;stroke-linejoin:miter;"/>
   </g>
   <g id="PathCollection_5">
    <defs>
     <path d="M 0 3 
C 0.795609 3 1.55874 2.683901 2.12132 2.12132 
C 2.683901 1.55874 3 0.795609 3 0 
C 3 -0.795609 2.683901 -1.55874 2.12132 -2.12132 
C 1.55874 -2.683901 0.795609 -3 0 -3 
C -0.795609 -3 -1.55874 -2.683901 -2.12132 -2.12132 
C -2.683901 -1.55874 -3 -0.795609 -3 0 
C -3 0.795609 -2.683901 1.55874 -2.12132 2.12132 
C -1.55874 2.683901 -0.795609 3 0 3 
z
" id="mcb613ee37a" style="stroke:#000000;"/>
    </defs>
    <g clip-path="url(#pc783386850)">
     <use style="stroke:#000000;" x="124.175504" xlink:href="#mcb613ee37a" y="83.098437"/>
    </g>
   </g>
   <g id="line2d_1">
    <path clip-path="url(#pc783386850)" d="M 109.157314 112.538657 
L 110.759095 109.088215 
L 112.155526 105.555926 
L 113.339765 101.959094 
L 114.306011 98.31534 
L 115.04953 94.642516 
L 115.566679 90.958614 
L 115.854925 87.281683 
L 115.912856 83.629736 
L 115.740187 80.020664 
L 115.337766 76.472148 
L 114.707562 73.001573 
L 113.852665 69.625941 
L 112.777261 66.36179 
L 111.48662 63.225111 
L 109.987064 60.23127 
L 108.28594 57.394936 
L 106.391581 54.730002 
L 104.313269 52.249526 
L 102.061185 49.965658 
L 99.646362 47.889588 
L 97.08063 46.031487 
L 94.37656 44.400457 
L 91.547398 43.004489 
L 88.607006 41.850422 
L 85.569787 40.94391 
L 82.450623 40.289394 
L 79.264792 39.890081 
L 76.027904 39.747926 
L 72.755816 39.863626 
L 69.464559 40.236614 
L 66.170255 40.865063 
L 62.889045 41.745895 
L 59.637002 42.874793 
L 56.43006 44.246228 
L 53.283929 45.85348 
L 50.214023 47.688676 
L 47.23538 49.742825 
L 44.362594 52.005863 
L 41.609738 54.466704 
L 38.990299 57.113291 
L 36.51711 59.93266 
L 34.202287 62.910997 
L 32.05717 66.033712 
L 30.092269 69.285506 
L 28.31721 72.650449 
L 26.740689 76.112055 
L 25.370429 79.653366 
L 24.213143 83.257033 
L 23.274501 86.9054 
L 22.559102 90.580595 
L 22.07045 94.264613 
L 21.81094 97.939404 
L 21.781842 101.586967 
L 21.983299 105.189431 
L 22.414324 108.729148 
L 23.072805 112.188776 
L 23.955518 115.551367 
L 25.058136 118.800446 
L 26.375259 121.920098 
L 27.900433 124.895037 
L 29.626187 127.710689 
L 31.544066 130.353262 
L 33.644675 132.809808 
L 35.917722 135.068292 
L 38.352071 137.117651 
L 40.935797 138.947843 
L 43.656241 140.549904 
L 46.500076 141.915985 
L 49.45337 143.039392 
L 52.501655 143.914622 
L 55.629996 144.537388 
L 58.823068 144.904638 
L 62.065227 145.014573 
L 65.340591 144.866655 
L 68.633112 144.461608 
L 71.926661 143.801417 
L 75.205102 142.889316 
L 78.452374 141.729774 
L 81.652569 140.32847 
L 84.790008 138.692271 
L 87.84932 136.829192 
L 90.815519 134.74836 
L 93.674072 132.45997 
L 96.410976 129.975232 
L 99.012821 127.30632 
L 101.466862 124.466309 
L 103.761075 121.469111 
L 105.884222 118.329411 
L 107.825901 115.06259 
L 109.157314 112.538657 
L 109.157314 112.538657 
" style="fill:none;stroke:#ff0000;stroke-linecap:square;stroke-width:1.5;"/>
   </g>
   <g id="line2d_2">
    <path clip-path="url(#pc783386850)" d="M 208.380621 162.150311 
L 210.351609 157.904551 
L 212.069914 153.558077 
L 213.527118 149.132184 
L 214.716081 144.648554 
L 215.630979 140.129152 
L 216.267329 135.59612 
L 216.622015 131.071665 
L 216.693299 126.577953 
L 216.480831 122.136999 
L 215.985652 117.770559 
L 215.210188 113.500025 
L 214.158239 109.346318 
L 213.190883 106.319972 
L 212.073542 103.379142 
L 210.809295 100.531935 
L 209.401627 97.786198 
L 207.854417 95.149499 
L 206.17193 92.629105 
L 204.358804 90.231964 
L 202.420036 87.964681 
L 200.360968 85.833506 
L 198.187278 83.844314 
L 195.904955 82.002586 
L 193.520291 80.313399 
L 191.039858 78.781409 
L 188.470493 77.410838 
L 185.819276 76.205464 
L 183.093517 75.168609 
L 180.300727 74.303131 
L 177.448604 73.611416 
L 174.545009 73.095369 
L 171.597946 72.756413 
L 168.615536 72.595483 
L 165.606 72.613022 
L 162.577633 72.808982 
L 159.538782 73.182822 
L 156.497822 73.733512 
L 153.463135 74.459535 
L 150.443086 75.358888 
L 147.445998 76.429095 
L 144.480132 77.667204 
L 140.588324 79.573234 
L 136.785608 81.762302 
L 133.090614 84.223682 
L 129.521444 86.945316 
L 126.095583 89.913871 
L 122.829814 93.114804 
L 119.740137 96.532433 
L 116.841689 100.150014 
L 114.148669 103.949826 
L 111.67427 107.913252 
L 109.430615 112.020875 
L 107.428696 116.252572 
L 105.67832 120.587612 
L 104.188062 125.004756 
L 102.965223 129.482366 
L 102.015794 133.998504 
L 101.344426 138.531046 
L 100.954408 143.057788 
L 100.847652 147.556551 
L 101.024679 152.005296 
L 101.484624 156.382228 
L 102.225232 160.665906 
L 103.242875 164.835341 
L 104.184962 167.875136 
L 105.277509 170.830788 
L 106.517503 173.694151 
L 107.901526 176.457332 
L 109.425765 179.112717 
L 111.086018 181.652987 
L 112.877708 184.071139 
L 114.795898 186.360509 
L 116.835301 188.514786 
L 118.990295 190.528034 
L 121.254941 192.394703 
L 123.622998 194.109648 
L 126.087937 195.668143 
L 128.642966 197.065891 
L 131.281042 198.299041 
L 133.994894 199.364194 
L 136.777042 200.258413 
L 139.619818 200.979234 
L 142.515386 201.524671 
L 145.455766 201.89322 
L 148.432853 202.083865 
L 151.438442 202.096081 
L 154.464249 201.929834 
L 157.501934 201.585582 
L 160.543125 201.064275 
L 163.579439 200.367348 
L 166.602507 199.496724 
L 169.603998 198.4548 
L 172.575638 197.244451 
L 176.477249 195.374485 
L 180.29213 193.220239 
L 184.001591 190.792265 
L 187.587459 188.102459 
L 191.032167 185.163998 
L 194.318839 181.991277 
L 197.431374 178.599841 
L 200.354522 175.006304 
L 203.073963 171.228271 
L 205.576375 167.28425 
L 207.849498 163.193564 
L 208.380621 162.150311 
L 208.380621 162.150311 
" style="fill:none;stroke:#0000ff;stroke-linecap:square;stroke-width:1.5;"/>
   </g>
   <g id="line2d_3">
    <path clip-path="url(#pc783386850)" d="M 150.574367 198.479184 
L 152.766364 195.609651 
L 154.779613 192.597668 
L 156.608564 189.451536 
L 158.248178 186.179927 
L 159.693935 182.791857 
L 160.94185 179.296665 
L 161.988483 175.703985 
L 162.830951 172.023718 
L 163.46693 168.266009 
L 163.894668 164.441214 
L 164.112986 160.559875 
L 164.121282 156.632691 
L 163.919533 152.670485 
L 163.508296 148.684178 
L 162.888704 144.684757 
L 162.062465 140.683245 
L 161.031855 136.690672 
L 159.799716 132.718042 
L 158.369443 128.776304 
L 156.744979 124.876323 
L 154.930802 121.028848 
L 152.93191 117.244483 
L 150.753814 113.533659 
L 148.402517 109.906603 
L 145.8845 106.373313 
L 143.206703 102.943528 
L 140.376507 99.626699 
L 137.401711 96.43197 
L 134.290516 93.368146 
L 131.051496 90.443671 
L 127.693579 87.666605 
L 124.226021 85.044603 
L 120.658377 82.584893 
L 117.000483 80.294252 
L 113.262418 78.178995 
L 109.454488 76.244952 
L 105.587186 74.497453 
L 101.671172 72.941316 
L 97.71724 71.580828 
L 93.736287 70.41974 
L 89.739286 69.461252 
L 85.737254 68.708006 
L 81.74122 68.162078 
L 77.762199 67.824973 
L 73.811158 67.697619 
L 69.898986 67.780368 
L 66.036467 68.072992 
L 62.234247 68.574684 
L 58.502805 69.284062 
L 54.852425 70.19917 
L 51.29317 71.317485 
L 47.83485 72.635927 
L 44.486995 74.15086 
L 41.258834 75.858109 
L 38.159264 77.752969 
L 35.196828 79.830217 
L 32.379691 82.084128 
L 29.715618 84.508489 
L 27.211952 87.096618 
L 24.875594 89.841383 
L 22.712982 92.735217 
L 20.730077 95.770145 
L 18.932346 98.937802 
L 17.324742 102.229456 
L 15.911696 105.636037 
L 14.697104 109.148153 
L 13.684314 112.756126 
L 12.876115 116.45001 
L 12.274736 120.219625 
L 11.881836 124.05458 
L 11.698495 127.944307 
L 11.72522 131.878083 
L 11.961938 135.845066 
L 12.407995 139.834323 
L 13.062162 143.834859 
L 13.922637 147.835646 
L 14.987047 151.825658 
L 16.252459 155.793898 
L 17.715386 159.729428 
L 19.371794 163.621401 
L 21.217118 167.45909 
L 23.246273 171.231918 
L 25.453666 174.929485 
L 27.833212 178.5416 
L 30.378353 182.058308 
L 33.082074 185.469916 
L 35.936924 188.767021 
L 38.935032 191.940534 
L 42.068137 194.98171 
L 45.327602 197.882166 
L 48.704444 200.633908 
L 52.189355 203.229351 
L 55.77273 205.661342 
L 59.444693 207.923178 
L 63.195122 210.008624 
L 67.013682 211.911933 
L 70.889846 213.627858 
L 74.812932 215.151671 
L 78.772127 216.479171 
L 82.756518 217.6067 
L 86.755124 218.531149 
L 90.756922 219.249971 
L 94.750885 219.761184 
L 98.726002 220.063379 
L 102.671319 220.155725 
L 106.57596 220.037965 
L 110.429165 219.710425 
L 114.220312 219.174007 
L 117.938952 218.43019 
L 121.574836 217.481024 
L 125.117943 216.329125 
L 128.558507 214.977668 
L 131.887045 213.430378 
L 135.094382 211.691519 
L 138.17168 209.765885 
L 141.110456 207.658782 
L 143.90261 205.376018 
L 146.540447 202.923886 
L 149.016695 200.309143 
L 150.574367 198.479184 
L 150.574367 198.479184 
" style="fill:none;stroke:#008000;stroke-linecap:square;stroke-width:1.5;"/>
   </g>
   <g id="line2d_4">
    <path clip-path="url(#pc783386850)" d="M 185.784822 85.620411 
L 186.205681 83.254555 
L 186.407167 80.820164 
L 186.387736 78.335869 
L 186.147538 75.820682 
L 185.68841 73.293852 
L 185.013867 70.774717 
L 184.12907 68.282556 
L 183.040792 65.836442 
L 181.75736 63.455094 
L 180.288597 61.156737 
L 178.645744 58.958962 
L 176.841373 56.878586 
L 174.889292 54.931532 
L 172.804443 53.132701 
L 170.602779 51.495858 
L 168.30115 50.033531 
L 165.917171 48.756911 
L 163.469086 47.675768 
L 160.975632 46.798376 
L 158.455889 46.13145 
L 155.929142 45.680094 
L 153.414728 45.447761 
L 150.93189 45.436231 
L 148.49963 45.64559 
L 146.136561 46.074238 
L 143.860768 46.718893 
L 141.689668 47.574623 
L 139.639876 48.634877 
L 137.727079 49.891542 
L 135.965917 51.335001 
L 134.369867 52.954207 
L 132.951144 54.736768 
L 131.720606 56.669041 
L 130.687669 58.73624 
L 129.86024 60.922543 
L 129.24465 63.21122 
L 128.84561 65.584754 
L 128.666175 68.024981 
L 128.707717 70.513226 
L 128.969918 73.030446 
L 129.450773 75.557377 
L 130.146601 78.074679 
L 131.052077 80.563089 
L 132.16027 83.003562 
L 133.462701 85.377422 
L 134.949402 87.6665 
L 136.608994 89.853279 
L 138.428777 91.921023 
L 140.394824 93.853907 
L 142.492089 95.637139 
L 144.704521 97.257073 
L 147.015189 98.70131 
L 149.406409 99.958798 
L 151.85988 101.019913 
L 154.356827 101.876534 
L 156.87814 102.522106 
L 159.404523 102.951688 
L 161.916643 103.161992 
L 164.395272 103.15141 
L 166.821444 102.920022 
L 169.176589 102.469598 
L 171.442684 101.803586 
L 173.602387 100.927083 
L 175.639169 99.846797 
L 177.537442 98.570996 
L 179.28268 97.109442 
L 180.861525 95.473322 
L 182.261895 93.675157 
L 183.473073 91.728707 
L 184.485789 89.64887 
L 185.292293 87.451562 
L 185.784822 85.620411 
L 185.784822 85.620411 
" style="fill:none;stroke:#bfbf00;stroke-linecap:square;stroke-width:1.5;"/>
   </g>
  </g>
 </g>
 <defs>
  <clipPath id="pc783386850">
   <rect height="217.44" width="217.44" x="7.2" y="7.2"/>
  </clipPath>
 </defs>
</svg>
