<?xml version="1.0" encoding="utf-8" standalone="no"?>
<!DOCTYPE svg PUBLIC "-//W3C//DTD SVG 1.1//EN"
  "http://www.w3.org/Graphics/SVG/1.1/DTD/svg11.dtd">
<svg height="246.958125pt" version="1.1" viewBox="0 0 231.84 246.958125" width="231.84pt" xmlns="http://www.w3.org/2000/svg" xmlns:xlink="http://www.w3.org/1999/xlink">
 <metadata>
  <rdf:RDF xmlns:cc="http://creativecommons.org/ns#" xmlns:dc="http://purl.org/dc/elements/1.1/" xmlns:rdf="http://www.w3.org/1999/02/22-rdf-syntax-ns#">
   <cc:Work>
    <dc:type rdf:resource="http://purl.org/dc/dcmitype/StillImage"/>
    <dc:date>2021-05-02T21:18:17.034790</dc:date>
    <dc:format>image/svg+xml</dc:format>
    <dc:creator>
     <cc:Agent>
      <dc:title>Matplotlib v3.4.1, https://matplotlib.org/</dc:title>
     </cc:Agent>
    </dc:creator>
   </cc:Work>
  </rdf:RDF>
 </metadata>
 <defs>
  <style type="text/css">*{stroke-linecap:butt;stroke-linejoin:round;}</style>
 </defs>
 <g id="figure_1">
  <g id="patch_1">
   <path d="M 0 246.958125 
L 231.84 246.958125 
L 231.84 0 
L 0 0 
z
" style="fill:#ffffff;"/>
  </g>
  <g id="axes_1">
   <g id="PathCollection_1">
    <defs>
     <path d="M 0 3 
C 0.795609 3 1.55874 2.683901 2.12132 2.12132 
C 2.683901 1.55874 3 0.795609 3 0 
C 3 -0.795609 2.683901 -1.55874 2.12132 -2.12132 
C 1.55874 -2.683901 0.795609 -3 0 -3 
C -0.795609 -3 -1.55874 -2.683901 -2.12132 -2.12132 
C -2.683901 -1.55874 -3 -0.795609 -3 0 
C -3 0.795609 -2.683901 1.55874 -2.12132 2.12132 
C -1.55874 2.683901 -0.795609 3 0 3 
z
" id="meec6c224e5" style="stroke:#000000;"/>
    </defs>
    <g clip-path="url(#p9c3ada019c)">
     <use style="stroke:#000000;" x="115.92" xlink:href="#meec6c224e5" y="185.398125"/>
     <use style="stroke:#000000;" x="170.28" xlink:href="#meec6c224e5" y="158.218125"/>
     <use style="stroke:#000000;" x="61.56" xlink:href="#meec6c224e5" y="76.678125"/>
    </g>
   </g>
   <g id="PathCollection_2">
    <defs>
     <path d="M 0 3 
C 0.795609 3 1.55874 2.683901 2.12132 2.12132 
C 2.683901 1.55874 3 0.795609 3 0 
C 3 -0.795609 2.683901 -1.55874 2.12132 -2.12132 
C 1.55874 -2.683901 0.795609 -3 0 -3 
C -0.795609 -3 -1.55874 -2.683901 -2.12132 -2.12132 
C -2.683901 -1.55874 -3 -0.795609 -3 0 
C -3 0.795609 -2.683901 1.55874 -2.12132 2.12132 
C -1.55874 2.683901 -0.795609 3 0 3 
z
" id="m5262565a3a" style="stroke:#0000ff;"/>
    </defs>
    <g clip-path="url(#p9c3ada019c)">
     <use style="fill:#0000ff;stroke:#0000ff;" x="154.271803" xlink:href="#m5262565a3a" y="144.146782"/>
     <use style="fill:#0000ff;stroke:#0000ff;" x="122.862579" xlink:href="#m5262565a3a" y="194.47001"/>
     <use style="fill:#0000ff;stroke:#0000ff;" x="71.930679" xlink:href="#m5262565a3a" y="195.071638"/>
    </g>
   </g>
   <g id="patch_2">
    <path clip-path="url(#p9c3ada019c)" d="M 115.92 239.758125 
C 144.752881 239.758125 172.408724 228.3027 192.796649 207.914774 
C 213.184575 187.526849 224.64 159.871006 224.64 131.038125 
C 224.64 102.205244 213.184575 74.549401 192.796649 54.161476 
C 172.408724 33.77355 144.752881 22.318125 115.92 22.318125 
C 87.087119 22.318125 59.431276 33.77355 39.043351 54.161476 
C 18.655425 74.549401 7.2 102.205244 7.2 131.038125 
C 7.2 159.871006 18.655425 187.526849 39.043351 207.914774 
C 59.431276 228.3027 87.087119 239.758125 115.92 239.758125 
z
" style="fill:none;stroke:#000000;stroke-linejoin:miter;"/>
   </g>
   <g id="line2d_1">
    <path clip-path="url(#p9c3ada019c)" d="M 170.28 158.218125 
L 168.392478 156.50385 
L 166.464661 154.770019 
L 164.498031 153.017964 
L 162.494098 151.249031 
L 160.4544 149.464578 
L 158.380503 147.665975 
L 156.274001 145.854604 
L 154.136511 144.031854 
L 151.969674 142.199127 
L 149.775154 140.357829 
L 147.554637 138.509374 
L 145.309827 136.655183 
L 143.042448 134.796677 
L 140.754242 132.935286 
L 138.446966 131.072438 
L 136.122391 129.209563 
L 133.782302 127.348093 
L 131.428497 125.489456 
L 129.062782 123.63508 
L 126.686975 121.786389 
L 124.302901 119.944802 
L 121.912388 118.111734 
L 119.517275 116.288592 
L 117.119399 114.476777 
L 114.720601 112.677679 
L 112.322725 110.89268 
L 109.927612 109.123151 
L 107.537099 107.370451 
L 105.153025 105.635926 
L 102.777218 103.920906 
L 100.411503 102.226711 
L 98.057698 100.55464 
L 95.717609 98.905977 
L 93.393034 97.281989 
L 91.085758 95.683923 
L 88.797552 94.113005 
L 86.530173 92.570442 
L 84.285363 91.057419 
L 82.064846 89.575098 
L 79.870326 88.124616 
L 77.703489 86.707088 
L 75.565999 85.323602 
L 73.459497 83.97522 
L 71.3856 82.662979 
L 69.345902 81.387885 
L 67.341969 80.150918 
L 65.375339 78.953027 
L 63.447522 77.795133 
L 61.56 76.678125 
" style="fill:none;stroke:#000000;stroke-linecap:square;stroke-width:1.5;"/>
   </g>
   <g id="line2d_2">
    <path clip-path="url(#p9c3ada019c)" d="M 61.56 76.678125 
L 62.093834 78.640143 
L 62.659948 80.633584 
L 63.258003 82.657253 
L 63.887639 84.709936 
L 64.548479 86.790403 
L 65.240127 88.897405 
L 65.962167 91.029679 
L 66.714168 93.185946 
L 67.495678 95.364914 
L 68.306228 97.565274 
L 69.145332 99.785709 
L 70.012487 102.024886 
L 70.907173 104.281462 
L 71.828853 106.554084 
L 72.776975 108.841389 
L 73.75097 111.142006 
L 74.750254 113.454555 
L 75.774228 115.777649 
L 76.822277 118.109894 
L 77.893774 120.449892 
L 78.988075 122.796241 
L 80.104524 125.147532 
L 81.242452 127.502355 
L 82.401176 129.8593 
L 83.580001 132.21695 
L 84.778221 134.573895 
L 85.995117 136.928718 
L 87.229959 139.280009 
L 88.482006 141.626358 
L 89.750509 143.966356 
L 91.034705 146.298601 
L 92.333824 148.621695 
L 93.647089 150.934244 
L 94.973711 153.234861 
L 96.312894 155.522166 
L 97.663836 157.794788 
L 99.025726 160.051364 
L 100.397748 162.290541 
L 101.779078 164.510976 
L 103.168889 166.711336 
L 104.566347 168.890304 
L 105.970614 171.046571 
L 107.380847 173.178845 
L 108.796201 175.285847 
L 110.215827 177.366314 
L 111.638875 179.418997 
L 113.064489 181.442666 
L 114.491816 183.436107 
L 115.92 185.398125 
" style="fill:none;stroke:#000000;stroke-linecap:square;stroke-width:1.5;"/>
   </g>
   <g id="line2d_3">
    <path clip-path="url(#p9c3ada019c)" d="M 115.92 185.398125 
L 117.0913 184.992637 
L 118.262442 184.579903 
L 119.43327 184.15998 
L 120.603626 183.732922 
L 121.773353 183.298789 
L 122.942294 182.857637 
L 124.110292 182.409527 
L 125.27719 181.954518 
L 126.442832 181.492671 
L 127.60706 181.02405 
L 128.769719 180.548715 
L 129.930653 180.066732 
L 131.089705 179.578165 
L 132.24672 179.083079 
L 133.401542 178.581542 
L 134.554017 178.07362 
L 135.703989 177.559382 
L 136.851305 177.038897 
L 137.99581 176.512234 
L 139.13735 175.979464 
L 140.275773 175.44066 
L 141.410925 174.895892 
L 142.542654 174.345235 
L 143.670807 173.788763 
L 144.795234 173.226549 
L 145.915784 172.65867 
L 147.032305 172.085202 
L 148.144648 171.506222 
L 149.252664 170.921807 
L 150.356204 170.332037 
L 151.455119 169.73699 
L 152.549262 169.136746 
L 153.638487 168.531385 
L 154.722646 167.92099 
L 155.801595 167.305642 
L 156.875188 166.685424 
L 157.943281 166.060418 
L 159.005731 165.430709 
L 160.062394 164.796382 
L 161.113131 164.157522 
L 162.157798 163.514214 
L 163.196256 162.866545 
L 164.228365 162.214602 
L 165.253987 161.558472 
L 166.272984 160.898243 
L 167.28522 160.234005 
L 168.290557 159.565846 
L 169.288862 158.893856 
L 170.28 158.218125 
" style="fill:none;stroke:#000000;stroke-linecap:square;stroke-width:1.5;"/>
   </g>
   <g id="line2d_4">
    <path clip-path="url(#p9c3ada019c)" d="M 115.92 185.398125 
L 116.74024 184.670968 
L 117.560385 183.937587 
L 118.380339 183.198067 
L 119.200008 182.452494 
L 120.019296 181.700954 
L 120.838109 180.943534 
L 121.65635 180.180323 
L 122.473926 179.411409 
L 123.290742 178.636881 
L 124.106702 177.856829 
L 124.921712 177.071344 
L 125.735677 176.280516 
L 126.548503 175.484438 
L 127.360096 174.683202 
L 128.170361 173.8769 
L 128.979204 173.065627 
L 129.786532 172.249477 
L 130.592251 171.428544 
L 131.396267 170.602924 
L 132.198486 169.772712 
L 132.998817 168.938005 
L 133.797166 168.0989 
L 134.59344 167.255493 
L 135.387546 166.407884 
L 136.179394 165.55617 
L 136.96889 164.70045 
L 137.755944 163.840823 
L 138.540464 162.977389 
L 139.322358 162.110249 
L 140.101537 161.239503 
L 140.877909 160.365252 
L 141.651385 159.487598 
L 142.421874 158.606641 
L 143.189288 157.722486 
L 143.953538 156.835234 
L 144.714534 155.944988 
L 145.472188 155.051851 
L 146.226413 154.155928 
L 146.97712 153.257321 
L 147.724224 152.356136 
L 148.467636 151.452477 
L 149.207271 150.546449 
L 149.943044 149.638157 
L 150.674867 148.727707 
L 151.402658 147.815203 
L 152.12633 146.900753 
L 152.845801 145.984462 
L 153.560986 145.066436 
L 154.271803 144.146782 
" style="fill:none;stroke:#0000ff;stroke-linecap:square;stroke-width:1.5;"/>
   </g>
   <g id="line2d_5">
    <path clip-path="url(#p9c3ada019c)" d="M 170.28 158.218125 
L 169.433357 159.083982 
L 168.579811 159.946222 
L 167.719474 160.804733 
L 166.852455 161.659404 
L 165.978866 162.510126 
L 165.098821 163.356789 
L 164.212432 164.199283 
L 163.319814 165.037499 
L 162.421082 165.87133 
L 161.516353 166.700668 
L 160.605742 167.525407 
L 159.689367 168.345439 
L 158.767347 169.160659 
L 157.8398 169.970961 
L 156.906847 170.776242 
L 155.968606 171.576397 
L 155.0252 172.371324 
L 154.07675 173.160919 
L 153.123378 173.945081 
L 152.165208 174.723709 
L 151.202362 175.496701 
L 150.234966 176.26396 
L 149.263143 177.025385 
L 148.28702 177.780878 
L 147.306722 178.530342 
L 146.322375 179.27368 
L 145.334107 180.010797 
L 144.342045 180.741597 
L 143.346317 181.465986 
L 142.347052 182.183871 
L 141.344377 182.895158 
L 140.338424 183.599757 
L 139.32932 184.297576 
L 138.317198 184.988525 
L 137.302186 185.672516 
L 136.284417 186.34946 
L 135.264021 187.019269 
L 134.241129 187.681858 
L 133.215875 188.33714 
L 132.188389 188.985032 
L 131.158806 189.625449 
L 130.127256 190.25831 
L 129.093874 190.883532 
L 128.058793 191.501035 
L 127.022147 192.110739 
L 125.984068 192.712566 
L 124.944691 193.306438 
L 123.90415 193.892278 
L 122.862579 194.47001 
" style="fill:none;stroke:#0000ff;stroke-linecap:square;stroke-width:1.5;"/>
   </g>
   <g id="line2d_6">
    <path clip-path="url(#p9c3ada019c)" d="M 61.56 76.678125 
L 61.005107 78.908236 
L 60.480807 81.167388 
L 59.987392 83.454323 
L 59.525136 85.767766 
L 59.094297 88.10643 
L 58.695116 90.46901 
L 58.327814 92.85419 
L 57.992596 95.260643 
L 57.689649 97.687027 
L 57.419142 100.131991 
L 57.181225 102.594172 
L 56.976031 105.072199 
L 56.803674 107.564692 
L 56.664251 110.070261 
L 56.557838 112.587512 
L 56.484496 115.115041 
L 56.444264 117.651441 
L 56.437167 120.195298 
L 56.463206 122.745196 
L 56.522369 125.299714 
L 56.614621 127.857429 
L 56.739912 130.416915 
L 56.898172 132.976748 
L 57.089312 135.5355 
L 57.313227 138.091748 
L 57.56979 140.644065 
L 57.858861 143.191032 
L 58.180276 145.731228 
L 58.533858 148.263238 
L 58.91941 150.785653 
L 59.336716 153.297066 
L 59.785544 155.796079 
L 60.265644 158.2813 
L 60.776749 160.751344 
L 61.318573 163.204835 
L 61.890816 165.640405 
L 62.493158 168.0567 
L 63.125263 170.452371 
L 63.78678 172.826085 
L 64.47734 175.17652 
L 65.196559 177.502365 
L 65.944035 179.802325 
L 66.719352 182.075119 
L 67.522079 184.319481 
L 68.351767 186.534161 
L 69.207956 188.717923 
L 70.090167 190.869553 
L 70.99791 192.987852 
L 71.930679 195.071638 
" style="fill:none;stroke:#0000ff;stroke-linecap:square;stroke-width:1.5;"/>
   </g>
   <g id="line2d_7">
    <path clip-path="url(#p9c3ada019c)" d="M 115.92 185.398125 
L 115.16409 186.062666 
L 114.408255 186.721784 
L 113.652569 187.375413 
L 112.897106 188.02349 
L 112.141942 188.66595 
L 111.387149 189.30273 
L 110.632804 189.933768 
L 109.878979 190.559 
L 109.12575 191.178367 
L 108.373191 191.791805 
L 107.621375 192.399256 
L 106.870378 193.000659 
L 106.120272 193.595954 
L 105.371132 194.185084 
L 104.623032 194.76799 
L 103.876045 195.344615 
L 103.130246 195.914901 
L 102.385707 196.478793 
L 101.642502 197.036235 
L 100.900704 197.587173 
L 100.160386 198.131551 
L 99.421622 198.669316 
L 98.684484 199.200415 
L 97.949045 199.724796 
L 97.215377 200.242408 
L 96.483552 200.753198 
L 95.753643 201.257117 
L 95.025722 201.754115 
L 94.29986 202.244144 
L 93.57613 202.727154 
L 92.854601 203.203098 
L 92.135346 203.67193 
L 91.418435 204.133602 
L 90.703939 204.588071 
L 89.991928 205.03529 
L 89.282473 205.475215 
L 88.575643 205.907804 
L 87.871508 206.333014 
L 87.170138 206.750803 
L 86.471601 207.161129 
L 85.775967 207.563952 
L 85.083304 207.959233 
L 84.393681 208.346933 
L 83.707164 208.727012 
L 83.023823 209.099435 
L 82.343724 209.464163 
L 81.666934 209.821162 
L 80.99352 210.170396 
L 80.323549 210.511831 
" style="fill:none;stroke:#0000ff;stroke-linecap:square;stroke-width:1.5;"/>
   </g>
   <g id="line2d_8">
    <path clip-path="url(#p9c3ada019c)" d="M 170.28 158.218125 
L 168.70871 159.816687 
L 167.114131 161.402552 
L 165.496964 162.97502 
L 163.857924 164.533398 
L 162.197734 166.076997 
L 160.517126 167.605138 
L 158.816842 169.117145 
L 157.097632 170.612352 
L 155.360255 172.090099 
L 153.605476 173.549733 
L 151.834071 174.990612 
L 150.046821 176.412099 
L 148.244513 177.813567 
L 146.427945 179.194397 
L 144.597916 180.553981 
L 142.755235 181.891719 
L 140.900714 183.207021 
L 139.035171 184.499305 
L 137.15943 185.768003 
L 135.274319 187.012553 
L 133.380668 188.232408 
L 131.479313 189.427029 
L 129.571094 190.595889 
L 127.656852 191.738472 
L 125.737432 192.854274 
L 123.81368 193.942803 
L 121.886446 195.003579 
L 119.956579 196.036133 
L 118.024931 197.04001 
L 116.092355 198.014767 
L 114.159703 198.959974 
L 112.227827 199.875214 
L 110.29758 200.760083 
L 108.369814 201.614191 
L 106.445379 202.437161 
L 104.525124 203.22863 
L 102.609896 203.988248 
L 100.700541 204.715681 
L 98.797901 205.410608 
L 96.902815 206.072722 
L 95.016119 206.70173 
L 93.138646 207.297356 
L 91.271224 207.859336 
L 89.414678 208.387423 
L 87.569825 208.881383 
L 85.73748 209.340999 
L 83.918452 209.766069 
L 82.113543 210.156403 
L 80.323549 210.511831 
" style="fill:none;stroke:#0000ff;stroke-linecap:square;stroke-width:1.5;"/>
   </g>
   <g id="line2d_9">
    <path clip-path="url(#p9c3ada019c)" d="M 61.56 76.678125 
L 60.916488 79.279004 
L 60.314563 81.919018 
L 59.754679 84.596168 
L 59.237261 87.308433 
L 58.762698 90.05376 
L 58.331351 92.830074 
L 57.943545 95.635276 
L 57.599574 98.467246 
L 57.299697 101.323841 
L 57.044141 104.202902 
L 56.8331 107.102253 
L 56.666732 110.019702 
L 56.545165 112.953041 
L 56.468489 115.900054 
L 56.436762 118.858513 
L 56.45001 121.826181 
L 56.508221 124.800813 
L 56.611351 127.780161 
L 56.759323 130.761972 
L 56.952026 133.743993 
L 57.189312 136.723967 
L 57.471002 139.699642 
L 57.796885 142.668769 
L 58.166713 145.629102 
L 58.580206 148.578404 
L 59.037053 151.514443 
L 59.536907 154.435001 
L 60.079391 157.337869 
L 60.664094 160.220853 
L 61.290575 163.081773 
L 61.95836 165.918465 
L 62.666943 168.728785 
L 63.41579 171.510608 
L 64.204334 174.261831 
L 65.031978 176.980374 
L 65.898098 179.664181 
L 66.802038 182.311223 
L 67.743114 184.919499 
L 68.720616 187.487037 
L 69.733804 190.011895 
L 70.781912 192.492165 
L 71.864148 194.925972 
L 72.979693 197.311474 
L 74.127704 199.646869 
L 75.307314 201.93039 
L 76.517629 204.160312 
L 77.757735 206.334949 
L 79.026695 208.452655 
L 80.323549 210.511831 
" style="fill:none;stroke:#0000ff;stroke-linecap:square;stroke-width:1.5;"/>
   </g>
   <g id="line2d_10">
    <path clip-path="url(#p9c3ada019c)" d="M 61.56 76.678125 
L 63.139004 77.6114 
L 64.746473 78.573488 
L 66.381539 79.563869 
L 68.043321 80.58201 
L 69.730923 81.627362 
L 71.443434 82.69936 
L 73.17993 83.797428 
L 74.939477 84.920971 
L 76.721123 86.069386 
L 78.523909 87.242051 
L 80.346863 88.438336 
L 82.189001 89.657594 
L 84.049329 90.899168 
L 85.926846 92.162389 
L 87.820537 93.446576 
L 89.729382 94.751035 
L 91.652352 96.075063 
L 93.588409 97.417947 
L 95.536509 98.778962 
L 97.495602 100.157374 
L 99.464631 101.55244 
L 101.442534 102.963407 
L 103.428245 104.389514 
L 105.420693 105.829993 
L 107.418802 107.284067 
L 109.421497 108.750951 
L 111.427695 110.229854 
L 113.436317 111.719979 
L 115.446278 113.220522 
L 117.456495 114.730674 
L 119.465882 116.24962 
L 121.473358 117.776542 
L 123.477839 119.310615 
L 125.478244 120.851013 
L 127.473494 122.396905 
L 129.462513 123.947457 
L 131.444229 125.501833 
L 133.417573 127.059195 
L 135.381481 128.618703 
L 137.334893 130.179515 
L 139.276757 131.74079 
L 141.206024 133.301687 
L 143.121655 134.861362 
L 145.022616 136.418976 
L 146.907882 137.973688 
L 148.776437 139.52466 
L 150.627272 141.071055 
L 152.459391 142.612039 
L 154.271803 144.146782 
" style="fill:none;stroke:#000000;stroke-dasharray:5.55,2.4;stroke-dashoffset:0;stroke-width:1.5;"/>
   </g>
   <g id="line2d_11">
    <path clip-path="url(#p9c3ada019c)" d="M 115.92 185.398125 
L 116.062022 185.591451 
L 116.204043 185.784453 
L 116.346062 185.97713 
L 116.488079 186.169482 
L 116.630093 186.361507 
L 116.772102 186.553203 
L 116.914106 186.744571 
L 117.056104 186.935608 
L 117.198096 187.126314 
L 117.34008 187.316687 
L 117.482056 187.506727 
L 117.624022 187.696432 
L 117.765978 187.8858 
L 117.907923 188.074832 
L 118.049857 188.263526 
L 118.191778 188.45188 
L 118.333685 188.639894 
L 118.475578 188.827566 
L 118.617456 189.014895 
L 118.759318 189.201881 
L 118.901163 189.388522 
L 119.042991 189.574817 
L 119.184799 189.760765 
L 119.326589 189.946365 
L 119.468358 190.131615 
L 119.610107 190.316515 
L 119.751833 190.501063 
L 119.893537 190.685259 
L 120.035217 190.869101 
L 120.176873 191.052589 
L 120.318503 191.23572 
L 120.460107 191.418495 
L 120.601685 191.600912 
L 120.743235 191.782969 
L 120.884756 191.964666 
L 121.026248 192.146003 
L 121.167709 192.326976 
L 121.309139 192.507587 
L 121.450538 192.687832 
L 121.591903 192.867713 
L 121.733235 193.047226 
L 121.874533 193.226372 
L 122.015795 193.40515 
L 122.157021 193.583557 
L 122.29821 193.761594 
L 122.439361 193.939258 
L 122.580473 194.11655 
L 122.721546 194.293468 
L 122.862579 194.47001 
" style="fill:none;stroke:#000000;stroke-dasharray:5.55,2.4;stroke-dashoffset:0;stroke-width:1.5;"/>
   </g>
   <g id="line2d_12">
    <path clip-path="url(#p9c3ada019c)" d="M 170.28 158.218125 
L 168.497833 159.427025 
L 166.692969 160.62367 
L 164.866187 161.807543 
L 163.018276 162.978134 
L 161.150033 164.134936 
L 159.262266 165.277451 
L 157.355788 166.405186 
L 155.431422 167.517653 
L 153.490001 168.614373 
L 151.53236 169.694871 
L 149.559347 170.758682 
L 147.571812 171.805346 
L 145.570613 172.834412 
L 143.556615 173.845434 
L 141.530686 174.837978 
L 139.493702 175.811614 
L 137.446541 176.765921 
L 135.390088 177.700489 
L 133.325229 178.614913 
L 131.252857 179.508799 
L 129.173866 180.381762 
L 127.089154 181.233423 
L 124.99962 182.063415 
L 122.906166 182.871381 
L 120.809697 183.656971 
L 118.711117 184.419847 
L 116.611332 185.159678 
L 114.511248 185.876146 
L 112.411773 186.568941 
L 110.313812 187.237765 
L 108.218271 187.882327 
L 106.126055 188.502352 
L 104.038067 189.097569 
L 101.955208 189.667723 
L 99.878377 190.212568 
L 97.808472 190.731868 
L 95.746385 191.225399 
L 93.693006 191.692949 
L 91.649223 192.134314 
L 89.615917 192.549305 
L 87.593965 192.937743 
L 85.584242 193.29946 
L 83.587615 193.634299 
L 81.604944 193.942117 
L 79.637087 194.22278 
L 77.684893 194.476167 
L 75.749205 194.702169 
L 73.830857 194.900688 
L 71.930679 195.071638 
" style="fill:none;stroke:#000000;stroke-dasharray:5.55,2.4;stroke-dashoffset:0;stroke-width:1.5;"/>
   </g>
   <g id="text_1">
    <!-- orthocenter -->
    <g transform="translate(80.652188 16.318125)scale(0.12 -0.12)">
     <defs>
      <path d="M 1959 3097 
Q 1497 3097 1228 2736 
Q 959 2375 959 1747 
Q 959 1119 1226 758 
Q 1494 397 1959 397 
Q 2419 397 2687 759 
Q 2956 1122 2956 1747 
Q 2956 2369 2687 2733 
Q 2419 3097 1959 3097 
z
M 1959 3584 
Q 2709 3584 3137 3096 
Q 3566 2609 3566 1747 
Q 3566 888 3137 398 
Q 2709 -91 1959 -91 
Q 1206 -91 779 398 
Q 353 888 353 1747 
Q 353 2609 779 3096 
Q 1206 3584 1959 3584 
z
" id="DejaVuSans-6f" transform="scale(0.015625)"/>
      <path d="M 2631 2963 
Q 2534 3019 2420 3045 
Q 2306 3072 2169 3072 
Q 1681 3072 1420 2755 
Q 1159 2438 1159 1844 
L 1159 0 
L 581 0 
L 581 3500 
L 1159 3500 
L 1159 2956 
Q 1341 3275 1631 3429 
Q 1922 3584 2338 3584 
Q 2397 3584 2469 3576 
Q 2541 3569 2628 3553 
L 2631 2963 
z
" id="DejaVuSans-72" transform="scale(0.015625)"/>
      <path d="M 1172 4494 
L 1172 3500 
L 2356 3500 
L 2356 3053 
L 1172 3053 
L 1172 1153 
Q 1172 725 1289 603 
Q 1406 481 1766 481 
L 2356 481 
L 2356 0 
L 1766 0 
Q 1100 0 847 248 
Q 594 497 594 1153 
L 594 3053 
L 172 3053 
L 172 3500 
L 594 3500 
L 594 4494 
L 1172 4494 
z
" id="DejaVuSans-74" transform="scale(0.015625)"/>
      <path d="M 3513 2113 
L 3513 0 
L 2938 0 
L 2938 2094 
Q 2938 2591 2744 2837 
Q 2550 3084 2163 3084 
Q 1697 3084 1428 2787 
Q 1159 2491 1159 1978 
L 1159 0 
L 581 0 
L 581 4863 
L 1159 4863 
L 1159 2956 
Q 1366 3272 1645 3428 
Q 1925 3584 2291 3584 
Q 2894 3584 3203 3211 
Q 3513 2838 3513 2113 
z
" id="DejaVuSans-68" transform="scale(0.015625)"/>
      <path d="M 3122 3366 
L 3122 2828 
Q 2878 2963 2633 3030 
Q 2388 3097 2138 3097 
Q 1578 3097 1268 2742 
Q 959 2388 959 1747 
Q 959 1106 1268 751 
Q 1578 397 2138 397 
Q 2388 397 2633 464 
Q 2878 531 3122 666 
L 3122 134 
Q 2881 22 2623 -34 
Q 2366 -91 2075 -91 
Q 1284 -91 818 406 
Q 353 903 353 1747 
Q 353 2603 823 3093 
Q 1294 3584 2113 3584 
Q 2378 3584 2631 3529 
Q 2884 3475 3122 3366 
z
" id="DejaVuSans-63" transform="scale(0.015625)"/>
      <path d="M 3597 1894 
L 3597 1613 
L 953 1613 
Q 991 1019 1311 708 
Q 1631 397 2203 397 
Q 2534 397 2845 478 
Q 3156 559 3463 722 
L 3463 178 
Q 3153 47 2828 -22 
Q 2503 -91 2169 -91 
Q 1331 -91 842 396 
Q 353 884 353 1716 
Q 353 2575 817 3079 
Q 1281 3584 2069 3584 
Q 2775 3584 3186 3129 
Q 3597 2675 3597 1894 
z
M 3022 2063 
Q 3016 2534 2758 2815 
Q 2500 3097 2075 3097 
Q 1594 3097 1305 2825 
Q 1016 2553 972 2059 
L 3022 2063 
z
" id="DejaVuSans-65" transform="scale(0.015625)"/>
      <path d="M 3513 2113 
L 3513 0 
L 2938 0 
L 2938 2094 
Q 2938 2591 2744 2837 
Q 2550 3084 2163 3084 
Q 1697 3084 1428 2787 
Q 1159 2491 1159 1978 
L 1159 0 
L 581 0 
L 581 3500 
L 1159 3500 
L 1159 2956 
Q 1366 3272 1645 3428 
Q 1925 3584 2291 3584 
Q 2894 3584 3203 3211 
Q 3513 2838 3513 2113 
z
" id="DejaVuSans-6e" transform="scale(0.015625)"/>
     </defs>
     <use xlink:href="#DejaVuSans-6f"/>
     <use x="61.181641" xlink:href="#DejaVuSans-72"/>
     <use x="102.294922" xlink:href="#DejaVuSans-74"/>
     <use x="141.503906" xlink:href="#DejaVuSans-68"/>
     <use x="204.882812" xlink:href="#DejaVuSans-6f"/>
     <use x="266.064453" xlink:href="#DejaVuSans-63"/>
     <use x="321.044922" xlink:href="#DejaVuSans-65"/>
     <use x="382.568359" xlink:href="#DejaVuSans-6e"/>
     <use x="445.947266" xlink:href="#DejaVuSans-74"/>
     <use x="485.15625" xlink:href="#DejaVuSans-65"/>
     <use x="546.679688" xlink:href="#DejaVuSans-72"/>
    </g>
   </g>
   <g id="PathCollection_3">
    <defs>
     <path d="M 0 3 
C 0.795609 3 1.55874 2.683901 2.12132 2.12132 
C 2.683901 1.55874 3 0.795609 3 0 
C 3 -0.795609 2.683901 -1.55874 2.12132 -2.12132 
C 1.55874 -2.683901 0.795609 -3 0 -3 
C -0.795609 -3 -1.55874 -2.683901 -2.12132 -2.12132 
C -2.683901 -1.55874 -3 -0.795609 -3 0 
C -3 0.795609 -2.683901 1.55874 -2.12132 2.12132 
C -1.55874 2.683901 -0.795609 3 0 3 
z
" id="m8257ed6016" style="stroke:#ff0000;"/>
    </defs>
    <g clip-path="url(#p9c3ada019c)">
     <use style="fill:#ff0000;stroke:#ff0000;" x="80.323549" xlink:href="#m8257ed6016" y="210.511831"/>
    </g>
   </g>
  </g>
 </g>
 <defs>
  <clipPath id="p9c3ada019c">
   <rect height="217.44" width="217.44" x="7.2" y="22.318125"/>
  </clipPath>
 </defs>
</svg>
