<?xml version="1.0" encoding="utf-8" standalone="no"?>
<!DOCTYPE svg PUBLIC "-//W3C//DTD SVG 1.1//EN"
  "http://www.w3.org/Graphics/SVG/1.1/DTD/svg11.dtd">
<svg height="231.84pt" version="1.1" viewBox="0 0 231.84 231.84" width="231.84pt" xmlns="http://www.w3.org/2000/svg" xmlns:xlink="http://www.w3.org/1999/xlink">
 <metadata>
  <rdf:RDF xmlns:cc="http://creativecommons.org/ns#" xmlns:dc="http://purl.org/dc/elements/1.1/" xmlns:rdf="http://www.w3.org/1999/02/22-rdf-syntax-ns#">
   <cc:Work>
    <dc:type rdf:resource="http://purl.org/dc/dcmitype/StillImage"/>
    <dc:date>2021-05-02T21:59:17.845757</dc:date>
    <dc:format>image/svg+xml</dc:format>
    <dc:creator>
     <cc:Agent>
      <dc:title>Matplotlib v3.4.1, https://matplotlib.org/</dc:title>
     </cc:Agent>
    </dc:creator>
   </cc:Work>
  </rdf:RDF>
 </metadata>
 <defs>
  <style type="text/css">*{stroke-linecap:butt;stroke-linejoin:round;}</style>
 </defs>
 <g id="figure_1">
  <g id="patch_1">
   <path d="M 0 231.84 
L 231.84 231.84 
L 231.84 0 
L 0 0 
z
" style="fill:#ffffff;"/>
  </g>
  <g id="axes_1">
   <g id="line2d_1">
    <path clip-path="url(#pb19acb6282)" d="M 168.420645 211.123151 
L 169.681555 210.240302 
L 170.794287 209.097485 
L 171.755773 207.697851 
L 172.563364 206.045257 
L 173.214833 204.144258 
L 173.708386 202.000094 
L 174.042661 199.618675 
L 174.216737 197.006564 
L 174.198875 193.177427 
L 173.895501 188.969802 
L 173.308101 184.4043 
L 172.439553 179.50329 
L 171.294111 174.29078 
L 169.877388 168.792308 
L 168.196325 163.034811 
L 165.735932 155.516767 
L 162.894297 147.695686 
L 159.693165 139.631426 
L 156.157036 131.385701 
L 152.312972 123.021616 
L 148.190391 114.603183 
L 143.820843 106.194827 
L 139.23777 97.860898 
L 134.476244 89.665176 
L 129.572708 81.670384 
L 124.564686 73.937704 
L 119.490506 66.526317 
L 114.389001 59.492942 
L 109.299213 52.891404 
L 104.260094 46.772227 
L 99.310209 41.18224 
L 95.440036 37.12016 
L 91.670196 33.444126 
L 88.019157 30.172147 
L 84.504806 27.320252 
L 81.14436 24.902414 
L 77.954283 22.930477 
L 75.682964 21.750042 
L 73.522547 20.82916 
L 71.478986 20.170369 
L 69.557915 19.775485 
L 67.764628 19.645596 
L 66.104068 19.78106 
L 64.580811 20.181505 
L 63.643675 20.595164 
L 63.643675 20.595164 
" style="fill:none;stroke:#ffbbbb;stroke-linecap:square;stroke-width:1.5;"/>
   </g>
   <g id="line2d_2">
    <path clip-path="url(#pb19acb6282)" d="M 30.559904 183.242213 
L 28.87459 180.777523 
L 27.429193 178.134072 
L 26.227695 175.319146 
L 25.273409 172.340502 
L 24.568965 169.206351 
L 24.116304 165.925332 
L 23.916675 162.506487 
L 23.970626 158.959239 
L 24.27801 155.293366 
L 24.837979 151.518971 
L 25.64899 147.646458 
L 26.708808 143.686499 
L 28.014511 139.65001 
L 29.562501 135.548116 
L 31.348511 131.392123 
L 33.367619 127.193485 
L 35.614258 122.963775 
L 38.082238 118.714651 
L 40.764756 114.457824 
L 43.654418 110.205027 
L 46.74326 105.967982 
L 50.022768 101.758367 
L 54.676341 96.208254 
L 59.629952 90.754711 
L 64.859331 85.424454 
L 70.338859 80.243597 
L 76.041693 75.237521 
L 81.939894 70.430751 
L 88.004565 65.846837 
L 94.205996 61.508233 
L 100.513805 57.436197 
L 106.89709 53.650677 
L 113.324579 50.170219 
L 119.764783 47.011873 
L 124.584298 44.86387 
L 129.379933 42.911713 
L 134.13847 41.160782 
L 138.846792 39.615904 
L 143.491923 38.281337 
L 148.06106 37.160759 
L 152.541609 36.257259 
L 156.92122 35.573326 
L 161.187824 35.110847 
L 165.329659 34.871095 
L 169.335311 34.854732 
L 173.193739 35.061802 
L 176.894307 35.491735 
L 180.426817 36.143346 
L 183.781533 37.014838 
L 186.949207 38.103811 
L 189.921109 39.407262 
L 192.689048 40.921598 
L 195.245394 42.642647 
L 197.583103 44.565664 
L 199.69573 46.685349 
L 200.348897 47.43462 
L 200.348897 47.43462 
" style="fill:none;stroke:#bbbbff;stroke-linecap:square;stroke-width:1.5;"/>
   </g>
   <g id="PathCollection_1">
    <defs>
     <path d="M 0 3 
C 0.795609 3 1.55874 2.683901 2.12132 2.12132 
C 2.683901 1.55874 3 0.795609 3 0 
C 3 -0.795609 2.683901 -1.55874 2.12132 -2.12132 
C 1.55874 -2.683901 0.795609 -3 0 -3 
C -0.795609 -3 -1.55874 -2.683901 -2.12132 -2.12132 
C -2.683901 -1.55874 -3 -0.795609 -3 0 
C -3 0.795609 -2.683901 1.55874 -2.12132 2.12132 
C -1.55874 2.683901 -0.795609 3 0 3 
z
" id="m34c0f75bf7" style="stroke:#bbbbff;"/>
    </defs>
    <g clip-path="url(#pb19acb6282)">
     <use style="fill:#bbbbff;stroke:#bbbbff;" x="173.829414" xlink:href="#m34c0f75bf7" y="188.343474"/>
    </g>
   </g>
   <g id="patch_2">
    <path clip-path="url(#pb19acb6282)" d="M 115.92 224.64 
C 144.752881 224.64 172.408724 213.184575 192.796649 192.796649 
C 213.184575 172.408724 224.64 144.752881 224.64 115.92 
C 224.64 87.087119 213.184575 59.431276 192.796649 39.043351 
C 172.408724 18.655425 144.752881 7.2 115.92 7.2 
C 87.087119 7.2 59.431276 18.655425 39.043351 39.043351 
C 18.655425 59.431276 7.2 87.087119 7.2 115.92 
C 7.2 144.752881 18.655425 172.408724 39.043351 192.796649 
C 59.431276 213.184575 87.087119 224.64 115.92 224.64 
z
" style="fill:none;stroke:#000000;stroke-linejoin:miter;"/>
   </g>
   <g id="line2d_3">
    <path clip-path="url(#pb19acb6282)" d="M 115.92 170.28 
L 121.017403 177.016552 
L 126.075795 183.28553 
L 131.056465 189.038957 
L 134.959398 193.240771 
L 138.769056 197.063787 
L 142.466775 200.489273 
L 146.034439 203.500448 
L 149.454571 206.082561 
L 152.710415 208.222962 
L 155.034855 209.531998 
L 157.251487 210.583019 
L 159.3542 211.373127 
L 161.337199 211.900146 
L 163.195019 212.162623 
L 164.922538 212.159835 
L 166.514995 211.891788 
L 167.968002 211.359222 
M 63.199056 20.845825 
L 61.962612 21.772191 
L 60.874885 22.958048 
L 59.938876 24.400129 
L 59.157162 26.094459 
L 58.531899 28.036367 
L 58.06481 30.220502 
L 57.757183 32.640843 
L 57.609866 35.29072 
L 57.66345 39.168232 
L 58.002437 43.421757 
L 58.625167 48.030455 
L 59.528587 52.971748 
L 60.708273 58.22143 
L 62.158445 63.75378 
L 63.871998 69.541697 
L 66.371412 77.092676 
L 69.250022 84.940802 
L 72.4858 93.026013 
L 76.053981 101.286432 
L 79.927258 109.658843 
L 84.075988 118.07917 
L 88.468422 126.482974 
L 93.070944 134.805938 
L 97.84833 142.984368 
L 102.76402 150.955673 
L 107.780393 158.658849 
L 112.859058 166.034943 
L 115.92 170.28 
L 115.92 170.28 
" style="fill:none;stroke:#ff0000;stroke-linecap:square;stroke-width:1.5;"/>
   </g>
   <g id="line2d_4">
    <path clip-path="url(#pb19acb6282)" d="M 170.28 143.1 
L 164.953744 148.377256 
L 159.387268 153.495501 
L 153.607844 158.429661 
L 147.643784 163.155564 
L 141.524307 167.650056 
L 135.279392 171.891119 
L 128.939635 175.857976 
L 122.536094 179.531193 
L 116.10014 182.892775 
L 109.663303 185.926252 
L 104.854071 187.977039 
L 100.075339 189.829221 
L 95.340278 191.477693 
L 90.661939 192.917912 
L 86.053217 194.145907 
L 81.526815 195.158295 
L 77.095207 195.952285 
L 72.770609 196.525689 
L 68.56494 196.876926 
L 64.489792 197.005027 
L 60.556397 196.909641 
L 56.775597 196.59103 
L 53.157811 196.050071 
L 49.713011 195.288257 
L 46.450692 194.307687 
L 43.379846 193.111063 
L 40.508936 191.701683 
L 37.845876 190.083433 
L 35.398004 188.260772 
L 33.17207 186.238724 
L 31.174206 184.022863 
M 200.976202 48.204869 
L 202.701067 50.639091 
L 204.186746 53.253242 
L 205.429141 56.040115 
L 206.42483 58.992031 
L 207.171068 62.100852 
L 207.665799 65.358011 
L 207.907657 68.75453 
L 207.895978 72.281047 
L 207.630793 75.927842 
L 207.112833 79.684865 
L 206.343525 83.541759 
L 205.324991 87.487895 
L 204.060037 91.512397 
L 202.55215 95.60417 
L 200.805486 99.751939 
L 198.824858 103.94427 
L 196.615727 108.169609 
L 194.184181 112.41631 
L 191.536922 116.672668 
L 188.681246 120.926951 
L 185.625024 125.167434 
L 182.37668 129.382429 
L 177.762246 134.942709 
L 172.844842 140.409796 
L 170.28 143.1 
L 170.28 143.1 
" style="fill:none;stroke:#0000ff;stroke-linecap:square;stroke-width:1.5;"/>
   </g>
   <g id="text_1">
    <!-- $\mathbf{\hat{a}}$ -->
    <g transform="translate(164.844 135.4896)scale(0.1 -0.1)">
     <defs>
      <path d="M -1986 5119 
L -1230 5119 
L -430 3944 
L -986 3944 
L -1608 4647 
L -2230 3944 
L -2786 3944 
L -1986 5119 
z
" id="DejaVuSans-Bold-302" transform="scale(0.015625)"/>
      <path d="M 2106 1575 
Q 1756 1575 1579 1456 
Q 1403 1338 1403 1106 
Q 1403 894 1545 773 
Q 1688 653 1941 653 
Q 2256 653 2472 879 
Q 2688 1106 2688 1447 
L 2688 1575 
L 2106 1575 
z
M 3816 1997 
L 3816 0 
L 2688 0 
L 2688 519 
Q 2463 200 2181 54 
Q 1900 -91 1497 -91 
Q 953 -91 614 226 
Q 275 544 275 1050 
Q 275 1666 698 1953 
Q 1122 2241 2028 2241 
L 2688 2241 
L 2688 2328 
Q 2688 2594 2478 2717 
Q 2269 2841 1825 2841 
Q 1466 2841 1156 2769 
Q 847 2697 581 2553 
L 581 3406 
Q 941 3494 1303 3539 
Q 1666 3584 2028 3584 
Q 2975 3584 3395 3211 
Q 3816 2838 3816 1997 
z
" id="DejaVuSans-Bold-61" transform="scale(0.015625)"/>
     </defs>
     <use transform="translate(67.401367 7.015625)" xlink:href="#DejaVuSans-Bold-302"/>
     <use transform="translate(0 0.140625)" xlink:href="#DejaVuSans-Bold-61"/>
    </g>
   </g>
   <g id="text_2">
    <!-- $\mathbf{\hat{c}}$ -->
    <g transform="translate(197.46 69.1704)scale(0.1 -0.1)">
     <defs>
      <path d="M 3366 3391 
L 3366 2478 
Q 3138 2634 2908 2709 
Q 2678 2784 2431 2784 
Q 1963 2784 1702 2511 
Q 1441 2238 1441 1747 
Q 1441 1256 1702 982 
Q 1963 709 2431 709 
Q 2694 709 2930 787 
Q 3166 866 3366 1019 
L 3366 103 
Q 3103 6 2833 -42 
Q 2563 -91 2291 -91 
Q 1344 -91 809 395 
Q 275 881 275 1747 
Q 275 2613 809 3098 
Q 1344 3584 2291 3584 
Q 2566 3584 2833 3536 
Q 3100 3488 3366 3391 
z
" id="DejaVuSans-Bold-63" transform="scale(0.015625)"/>
     </defs>
     <use transform="translate(62.350586 7.015625)" xlink:href="#DejaVuSans-Bold-302"/>
     <use transform="translate(0 0.140625)" xlink:href="#DejaVuSans-Bold-63"/>
    </g>
   </g>
   <g id="text_3">
    <!-- $\mathbf{\hat{g}}$ -->
    <g style="fill:#888888;" transform="translate(170.28 181.152)scale(0.1 -0.1)">
     <defs>
      <path d="M 2919 594 
Q 2688 288 2409 144 
Q 2131 0 1766 0 
Q 1125 0 706 504 
Q 288 1009 288 1791 
Q 288 2575 706 3076 
Q 1125 3578 1766 3578 
Q 2131 3578 2409 3434 
Q 2688 3291 2919 2981 
L 2919 3500 
L 4044 3500 
L 4044 353 
Q 4044 -491 3511 -936 
Q 2978 -1381 1966 -1381 
Q 1638 -1381 1331 -1331 
Q 1025 -1281 716 -1178 
L 716 -306 
Q 1009 -475 1290 -558 
Q 1572 -641 1856 -641 
Q 2406 -641 2662 -400 
Q 2919 -159 2919 353 
L 2919 594 
z
M 2181 2772 
Q 1834 2772 1640 2515 
Q 1447 2259 1447 1791 
Q 1447 1309 1634 1061 
Q 1822 813 2181 813 
Q 2531 813 2725 1069 
Q 2919 1325 2919 1791 
Q 2919 2259 2725 2515 
Q 2531 2772 2181 2772 
z
" id="DejaVuSans-Bold-67" transform="scale(0.015625)"/>
     </defs>
     <use transform="translate(69.426758 7.015625)" xlink:href="#DejaVuSans-Bold-302"/>
     <use transform="translate(0 0.234375)" xlink:href="#DejaVuSans-Bold-67"/>
    </g>
   </g>
   <g id="text_4">
    <!-- $\mathbf{\hat{x}}$ -->
    <g transform="translate(119.1816 174.6288)scale(0.1 -0.1)">
     <defs>
      <path d="M 1422 1791 
L 159 3500 
L 1344 3500 
L 2059 2463 
L 2784 3500 
L 3969 3500 
L 2706 1797 
L 4031 0 
L 2847 0 
L 2059 1106 
L 1281 0 
L 97 0 
L 1422 1791 
z
" id="DejaVuSans-Bold-78" transform="scale(0.015625)"/>
     </defs>
     <use transform="translate(65.656738 6.015625)" xlink:href="#DejaVuSans-Bold-302"/>
     <use transform="translate(0 0.453125)" xlink:href="#DejaVuSans-Bold-78"/>
    </g>
   </g>
   <g id="text_5">
    <!-- $-\mathbf{\hat{x}}$ -->
    <g style="fill:#888888;" transform="translate(99.612 46.3392)scale(0.1 -0.1)">
     <defs>
      <path d="M 678 2272 
L 4684 2272 
L 4684 1741 
L 678 1741 
L 678 2272 
z
" id="DejaVuSans-2212" transform="scale(0.015625)"/>
     </defs>
     <use transform="translate(0 0.453125)" xlink:href="#DejaVuSans-2212"/>
     <use transform="translate(149.445801 6.015625)" xlink:href="#DejaVuSans-Bold-302"/>
     <use transform="translate(83.789062 0.453125)" xlink:href="#DejaVuSans-Bold-78"/>
    </g>
   </g>
   <g id="PathCollection_2">
    <defs>
     <path d="M 0 3 
C 0.795609 3 1.55874 2.683901 2.12132 2.12132 
C 2.683901 1.55874 3 0.795609 3 0 
C 3 -0.795609 2.683901 -1.55874 2.12132 -2.12132 
C 1.55874 -2.683901 0.795609 -3 0 -3 
C -0.795609 -3 -1.55874 -2.683901 -2.12132 -2.12132 
C -2.683901 -1.55874 -3 -0.795609 -3 0 
C -3 0.795609 -2.683901 1.55874 -2.12132 2.12132 
C -1.55874 2.683901 -0.795609 3 0 3 
z
" id="mf9ab5a135c" style="stroke:#ff0000;"/>
    </defs>
    <g clip-path="url(#pb19acb6282)">
     <use style="fill:#ff0000;stroke:#ff0000;" x="207.671505" xlink:href="#mf9ab5a135c" y="65.409855"/>
    </g>
   </g>
   <g id="PathCollection_3">
    <defs>
     <path d="M 0 3 
C 0.795609 3 1.55874 2.683901 2.12132 2.12132 
C 2.683901 1.55874 3 0.795609 3 0 
C 3 -0.795609 2.683901 -1.55874 2.12132 -2.12132 
C 1.55874 -2.683901 0.795609 -3 0 -3 
C -0.795609 -3 -1.55874 -2.683901 -2.12132 -2.12132 
C -2.683901 -1.55874 -3 -0.795609 -3 0 
C -3 0.795609 -2.683901 1.55874 -2.12132 2.12132 
C -1.55874 2.683901 -0.795609 3 0 3 
z
" id="m1e765caa0b" style="stroke:#008000;"/>
    </defs>
    <g clip-path="url(#pb19acb6282)">
     <use style="fill:#008000;stroke:#008000;" x="170.28" xlink:href="#m1e765caa0b" y="143.1"/>
    </g>
   </g>
   <g id="PathCollection_4">
    <defs>
     <path d="M 0 3 
C 0.795609 3 1.55874 2.683901 2.12132 2.12132 
C 2.683901 1.55874 3 0.795609 3 0 
C 3 -0.795609 2.683901 -1.55874 2.12132 -2.12132 
C 1.55874 -2.683901 0.795609 -3 0 -3 
C -0.795609 -3 -1.55874 -2.683901 -2.12132 -2.12132 
C -2.683901 -1.55874 -3 -0.795609 -3 0 
C -3 0.795609 -2.683901 1.55874 -2.12132 2.12132 
C -1.55874 2.683901 -0.795609 3 0 3 
z
" id="m6401952960" style="stroke:#000000;"/>
    </defs>
    <g clip-path="url(#pb19acb6282)">
     <use style="stroke:#000000;" x="122.862579" xlink:href="#m6401952960" y="179.351885"/>
    </g>
   </g>
   <g id="PathCollection_5">
    <defs>
     <path d="M 0 3 
C 0.795609 3 1.55874 2.683901 2.12132 2.12132 
C 2.683901 1.55874 3 0.795609 3 0 
C 3 -0.795609 2.683901 -1.55874 2.12132 -2.12132 
C 1.55874 -2.683901 0.795609 -3 0 -3 
C -0.795609 -3 -1.55874 -2.683901 -2.12132 -2.12132 
C -2.683901 -1.55874 -3 -0.795609 -3 0 
C -3 0.795609 -2.683901 1.55874 -2.12132 2.12132 
C -1.55874 2.683901 -0.795609 3 0 3 
z
" id="mf94d317fc2" style="stroke:#bbbbbb;"/>
    </defs>
    <g clip-path="url(#pb19acb6282)">
     <use style="fill:#bbbbbb;stroke:#bbbbbb;" x="108.977421" xlink:href="#mf94d317fc2" y="52.488115"/>
    </g>
   </g>
  </g>
 </g>
 <defs>
  <clipPath id="pb19acb6282">
   <rect height="217.44" width="217.44" x="7.2" y="7.2"/>
  </clipPath>
 </defs>
</svg>
