<?xml version="1.0" encoding="utf-8" standalone="no"?>
<!DOCTYPE svg PUBLIC "-//W3C//DTD SVG 1.1//EN"
  "http://www.w3.org/Graphics/SVG/1.1/DTD/svg11.dtd">
<svg height="231.84pt" version="1.1" viewBox="0 0 231.84 231.84" width="231.84pt" xmlns="http://www.w3.org/2000/svg" xmlns:xlink="http://www.w3.org/1999/xlink">
 <metadata>
  <rdf:RDF xmlns:cc="http://creativecommons.org/ns#" xmlns:dc="http://purl.org/dc/elements/1.1/" xmlns:rdf="http://www.w3.org/1999/02/22-rdf-syntax-ns#">
   <cc:Work>
    <dc:type rdf:resource="http://purl.org/dc/dcmitype/StillImage"/>
    <dc:date>2021-05-02T21:18:10.747092</dc:date>
    <dc:format>image/svg+xml</dc:format>
    <dc:creator>
     <cc:Agent>
      <dc:title>Matplotlib v3.4.1, https://matplotlib.org/</dc:title>
     </cc:Agent>
    </dc:creator>
   </cc:Work>
  </rdf:RDF>
 </metadata>
 <defs>
  <style type="text/css">*{stroke-linecap:butt;stroke-linejoin:round;}</style>
 </defs>
 <g id="figure_1">
  <g id="patch_1">
   <path d="M 0 231.84 
L 231.84 231.84 
L 231.84 0 
L 0 0 
z
" style="fill:#ffffff;"/>
  </g>
  <g id="axes_1">
   <g id="line2d_1">
    <path clip-path="url(#p68dfb5c873)" d="M 168.420645 211.123151 
L 169.681555 210.240302 
L 170.794287 209.097485 
L 171.755773 207.697851 
L 172.563364 206.045257 
L 173.214833 204.144258 
L 173.708386 202.000094 
L 174.042661 199.618675 
L 174.216737 197.006564 
L 174.198875 193.177427 
L 173.895501 188.969802 
L 173.308101 184.4043 
L 172.439553 179.50329 
L 171.294111 174.29078 
L 169.877388 168.792308 
L 168.196325 163.034811 
L 165.735932 155.516767 
L 162.894297 147.695686 
L 159.693165 139.631426 
L 156.157036 131.385701 
L 152.312972 123.021616 
L 148.190391 114.603183 
L 143.820843 106.194827 
L 139.23777 97.860898 
L 134.476244 89.665176 
L 129.572708 81.670384 
L 124.564686 73.937704 
L 119.490506 66.526317 
L 114.389001 59.492942 
L 109.299213 52.891404 
L 104.260094 46.772227 
L 99.310209 41.18224 
L 95.440036 37.12016 
L 91.670196 33.444126 
L 88.019157 30.172147 
L 84.504806 27.320252 
L 81.14436 24.902414 
L 77.954283 22.930477 
L 75.682964 21.750042 
L 73.522547 20.82916 
L 71.478986 20.170369 
L 69.557915 19.775485 
L 67.764628 19.645596 
L 66.104068 19.78106 
L 64.580811 20.181505 
L 63.643675 20.595164 
L 63.643675 20.595164 
" style="fill:none;stroke:#ffbbbb;stroke-linecap:square;stroke-width:1.5;"/>
   </g>
   <g id="line2d_2">
    <path clip-path="url(#p68dfb5c873)" d="M 214.513585 70.11759 
L 213.208849 67.798931 
L 211.635965 65.612903 
L 209.799266 63.565533 
L 207.703816 61.662463 
L 205.355389 59.908939 
L 202.76046 58.309794 
L 199.926178 56.869434 
L 196.860358 55.591831 
L 193.571448 54.480506 
L 190.068514 53.538521 
L 186.36121 52.768473 
L 182.459755 52.172485 
L 178.374902 51.752199 
L 174.11791 51.508773 
L 169.700511 51.442878 
L 165.134882 51.554697 
L 160.433606 51.84392 
L 153.976677 52.504066 
L 147.333305 53.474891 
L 140.536038 54.751639 
L 133.618175 56.328055 
L 126.613607 58.196415 
L 119.556651 60.347568 
L 112.481879 62.770974 
L 105.42395 65.45476 
L 98.417442 68.385779 
L 91.49668 71.549671 
L 84.69557 74.930937 
L 78.04743 78.51301 
L 71.584831 82.278343 
L 65.339433 86.208489 
L 59.341832 90.284194 
L 53.621411 94.48549 
L 48.206196 98.791795 
L 43.122715 103.182013 
L 38.395873 107.634634 
L 35.098785 111.00194 
L 32.024458 114.3828 
L 29.181365 117.767898 
L 26.577343 121.147902 
L 24.219569 124.513497 
L 22.114541 127.855406 
L 20.268061 131.164419 
L 18.685219 134.431415 
L 17.370377 137.647389 
L 16.32716 140.803478 
L 15.558442 143.890983 
L 15.066343 146.901393 
L 14.852218 149.826412 
L 14.916658 152.657978 
L 15.259485 155.388286 
L 15.879754 158.00981 
L 16.775757 160.515326 
L 16.775757 160.515326 
" style="fill:none;stroke:#bbbbff;stroke-linecap:square;stroke-width:1.5;"/>
   </g>
   <g id="line2d_3">
    <path clip-path="url(#p68dfb5c873)" d="M 29.681273 49.727736 
L 29.406442 50.436715 
L 29.370063 51.326181 
L 29.572233 52.393681 
L 30.012397 53.636274 
L 30.967303 55.559442 
L 32.338398 57.77832 
L 34.118965 60.282039 
L 36.907016 63.793429 
L 40.299757 67.703745 
L 45.132363 72.880371 
L 50.744856 78.531176 
L 57.075401 84.593905 
L 65.275124 92.098383 
L 74.234051 99.959965 
L 83.817883 108.0608 
L 93.88295 116.279451 
L 104.278369 124.492713 
L 114.848305 132.577464 
L 125.434306 140.412506 
L 135.877681 147.880388 
L 146.021875 154.869159 
L 155.714819 161.274052 
L 164.811208 166.999054 
L 172.029654 171.299702 
L 178.629925 174.990216 
L 184.539304 178.029938 
L 188.888804 180.04152 
L 192.679873 181.562379 
L 195.883495 182.580874 
L 198.006799 183.028599 
L 199.727956 183.147555 
L 200.749765 183.020606 
L 201.537765 182.708713 
L 201.932105 182.398441 
L 201.932105 182.398441 
" style="fill:none;stroke:#bbffbb;stroke-linecap:square;stroke-width:1.5;"/>
   </g>
   <g id="PathCollection_1">
    <defs>
     <path d="M 0 3 
C 0.795609 3 1.55874 2.683901 2.12132 2.12132 
C 2.683901 1.55874 3 0.795609 3 0 
C 3 -0.795609 2.683901 -1.55874 2.12132 -2.12132 
C 1.55874 -2.683901 0.795609 -3 0 -3 
C -0.795609 -3 -1.55874 -2.683901 -2.12132 -2.12132 
C -2.683901 -1.55874 -3 -0.795609 -3 0 
C -3 0.795609 -2.683901 1.55874 -2.12132 2.12132 
C -1.55874 2.683901 -0.795609 3 0 3 
z
" id="mb598df622c" style="stroke:#ff0000;"/>
    </defs>
    <g clip-path="url(#p68dfb5c873)">
     <use style="fill:#ff0000;stroke:#ff0000;" x="207.671505" xlink:href="#mb598df622c" y="65.409855"/>
    </g>
   </g>
   <g id="PathCollection_2">
    <defs>
     <path d="M 0 3 
C 0.795609 3 1.55874 2.683901 2.12132 2.12132 
C 2.683901 1.55874 3 0.795609 3 0 
C 3 -0.795609 2.683901 -1.55874 2.12132 -2.12132 
C 1.55874 -2.683901 0.795609 -3 0 -3 
C -0.795609 -3 -1.55874 -2.683901 -2.12132 -2.12132 
C -2.683901 -1.55874 -3 -0.795609 -3 0 
C -3 0.795609 -2.683901 1.55874 -2.12132 2.12132 
C -1.55874 2.683901 -0.795609 3 0 3 
z
" id="mbbf0a8e8d5" style="stroke:#0000ff;"/>
    </defs>
    <g clip-path="url(#p68dfb5c873)">
     <use style="fill:#0000ff;stroke:#0000ff;" x="75.87867" xlink:href="#mbbf0a8e8d5" y="28.38402"/>
    </g>
   </g>
   <g id="PathCollection_3">
    <defs>
     <path d="M 0 3 
C 0.795609 3 1.55874 2.683901 2.12132 2.12132 
C 2.683901 1.55874 3 0.795609 3 0 
C 3 -0.795609 2.683901 -1.55874 2.12132 -2.12132 
C 1.55874 -2.683901 0.795609 -3 0 -3 
C -0.795609 -3 -1.55874 -2.683901 -2.12132 -2.12132 
C -2.683901 -1.55874 -3 -0.795609 -3 0 
C -3 0.795609 -2.683901 1.55874 -2.12132 2.12132 
C -1.55874 2.683901 -0.795609 3 0 3 
z
" id="mbaba9a4fe8" style="stroke:#008000;"/>
    </defs>
    <g clip-path="url(#p68dfb5c873)">
     <use style="fill:#008000;stroke:#008000;" x="50.14271" xlink:href="#mbaba9a4fe8" y="201.36043"/>
    </g>
   </g>
   <g id="patch_2">
    <path clip-path="url(#p68dfb5c873)" d="M 115.92 224.64 
C 144.752881 224.64 172.408724 213.184575 192.796649 192.796649 
C 213.184575 172.408724 224.64 144.752881 224.64 115.92 
C 224.64 87.087119 213.184575 59.431276 192.796649 39.043351 
C 172.408724 18.655425 144.752881 7.2 115.92 7.2 
C 87.087119 7.2 59.431276 18.655425 39.043351 39.043351 
C 18.655425 59.431276 7.2 87.087119 7.2 115.92 
C 7.2 144.752881 18.655425 172.408724 39.043351 192.796649 
C 59.431276 213.184575 87.087119 224.64 115.92 224.64 
z
" style="fill:none;stroke:#000000;stroke-linejoin:miter;"/>
   </g>
   <g id="line2d_4">
    <path clip-path="url(#p68dfb5c873)" d="M 115.92 170.28 
L 121.017403 177.016552 
L 126.075795 183.28553 
L 131.056465 189.038957 
L 134.959398 193.240771 
L 138.769056 197.063787 
L 142.466775 200.489273 
L 146.034439 203.500448 
L 149.454571 206.082561 
L 152.710415 208.222962 
L 155.034855 209.531998 
L 157.251487 210.583019 
L 159.3542 211.373127 
L 161.337199 211.900146 
L 163.195019 212.162623 
L 164.922538 212.159835 
L 166.514995 211.891788 
L 167.968002 211.359222 
M 63.199056 20.845825 
L 61.962612 21.772191 
L 60.874885 22.958048 
L 59.938876 24.400129 
L 59.157162 26.094459 
L 58.531899 28.036367 
L 58.06481 30.220502 
L 57.757183 32.640843 
L 57.609866 35.29072 
L 57.66345 39.168232 
L 58.002437 43.421757 
L 58.625167 48.030455 
L 59.528587 52.971748 
L 60.708273 58.22143 
L 62.158445 63.75378 
L 63.871998 69.541697 
L 66.371412 77.092676 
L 69.250022 84.940802 
L 72.4858 93.026013 
L 76.053981 101.286432 
L 79.927258 109.658843 
L 84.075988 118.07917 
L 88.468422 126.482974 
L 93.070944 134.805938 
L 97.84833 142.984368 
L 102.76402 150.955673 
L 107.780393 158.658849 
L 112.859058 166.034943 
L 115.92 170.28 
L 115.92 170.28 
" style="fill:none;stroke:#ff0000;stroke-linecap:square;stroke-width:1.5;"/>
   </g>
   <g id="line2d_5">
    <path clip-path="url(#p68dfb5c873)" d="M 170.28 143.1 
L 176.107723 138.94342 
L 181.640583 134.674046 
L 186.851473 130.312795 
L 191.714865 125.881033 
L 196.206932 121.40047 
L 199.318991 118.021223 
L 202.201185 114.636184 
L 204.845569 111.254683 
L 207.244854 107.886041 
L 209.392428 104.539542 
L 211.282372 101.22441 
L 212.909476 97.949783 
L 214.269256 94.724685 
L 215.357965 91.558007 
L 216.1726 88.458475 
L 216.710917 85.434633 
L 216.971433 82.494816 
L 216.953429 79.647125 
L 216.656955 76.899411 
L 216.082828 74.259246 
L 215.23263 71.733907 
L 214.888265 70.918856 
M 17.135293 161.323515 
L 18.394967 163.663668 
L 19.923441 165.87223 
L 21.716503 167.943112 
L 23.76921 169.870607 
L 26.075905 171.649402 
L 28.630229 173.274595 
L 31.425143 174.741707 
L 34.452944 176.046692 
L 37.705285 177.185956 
L 41.173204 178.156357 
L 44.84714 178.955221 
L 48.716969 179.580347 
L 52.772025 180.03001 
L 57.00113 180.302973 
L 61.392628 180.398482 
L 65.934415 180.316274 
L 70.613974 180.056576 
L 77.045353 179.435524 
L 83.667182 178.503304 
L 90.447019 177.264485 
L 97.351651 175.725135 
L 104.34725 173.892796 
L 111.399544 171.776444 
L 118.473985 169.386448 
L 125.535914 166.734516 
L 132.550733 163.83364 
L 139.484078 160.698032 
L 146.30198 157.343053 
L 152.971039 153.78514 
L 159.458583 150.041723 
L 165.732828 146.131141 
L 170.28 143.1 
L 170.28 143.1 
" style="fill:none;stroke:#0000ff;stroke-linecap:square;stroke-width:1.5;"/>
   </g>
   <g id="line2d_6">
    <path clip-path="url(#p68dfb5c873)" d="M 61.56 61.56 
L 54.798088 57.712869 
L 48.709572 54.507023 
L 44.198844 52.351057 
L 40.237001 50.681586 
L 36.854362 49.511388 
L 34.582829 48.940853 
L 32.709772 48.698453 
L 31.572075 48.732768 
L 30.666858 48.952264 
L 29.996618 49.356339 
L 29.82576 49.53187 
M 202.089783 182.212735 
L 202.404299 181.534041 
L 202.480446 180.674499 
L 202.318012 179.63648 
L 201.917448 178.422845 
L 201.014936 176.537333 
L 199.695539 174.354853 
L 197.96572 171.886097 
L 195.239389 168.41613 
L 191.906023 164.544408 
L 187.140934 159.409948 
L 181.591184 153.796348 
L 175.317917 147.765453 
L 168.390247 141.383709 
L 159.583058 133.588884 
L 150.121327 125.529189 
L 140.146892 117.325444 
L 129.809278 109.100632 
L 119.263453 100.978047 
L 108.667507 93.079453 
L 98.180281 85.523256 
L 87.958987 78.422729 
L 78.15685 71.884315 
L 68.920811 66.00603 
L 61.56 61.56 
L 61.56 61.56 
" style="fill:none;stroke:#008000;stroke-linecap:square;stroke-width:1.5;"/>
   </g>
   <g id="PathCollection_4">
    <defs>
     <path d="M 0 3 
C 0.795609 3 1.55874 2.683901 2.12132 2.12132 
C 2.683901 1.55874 3 0.795609 3 0 
C 3 -0.795609 2.683901 -1.55874 2.12132 -2.12132 
C 1.55874 -2.683901 0.795609 -3 0 -3 
C -0.795609 -3 -1.55874 -2.683901 -2.12132 -2.12132 
C -2.683901 -1.55874 -3 -0.795609 -3 0 
C -3 0.795609 -2.683901 1.55874 -2.12132 2.12132 
C -1.55874 2.683901 -0.795609 3 0 3 
z
" id="m6f8ae0e725" style="stroke:#000000;"/>
    </defs>
    <g clip-path="url(#p68dfb5c873)">
     <use style="stroke:#000000;" x="115.92" xlink:href="#m6f8ae0e725" y="170.28"/>
     <use style="stroke:#000000;" x="170.28" xlink:href="#m6f8ae0e725" y="143.1"/>
     <use style="stroke:#000000;" x="61.56" xlink:href="#m6f8ae0e725" y="61.56"/>
    </g>
   </g>
  </g>
 </g>
 <defs>
  <clipPath id="p68dfb5c873">
   <rect height="217.44" width="217.44" x="7.2" y="7.2"/>
  </clipPath>
 </defs>
</svg>
